<?xml version="1.0" encoding="utf-8" standalone="no"?>
<!DOCTYPE svg PUBLIC "-//W3C//DTD SVG 1.1//EN"
  "http://www.w3.org/Graphics/SVG/1.1/DTD/svg11.dtd">
<svg xmlns:xlink="http://www.w3.org/1999/xlink" width="792pt" height="288pt" viewBox="0 0 792 288" xmlns="http://www.w3.org/2000/svg" version="1.1">
 <metadata>
  <rdf:RDF xmlns:dc="http://purl.org/dc/elements/1.1/" xmlns:cc="http://creativecommons.org/ns#" xmlns:rdf="http://www.w3.org/1999/02/22-rdf-syntax-ns#">
   <cc:Work>
    <dc:type rdf:resource="http://purl.org/dc/dcmitype/StillImage"/>
    <dc:date>2025-03-02T21:58:23.340793</dc:date>
    <dc:format>image/svg+xml</dc:format>
    <dc:creator>
     <cc:Agent>
      <dc:title>Matplotlib v3.9.4, https://matplotlib.org/</dc:title>
     </cc:Agent>
    </dc:creator>
   </cc:Work>
  </rdf:RDF>
 </metadata>
 <defs>
  <style type="text/css">*{stroke-linejoin: round; stroke-linecap: butt}</style>
 </defs>
 <g id="figure_1">
  <g id="patch_1">
   <path d="M 0 288 
L 792 288 
L 792 0 
L 0 0 
z
" style="fill: #ffffff"/>
  </g>
  <g id="axes_1">
   <g id="patch_2">
    <path d="M 99 256.32 
L 712.8 256.32 
L 712.8 34.56 
L 99 34.56 
z
" style="fill: #ffffff"/>
   </g>
   <g id="matplotlib.axis_1">
    <g id="xtick_1">
     <g id="line2d_1">
      <path d="M 126.9 256.32 
L 126.9 34.56 
" clip-path="url(#p988c924c1b)" style="fill: none; stroke: #b0b0b0; stroke-width: 0.8; stroke-linecap: square"/>
     </g>
     <g id="line2d_2">
      <defs>
       <path id="md9303384a3" d="M 0 0 
L 0 3.5 
" style="stroke: #000000; stroke-width: 0.8"/>
      </defs>
      <g>
       <use xlink:href="#md9303384a3" x="126.9" y="256.32" style="stroke: #000000; stroke-width: 0.8"/>
      </g>
     </g>
     <g id="text_1">
      <!-- 0 -->
      <g transform="translate(123.71875 270.918437) scale(0.1 -0.1)">
       <defs>
        <path id="DejaVuSans-30" d="M 2034 4250 
Q 1547 4250 1301 3770 
Q 1056 3291 1056 2328 
Q 1056 1369 1301 889 
Q 1547 409 2034 409 
Q 2525 409 2770 889 
Q 3016 1369 3016 2328 
Q 3016 3291 2770 3770 
Q 2525 4250 2034 4250 
z
M 2034 4750 
Q 2819 4750 3233 4129 
Q 3647 3509 3647 2328 
Q 3647 1150 3233 529 
Q 2819 -91 2034 -91 
Q 1250 -91 836 529 
Q 422 1150 422 2328 
Q 422 3509 836 4129 
Q 1250 4750 2034 4750 
z
" transform="scale(0.015625)"/>
       </defs>
       <use xlink:href="#DejaVuSans-30"/>
      </g>
     </g>
    </g>
    <g id="xtick_2">
     <g id="line2d_3">
      <path d="M 238.5 256.32 
L 238.5 34.56 
" clip-path="url(#p988c924c1b)" style="fill: none; stroke: #b0b0b0; stroke-width: 0.8; stroke-linecap: square"/>
     </g>
     <g id="line2d_4">
      <g>
       <use xlink:href="#md9303384a3" x="238.5" y="256.32" style="stroke: #000000; stroke-width: 0.8"/>
      </g>
     </g>
     <g id="text_2">
      <!-- 2 -->
      <g transform="translate(235.31875 270.918437) scale(0.1 -0.1)">
       <defs>
        <path id="DejaVuSans-32" d="M 1228 531 
L 3431 531 
L 3431 0 
L 469 0 
L 469 531 
Q 828 903 1448 1529 
Q 2069 2156 2228 2338 
Q 2531 2678 2651 2914 
Q 2772 3150 2772 3378 
Q 2772 3750 2511 3984 
Q 2250 4219 1831 4219 
Q 1534 4219 1204 4116 
Q 875 4013 500 3803 
L 500 4441 
Q 881 4594 1212 4672 
Q 1544 4750 1819 4750 
Q 2544 4750 2975 4387 
Q 3406 4025 3406 3419 
Q 3406 3131 3298 2873 
Q 3191 2616 2906 2266 
Q 2828 2175 2409 1742 
Q 1991 1309 1228 531 
z
" transform="scale(0.015625)"/>
       </defs>
       <use xlink:href="#DejaVuSans-32"/>
      </g>
     </g>
    </g>
    <g id="xtick_3">
     <g id="line2d_5">
      <path d="M 350.1 256.32 
L 350.1 34.56 
" clip-path="url(#p988c924c1b)" style="fill: none; stroke: #b0b0b0; stroke-width: 0.8; stroke-linecap: square"/>
     </g>
     <g id="line2d_6">
      <g>
       <use xlink:href="#md9303384a3" x="350.1" y="256.32" style="stroke: #000000; stroke-width: 0.8"/>
      </g>
     </g>
     <g id="text_3">
      <!-- 4 -->
      <g transform="translate(346.91875 270.918437) scale(0.1 -0.1)">
       <defs>
        <path id="DejaVuSans-34" d="M 2419 4116 
L 825 1625 
L 2419 1625 
L 2419 4116 
z
M 2253 4666 
L 3047 4666 
L 3047 1625 
L 3713 1625 
L 3713 1100 
L 3047 1100 
L 3047 0 
L 2419 0 
L 2419 1100 
L 313 1100 
L 313 1709 
L 2253 4666 
z
" transform="scale(0.015625)"/>
       </defs>
       <use xlink:href="#DejaVuSans-34"/>
      </g>
     </g>
    </g>
    <g id="xtick_4">
     <g id="line2d_7">
      <path d="M 461.7 256.32 
L 461.7 34.56 
" clip-path="url(#p988c924c1b)" style="fill: none; stroke: #b0b0b0; stroke-width: 0.8; stroke-linecap: square"/>
     </g>
     <g id="line2d_8">
      <g>
       <use xlink:href="#md9303384a3" x="461.7" y="256.32" style="stroke: #000000; stroke-width: 0.8"/>
      </g>
     </g>
     <g id="text_4">
      <!-- 6 -->
      <g transform="translate(458.51875 270.918437) scale(0.1 -0.1)">
       <defs>
        <path id="DejaVuSans-36" d="M 2113 2584 
Q 1688 2584 1439 2293 
Q 1191 2003 1191 1497 
Q 1191 994 1439 701 
Q 1688 409 2113 409 
Q 2538 409 2786 701 
Q 3034 994 3034 1497 
Q 3034 2003 2786 2293 
Q 2538 2584 2113 2584 
z
M 3366 4563 
L 3366 3988 
Q 3128 4100 2886 4159 
Q 2644 4219 2406 4219 
Q 1781 4219 1451 3797 
Q 1122 3375 1075 2522 
Q 1259 2794 1537 2939 
Q 1816 3084 2150 3084 
Q 2853 3084 3261 2657 
Q 3669 2231 3669 1497 
Q 3669 778 3244 343 
Q 2819 -91 2113 -91 
Q 1303 -91 875 529 
Q 447 1150 447 2328 
Q 447 3434 972 4092 
Q 1497 4750 2381 4750 
Q 2619 4750 2861 4703 
Q 3103 4656 3366 4563 
z
" transform="scale(0.015625)"/>
       </defs>
       <use xlink:href="#DejaVuSans-36"/>
      </g>
     </g>
    </g>
    <g id="xtick_5">
     <g id="line2d_9">
      <path d="M 573.3 256.32 
L 573.3 34.56 
" clip-path="url(#p988c924c1b)" style="fill: none; stroke: #b0b0b0; stroke-width: 0.8; stroke-linecap: square"/>
     </g>
     <g id="line2d_10">
      <g>
       <use xlink:href="#md9303384a3" x="573.3" y="256.32" style="stroke: #000000; stroke-width: 0.8"/>
      </g>
     </g>
     <g id="text_5">
      <!-- 8 -->
      <g transform="translate(570.11875 270.918437) scale(0.1 -0.1)">
       <defs>
        <path id="DejaVuSans-38" d="M 2034 2216 
Q 1584 2216 1326 1975 
Q 1069 1734 1069 1313 
Q 1069 891 1326 650 
Q 1584 409 2034 409 
Q 2484 409 2743 651 
Q 3003 894 3003 1313 
Q 3003 1734 2745 1975 
Q 2488 2216 2034 2216 
z
M 1403 2484 
Q 997 2584 770 2862 
Q 544 3141 544 3541 
Q 544 4100 942 4425 
Q 1341 4750 2034 4750 
Q 2731 4750 3128 4425 
Q 3525 4100 3525 3541 
Q 3525 3141 3298 2862 
Q 3072 2584 2669 2484 
Q 3125 2378 3379 2068 
Q 3634 1759 3634 1313 
Q 3634 634 3220 271 
Q 2806 -91 2034 -91 
Q 1263 -91 848 271 
Q 434 634 434 1313 
Q 434 1759 690 2068 
Q 947 2378 1403 2484 
z
M 1172 3481 
Q 1172 3119 1398 2916 
Q 1625 2713 2034 2713 
Q 2441 2713 2670 2916 
Q 2900 3119 2900 3481 
Q 2900 3844 2670 4047 
Q 2441 4250 2034 4250 
Q 1625 4250 1398 4047 
Q 1172 3844 1172 3481 
z
" transform="scale(0.015625)"/>
       </defs>
       <use xlink:href="#DejaVuSans-38"/>
      </g>
     </g>
    </g>
    <g id="xtick_6">
     <g id="line2d_11">
      <path d="M 684.9 256.32 
L 684.9 34.56 
" clip-path="url(#p988c924c1b)" style="fill: none; stroke: #b0b0b0; stroke-width: 0.8; stroke-linecap: square"/>
     </g>
     <g id="line2d_12">
      <g>
       <use xlink:href="#md9303384a3" x="684.9" y="256.32" style="stroke: #000000; stroke-width: 0.8"/>
      </g>
     </g>
     <g id="text_6">
      <!-- 10 -->
      <g transform="translate(678.5375 270.918437) scale(0.1 -0.1)">
       <defs>
        <path id="DejaVuSans-31" d="M 794 531 
L 1825 531 
L 1825 4091 
L 703 3866 
L 703 4441 
L 1819 4666 
L 2450 4666 
L 2450 531 
L 3481 531 
L 3481 0 
L 794 0 
L 794 531 
z
" transform="scale(0.015625)"/>
       </defs>
       <use xlink:href="#DejaVuSans-31"/>
       <use xlink:href="#DejaVuSans-30" x="63.623047"/>
      </g>
     </g>
    </g>
    <g id="xtick_7">
     <g id="line2d_13">
      <path d="M 108.300186 256.32 
L 108.300186 34.56 
" clip-path="url(#p988c924c1b)" style="fill: none; stroke: #b0b0b0; stroke-width: 0.8; stroke-linecap: square"/>
     </g>
     <g id="line2d_14">
      <defs>
       <path id="m1a98aac718" d="M 0 0 
L 0 2 
" style="stroke: #000000; stroke-width: 0.6"/>
      </defs>
      <g>
       <use xlink:href="#m1a98aac718" x="108.300186" y="256.32" style="stroke: #000000; stroke-width: 0.6"/>
      </g>
     </g>
    </g>
    <g id="xtick_8">
     <g id="line2d_15">
      <path d="M 145.499814 256.32 
L 145.499814 34.56 
" clip-path="url(#p988c924c1b)" style="fill: none; stroke: #b0b0b0; stroke-width: 0.8; stroke-linecap: square"/>
     </g>
     <g id="line2d_16">
      <g>
       <use xlink:href="#m1a98aac718" x="145.499814" y="256.32" style="stroke: #000000; stroke-width: 0.6"/>
      </g>
     </g>
    </g>
    <g id="xtick_9">
     <g id="line2d_17">
      <path d="M 164.099628 256.32 
L 164.099628 34.56 
" clip-path="url(#p988c924c1b)" style="fill: none; stroke: #b0b0b0; stroke-width: 0.8; stroke-linecap: square"/>
     </g>
     <g id="line2d_18">
      <g>
       <use xlink:href="#m1a98aac718" x="164.099628" y="256.32" style="stroke: #000000; stroke-width: 0.6"/>
      </g>
     </g>
    </g>
    <g id="xtick_10">
     <g id="line2d_19">
      <path d="M 182.699442 256.32 
L 182.699442 34.56 
" clip-path="url(#p988c924c1b)" style="fill: none; stroke: #b0b0b0; stroke-width: 0.8; stroke-linecap: square"/>
     </g>
     <g id="line2d_20">
      <g>
       <use xlink:href="#m1a98aac718" x="182.699442" y="256.32" style="stroke: #000000; stroke-width: 0.6"/>
      </g>
     </g>
    </g>
    <g id="xtick_11">
     <g id="line2d_21">
      <path d="M 201.299256 256.32 
L 201.299256 34.56 
" clip-path="url(#p988c924c1b)" style="fill: none; stroke: #b0b0b0; stroke-width: 0.8; stroke-linecap: square"/>
     </g>
     <g id="line2d_22">
      <g>
       <use xlink:href="#m1a98aac718" x="201.299256" y="256.32" style="stroke: #000000; stroke-width: 0.6"/>
      </g>
     </g>
    </g>
    <g id="xtick_12">
     <g id="line2d_23">
      <path d="M 219.89907 256.32 
L 219.89907 34.56 
" clip-path="url(#p988c924c1b)" style="fill: none; stroke: #b0b0b0; stroke-width: 0.8; stroke-linecap: square"/>
     </g>
     <g id="line2d_24">
      <g>
       <use xlink:href="#m1a98aac718" x="219.89907" y="256.32" style="stroke: #000000; stroke-width: 0.6"/>
      </g>
     </g>
    </g>
    <g id="xtick_13">
     <g id="line2d_25">
      <path d="M 257.098698 256.32 
L 257.098698 34.56 
" clip-path="url(#p988c924c1b)" style="fill: none; stroke: #b0b0b0; stroke-width: 0.8; stroke-linecap: square"/>
     </g>
     <g id="line2d_26">
      <g>
       <use xlink:href="#m1a98aac718" x="257.098698" y="256.32" style="stroke: #000000; stroke-width: 0.6"/>
      </g>
     </g>
    </g>
    <g id="xtick_14">
     <g id="line2d_27">
      <path d="M 275.698512 256.32 
L 275.698512 34.56 
" clip-path="url(#p988c924c1b)" style="fill: none; stroke: #b0b0b0; stroke-width: 0.8; stroke-linecap: square"/>
     </g>
     <g id="line2d_28">
      <g>
       <use xlink:href="#m1a98aac718" x="275.698512" y="256.32" style="stroke: #000000; stroke-width: 0.6"/>
      </g>
     </g>
    </g>
    <g id="xtick_15">
     <g id="line2d_29">
      <path d="M 294.298326 256.32 
L 294.298326 34.56 
" clip-path="url(#p988c924c1b)" style="fill: none; stroke: #b0b0b0; stroke-width: 0.8; stroke-linecap: square"/>
     </g>
     <g id="line2d_30">
      <g>
       <use xlink:href="#m1a98aac718" x="294.298326" y="256.32" style="stroke: #000000; stroke-width: 0.6"/>
      </g>
     </g>
    </g>
    <g id="xtick_16">
     <g id="line2d_31">
      <path d="M 312.89814 256.32 
L 312.89814 34.56 
" clip-path="url(#p988c924c1b)" style="fill: none; stroke: #b0b0b0; stroke-width: 0.8; stroke-linecap: square"/>
     </g>
     <g id="line2d_32">
      <g>
       <use xlink:href="#m1a98aac718" x="312.89814" y="256.32" style="stroke: #000000; stroke-width: 0.6"/>
      </g>
     </g>
    </g>
    <g id="xtick_17">
     <g id="line2d_33">
      <path d="M 331.497954 256.32 
L 331.497954 34.56 
" clip-path="url(#p988c924c1b)" style="fill: none; stroke: #b0b0b0; stroke-width: 0.8; stroke-linecap: square"/>
     </g>
     <g id="line2d_34">
      <g>
       <use xlink:href="#m1a98aac718" x="331.497954" y="256.32" style="stroke: #000000; stroke-width: 0.6"/>
      </g>
     </g>
    </g>
    <g id="xtick_18">
     <g id="line2d_35">
      <path d="M 368.697582 256.32 
L 368.697582 34.56 
" clip-path="url(#p988c924c1b)" style="fill: none; stroke: #b0b0b0; stroke-width: 0.8; stroke-linecap: square"/>
     </g>
     <g id="line2d_36">
      <g>
       <use xlink:href="#m1a98aac718" x="368.697582" y="256.32" style="stroke: #000000; stroke-width: 0.6"/>
      </g>
     </g>
    </g>
    <g id="xtick_19">
     <g id="line2d_37">
      <path d="M 387.297396 256.32 
L 387.297396 34.56 
" clip-path="url(#p988c924c1b)" style="fill: none; stroke: #b0b0b0; stroke-width: 0.8; stroke-linecap: square"/>
     </g>
     <g id="line2d_38">
      <g>
       <use xlink:href="#m1a98aac718" x="387.297396" y="256.32" style="stroke: #000000; stroke-width: 0.6"/>
      </g>
     </g>
    </g>
    <g id="xtick_20">
     <g id="line2d_39">
      <path d="M 405.89721 256.32 
L 405.89721 34.56 
" clip-path="url(#p988c924c1b)" style="fill: none; stroke: #b0b0b0; stroke-width: 0.8; stroke-linecap: square"/>
     </g>
     <g id="line2d_40">
      <g>
       <use xlink:href="#m1a98aac718" x="405.89721" y="256.32" style="stroke: #000000; stroke-width: 0.6"/>
      </g>
     </g>
    </g>
    <g id="xtick_21">
     <g id="line2d_41">
      <path d="M 424.497024 256.32 
L 424.497024 34.56 
" clip-path="url(#p988c924c1b)" style="fill: none; stroke: #b0b0b0; stroke-width: 0.8; stroke-linecap: square"/>
     </g>
     <g id="line2d_42">
      <g>
       <use xlink:href="#m1a98aac718" x="424.497024" y="256.32" style="stroke: #000000; stroke-width: 0.6"/>
      </g>
     </g>
    </g>
    <g id="xtick_22">
     <g id="line2d_43">
      <path d="M 443.096838 256.32 
L 443.096838 34.56 
" clip-path="url(#p988c924c1b)" style="fill: none; stroke: #b0b0b0; stroke-width: 0.8; stroke-linecap: square"/>
     </g>
     <g id="line2d_44">
      <g>
       <use xlink:href="#m1a98aac718" x="443.096838" y="256.32" style="stroke: #000000; stroke-width: 0.6"/>
      </g>
     </g>
    </g>
    <g id="xtick_23">
     <g id="line2d_45">
      <path d="M 480.296466 256.32 
L 480.296466 34.56 
" clip-path="url(#p988c924c1b)" style="fill: none; stroke: #b0b0b0; stroke-width: 0.8; stroke-linecap: square"/>
     </g>
     <g id="line2d_46">
      <g>
       <use xlink:href="#m1a98aac718" x="480.296466" y="256.32" style="stroke: #000000; stroke-width: 0.6"/>
      </g>
     </g>
    </g>
    <g id="xtick_24">
     <g id="line2d_47">
      <path d="M 498.89628 256.32 
L 498.89628 34.56 
" clip-path="url(#p988c924c1b)" style="fill: none; stroke: #b0b0b0; stroke-width: 0.8; stroke-linecap: square"/>
     </g>
     <g id="line2d_48">
      <g>
       <use xlink:href="#m1a98aac718" x="498.89628" y="256.32" style="stroke: #000000; stroke-width: 0.6"/>
      </g>
     </g>
    </g>
    <g id="xtick_25">
     <g id="line2d_49">
      <path d="M 517.496094 256.32 
L 517.496094 34.56 
" clip-path="url(#p988c924c1b)" style="fill: none; stroke: #b0b0b0; stroke-width: 0.8; stroke-linecap: square"/>
     </g>
     <g id="line2d_50">
      <g>
       <use xlink:href="#m1a98aac718" x="517.496094" y="256.32" style="stroke: #000000; stroke-width: 0.6"/>
      </g>
     </g>
    </g>
    <g id="xtick_26">
     <g id="line2d_51">
      <path d="M 536.095908 256.32 
L 536.095908 34.56 
" clip-path="url(#p988c924c1b)" style="fill: none; stroke: #b0b0b0; stroke-width: 0.8; stroke-linecap: square"/>
     </g>
     <g id="line2d_52">
      <g>
       <use xlink:href="#m1a98aac718" x="536.095908" y="256.32" style="stroke: #000000; stroke-width: 0.6"/>
      </g>
     </g>
    </g>
    <g id="xtick_27">
     <g id="line2d_53">
      <path d="M 554.695722 256.32 
L 554.695722 34.56 
" clip-path="url(#p988c924c1b)" style="fill: none; stroke: #b0b0b0; stroke-width: 0.8; stroke-linecap: square"/>
     </g>
     <g id="line2d_54">
      <g>
       <use xlink:href="#m1a98aac718" x="554.695722" y="256.32" style="stroke: #000000; stroke-width: 0.6"/>
      </g>
     </g>
    </g>
    <g id="xtick_28">
     <g id="line2d_55">
      <path d="M 591.89535 256.32 
L 591.89535 34.56 
" clip-path="url(#p988c924c1b)" style="fill: none; stroke: #b0b0b0; stroke-width: 0.8; stroke-linecap: square"/>
     </g>
     <g id="line2d_56">
      <g>
       <use xlink:href="#m1a98aac718" x="591.89535" y="256.32" style="stroke: #000000; stroke-width: 0.6"/>
      </g>
     </g>
    </g>
    <g id="xtick_29">
     <g id="line2d_57">
      <path d="M 610.495164 256.32 
L 610.495164 34.56 
" clip-path="url(#p988c924c1b)" style="fill: none; stroke: #b0b0b0; stroke-width: 0.8; stroke-linecap: square"/>
     </g>
     <g id="line2d_58">
      <g>
       <use xlink:href="#m1a98aac718" x="610.495164" y="256.32" style="stroke: #000000; stroke-width: 0.6"/>
      </g>
     </g>
    </g>
    <g id="xtick_30">
     <g id="line2d_59">
      <path d="M 629.094978 256.32 
L 629.094978 34.56 
" clip-path="url(#p988c924c1b)" style="fill: none; stroke: #b0b0b0; stroke-width: 0.8; stroke-linecap: square"/>
     </g>
     <g id="line2d_60">
      <g>
       <use xlink:href="#m1a98aac718" x="629.094978" y="256.32" style="stroke: #000000; stroke-width: 0.6"/>
      </g>
     </g>
    </g>
    <g id="xtick_31">
     <g id="line2d_61">
      <path d="M 647.694792 256.32 
L 647.694792 34.56 
" clip-path="url(#p988c924c1b)" style="fill: none; stroke: #b0b0b0; stroke-width: 0.8; stroke-linecap: square"/>
     </g>
     <g id="line2d_62">
      <g>
       <use xlink:href="#m1a98aac718" x="647.694792" y="256.32" style="stroke: #000000; stroke-width: 0.6"/>
      </g>
     </g>
    </g>
    <g id="xtick_32">
     <g id="line2d_63">
      <path d="M 666.294606 256.32 
L 666.294606 34.56 
" clip-path="url(#p988c924c1b)" style="fill: none; stroke: #b0b0b0; stroke-width: 0.8; stroke-linecap: square"/>
     </g>
     <g id="line2d_64">
      <g>
       <use xlink:href="#m1a98aac718" x="666.294606" y="256.32" style="stroke: #000000; stroke-width: 0.6"/>
      </g>
     </g>
    </g>
    <g id="xtick_33">
     <g id="line2d_65">
      <path d="M 703.494234 256.32 
L 703.494234 34.56 
" clip-path="url(#p988c924c1b)" style="fill: none; stroke: #b0b0b0; stroke-width: 0.8; stroke-linecap: square"/>
     </g>
     <g id="line2d_66">
      <g>
       <use xlink:href="#m1a98aac718" x="703.494234" y="256.32" style="stroke: #000000; stroke-width: 0.6"/>
      </g>
     </g>
    </g>
    <g id="text_7">
     <!-- Epoch -->
     <g transform="translate(390.589063 284.596563) scale(0.1 -0.1)">
      <defs>
       <path id="DejaVuSans-45" d="M 628 4666 
L 3578 4666 
L 3578 4134 
L 1259 4134 
L 1259 2753 
L 3481 2753 
L 3481 2222 
L 1259 2222 
L 1259 531 
L 3634 531 
L 3634 0 
L 628 0 
L 628 4666 
z
" transform="scale(0.015625)"/>
       <path id="DejaVuSans-70" d="M 1159 525 
L 1159 -1331 
L 581 -1331 
L 581 3500 
L 1159 3500 
L 1159 2969 
Q 1341 3281 1617 3432 
Q 1894 3584 2278 3584 
Q 2916 3584 3314 3078 
Q 3713 2572 3713 1747 
Q 3713 922 3314 415 
Q 2916 -91 2278 -91 
Q 1894 -91 1617 61 
Q 1341 213 1159 525 
z
M 3116 1747 
Q 3116 2381 2855 2742 
Q 2594 3103 2138 3103 
Q 1681 3103 1420 2742 
Q 1159 2381 1159 1747 
Q 1159 1113 1420 752 
Q 1681 391 2138 391 
Q 2594 391 2855 752 
Q 3116 1113 3116 1747 
z
" transform="scale(0.015625)"/>
       <path id="DejaVuSans-6f" d="M 1959 3097 
Q 1497 3097 1228 2736 
Q 959 2375 959 1747 
Q 959 1119 1226 758 
Q 1494 397 1959 397 
Q 2419 397 2687 759 
Q 2956 1122 2956 1747 
Q 2956 2369 2687 2733 
Q 2419 3097 1959 3097 
z
M 1959 3584 
Q 2709 3584 3137 3096 
Q 3566 2609 3566 1747 
Q 3566 888 3137 398 
Q 2709 -91 1959 -91 
Q 1206 -91 779 398 
Q 353 888 353 1747 
Q 353 2609 779 3096 
Q 1206 3584 1959 3584 
z
" transform="scale(0.015625)"/>
       <path id="DejaVuSans-63" d="M 3122 3366 
L 3122 2828 
Q 2878 2963 2633 3030 
Q 2388 3097 2138 3097 
Q 1578 3097 1268 2742 
Q 959 2388 959 1747 
Q 959 1106 1268 751 
Q 1578 397 2138 397 
Q 2388 397 2633 464 
Q 2878 531 3122 666 
L 3122 134 
Q 2881 22 2623 -34 
Q 2366 -91 2075 -91 
Q 1284 -91 818 406 
Q 353 903 353 1747 
Q 353 2603 823 3093 
Q 1294 3584 2113 3584 
Q 2378 3584 2631 3529 
Q 2884 3475 3122 3366 
z
" transform="scale(0.015625)"/>
       <path id="DejaVuSans-68" d="M 3513 2113 
L 3513 0 
L 2938 0 
L 2938 2094 
Q 2938 2591 2744 2837 
Q 2550 3084 2163 3084 
Q 1697 3084 1428 2787 
Q 1159 2491 1159 1978 
L 1159 0 
L 581 0 
L 581 4863 
L 1159 4863 
L 1159 2956 
Q 1366 3272 1645 3428 
Q 1925 3584 2291 3584 
Q 2894 3584 3203 3211 
Q 3513 2838 3513 2113 
z
" transform="scale(0.015625)"/>
      </defs>
      <use xlink:href="#DejaVuSans-45"/>
      <use xlink:href="#DejaVuSans-70" x="63.183594"/>
      <use xlink:href="#DejaVuSans-6f" x="126.660156"/>
      <use xlink:href="#DejaVuSans-63" x="187.841797"/>
      <use xlink:href="#DejaVuSans-68" x="242.822266"/>
     </g>
    </g>
   </g>
   <g id="matplotlib.axis_2">
    <g id="ytick_1">
     <g id="line2d_67">
      <path d="M 99 233.968694 
L 712.8 233.968694 
" clip-path="url(#p988c924c1b)" style="fill: none; stroke: #b0b0b0; stroke-width: 0.8; stroke-linecap: square"/>
     </g>
     <g id="line2d_68">
      <defs>
       <path id="mdee2c843f2" d="M 0 0 
L -3.5 0 
" style="stroke: #000000; stroke-width: 0.8"/>
      </defs>
      <g>
       <use xlink:href="#mdee2c843f2" x="99" y="233.968694" style="stroke: #000000; stroke-width: 0.8"/>
      </g>
     </g>
     <g id="text_8">
      <!-- 0.4 -->
      <g transform="translate(76.096875 237.767912) scale(0.1 -0.1)">
       <defs>
        <path id="DejaVuSans-2e" d="M 684 794 
L 1344 794 
L 1344 0 
L 684 0 
L 684 794 
z
" transform="scale(0.015625)"/>
       </defs>
       <use xlink:href="#DejaVuSans-30"/>
       <use xlink:href="#DejaVuSans-2e" x="63.623047"/>
       <use xlink:href="#DejaVuSans-34" x="95.410156"/>
      </g>
     </g>
    </g>
    <g id="ytick_2">
     <g id="line2d_69">
      <path d="M 99 202.413911 
L 712.8 202.413911 
" clip-path="url(#p988c924c1b)" style="fill: none; stroke: #b0b0b0; stroke-width: 0.8; stroke-linecap: square"/>
     </g>
     <g id="line2d_70">
      <g>
       <use xlink:href="#mdee2c843f2" x="99" y="202.413911" style="stroke: #000000; stroke-width: 0.8"/>
      </g>
     </g>
     <g id="text_9">
      <!-- 0.5 -->
      <g transform="translate(76.096875 206.21313) scale(0.1 -0.1)">
       <defs>
        <path id="DejaVuSans-35" d="M 691 4666 
L 3169 4666 
L 3169 4134 
L 1269 4134 
L 1269 2991 
Q 1406 3038 1543 3061 
Q 1681 3084 1819 3084 
Q 2600 3084 3056 2656 
Q 3513 2228 3513 1497 
Q 3513 744 3044 326 
Q 2575 -91 1722 -91 
Q 1428 -91 1123 -41 
Q 819 9 494 109 
L 494 744 
Q 775 591 1075 516 
Q 1375 441 1709 441 
Q 2250 441 2565 725 
Q 2881 1009 2881 1497 
Q 2881 1984 2565 2268 
Q 2250 2553 1709 2553 
Q 1456 2553 1204 2497 
Q 953 2441 691 2322 
L 691 4666 
z
" transform="scale(0.015625)"/>
       </defs>
       <use xlink:href="#DejaVuSans-30"/>
       <use xlink:href="#DejaVuSans-2e" x="63.623047"/>
       <use xlink:href="#DejaVuSans-35" x="95.410156"/>
      </g>
     </g>
    </g>
    <g id="ytick_3">
     <g id="line2d_71">
      <path d="M 99 170.859129 
L 712.8 170.859129 
" clip-path="url(#p988c924c1b)" style="fill: none; stroke: #b0b0b0; stroke-width: 0.8; stroke-linecap: square"/>
     </g>
     <g id="line2d_72">
      <g>
       <use xlink:href="#mdee2c843f2" x="99" y="170.859129" style="stroke: #000000; stroke-width: 0.8"/>
      </g>
     </g>
     <g id="text_10">
      <!-- 0.6 -->
      <g transform="translate(76.096875 174.658348) scale(0.1 -0.1)">
       <use xlink:href="#DejaVuSans-30"/>
       <use xlink:href="#DejaVuSans-2e" x="63.623047"/>
       <use xlink:href="#DejaVuSans-36" x="95.410156"/>
      </g>
     </g>
    </g>
    <g id="ytick_4">
     <g id="line2d_73">
      <path d="M 99 139.304347 
L 712.8 139.304347 
" clip-path="url(#p988c924c1b)" style="fill: none; stroke: #b0b0b0; stroke-width: 0.8; stroke-linecap: square"/>
     </g>
     <g id="line2d_74">
      <g>
       <use xlink:href="#mdee2c843f2" x="99" y="139.304347" style="stroke: #000000; stroke-width: 0.8"/>
      </g>
     </g>
     <g id="text_11">
      <!-- 0.7 -->
      <g transform="translate(76.096875 143.103566) scale(0.1 -0.1)">
       <defs>
        <path id="DejaVuSans-37" d="M 525 4666 
L 3525 4666 
L 3525 4397 
L 1831 0 
L 1172 0 
L 2766 4134 
L 525 4134 
L 525 4666 
z
" transform="scale(0.015625)"/>
       </defs>
       <use xlink:href="#DejaVuSans-30"/>
       <use xlink:href="#DejaVuSans-2e" x="63.623047"/>
       <use xlink:href="#DejaVuSans-37" x="95.410156"/>
      </g>
     </g>
    </g>
    <g id="ytick_5">
     <g id="line2d_75">
      <path d="M 99 107.749565 
L 712.8 107.749565 
" clip-path="url(#p988c924c1b)" style="fill: none; stroke: #b0b0b0; stroke-width: 0.8; stroke-linecap: square"/>
     </g>
     <g id="line2d_76">
      <g>
       <use xlink:href="#mdee2c843f2" x="99" y="107.749565" style="stroke: #000000; stroke-width: 0.8"/>
      </g>
     </g>
     <g id="text_12">
      <!-- 0.8 -->
      <g transform="translate(76.096875 111.548783) scale(0.1 -0.1)">
       <use xlink:href="#DejaVuSans-30"/>
       <use xlink:href="#DejaVuSans-2e" x="63.623047"/>
       <use xlink:href="#DejaVuSans-38" x="95.410156"/>
      </g>
     </g>
    </g>
    <g id="ytick_6">
     <g id="line2d_77">
      <path d="M 99 76.194782 
L 712.8 76.194782 
" clip-path="url(#p988c924c1b)" style="fill: none; stroke: #b0b0b0; stroke-width: 0.8; stroke-linecap: square"/>
     </g>
     <g id="line2d_78">
      <g>
       <use xlink:href="#mdee2c843f2" x="99" y="76.194782" style="stroke: #000000; stroke-width: 0.8"/>
      </g>
     </g>
     <g id="text_13">
      <!-- 0.9 -->
      <g transform="translate(76.096875 79.994001) scale(0.1 -0.1)">
       <defs>
        <path id="DejaVuSans-39" d="M 703 97 
L 703 672 
Q 941 559 1184 500 
Q 1428 441 1663 441 
Q 2288 441 2617 861 
Q 2947 1281 2994 2138 
Q 2813 1869 2534 1725 
Q 2256 1581 1919 1581 
Q 1219 1581 811 2004 
Q 403 2428 403 3163 
Q 403 3881 828 4315 
Q 1253 4750 1959 4750 
Q 2769 4750 3195 4129 
Q 3622 3509 3622 2328 
Q 3622 1225 3098 567 
Q 2575 -91 1691 -91 
Q 1453 -91 1209 -44 
Q 966 3 703 97 
z
M 1959 2075 
Q 2384 2075 2632 2365 
Q 2881 2656 2881 3163 
Q 2881 3666 2632 3958 
Q 2384 4250 1959 4250 
Q 1534 4250 1286 3958 
Q 1038 3666 1038 3163 
Q 1038 2656 1286 2365 
Q 1534 2075 1959 2075 
z
" transform="scale(0.015625)"/>
       </defs>
       <use xlink:href="#DejaVuSans-30"/>
       <use xlink:href="#DejaVuSans-2e" x="63.623047"/>
       <use xlink:href="#DejaVuSans-39" x="95.410156"/>
      </g>
     </g>
    </g>
    <g id="ytick_7">
     <g id="line2d_79">
      <path d="M 99 44.64 
L 712.8 44.64 
" clip-path="url(#p988c924c1b)" style="fill: none; stroke: #b0b0b0; stroke-width: 0.8; stroke-linecap: square"/>
     </g>
     <g id="line2d_80">
      <g>
       <use xlink:href="#mdee2c843f2" x="99" y="44.64" style="stroke: #000000; stroke-width: 0.8"/>
      </g>
     </g>
     <g id="text_14">
      <!-- 1.0 -->
      <g transform="translate(76.096875 48.439219) scale(0.1 -0.1)">
       <use xlink:href="#DejaVuSans-31"/>
       <use xlink:href="#DejaVuSans-2e" x="63.623047"/>
       <use xlink:href="#DejaVuSans-30" x="95.410156"/>
      </g>
     </g>
    </g>
    <g id="ytick_8">
     <g id="line2d_81">
      <path d="M 99 249.746085 
L 712.8 249.746085 
" clip-path="url(#p988c924c1b)" style="fill: none; stroke: #b0b0b0; stroke-width: 0.8; stroke-linecap: square"/>
     </g>
     <g id="line2d_82">
      <defs>
       <path id="me0746daed7" d="M 0 0 
L -2 0 
" style="stroke: #000000; stroke-width: 0.6"/>
      </defs>
      <g>
       <use xlink:href="#me0746daed7" x="99" y="249.746085" style="stroke: #000000; stroke-width: 0.6"/>
      </g>
     </g>
    </g>
    <g id="ytick_9">
     <g id="line2d_83">
      <path d="M 99 218.191303 
L 712.8 218.191303 
" clip-path="url(#p988c924c1b)" style="fill: none; stroke: #b0b0b0; stroke-width: 0.8; stroke-linecap: square"/>
     </g>
     <g id="line2d_84">
      <g>
       <use xlink:href="#me0746daed7" x="99" y="218.191303" style="stroke: #000000; stroke-width: 0.6"/>
      </g>
     </g>
    </g>
    <g id="ytick_10">
     <g id="line2d_85">
      <path d="M 99 186.63652 
L 712.8 186.63652 
" clip-path="url(#p988c924c1b)" style="fill: none; stroke: #b0b0b0; stroke-width: 0.8; stroke-linecap: square"/>
     </g>
     <g id="line2d_86">
      <g>
       <use xlink:href="#me0746daed7" x="99" y="186.63652" style="stroke: #000000; stroke-width: 0.6"/>
      </g>
     </g>
    </g>
    <g id="ytick_11">
     <g id="line2d_87">
      <path d="M 99 155.081738 
L 712.8 155.081738 
" clip-path="url(#p988c924c1b)" style="fill: none; stroke: #b0b0b0; stroke-width: 0.8; stroke-linecap: square"/>
     </g>
     <g id="line2d_88">
      <g>
       <use xlink:href="#me0746daed7" x="99" y="155.081738" style="stroke: #000000; stroke-width: 0.6"/>
      </g>
     </g>
    </g>
    <g id="ytick_12">
     <g id="line2d_89">
      <path d="M 99 123.526956 
L 712.8 123.526956 
" clip-path="url(#p988c924c1b)" style="fill: none; stroke: #b0b0b0; stroke-width: 0.8; stroke-linecap: square"/>
     </g>
     <g id="line2d_90">
      <g>
       <use xlink:href="#me0746daed7" x="99" y="123.526956" style="stroke: #000000; stroke-width: 0.6"/>
      </g>
     </g>
    </g>
    <g id="ytick_13">
     <g id="line2d_91">
      <path d="M 99 91.972173 
L 712.8 91.972173 
" clip-path="url(#p988c924c1b)" style="fill: none; stroke: #b0b0b0; stroke-width: 0.8; stroke-linecap: square"/>
     </g>
     <g id="line2d_92">
      <g>
       <use xlink:href="#me0746daed7" x="99" y="91.972173" style="stroke: #000000; stroke-width: 0.6"/>
      </g>
     </g>
    </g>
    <g id="ytick_14">
     <g id="line2d_93">
      <path d="M 99 60.417391 
L 712.8 60.417391 
" clip-path="url(#p988c924c1b)" style="fill: none; stroke: #b0b0b0; stroke-width: 0.8; stroke-linecap: square"/>
     </g>
     <g id="line2d_94">
      <g>
       <use xlink:href="#me0746daed7" x="99" y="60.417391" style="stroke: #000000; stroke-width: 0.6"/>
      </g>
     </g>
    </g>
    <g id="text_15">
     <!-- Accuracy (%) -->
     <g transform="translate(70.017187 178.509531) rotate(-90) scale(0.1 -0.1)">
      <defs>
       <path id="DejaVuSans-41" d="M 2188 4044 
L 1331 1722 
L 3047 1722 
L 2188 4044 
z
M 1831 4666 
L 2547 4666 
L 4325 0 
L 3669 0 
L 3244 1197 
L 1141 1197 
L 716 0 
L 50 0 
L 1831 4666 
z
" transform="scale(0.015625)"/>
       <path id="DejaVuSans-75" d="M 544 1381 
L 544 3500 
L 1119 3500 
L 1119 1403 
Q 1119 906 1312 657 
Q 1506 409 1894 409 
Q 2359 409 2629 706 
Q 2900 1003 2900 1516 
L 2900 3500 
L 3475 3500 
L 3475 0 
L 2900 0 
L 2900 538 
Q 2691 219 2414 64 
Q 2138 -91 1772 -91 
Q 1169 -91 856 284 
Q 544 659 544 1381 
z
M 1991 3584 
L 1991 3584 
z
" transform="scale(0.015625)"/>
       <path id="DejaVuSans-72" d="M 2631 2963 
Q 2534 3019 2420 3045 
Q 2306 3072 2169 3072 
Q 1681 3072 1420 2755 
Q 1159 2438 1159 1844 
L 1159 0 
L 581 0 
L 581 3500 
L 1159 3500 
L 1159 2956 
Q 1341 3275 1631 3429 
Q 1922 3584 2338 3584 
Q 2397 3584 2469 3576 
Q 2541 3569 2628 3553 
L 2631 2963 
z
" transform="scale(0.015625)"/>
       <path id="DejaVuSans-61" d="M 2194 1759 
Q 1497 1759 1228 1600 
Q 959 1441 959 1056 
Q 959 750 1161 570 
Q 1363 391 1709 391 
Q 2188 391 2477 730 
Q 2766 1069 2766 1631 
L 2766 1759 
L 2194 1759 
z
M 3341 1997 
L 3341 0 
L 2766 0 
L 2766 531 
Q 2569 213 2275 61 
Q 1981 -91 1556 -91 
Q 1019 -91 701 211 
Q 384 513 384 1019 
Q 384 1609 779 1909 
Q 1175 2209 1959 2209 
L 2766 2209 
L 2766 2266 
Q 2766 2663 2505 2880 
Q 2244 3097 1772 3097 
Q 1472 3097 1187 3025 
Q 903 2953 641 2809 
L 641 3341 
Q 956 3463 1253 3523 
Q 1550 3584 1831 3584 
Q 2591 3584 2966 3190 
Q 3341 2797 3341 1997 
z
" transform="scale(0.015625)"/>
       <path id="DejaVuSans-79" d="M 2059 -325 
Q 1816 -950 1584 -1140 
Q 1353 -1331 966 -1331 
L 506 -1331 
L 506 -850 
L 844 -850 
Q 1081 -850 1212 -737 
Q 1344 -625 1503 -206 
L 1606 56 
L 191 3500 
L 800 3500 
L 1894 763 
L 2988 3500 
L 3597 3500 
L 2059 -325 
z
" transform="scale(0.015625)"/>
       <path id="DejaVuSans-20" transform="scale(0.015625)"/>
       <path id="DejaVuSans-28" d="M 1984 4856 
Q 1566 4138 1362 3434 
Q 1159 2731 1159 2009 
Q 1159 1288 1364 580 
Q 1569 -128 1984 -844 
L 1484 -844 
Q 1016 -109 783 600 
Q 550 1309 550 2009 
Q 550 2706 781 3412 
Q 1013 4119 1484 4856 
L 1984 4856 
z
" transform="scale(0.015625)"/>
       <path id="DejaVuSans-25" d="M 4653 2053 
Q 4381 2053 4226 1822 
Q 4072 1591 4072 1178 
Q 4072 772 4226 539 
Q 4381 306 4653 306 
Q 4919 306 5073 539 
Q 5228 772 5228 1178 
Q 5228 1588 5073 1820 
Q 4919 2053 4653 2053 
z
M 4653 2450 
Q 5147 2450 5437 2106 
Q 5728 1763 5728 1178 
Q 5728 594 5436 251 
Q 5144 -91 4653 -91 
Q 4153 -91 3862 251 
Q 3572 594 3572 1178 
Q 3572 1766 3864 2108 
Q 4156 2450 4653 2450 
z
M 1428 4353 
Q 1159 4353 1004 4120 
Q 850 3888 850 3481 
Q 850 3069 1003 2837 
Q 1156 2606 1428 2606 
Q 1700 2606 1854 2837 
Q 2009 3069 2009 3481 
Q 2009 3884 1853 4118 
Q 1697 4353 1428 4353 
z
M 4250 4750 
L 4750 4750 
L 1831 -91 
L 1331 -91 
L 4250 4750 
z
M 1428 4750 
Q 1922 4750 2215 4408 
Q 2509 4066 2509 3481 
Q 2509 2891 2217 2550 
Q 1925 2209 1428 2209 
Q 931 2209 642 2551 
Q 353 2894 353 3481 
Q 353 4063 643 4406 
Q 934 4750 1428 4750 
z
" transform="scale(0.015625)"/>
       <path id="DejaVuSans-29" d="M 513 4856 
L 1013 4856 
Q 1481 4119 1714 3412 
Q 1947 2706 1947 2009 
Q 1947 1309 1714 600 
Q 1481 -109 1013 -844 
L 513 -844 
Q 928 -128 1133 580 
Q 1338 1288 1338 2009 
Q 1338 2731 1133 3434 
Q 928 4138 513 4856 
z
" transform="scale(0.015625)"/>
      </defs>
      <use xlink:href="#DejaVuSans-41"/>
      <use xlink:href="#DejaVuSans-63" x="66.658203"/>
      <use xlink:href="#DejaVuSans-63" x="121.638672"/>
      <use xlink:href="#DejaVuSans-75" x="176.619141"/>
      <use xlink:href="#DejaVuSans-72" x="239.998047"/>
      <use xlink:href="#DejaVuSans-61" x="281.111328"/>
      <use xlink:href="#DejaVuSans-63" x="342.390625"/>
      <use xlink:href="#DejaVuSans-79" x="397.371094"/>
      <use xlink:href="#DejaVuSans-20" x="456.550781"/>
      <use xlink:href="#DejaVuSans-28" x="488.337891"/>
      <use xlink:href="#DejaVuSans-25" x="527.351562"/>
      <use xlink:href="#DejaVuSans-29" x="622.371094"/>
     </g>
    </g>
   </g>
   <g id="line2d_95">
    <path d="M 128.016 246.24 
L 129.132 167.353044 
L 130.248 202.413911 
L 131.364 180.500877 
L 132.48 204.166959 
L 133.596 192.187826 
L 134.712 206.170438 
L 135.828 198.031301 
L 136.944 206.309561 
L 138.06 201.537397 
L 139.176 194.445533 
L 140.292 191.457394 
L 141.408 186.231973 
L 142.524 182.37913 
L 143.64 179.624343 
L 144.756 175.022599 
L 145.872 173.02465 
L 146.988 168.813908 
L 148.104 167.353044 
L 150.336 163.179128 
L 151.452 162.572021 
L 152.568 160.493311 
L 154.8 158.237221 
L 155.916 157.913571 
L 158.148 155.457381 
L 159.264 154.658582 
L 161.496 151.519093 
L 162.612 150.644347 
L 163.728 150.088228 
L 164.844 149.049212 
L 165.96 147.819123 
L 167.076 148.605208 
L 168.192 148.164327 
L 169.308 147.054649 
L 170.424 147.799864 
L 171.54 146.973905 
L 172.656 145.974461 
L 173.772 145.231296 
L 174.888 145.134227 
L 176.004 145.240794 
L 178.236 144.296702 
L 179.352 144.227789 
L 181.584 144.456157 
L 182.7 144.914078 
L 183.816 193.64869 
L 184.932 154.205212 
L 186.048 149.822601 
L 187.164 156.396527 
L 188.28 148.069572 
L 189.396 141.057399 
L 190.512 138.553042 
L 191.628 138.866084 
L 192.744 137.16173 
L 193.86 140.180865 
L 194.976 135.479532 
L 196.092 138.135652 
L 197.208 137.011905 
L 198.324 134.170431 
L 199.44 134.045225 
L 200.556 132.840001 
L 201.672 129.714168 
L 202.788 127.909566 
L 203.904 129.06288 
L 205.02 129.224348 
L 206.136 127.283482 
L 207.252 127.511154 
L 208.368 128.100111 
L 209.484 126.813918 
L 210.6 129.837906 
L 211.716 133.977798 
L 212.832 133.26608 
L 213.948 134.170431 
L 215.064 134.105675 
L 216.18 134.337391 
L 217.296 133.988669 
L 218.412 133.387825 
L 220.644 131.260966 
L 221.76 131.540868 
L 222.876 130.587823 
L 225.108 129.293543 
L 226.224 127.797188 
L 227.34 126.594785 
L 228.456 126.306175 
L 229.572 124.779125 
L 230.688 124.953852 
L 231.804 124.124584 
L 234.036 122.955302 
L 235.152 122.594487 
L 236.268 122.613916 
L 237.384 122.274787 
L 238.5 122.650441 
L 239.616 97.23131 
L 240.732 84.083478 
L 241.848 76.779139 
L 242.964 77.509571 
L 244.08 76.19479 
L 245.196 73.857392 
L 246.312 74.692172 
L 247.428 75.318256 
L 248.544 77.753042 
L 249.66 78.824352 
L 250.776 79.700867 
L 251.892 81.892182 
L 253.008 81.049371 
L 254.124 81.579121 
L 255.24 85.544342 
L 256.356 87.918265 
L 257.472 87.434877 
L 259.704 84.775466 
L 260.82 85.836526 
L 261.936 84.709562 
L 263.052 84.48189 
L 264.168 85.036222 
L 265.284 84.083478 
L 266.4 83.557565 
L 267.516 84.75773 
L 268.632 85.219714 
L 269.748 84.709562 
L 270.864 85.443606 
L 271.98 86.713041 
L 274.212 88.466089 
L 275.328 88.466089 
L 276.444 89.239497 
L 277.56 88.966949 
L 278.676 89.196521 
L 282.024 88.466089 
L 283.14 88.466089 
L 284.256 87.824732 
L 285.372 87.422614 
L 286.488 87.854562 
L 287.604 87.270833 
L 288.72 87.881739 
L 290.952 87.53362 
L 292.068 87.735657 
L 293.184 87.571669 
L 294.3 87.063643 
L 295.416 105.996513 
L 296.532 110.379123 
L 297.648 103.074785 
L 298.764 92.848699 
L 300.996 81.161731 
L 302.112 80.953036 
L 303.228 85.179126 
L 304.344 82.622614 
L 305.46 81.453915 
L 306.576 81.294554 
L 307.692 80.431299 
L 308.808 81.049371 
L 309.924 80.326952 
L 311.04 79.116518 
L 312.156 80.248691 
L 313.272 79.185261 
L 315.504 81.084844 
L 317.736 78.448698 
L 318.852 78.904024 
L 319.968 78.176488 
L 321.084 78.605219 
L 322.2 78.29844 
L 323.316 79.026615 
L 324.432 79.376239 
L 325.548 78.76174 
L 326.664 77.585123 
L 327.78 77.36347 
L 328.896 76.873387 
L 330.012 76.140002 
L 331.128 76.513512 
L 332.244 77.122857 
L 333.36 76.69565 
L 334.476 76.535649 
L 336.708 77.163577 
L 337.824 77.003877 
L 338.94 76.633038 
L 341.172 75.109562 
L 342.288 74.80865 
L 343.404 75.318256 
L 344.52 75.415645 
L 345.636 75.318256 
L 346.752 75.038523 
L 347.868 75.135648 
L 350.1 74.617052 
L 351.216 53.405221 
L 352.332 57.787832 
L 353.448 56.326949 
L 354.564 64.361739 
L 355.68 63.923472 
L 356.796 60.70956 
L 357.912 58.413917 
L 359.028 57.787832 
L 360.144 58.274774 
L 361.26 56.911299 
L 362.376 57.389401 
L 363.492 59.248696 
L 364.608 58.799201 
L 365.724 59.040001 
L 366.84 58.079997 
L 367.956 57.787832 
L 369.072 58.045635 
L 370.188 57.787832 
L 372.42 56.473051 
L 375.768 57.216178 
L 376.884 57.0574 
L 378 56.560697 
L 379.116 56.439328 
L 380.232 57.625499 
L 381.348 57.47479 
L 382.464 57.636709 
L 383.58 58.372182 
L 384.696 58.211955 
L 385.812 57.787832 
L 386.928 58.186245 
L 388.044 58.819025 
L 389.16 58.664347 
L 390.276 59.005225 
L 393.624 58.574444 
L 394.74 59.102614 
L 395.856 59.391224 
L 396.972 59.040001 
L 398.088 59.112808 
L 399.204 58.783872 
L 402.552 58.440549 
L 404.784 57.877265 
L 405.9 57.787832 
L 407.016 44.64 
L 410.364 44.64 
L 411.48 48.146096 
L 412.596 49.022611 
L 413.712 49.648695 
L 414.828 52.309573 
L 415.944 52.4313 
L 417.06 51.652173 
L 419.292 50.483475 
L 420.408 50.03398 
L 421.524 50.27478 
L 422.64 49.899125 
L 423.756 50.118259 
L 424.872 51.858423 
L 425.988 51.944339 
L 428.22 51.213907 
L 429.336 51.318254 
L 430.452 51.01471 
L 431.568 52.261933 
L 432.684 52.674789 
L 433.8 53.405221 
L 434.916 54.41659 
L 436.032 54.054496 
L 437.148 54.031306 
L 438.264 53.707468 
L 439.38 53.989571 
L 440.496 54.818971 
L 441.612 55.048693 
L 442.728 55.795733 
L 443.844 56.241015 
L 444.96 56.160009 
L 446.076 55.840007 
L 447.192 56.247993 
L 448.308 56.865162 
L 449.424 56.776463 
L 451.656 57.467154 
L 452.772 57.370443 
L 453.888 57.685911 
L 455.004 58.186245 
L 456.12 58.274774 
L 457.236 58.168922 
L 459.468 58.335656 
L 461.7 57.787832 
L 463.932 49.022611 
L 465.048 47.561747 
L 466.164 46.831296 
L 467.28 46.393048 
L 468.396 46.100864 
L 469.512 48.396526 
L 470.628 50.118259 
L 472.86 50.775659 
L 473.976 51.01471 
L 475.092 53.405221 
L 477.324 53.405221 
L 478.44 53.989571 
L 479.556 53.405221 
L 481.788 53.405221 
L 484.02 52.528688 
L 487.368 51.499734 
L 488.484 51.579123 
L 491.832 50.808122 
L 494.064 50.38272 
L 495.18 50.483475 
L 496.296 50.29498 
L 497.412 50.39218 
L 499.644 50.053803 
L 500.76 50.149574 
L 505.224 49.584484 
L 506.34 49.679992 
L 507.456 49.984646 
L 508.572 50.066085 
L 509.688 50.347586 
L 510.804 50.217867 
L 513.036 50.356445 
L 514.152 50.234813 
L 515.268 50.666083 
L 517.5 51.126261 
L 518.616 53.405221 
L 519.732 49.022611 
L 520.848 47.561747 
L 521.964 46.831296 
L 523.08 48.146096 
L 524.196 47.561747 
L 526.428 46.831296 
L 528.66 46.393048 
L 532.008 45.988504 
L 533.124 46.518254 
L 534.24 46.393048 
L 535.356 46.831296 
L 537.588 46.587825 
L 540.936 47.561747 
L 546.516 46.999873 
L 549.864 46.755744 
L 550.98 47.269563 
L 552.096 47.184738 
L 553.212 47.926963 
L 554.328 48.092963 
L 555.444 49.022611 
L 557.676 49.266082 
L 558.792 49.141064 
L 563.256 49.557081 
L 565.488 49.328374 
L 566.604 49.421023 
L 567.72 49.314776 
L 568.836 49.78481 
L 569.952 50.421314 
L 572.184 50.543096 
L 573.3 50.775659 
L 574.416 44.64 
L 575.532 53.405221 
L 576.648 53.405221 
L 577.764 51.213907 
L 578.88 49.899125 
L 579.996 49.022611 
L 581.112 48.396526 
L 583.344 47.561747 
L 585.576 47.030512 
L 587.808 46.662738 
L 588.924 47.144357 
L 590.04 48.146096 
L 591.156 50.118259 
L 592.272 50.827212 
L 594.504 51.098575 
L 597.852 50.217867 
L 598.968 50.356445 
L 600.084 50.118259 
L 601.2 50.249746 
L 605.664 49.47598 
L 606.78 49.314776 
L 607.896 49.446734 
L 610.128 49.155415 
L 611.244 49.280414 
L 612.36 49.147835 
L 613.476 49.266082 
L 617.94 48.803477 
L 619.056 48.915724 
L 620.172 49.231306 
L 621.288 49.328374 
L 629.1 48.672009 
L 630.216 44.64 
L 632.448 44.64 
L 633.564 46.831296 
L 634.68 46.393048 
L 636.912 45.892169 
L 640.26 45.516515 
L 641.376 45.436843 
L 642.492 46.100864 
L 646.956 45.735648 
L 653.652 45.436843 
L 664.812 45.187824 
L 679.32 45.029573 
L 684.9 45.867136 
L 684.9 45.867136 
" clip-path="url(#p988c924c1b)" style="fill: none; stroke: #1f77b4; stroke-opacity: 0.5; stroke-width: 1.5; stroke-linecap: square"/>
   </g>
   <g id="line2d_96">
    <path d="M 128.016 246.24 
L 129.132 184.883479 
L 130.248 197.704243 
L 131.364 185.333688 
L 132.48 198.811686 
L 133.596 194.077782 
L 134.712 202.716736 
L 135.828 199.369848 
L 136.944 204.326849 
L 138.06 202.334376 
L 139.176 196.699483 
L 140.292 192.955132 
L 141.408 188.152875 
L 142.524 184.028772 
L 143.64 180.882751 
L 144.756 176.696928 
L 145.872 174.073873 
L 146.988 170.316755 
L 150.336 163.993593 
L 151.452 162.978185 
L 152.568 161.203275 
L 153.684 159.856832 
L 154.8 158.699967 
L 155.916 158.138255 
L 159.264 155.018295 
L 161.496 152.11442 
L 162.612 151.064368 
L 163.728 150.367125 
L 164.844 149.425758 
L 165.96 148.278162 
L 167.076 148.511767 
L 168.192 148.263596 
L 169.308 147.400062 
L 170.424 147.685635 
L 171.54 147.177257 
L 173.772 145.541816 
L 174.888 145.250681 
L 176.004 145.243619 
L 179.352 144.296476 
L 181.584 144.420302 
L 182.7 144.772999 
L 183.816 179.684207 
L 184.932 161.484925 
L 186.048 153.154694 
L 187.164 155.470289 
L 188.28 150.184063 
L 189.396 143.665017 
L 190.512 140.013606 
L 191.628 139.193947 
L 192.744 137.742364 
L 193.86 139.48415 
L 194.976 136.623709 
L 196.092 137.703668 
L 197.208 137.209551 
L 198.324 135.038751 
L 199.44 134.32909 
L 200.556 133.265455 
L 201.672 130.728821 
L 202.788 128.715068 
L 205.02 129.149821 
L 206.136 127.816722 
L 207.252 127.598459 
L 208.368 127.956782 
L 209.484 127.140451 
L 210.6 129.067205 
L 211.716 132.574771 
L 212.832 133.068563 
L 213.948 133.855612 
L 216.18 134.250773 
L 217.296 134.063556 
L 218.412 133.580891 
L 220.644 131.660799 
L 221.76 131.575134 
L 225.108 129.550728 
L 227.34 127.081475 
L 228.456 126.527689 
L 229.572 125.278715 
L 230.688 125.04667 
L 234.036 123.188924 
L 235.152 122.764326 
L 236.268 122.65689 
L 237.384 122.383959 
L 238.5 122.574303 
L 239.616 104.472165 
L 240.732 89.908817 
L 241.848 80.530476 
L 242.964 78.372687 
L 244.08 76.817046 
L 245.196 74.703008 
L 246.312 74.695268 
L 247.428 75.14026 
L 248.544 77.006533 
L 249.66 78.304975 
L 250.776 79.302041 
L 251.892 81.152142 
L 253.008 81.078734 
L 254.124 81.436153 
L 255.24 84.370574 
L 256.356 86.904639 
L 257.472 87.28338 
L 258.588 86.389039 
L 259.704 85.236487 
L 260.82 85.665086 
L 261.936 84.982569 
L 263.052 84.624941 
L 264.168 84.918713 
L 266.4 83.776009 
L 267.516 84.477238 
L 268.632 85.007578 
L 269.748 84.79471 
L 270.864 85.258207 
L 273.096 87.240566 
L 274.212 88.115939 
L 275.328 88.366046 
L 276.444 88.98994 
L 277.56 88.973518 
L 278.676 89.132805 
L 280.908 88.781966 
L 282.024 88.556339 
L 283.14 88.491875 
L 285.372 87.591966 
L 286.488 87.779534 
L 287.604 87.416176 
L 288.72 87.748721 
L 293.184 87.6063 
L 294.3 87.218687 
L 295.416 100.63142 
L 296.532 107.594065 
L 297.648 104.366008 
L 298.764 96.139359 
L 299.88 89.406274 
L 300.996 83.517315 
L 302.112 81.685687 
L 303.228 84.181001 
L 305.46 81.915044 
L 306.576 81.471837 
L 307.692 80.728596 
L 308.808 80.957721 
L 309.924 80.507172 
L 311.04 79.513847 
L 312.156 80.038736 
L 313.272 79.429111 
L 314.388 79.971052 
L 315.504 80.766617 
L 316.62 80.005367 
L 317.736 78.893461 
L 318.852 78.901006 
L 319.968 78.383493 
L 321.084 78.541869 
L 322.2 78.367991 
L 324.432 79.222581 
L 325.548 78.893409 
L 326.664 77.958919 
L 328.896 77.062018 
L 330.012 76.403435 
L 331.128 76.482062 
L 332.244 76.939773 
L 334.476 76.601292 
L 336.708 77.055333 
L 337.824 77.018579 
L 338.94 76.743192 
L 341.172 75.394585 
L 342.288 74.97606 
L 344.52 75.359885 
L 345.636 75.33015 
L 346.752 75.121845 
L 347.868 75.131705 
L 350.1 74.710902 
L 351.216 59.492559 
L 352.332 58.274897 
L 353.448 56.883506 
L 354.564 62.225101 
L 355.68 63.438223 
L 356.796 61.489178 
L 357.912 59.292563 
L 359.028 58.217755 
L 360.144 58.258483 
L 361.26 57.296209 
L 362.376 57.362775 
L 363.492 58.709861 
L 364.608 58.773675 
L 365.724 58.963908 
L 366.84 58.332543 
L 367.956 57.943464 
L 369.072 58.016443 
L 370.188 57.85315 
L 372.42 56.712813 
L 373.536 56.735332 
L 375.768 57.130968 
L 376.884 57.07842 
L 378 56.708618 
L 379.116 56.516268 
L 380.232 57.308576 
L 382.464 57.576878 
L 383.58 58.144952 
L 384.696 58.192811 
L 385.812 57.903541 
L 386.928 58.105472 
L 388.044 58.615153 
L 389.16 58.650291 
L 390.276 58.903815 
L 392.508 58.755525 
L 393.624 58.626182 
L 395.856 59.269872 
L 396.972 59.105679 
L 398.088 59.110771 
L 400.32 58.725183 
L 403.668 58.248213 
L 404.784 57.98325 
L 405.9 57.843666 
L 407.016 48.412476 
L 408.132 45.71785 
L 409.248 44.947957 
L 410.364 44.727988 
L 411.48 47.169494 
L 412.596 48.493149 
L 413.712 49.318539 
L 414.828 51.454992 
L 415.944 52.152355 
L 417.06 51.795082 
L 420.408 50.223974 
L 421.524 50.260264 
L 422.64 50.002308 
L 423.756 50.08513 
L 424.872 51.351768 
L 425.988 51.775033 
L 427.104 51.621367 
L 428.22 51.330324 
L 429.336 51.321703 
L 430.452 51.102422 
L 431.568 51.930644 
L 432.684 52.462176 
L 433.8 53.13578 
L 434.916 54.050645 
L 437.148 54.037617 
L 438.264 53.801796 
L 439.38 53.935921 
L 440.496 54.566671 
L 441.612 54.910973 
L 442.728 55.542944 
L 443.844 56.041566 
L 444.96 56.126168 
L 446.076 55.921767 
L 447.192 56.154786 
L 448.308 56.662198 
L 449.424 56.743816 
L 451.656 57.339387 
L 452.772 57.36157 
L 453.888 57.593242 
L 455.004 58.016815 
L 456.12 58.201072 
L 458.352 58.232364 
L 459.468 58.306144 
L 461.7 57.884902 
L 462.816 54.68513 
L 463.932 50.640473 
L 465.048 48.441383 
L 466.164 47.291321 
L 467.28 46.649697 
L 468.396 46.257674 
L 470.628 49.451735 
L 471.744 50.188692 
L 472.86 50.607954 
L 473.976 50.898494 
L 475.092 52.689014 
L 476.208 53.200591 
L 477.324 53.346756 
L 478.44 53.805909 
L 479.556 53.519704 
L 481.788 53.414567 
L 485.136 52.305249 
L 487.368 51.629123 
L 488.484 51.593408 
L 494.064 50.4671 
L 495.18 50.478796 
L 496.296 50.347499 
L 497.412 50.379414 
L 500.76 50.139372 
L 506.34 49.667761 
L 509.688 50.253118 
L 511.92 50.271338 
L 513.036 50.332129 
L 514.152 50.262617 
L 517.5 51.033286 
L 518.616 52.727526 
L 519.732 50.081158 
L 520.848 48.281578 
L 521.964 47.245662 
L 523.08 47.888829 
L 524.196 47.655199 
L 526.428 46.962443 
L 528.66 46.47928 
L 532.008 46.037177 
L 533.124 46.380803 
L 534.24 46.38955 
L 535.356 46.705083 
L 537.588 46.62078 
L 539.82 47.150696 
L 540.936 47.444304 
L 543.168 47.343568 
L 549.864 46.786899 
L 550.98 47.131659 
L 552.096 47.169573 
L 553.212 47.710566 
L 554.328 47.983707 
L 555.444 48.725781 
L 556.56 49.027248 
L 557.676 49.197844 
L 559.908 49.225849 
L 563.256 49.518215 
L 567.72 49.340694 
L 568.836 49.657919 
L 569.952 50.203201 
L 573.3 50.697808 
L 574.416 46.370802 
L 575.532 51.395387 
L 576.648 52.830983 
L 579.996 49.418089 
L 581.112 48.688401 
L 582.228 48.144517 
L 584.46 47.400617 
L 586.692 46.918427 
L 587.808 46.735792 
L 588.924 47.027624 
L 590.04 47.826533 
L 591.156 49.46348 
L 592.272 50.437574 
L 593.388 50.818189 
L 594.504 51.018465 
L 596.736 50.586777 
L 597.852 50.323269 
L 598.968 50.346966 
L 600.084 50.183604 
L 601.2 50.230848 
L 604.548 49.722597 
L 606.78 49.380966 
L 607.896 49.427943 
L 610.128 49.206458 
L 611.244 49.259283 
L 612.36 49.179678 
L 613.476 49.241395 
L 619.056 48.89597 
L 621.288 49.273266 
L 624.636 49.059948 
L 629.1 48.70547 
L 630.216 45.801563 
L 631.332 44.971875 
L 632.448 44.734821 
L 633.564 46.232303 
L 634.68 46.347121 
L 640.26 45.559792 
L 641.376 45.471972 
L 642.492 45.92118 
L 644.724 45.914198 
L 652.536 45.492226 
L 662.58 45.232649 
L 679.32 45.033178 
L 683.784 45.648607 
L 684.9 45.804699 
L 684.9 45.804699 
" clip-path="url(#p988c924c1b)" style="fill: none; stroke: #1f77b4; stroke-width: 1.5; stroke-linecap: square"/>
   </g>
   <g id="line2d_97">
    <path d="M 126.9 123.526956 
L 182.7 123.526956 
L 238.5 106.171823 
L 294.3 99.860873 
L 350.1 82.50574 
L 405.9 74.617052 
L 461.7 66.728345 
L 517.5 58.839657 
L 573.3 52.528688 
L 629.1 58.839657 
" clip-path="url(#p988c924c1b)" style="fill: none; stroke-dasharray: 5.55,2.4; stroke-dashoffset: 0; stroke: #000000; stroke-width: 1.5"/>
    <defs>
     <path id="mf7c64a7170" d="M 0 3 
C 0.795609 3 1.55874 2.683901 2.12132 2.12132 
C 2.683901 1.55874 3 0.795609 3 0 
C 3 -0.795609 2.683901 -1.55874 2.12132 -2.12132 
C 1.55874 -2.683901 0.795609 -3 0 -3 
C -0.795609 -3 -1.55874 -2.683901 -2.12132 -2.12132 
C -2.683901 -1.55874 -3 -0.795609 -3 0 
C -3 0.795609 -2.683901 1.55874 -2.12132 2.12132 
C -1.55874 2.683901 -0.795609 3 0 3 
z
" style="stroke: #000000"/>
    </defs>
    <g clip-path="url(#p988c924c1b)">
     <use xlink:href="#mf7c64a7170" x="126.9" y="123.526956" style="stroke: #000000"/>
     <use xlink:href="#mf7c64a7170" x="182.7" y="123.526956" style="stroke: #000000"/>
     <use xlink:href="#mf7c64a7170" x="238.5" y="106.171823" style="stroke: #000000"/>
     <use xlink:href="#mf7c64a7170" x="294.3" y="99.860873" style="stroke: #000000"/>
     <use xlink:href="#mf7c64a7170" x="350.1" y="82.50574" style="stroke: #000000"/>
     <use xlink:href="#mf7c64a7170" x="405.9" y="74.617052" style="stroke: #000000"/>
     <use xlink:href="#mf7c64a7170" x="461.7" y="66.728345" style="stroke: #000000"/>
     <use xlink:href="#mf7c64a7170" x="517.5" y="58.839657" style="stroke: #000000"/>
     <use xlink:href="#mf7c64a7170" x="573.3" y="52.528688" style="stroke: #000000"/>
     <use xlink:href="#mf7c64a7170" x="629.1" y="58.839657" style="stroke: #000000"/>
    </g>
   </g>
   <g id="patch_3">
    <path d="M 99 256.32 
L 99 34.56 
" style="fill: none; stroke: #000000; stroke-width: 0.8; stroke-linejoin: miter; stroke-linecap: square"/>
   </g>
   <g id="patch_4">
    <path d="M 712.8 256.32 
L 712.8 34.56 
" style="fill: none; stroke: #000000; stroke-width: 0.8; stroke-linejoin: miter; stroke-linecap: square"/>
   </g>
   <g id="patch_5">
    <path d="M 99 256.32 
L 712.8 256.32 
" style="fill: none; stroke: #000000; stroke-width: 0.8; stroke-linejoin: miter; stroke-linecap: square"/>
   </g>
   <g id="patch_6">
    <path d="M 99 34.56 
L 712.8 34.56 
" style="fill: none; stroke: #000000; stroke-width: 0.8; stroke-linejoin: miter; stroke-linecap: square"/>
   </g>
   <g id="text_16">
    <!-- ResNet50 -->
    <g transform="translate(377.015625 28.56) scale(0.12 -0.12)">
     <defs>
      <path id="DejaVuSans-52" d="M 2841 2188 
Q 3044 2119 3236 1894 
Q 3428 1669 3622 1275 
L 4263 0 
L 3584 0 
L 2988 1197 
Q 2756 1666 2539 1819 
Q 2322 1972 1947 1972 
L 1259 1972 
L 1259 0 
L 628 0 
L 628 4666 
L 2053 4666 
Q 2853 4666 3247 4331 
Q 3641 3997 3641 3322 
Q 3641 2881 3436 2590 
Q 3231 2300 2841 2188 
z
M 1259 4147 
L 1259 2491 
L 2053 2491 
Q 2509 2491 2742 2702 
Q 2975 2913 2975 3322 
Q 2975 3731 2742 3939 
Q 2509 4147 2053 4147 
L 1259 4147 
z
" transform="scale(0.015625)"/>
      <path id="DejaVuSans-65" d="M 3597 1894 
L 3597 1613 
L 953 1613 
Q 991 1019 1311 708 
Q 1631 397 2203 397 
Q 2534 397 2845 478 
Q 3156 559 3463 722 
L 3463 178 
Q 3153 47 2828 -22 
Q 2503 -91 2169 -91 
Q 1331 -91 842 396 
Q 353 884 353 1716 
Q 353 2575 817 3079 
Q 1281 3584 2069 3584 
Q 2775 3584 3186 3129 
Q 3597 2675 3597 1894 
z
M 3022 2063 
Q 3016 2534 2758 2815 
Q 2500 3097 2075 3097 
Q 1594 3097 1305 2825 
Q 1016 2553 972 2059 
L 3022 2063 
z
" transform="scale(0.015625)"/>
      <path id="DejaVuSans-73" d="M 2834 3397 
L 2834 2853 
Q 2591 2978 2328 3040 
Q 2066 3103 1784 3103 
Q 1356 3103 1142 2972 
Q 928 2841 928 2578 
Q 928 2378 1081 2264 
Q 1234 2150 1697 2047 
L 1894 2003 
Q 2506 1872 2764 1633 
Q 3022 1394 3022 966 
Q 3022 478 2636 193 
Q 2250 -91 1575 -91 
Q 1294 -91 989 -36 
Q 684 19 347 128 
L 347 722 
Q 666 556 975 473 
Q 1284 391 1588 391 
Q 1994 391 2212 530 
Q 2431 669 2431 922 
Q 2431 1156 2273 1281 
Q 2116 1406 1581 1522 
L 1381 1569 
Q 847 1681 609 1914 
Q 372 2147 372 2553 
Q 372 3047 722 3315 
Q 1072 3584 1716 3584 
Q 2034 3584 2315 3537 
Q 2597 3491 2834 3397 
z
" transform="scale(0.015625)"/>
      <path id="DejaVuSans-4e" d="M 628 4666 
L 1478 4666 
L 3547 763 
L 3547 4666 
L 4159 4666 
L 4159 0 
L 3309 0 
L 1241 3903 
L 1241 0 
L 628 0 
L 628 4666 
z
" transform="scale(0.015625)"/>
      <path id="DejaVuSans-74" d="M 1172 4494 
L 1172 3500 
L 2356 3500 
L 2356 3053 
L 1172 3053 
L 1172 1153 
Q 1172 725 1289 603 
Q 1406 481 1766 481 
L 2356 481 
L 2356 0 
L 1766 0 
Q 1100 0 847 248 
Q 594 497 594 1153 
L 594 3053 
L 172 3053 
L 172 3500 
L 594 3500 
L 594 4494 
L 1172 4494 
z
" transform="scale(0.015625)"/>
     </defs>
     <use xlink:href="#DejaVuSans-52"/>
     <use xlink:href="#DejaVuSans-65" x="64.982422"/>
     <use xlink:href="#DejaVuSans-73" x="126.505859"/>
     <use xlink:href="#DejaVuSans-4e" x="178.605469"/>
     <use xlink:href="#DejaVuSans-65" x="253.410156"/>
     <use xlink:href="#DejaVuSans-74" x="314.933594"/>
     <use xlink:href="#DejaVuSans-35" x="354.142578"/>
     <use xlink:href="#DejaVuSans-30" x="417.765625"/>
    </g>
   </g>
  </g>
 </g>
 <defs>
  <clipPath id="p988c924c1b">
   <rect x="99" y="34.56" width="613.8" height="221.76"/>
  </clipPath>
 </defs>
</svg>
