<?xml version="1.0" encoding="utf-8" standalone="no"?>
<!DOCTYPE svg PUBLIC "-//W3C//DTD SVG 1.1//EN"
  "http://www.w3.org/Graphics/SVG/1.1/DTD/svg11.dtd">
<svg xmlns:xlink="http://www.w3.org/1999/xlink" width="792pt" height="288pt" viewBox="0 0 792 288" xmlns="http://www.w3.org/2000/svg" version="1.1">
 <metadata>
  <rdf:RDF xmlns:dc="http://purl.org/dc/elements/1.1/" xmlns:cc="http://creativecommons.org/ns#" xmlns:rdf="http://www.w3.org/1999/02/22-rdf-syntax-ns#">
   <cc:Work>
    <dc:type rdf:resource="http://purl.org/dc/dcmitype/StillImage"/>
    <dc:date>2025-03-03T09:33:02.522618</dc:date>
    <dc:format>image/svg+xml</dc:format>
    <dc:creator>
     <cc:Agent>
      <dc:title>Matplotlib v3.7.2, https://matplotlib.org/</dc:title>
     </cc:Agent>
    </dc:creator>
   </cc:Work>
  </rdf:RDF>
 </metadata>
 <defs>
  <style type="text/css">*{stroke-linejoin: round; stroke-linecap: butt}</style>
 </defs>
 <g id="figure_1">
  <g id="patch_1">
   <path d="M 0 288 
L 792 288 
L 792 0 
L 0 0 
z
" style="fill: #ffffff"/>
  </g>
  <g id="axes_1">
   <g id="patch_2">
    <path d="M 99 256.32 
L 712.8 256.32 
L 712.8 34.56 
L 99 34.56 
z
" style="fill: #ffffff"/>
   </g>
   <g id="matplotlib.axis_1">
    <g id="xtick_1">
     <g id="line2d_1">
      <path d="M 125.781764 256.32 
L 125.781764 34.56 
" clip-path="url(#p0e68be7d63)" style="fill: none; stroke: #b0b0b0; stroke-width: 0.8; stroke-linecap: square"/>
     </g>
     <g id="line2d_2">
      <defs>
       <path id="m35ddad0b4c" d="M 0 0 
L 0 3.5 
" style="stroke: #000000; stroke-width: 0.8"/>
      </defs>
      <g>
       <use xlink:href="#m35ddad0b4c" x="125.781764" y="256.32" style="stroke: #000000; stroke-width: 0.8"/>
      </g>
     </g>
     <g id="text_1">
      <!-- 0 -->
      <g transform="translate(122.600514 270.918437) scale(0.1 -0.1)">
       <defs>
        <path id="DejaVuSans-30" d="M 2034 4250 
Q 1547 4250 1301 3770 
Q 1056 3291 1056 2328 
Q 1056 1369 1301 889 
Q 1547 409 2034 409 
Q 2525 409 2770 889 
Q 3016 1369 3016 2328 
Q 3016 3291 2770 3770 
Q 2525 4250 2034 4250 
z
M 2034 4750 
Q 2819 4750 3233 4129 
Q 3647 3509 3647 2328 
Q 3647 1150 3233 529 
Q 2819 -91 2034 -91 
Q 1250 -91 836 529 
Q 422 1150 422 2328 
Q 422 3509 836 4129 
Q 1250 4750 2034 4750 
z
" transform="scale(0.015625)"/>
       </defs>
       <use xlink:href="#DejaVuSans-30"/>
      </g>
     </g>
    </g>
    <g id="xtick_2">
     <g id="line2d_3">
      <path d="M 237.605411 256.32 
L 237.605411 34.56 
" clip-path="url(#p0e68be7d63)" style="fill: none; stroke: #b0b0b0; stroke-width: 0.8; stroke-linecap: square"/>
     </g>
     <g id="line2d_4">
      <g>
       <use xlink:href="#m35ddad0b4c" x="237.605411" y="256.32" style="stroke: #000000; stroke-width: 0.8"/>
      </g>
     </g>
     <g id="text_2">
      <!-- 2 -->
      <g transform="translate(234.424161 270.918437) scale(0.1 -0.1)">
       <defs>
        <path id="DejaVuSans-32" d="M 1228 531 
L 3431 531 
L 3431 0 
L 469 0 
L 469 531 
Q 828 903 1448 1529 
Q 2069 2156 2228 2338 
Q 2531 2678 2651 2914 
Q 2772 3150 2772 3378 
Q 2772 3750 2511 3984 
Q 2250 4219 1831 4219 
Q 1534 4219 1204 4116 
Q 875 4013 500 3803 
L 500 4441 
Q 881 4594 1212 4672 
Q 1544 4750 1819 4750 
Q 2544 4750 2975 4387 
Q 3406 4025 3406 3419 
Q 3406 3131 3298 2873 
Q 3191 2616 2906 2266 
Q 2828 2175 2409 1742 
Q 1991 1309 1228 531 
z
" transform="scale(0.015625)"/>
       </defs>
       <use xlink:href="#DejaVuSans-32"/>
      </g>
     </g>
    </g>
    <g id="xtick_3">
     <g id="line2d_5">
      <path d="M 349.429058 256.32 
L 349.429058 34.56 
" clip-path="url(#p0e68be7d63)" style="fill: none; stroke: #b0b0b0; stroke-width: 0.8; stroke-linecap: square"/>
     </g>
     <g id="line2d_6">
      <g>
       <use xlink:href="#m35ddad0b4c" x="349.429058" y="256.32" style="stroke: #000000; stroke-width: 0.8"/>
      </g>
     </g>
     <g id="text_3">
      <!-- 4 -->
      <g transform="translate(346.247808 270.918437) scale(0.1 -0.1)">
       <defs>
        <path id="DejaVuSans-34" d="M 2419 4116 
L 825 1625 
L 2419 1625 
L 2419 4116 
z
M 2253 4666 
L 3047 4666 
L 3047 1625 
L 3713 1625 
L 3713 1100 
L 3047 1100 
L 3047 0 
L 2419 0 
L 2419 1100 
L 313 1100 
L 313 1709 
L 2253 4666 
z
" transform="scale(0.015625)"/>
       </defs>
       <use xlink:href="#DejaVuSans-34"/>
      </g>
     </g>
    </g>
    <g id="xtick_4">
     <g id="line2d_7">
      <path d="M 461.252705 256.32 
L 461.252705 34.56 
" clip-path="url(#p0e68be7d63)" style="fill: none; stroke: #b0b0b0; stroke-width: 0.8; stroke-linecap: square"/>
     </g>
     <g id="line2d_8">
      <g>
       <use xlink:href="#m35ddad0b4c" x="461.252705" y="256.32" style="stroke: #000000; stroke-width: 0.8"/>
      </g>
     </g>
     <g id="text_4">
      <!-- 6 -->
      <g transform="translate(458.071455 270.918437) scale(0.1 -0.1)">
       <defs>
        <path id="DejaVuSans-36" d="M 2113 2584 
Q 1688 2584 1439 2293 
Q 1191 2003 1191 1497 
Q 1191 994 1439 701 
Q 1688 409 2113 409 
Q 2538 409 2786 701 
Q 3034 994 3034 1497 
Q 3034 2003 2786 2293 
Q 2538 2584 2113 2584 
z
M 3366 4563 
L 3366 3988 
Q 3128 4100 2886 4159 
Q 2644 4219 2406 4219 
Q 1781 4219 1451 3797 
Q 1122 3375 1075 2522 
Q 1259 2794 1537 2939 
Q 1816 3084 2150 3084 
Q 2853 3084 3261 2657 
Q 3669 2231 3669 1497 
Q 3669 778 3244 343 
Q 2819 -91 2113 -91 
Q 1303 -91 875 529 
Q 447 1150 447 2328 
Q 447 3434 972 4092 
Q 1497 4750 2381 4750 
Q 2619 4750 2861 4703 
Q 3103 4656 3366 4563 
z
" transform="scale(0.015625)"/>
       </defs>
       <use xlink:href="#DejaVuSans-36"/>
      </g>
     </g>
    </g>
    <g id="xtick_5">
     <g id="line2d_9">
      <path d="M 573.076353 256.32 
L 573.076353 34.56 
" clip-path="url(#p0e68be7d63)" style="fill: none; stroke: #b0b0b0; stroke-width: 0.8; stroke-linecap: square"/>
     </g>
     <g id="line2d_10">
      <g>
       <use xlink:href="#m35ddad0b4c" x="573.076353" y="256.32" style="stroke: #000000; stroke-width: 0.8"/>
      </g>
     </g>
     <g id="text_5">
      <!-- 8 -->
      <g transform="translate(569.895103 270.918437) scale(0.1 -0.1)">
       <defs>
        <path id="DejaVuSans-38" d="M 2034 2216 
Q 1584 2216 1326 1975 
Q 1069 1734 1069 1313 
Q 1069 891 1326 650 
Q 1584 409 2034 409 
Q 2484 409 2743 651 
Q 3003 894 3003 1313 
Q 3003 1734 2745 1975 
Q 2488 2216 2034 2216 
z
M 1403 2484 
Q 997 2584 770 2862 
Q 544 3141 544 3541 
Q 544 4100 942 4425 
Q 1341 4750 2034 4750 
Q 2731 4750 3128 4425 
Q 3525 4100 3525 3541 
Q 3525 3141 3298 2862 
Q 3072 2584 2669 2484 
Q 3125 2378 3379 2068 
Q 3634 1759 3634 1313 
Q 3634 634 3220 271 
Q 2806 -91 2034 -91 
Q 1263 -91 848 271 
Q 434 634 434 1313 
Q 434 1759 690 2068 
Q 947 2378 1403 2484 
z
M 1172 3481 
Q 1172 3119 1398 2916 
Q 1625 2713 2034 2713 
Q 2441 2713 2670 2916 
Q 2900 3119 2900 3481 
Q 2900 3844 2670 4047 
Q 2441 4250 2034 4250 
Q 1625 4250 1398 4047 
Q 1172 3844 1172 3481 
z
" transform="scale(0.015625)"/>
       </defs>
       <use xlink:href="#DejaVuSans-38"/>
      </g>
     </g>
    </g>
    <g id="xtick_6">
     <g id="line2d_11">
      <path d="M 684.9 256.32 
L 684.9 34.56 
" clip-path="url(#p0e68be7d63)" style="fill: none; stroke: #b0b0b0; stroke-width: 0.8; stroke-linecap: square"/>
     </g>
     <g id="line2d_12">
      <g>
       <use xlink:href="#m35ddad0b4c" x="684.9" y="256.32" style="stroke: #000000; stroke-width: 0.8"/>
      </g>
     </g>
     <g id="text_6">
      <!-- 10 -->
      <g transform="translate(678.5375 270.918437) scale(0.1 -0.1)">
       <defs>
        <path id="DejaVuSans-31" d="M 794 531 
L 1825 531 
L 1825 4091 
L 703 3866 
L 703 4441 
L 1819 4666 
L 2450 4666 
L 2450 531 
L 3481 531 
L 3481 0 
L 794 0 
L 794 531 
z
" transform="scale(0.015625)"/>
       </defs>
       <use xlink:href="#DejaVuSans-31"/>
       <use xlink:href="#DejaVuSans-30" x="63.623047"/>
      </g>
     </g>
    </g>
    <g id="xtick_7">
     <g id="line2d_13">
      <path d="M 107.144675 256.32 
L 107.144675 34.56 
" clip-path="url(#p0e68be7d63)" style="fill: none; stroke: #b0b0b0; stroke-width: 0.8; stroke-linecap: square"/>
     </g>
     <g id="line2d_14">
      <defs>
       <path id="m729004e8cc" d="M 0 0 
L 0 2 
" style="stroke: #000000; stroke-width: 0.6"/>
      </defs>
      <g>
       <use xlink:href="#m729004e8cc" x="107.144675" y="256.32" style="stroke: #000000; stroke-width: 0.6"/>
      </g>
     </g>
    </g>
    <g id="xtick_8">
     <g id="line2d_15">
      <path d="M 144.418852 256.32 
L 144.418852 34.56 
" clip-path="url(#p0e68be7d63)" style="fill: none; stroke: #b0b0b0; stroke-width: 0.8; stroke-linecap: square"/>
     </g>
     <g id="line2d_16">
      <g>
       <use xlink:href="#m729004e8cc" x="144.418852" y="256.32" style="stroke: #000000; stroke-width: 0.6"/>
      </g>
     </g>
    </g>
    <g id="xtick_9">
     <g id="line2d_17">
      <path d="M 163.05594 256.32 
L 163.05594 34.56 
" clip-path="url(#p0e68be7d63)" style="fill: none; stroke: #b0b0b0; stroke-width: 0.8; stroke-linecap: square"/>
     </g>
     <g id="line2d_18">
      <g>
       <use xlink:href="#m729004e8cc" x="163.05594" y="256.32" style="stroke: #000000; stroke-width: 0.6"/>
      </g>
     </g>
    </g>
    <g id="xtick_10">
     <g id="line2d_19">
      <path d="M 181.693028 256.32 
L 181.693028 34.56 
" clip-path="url(#p0e68be7d63)" style="fill: none; stroke: #b0b0b0; stroke-width: 0.8; stroke-linecap: square"/>
     </g>
     <g id="line2d_20">
      <g>
       <use xlink:href="#m729004e8cc" x="181.693028" y="256.32" style="stroke: #000000; stroke-width: 0.6"/>
      </g>
     </g>
    </g>
    <g id="xtick_11">
     <g id="line2d_21">
      <path d="M 200.330116 256.32 
L 200.330116 34.56 
" clip-path="url(#p0e68be7d63)" style="fill: none; stroke: #b0b0b0; stroke-width: 0.8; stroke-linecap: square"/>
     </g>
     <g id="line2d_22">
      <g>
       <use xlink:href="#m729004e8cc" x="200.330116" y="256.32" style="stroke: #000000; stroke-width: 0.6"/>
      </g>
     </g>
    </g>
    <g id="xtick_12">
     <g id="line2d_23">
      <path d="M 218.967204 256.32 
L 218.967204 34.56 
" clip-path="url(#p0e68be7d63)" style="fill: none; stroke: #b0b0b0; stroke-width: 0.8; stroke-linecap: square"/>
     </g>
     <g id="line2d_24">
      <g>
       <use xlink:href="#m729004e8cc" x="218.967204" y="256.32" style="stroke: #000000; stroke-width: 0.6"/>
      </g>
     </g>
    </g>
    <g id="xtick_13">
     <g id="line2d_25">
      <path d="M 256.241381 256.32 
L 256.241381 34.56 
" clip-path="url(#p0e68be7d63)" style="fill: none; stroke: #b0b0b0; stroke-width: 0.8; stroke-linecap: square"/>
     </g>
     <g id="line2d_26">
      <g>
       <use xlink:href="#m729004e8cc" x="256.241381" y="256.32" style="stroke: #000000; stroke-width: 0.6"/>
      </g>
     </g>
    </g>
    <g id="xtick_14">
     <g id="line2d_27">
      <path d="M 274.878469 256.32 
L 274.878469 34.56 
" clip-path="url(#p0e68be7d63)" style="fill: none; stroke: #b0b0b0; stroke-width: 0.8; stroke-linecap: square"/>
     </g>
     <g id="line2d_28">
      <g>
       <use xlink:href="#m729004e8cc" x="274.878469" y="256.32" style="stroke: #000000; stroke-width: 0.6"/>
      </g>
     </g>
    </g>
    <g id="xtick_15">
     <g id="line2d_29">
      <path d="M 293.515557 256.32 
L 293.515557 34.56 
" clip-path="url(#p0e68be7d63)" style="fill: none; stroke: #b0b0b0; stroke-width: 0.8; stroke-linecap: square"/>
     </g>
     <g id="line2d_30">
      <g>
       <use xlink:href="#m729004e8cc" x="293.515557" y="256.32" style="stroke: #000000; stroke-width: 0.6"/>
      </g>
     </g>
    </g>
    <g id="xtick_16">
     <g id="line2d_31">
      <path d="M 312.152645 256.32 
L 312.152645 34.56 
" clip-path="url(#p0e68be7d63)" style="fill: none; stroke: #b0b0b0; stroke-width: 0.8; stroke-linecap: square"/>
     </g>
     <g id="line2d_32">
      <g>
       <use xlink:href="#m729004e8cc" x="312.152645" y="256.32" style="stroke: #000000; stroke-width: 0.6"/>
      </g>
     </g>
    </g>
    <g id="xtick_17">
     <g id="line2d_33">
      <path d="M 330.789733 256.32 
L 330.789733 34.56 
" clip-path="url(#p0e68be7d63)" style="fill: none; stroke: #b0b0b0; stroke-width: 0.8; stroke-linecap: square"/>
     </g>
     <g id="line2d_34">
      <g>
       <use xlink:href="#m729004e8cc" x="330.789733" y="256.32" style="stroke: #000000; stroke-width: 0.6"/>
      </g>
     </g>
    </g>
    <g id="xtick_18">
     <g id="line2d_35">
      <path d="M 368.06391 256.32 
L 368.06391 34.56 
" clip-path="url(#p0e68be7d63)" style="fill: none; stroke: #b0b0b0; stroke-width: 0.8; stroke-linecap: square"/>
     </g>
     <g id="line2d_36">
      <g>
       <use xlink:href="#m729004e8cc" x="368.06391" y="256.32" style="stroke: #000000; stroke-width: 0.6"/>
      </g>
     </g>
    </g>
    <g id="xtick_19">
     <g id="line2d_37">
      <path d="M 386.700998 256.32 
L 386.700998 34.56 
" clip-path="url(#p0e68be7d63)" style="fill: none; stroke: #b0b0b0; stroke-width: 0.8; stroke-linecap: square"/>
     </g>
     <g id="line2d_38">
      <g>
       <use xlink:href="#m729004e8cc" x="386.700998" y="256.32" style="stroke: #000000; stroke-width: 0.6"/>
      </g>
     </g>
    </g>
    <g id="xtick_20">
     <g id="line2d_39">
      <path d="M 405.338086 256.32 
L 405.338086 34.56 
" clip-path="url(#p0e68be7d63)" style="fill: none; stroke: #b0b0b0; stroke-width: 0.8; stroke-linecap: square"/>
     </g>
     <g id="line2d_40">
      <g>
       <use xlink:href="#m729004e8cc" x="405.338086" y="256.32" style="stroke: #000000; stroke-width: 0.6"/>
      </g>
     </g>
    </g>
    <g id="xtick_21">
     <g id="line2d_41">
      <path d="M 423.975174 256.32 
L 423.975174 34.56 
" clip-path="url(#p0e68be7d63)" style="fill: none; stroke: #b0b0b0; stroke-width: 0.8; stroke-linecap: square"/>
     </g>
     <g id="line2d_42">
      <g>
       <use xlink:href="#m729004e8cc" x="423.975174" y="256.32" style="stroke: #000000; stroke-width: 0.6"/>
      </g>
     </g>
    </g>
    <g id="xtick_22">
     <g id="line2d_43">
      <path d="M 442.612263 256.32 
L 442.612263 34.56 
" clip-path="url(#p0e68be7d63)" style="fill: none; stroke: #b0b0b0; stroke-width: 0.8; stroke-linecap: square"/>
     </g>
     <g id="line2d_44">
      <g>
       <use xlink:href="#m729004e8cc" x="442.612263" y="256.32" style="stroke: #000000; stroke-width: 0.6"/>
      </g>
     </g>
    </g>
    <g id="xtick_23">
     <g id="line2d_45">
      <path d="M 479.886439 256.32 
L 479.886439 34.56 
" clip-path="url(#p0e68be7d63)" style="fill: none; stroke: #b0b0b0; stroke-width: 0.8; stroke-linecap: square"/>
     </g>
     <g id="line2d_46">
      <g>
       <use xlink:href="#m729004e8cc" x="479.886439" y="256.32" style="stroke: #000000; stroke-width: 0.6"/>
      </g>
     </g>
    </g>
    <g id="xtick_24">
     <g id="line2d_47">
      <path d="M 498.523527 256.32 
L 498.523527 34.56 
" clip-path="url(#p0e68be7d63)" style="fill: none; stroke: #b0b0b0; stroke-width: 0.8; stroke-linecap: square"/>
     </g>
     <g id="line2d_48">
      <g>
       <use xlink:href="#m729004e8cc" x="498.523527" y="256.32" style="stroke: #000000; stroke-width: 0.6"/>
      </g>
     </g>
    </g>
    <g id="xtick_25">
     <g id="line2d_49">
      <path d="M 517.160615 256.32 
L 517.160615 34.56 
" clip-path="url(#p0e68be7d63)" style="fill: none; stroke: #b0b0b0; stroke-width: 0.8; stroke-linecap: square"/>
     </g>
     <g id="line2d_50">
      <g>
       <use xlink:href="#m729004e8cc" x="517.160615" y="256.32" style="stroke: #000000; stroke-width: 0.6"/>
      </g>
     </g>
    </g>
    <g id="xtick_26">
     <g id="line2d_51">
      <path d="M 535.797703 256.32 
L 535.797703 34.56 
" clip-path="url(#p0e68be7d63)" style="fill: none; stroke: #b0b0b0; stroke-width: 0.8; stroke-linecap: square"/>
     </g>
     <g id="line2d_52">
      <g>
       <use xlink:href="#m729004e8cc" x="535.797703" y="256.32" style="stroke: #000000; stroke-width: 0.6"/>
      </g>
     </g>
    </g>
    <g id="xtick_27">
     <g id="line2d_53">
      <path d="M 554.434792 256.32 
L 554.434792 34.56 
" clip-path="url(#p0e68be7d63)" style="fill: none; stroke: #b0b0b0; stroke-width: 0.8; stroke-linecap: square"/>
     </g>
     <g id="line2d_54">
      <g>
       <use xlink:href="#m729004e8cc" x="554.434792" y="256.32" style="stroke: #000000; stroke-width: 0.6"/>
      </g>
     </g>
    </g>
    <g id="xtick_28">
     <g id="line2d_55">
      <path d="M 591.708968 256.32 
L 591.708968 34.56 
" clip-path="url(#p0e68be7d63)" style="fill: none; stroke: #b0b0b0; stroke-width: 0.8; stroke-linecap: square"/>
     </g>
     <g id="line2d_56">
      <g>
       <use xlink:href="#m729004e8cc" x="591.708968" y="256.32" style="stroke: #000000; stroke-width: 0.6"/>
      </g>
     </g>
    </g>
    <g id="xtick_29">
     <g id="line2d_57">
      <path d="M 610.346056 256.32 
L 610.346056 34.56 
" clip-path="url(#p0e68be7d63)" style="fill: none; stroke: #b0b0b0; stroke-width: 0.8; stroke-linecap: square"/>
     </g>
     <g id="line2d_58">
      <g>
       <use xlink:href="#m729004e8cc" x="610.346056" y="256.32" style="stroke: #000000; stroke-width: 0.6"/>
      </g>
     </g>
    </g>
    <g id="xtick_30">
     <g id="line2d_59">
      <path d="M 628.983144 256.32 
L 628.983144 34.56 
" clip-path="url(#p0e68be7d63)" style="fill: none; stroke: #b0b0b0; stroke-width: 0.8; stroke-linecap: square"/>
     </g>
     <g id="line2d_60">
      <g>
       <use xlink:href="#m729004e8cc" x="628.983144" y="256.32" style="stroke: #000000; stroke-width: 0.6"/>
      </g>
     </g>
    </g>
    <g id="xtick_31">
     <g id="line2d_61">
      <path d="M 647.620232 256.32 
L 647.620232 34.56 
" clip-path="url(#p0e68be7d63)" style="fill: none; stroke: #b0b0b0; stroke-width: 0.8; stroke-linecap: square"/>
     </g>
     <g id="line2d_62">
      <g>
       <use xlink:href="#m729004e8cc" x="647.620232" y="256.32" style="stroke: #000000; stroke-width: 0.6"/>
      </g>
     </g>
    </g>
    <g id="xtick_32">
     <g id="line2d_63">
      <path d="M 666.257321 256.32 
L 666.257321 34.56 
" clip-path="url(#p0e68be7d63)" style="fill: none; stroke: #b0b0b0; stroke-width: 0.8; stroke-linecap: square"/>
     </g>
     <g id="line2d_64">
      <g>
       <use xlink:href="#m729004e8cc" x="666.257321" y="256.32" style="stroke: #000000; stroke-width: 0.6"/>
      </g>
     </g>
    </g>
    <g id="xtick_33">
     <g id="line2d_65">
      <path d="M 703.531497 256.32 
L 703.531497 34.56 
" clip-path="url(#p0e68be7d63)" style="fill: none; stroke: #b0b0b0; stroke-width: 0.8; stroke-linecap: square"/>
     </g>
     <g id="line2d_66">
      <g>
       <use xlink:href="#m729004e8cc" x="703.531497" y="256.32" style="stroke: #000000; stroke-width: 0.6"/>
      </g>
     </g>
    </g>
    <g id="text_7">
     <!-- Epoch -->
     <g transform="translate(390.589063 284.596563) scale(0.1 -0.1)">
      <defs>
       <path id="DejaVuSans-45" d="M 628 4666 
L 3578 4666 
L 3578 4134 
L 1259 4134 
L 1259 2753 
L 3481 2753 
L 3481 2222 
L 1259 2222 
L 1259 531 
L 3634 531 
L 3634 0 
L 628 0 
L 628 4666 
z
" transform="scale(0.015625)"/>
       <path id="DejaVuSans-70" d="M 1159 525 
L 1159 -1331 
L 581 -1331 
L 581 3500 
L 1159 3500 
L 1159 2969 
Q 1341 3281 1617 3432 
Q 1894 3584 2278 3584 
Q 2916 3584 3314 3078 
Q 3713 2572 3713 1747 
Q 3713 922 3314 415 
Q 2916 -91 2278 -91 
Q 1894 -91 1617 61 
Q 1341 213 1159 525 
z
M 3116 1747 
Q 3116 2381 2855 2742 
Q 2594 3103 2138 3103 
Q 1681 3103 1420 2742 
Q 1159 2381 1159 1747 
Q 1159 1113 1420 752 
Q 1681 391 2138 391 
Q 2594 391 2855 752 
Q 3116 1113 3116 1747 
z
" transform="scale(0.015625)"/>
       <path id="DejaVuSans-6f" d="M 1959 3097 
Q 1497 3097 1228 2736 
Q 959 2375 959 1747 
Q 959 1119 1226 758 
Q 1494 397 1959 397 
Q 2419 397 2687 759 
Q 2956 1122 2956 1747 
Q 2956 2369 2687 2733 
Q 2419 3097 1959 3097 
z
M 1959 3584 
Q 2709 3584 3137 3096 
Q 3566 2609 3566 1747 
Q 3566 888 3137 398 
Q 2709 -91 1959 -91 
Q 1206 -91 779 398 
Q 353 888 353 1747 
Q 353 2609 779 3096 
Q 1206 3584 1959 3584 
z
" transform="scale(0.015625)"/>
       <path id="DejaVuSans-63" d="M 3122 3366 
L 3122 2828 
Q 2878 2963 2633 3030 
Q 2388 3097 2138 3097 
Q 1578 3097 1268 2742 
Q 959 2388 959 1747 
Q 959 1106 1268 751 
Q 1578 397 2138 397 
Q 2388 397 2633 464 
Q 2878 531 3122 666 
L 3122 134 
Q 2881 22 2623 -34 
Q 2366 -91 2075 -91 
Q 1284 -91 818 406 
Q 353 903 353 1747 
Q 353 2603 823 3093 
Q 1294 3584 2113 3584 
Q 2378 3584 2631 3529 
Q 2884 3475 3122 3366 
z
" transform="scale(0.015625)"/>
       <path id="DejaVuSans-68" d="M 3513 2113 
L 3513 0 
L 2938 0 
L 2938 2094 
Q 2938 2591 2744 2837 
Q 2550 3084 2163 3084 
Q 1697 3084 1428 2787 
Q 1159 2491 1159 1978 
L 1159 0 
L 581 0 
L 581 4863 
L 1159 4863 
L 1159 2956 
Q 1366 3272 1645 3428 
Q 1925 3584 2291 3584 
Q 2894 3584 3203 3211 
Q 3513 2838 3513 2113 
z
" transform="scale(0.015625)"/>
      </defs>
      <use xlink:href="#DejaVuSans-45"/>
      <use xlink:href="#DejaVuSans-70" x="63.183594"/>
      <use xlink:href="#DejaVuSans-6f" x="126.660156"/>
      <use xlink:href="#DejaVuSans-63" x="187.841797"/>
      <use xlink:href="#DejaVuSans-68" x="242.822266"/>
     </g>
    </g>
   </g>
   <g id="matplotlib.axis_2">
    <g id="ytick_1">
     <g id="line2d_67">
      <path d="M 99 233.968694 
L 712.8 233.968694 
" clip-path="url(#p0e68be7d63)" style="fill: none; stroke: #b0b0b0; stroke-width: 0.8; stroke-linecap: square"/>
     </g>
     <g id="line2d_68">
      <defs>
       <path id="mef66b680b2" d="M 0 0 
L -3.5 0 
" style="stroke: #000000; stroke-width: 0.8"/>
      </defs>
      <g>
       <use xlink:href="#mef66b680b2" x="99" y="233.968694" style="stroke: #000000; stroke-width: 0.8"/>
      </g>
     </g>
     <g id="text_8">
      <!-- 0.4 -->
      <g transform="translate(76.096875 237.767912) scale(0.1 -0.1)">
       <defs>
        <path id="DejaVuSans-2e" d="M 684 794 
L 1344 794 
L 1344 0 
L 684 0 
L 684 794 
z
" transform="scale(0.015625)"/>
       </defs>
       <use xlink:href="#DejaVuSans-30"/>
       <use xlink:href="#DejaVuSans-2e" x="63.623047"/>
       <use xlink:href="#DejaVuSans-34" x="95.410156"/>
      </g>
     </g>
    </g>
    <g id="ytick_2">
     <g id="line2d_69">
      <path d="M 99 202.413911 
L 712.8 202.413911 
" clip-path="url(#p0e68be7d63)" style="fill: none; stroke: #b0b0b0; stroke-width: 0.8; stroke-linecap: square"/>
     </g>
     <g id="line2d_70">
      <g>
       <use xlink:href="#mef66b680b2" x="99" y="202.413911" style="stroke: #000000; stroke-width: 0.8"/>
      </g>
     </g>
     <g id="text_9">
      <!-- 0.5 -->
      <g transform="translate(76.096875 206.21313) scale(0.1 -0.1)">
       <defs>
        <path id="DejaVuSans-35" d="M 691 4666 
L 3169 4666 
L 3169 4134 
L 1269 4134 
L 1269 2991 
Q 1406 3038 1543 3061 
Q 1681 3084 1819 3084 
Q 2600 3084 3056 2656 
Q 3513 2228 3513 1497 
Q 3513 744 3044 326 
Q 2575 -91 1722 -91 
Q 1428 -91 1123 -41 
Q 819 9 494 109 
L 494 744 
Q 775 591 1075 516 
Q 1375 441 1709 441 
Q 2250 441 2565 725 
Q 2881 1009 2881 1497 
Q 2881 1984 2565 2268 
Q 2250 2553 1709 2553 
Q 1456 2553 1204 2497 
Q 953 2441 691 2322 
L 691 4666 
z
" transform="scale(0.015625)"/>
       </defs>
       <use xlink:href="#DejaVuSans-30"/>
       <use xlink:href="#DejaVuSans-2e" x="63.623047"/>
       <use xlink:href="#DejaVuSans-35" x="95.410156"/>
      </g>
     </g>
    </g>
    <g id="ytick_3">
     <g id="line2d_71">
      <path d="M 99 170.859129 
L 712.8 170.859129 
" clip-path="url(#p0e68be7d63)" style="fill: none; stroke: #b0b0b0; stroke-width: 0.8; stroke-linecap: square"/>
     </g>
     <g id="line2d_72">
      <g>
       <use xlink:href="#mef66b680b2" x="99" y="170.859129" style="stroke: #000000; stroke-width: 0.8"/>
      </g>
     </g>
     <g id="text_10">
      <!-- 0.6 -->
      <g transform="translate(76.096875 174.658348) scale(0.1 -0.1)">
       <use xlink:href="#DejaVuSans-30"/>
       <use xlink:href="#DejaVuSans-2e" x="63.623047"/>
       <use xlink:href="#DejaVuSans-36" x="95.410156"/>
      </g>
     </g>
    </g>
    <g id="ytick_4">
     <g id="line2d_73">
      <path d="M 99 139.304347 
L 712.8 139.304347 
" clip-path="url(#p0e68be7d63)" style="fill: none; stroke: #b0b0b0; stroke-width: 0.8; stroke-linecap: square"/>
     </g>
     <g id="line2d_74">
      <g>
       <use xlink:href="#mef66b680b2" x="99" y="139.304347" style="stroke: #000000; stroke-width: 0.8"/>
      </g>
     </g>
     <g id="text_11">
      <!-- 0.7 -->
      <g transform="translate(76.096875 143.103566) scale(0.1 -0.1)">
       <defs>
        <path id="DejaVuSans-37" d="M 525 4666 
L 3525 4666 
L 3525 4397 
L 1831 0 
L 1172 0 
L 2766 4134 
L 525 4134 
L 525 4666 
z
" transform="scale(0.015625)"/>
       </defs>
       <use xlink:href="#DejaVuSans-30"/>
       <use xlink:href="#DejaVuSans-2e" x="63.623047"/>
       <use xlink:href="#DejaVuSans-37" x="95.410156"/>
      </g>
     </g>
    </g>
    <g id="ytick_5">
     <g id="line2d_75">
      <path d="M 99 107.749565 
L 712.8 107.749565 
" clip-path="url(#p0e68be7d63)" style="fill: none; stroke: #b0b0b0; stroke-width: 0.8; stroke-linecap: square"/>
     </g>
     <g id="line2d_76">
      <g>
       <use xlink:href="#mef66b680b2" x="99" y="107.749565" style="stroke: #000000; stroke-width: 0.8"/>
      </g>
     </g>
     <g id="text_12">
      <!-- 0.8 -->
      <g transform="translate(76.096875 111.548783) scale(0.1 -0.1)">
       <use xlink:href="#DejaVuSans-30"/>
       <use xlink:href="#DejaVuSans-2e" x="63.623047"/>
       <use xlink:href="#DejaVuSans-38" x="95.410156"/>
      </g>
     </g>
    </g>
    <g id="ytick_6">
     <g id="line2d_77">
      <path d="M 99 76.194782 
L 712.8 76.194782 
" clip-path="url(#p0e68be7d63)" style="fill: none; stroke: #b0b0b0; stroke-width: 0.8; stroke-linecap: square"/>
     </g>
     <g id="line2d_78">
      <g>
       <use xlink:href="#mef66b680b2" x="99" y="76.194782" style="stroke: #000000; stroke-width: 0.8"/>
      </g>
     </g>
     <g id="text_13">
      <!-- 0.9 -->
      <g transform="translate(76.096875 79.994001) scale(0.1 -0.1)">
       <defs>
        <path id="DejaVuSans-39" d="M 703 97 
L 703 672 
Q 941 559 1184 500 
Q 1428 441 1663 441 
Q 2288 441 2617 861 
Q 2947 1281 2994 2138 
Q 2813 1869 2534 1725 
Q 2256 1581 1919 1581 
Q 1219 1581 811 2004 
Q 403 2428 403 3163 
Q 403 3881 828 4315 
Q 1253 4750 1959 4750 
Q 2769 4750 3195 4129 
Q 3622 3509 3622 2328 
Q 3622 1225 3098 567 
Q 2575 -91 1691 -91 
Q 1453 -91 1209 -44 
Q 966 3 703 97 
z
M 1959 2075 
Q 2384 2075 2632 2365 
Q 2881 2656 2881 3163 
Q 2881 3666 2632 3958 
Q 2384 4250 1959 4250 
Q 1534 4250 1286 3958 
Q 1038 3666 1038 3163 
Q 1038 2656 1286 2365 
Q 1534 2075 1959 2075 
z
" transform="scale(0.015625)"/>
       </defs>
       <use xlink:href="#DejaVuSans-30"/>
       <use xlink:href="#DejaVuSans-2e" x="63.623047"/>
       <use xlink:href="#DejaVuSans-39" x="95.410156"/>
      </g>
     </g>
    </g>
    <g id="ytick_7">
     <g id="line2d_79">
      <path d="M 99 44.64 
L 712.8 44.64 
" clip-path="url(#p0e68be7d63)" style="fill: none; stroke: #b0b0b0; stroke-width: 0.8; stroke-linecap: square"/>
     </g>
     <g id="line2d_80">
      <g>
       <use xlink:href="#mef66b680b2" x="99" y="44.64" style="stroke: #000000; stroke-width: 0.8"/>
      </g>
     </g>
     <g id="text_14">
      <!-- 1.0 -->
      <g transform="translate(76.096875 48.439219) scale(0.1 -0.1)">
       <use xlink:href="#DejaVuSans-31"/>
       <use xlink:href="#DejaVuSans-2e" x="63.623047"/>
       <use xlink:href="#DejaVuSans-30" x="95.410156"/>
      </g>
     </g>
    </g>
    <g id="ytick_8">
     <g id="line2d_81">
      <path d="M 99 249.746085 
L 712.8 249.746085 
" clip-path="url(#p0e68be7d63)" style="fill: none; stroke: #b0b0b0; stroke-width: 0.8; stroke-linecap: square"/>
     </g>
     <g id="line2d_82">
      <defs>
       <path id="m95a465c1b1" d="M 0 0 
L -2 0 
" style="stroke: #000000; stroke-width: 0.6"/>
      </defs>
      <g>
       <use xlink:href="#m95a465c1b1" x="99" y="249.746085" style="stroke: #000000; stroke-width: 0.6"/>
      </g>
     </g>
    </g>
    <g id="ytick_9">
     <g id="line2d_83">
      <path d="M 99 218.191303 
L 712.8 218.191303 
" clip-path="url(#p0e68be7d63)" style="fill: none; stroke: #b0b0b0; stroke-width: 0.8; stroke-linecap: square"/>
     </g>
     <g id="line2d_84">
      <g>
       <use xlink:href="#m95a465c1b1" x="99" y="218.191303" style="stroke: #000000; stroke-width: 0.6"/>
      </g>
     </g>
    </g>
    <g id="ytick_10">
     <g id="line2d_85">
      <path d="M 99 186.63652 
L 712.8 186.63652 
" clip-path="url(#p0e68be7d63)" style="fill: none; stroke: #b0b0b0; stroke-width: 0.8; stroke-linecap: square"/>
     </g>
     <g id="line2d_86">
      <g>
       <use xlink:href="#m95a465c1b1" x="99" y="186.63652" style="stroke: #000000; stroke-width: 0.6"/>
      </g>
     </g>
    </g>
    <g id="ytick_11">
     <g id="line2d_87">
      <path d="M 99 155.081738 
L 712.8 155.081738 
" clip-path="url(#p0e68be7d63)" style="fill: none; stroke: #b0b0b0; stroke-width: 0.8; stroke-linecap: square"/>
     </g>
     <g id="line2d_88">
      <g>
       <use xlink:href="#m95a465c1b1" x="99" y="155.081738" style="stroke: #000000; stroke-width: 0.6"/>
      </g>
     </g>
    </g>
    <g id="ytick_12">
     <g id="line2d_89">
      <path d="M 99 123.526956 
L 712.8 123.526956 
" clip-path="url(#p0e68be7d63)" style="fill: none; stroke: #b0b0b0; stroke-width: 0.8; stroke-linecap: square"/>
     </g>
     <g id="line2d_90">
      <g>
       <use xlink:href="#m95a465c1b1" x="99" y="123.526956" style="stroke: #000000; stroke-width: 0.6"/>
      </g>
     </g>
    </g>
    <g id="ytick_13">
     <g id="line2d_91">
      <path d="M 99 91.972173 
L 712.8 91.972173 
" clip-path="url(#p0e68be7d63)" style="fill: none; stroke: #b0b0b0; stroke-width: 0.8; stroke-linecap: square"/>
     </g>
     <g id="line2d_92">
      <g>
       <use xlink:href="#m95a465c1b1" x="99" y="91.972173" style="stroke: #000000; stroke-width: 0.6"/>
      </g>
     </g>
    </g>
    <g id="ytick_14">
     <g id="line2d_93">
      <path d="M 99 60.417391 
L 712.8 60.417391 
" clip-path="url(#p0e68be7d63)" style="fill: none; stroke: #b0b0b0; stroke-width: 0.8; stroke-linecap: square"/>
     </g>
     <g id="line2d_94">
      <g>
       <use xlink:href="#m95a465c1b1" x="99" y="60.417391" style="stroke: #000000; stroke-width: 0.6"/>
      </g>
     </g>
    </g>
    <g id="text_15">
     <!-- Accuracy (%) -->
     <g transform="translate(70.017187 178.509531) rotate(-90) scale(0.1 -0.1)">
      <defs>
       <path id="DejaVuSans-41" d="M 2188 4044 
L 1331 1722 
L 3047 1722 
L 2188 4044 
z
M 1831 4666 
L 2547 4666 
L 4325 0 
L 3669 0 
L 3244 1197 
L 1141 1197 
L 716 0 
L 50 0 
L 1831 4666 
z
" transform="scale(0.015625)"/>
       <path id="DejaVuSans-75" d="M 544 1381 
L 544 3500 
L 1119 3500 
L 1119 1403 
Q 1119 906 1312 657 
Q 1506 409 1894 409 
Q 2359 409 2629 706 
Q 2900 1003 2900 1516 
L 2900 3500 
L 3475 3500 
L 3475 0 
L 2900 0 
L 2900 538 
Q 2691 219 2414 64 
Q 2138 -91 1772 -91 
Q 1169 -91 856 284 
Q 544 659 544 1381 
z
M 1991 3584 
L 1991 3584 
z
" transform="scale(0.015625)"/>
       <path id="DejaVuSans-72" d="M 2631 2963 
Q 2534 3019 2420 3045 
Q 2306 3072 2169 3072 
Q 1681 3072 1420 2755 
Q 1159 2438 1159 1844 
L 1159 0 
L 581 0 
L 581 3500 
L 1159 3500 
L 1159 2956 
Q 1341 3275 1631 3429 
Q 1922 3584 2338 3584 
Q 2397 3584 2469 3576 
Q 2541 3569 2628 3553 
L 2631 2963 
z
" transform="scale(0.015625)"/>
       <path id="DejaVuSans-61" d="M 2194 1759 
Q 1497 1759 1228 1600 
Q 959 1441 959 1056 
Q 959 750 1161 570 
Q 1363 391 1709 391 
Q 2188 391 2477 730 
Q 2766 1069 2766 1631 
L 2766 1759 
L 2194 1759 
z
M 3341 1997 
L 3341 0 
L 2766 0 
L 2766 531 
Q 2569 213 2275 61 
Q 1981 -91 1556 -91 
Q 1019 -91 701 211 
Q 384 513 384 1019 
Q 384 1609 779 1909 
Q 1175 2209 1959 2209 
L 2766 2209 
L 2766 2266 
Q 2766 2663 2505 2880 
Q 2244 3097 1772 3097 
Q 1472 3097 1187 3025 
Q 903 2953 641 2809 
L 641 3341 
Q 956 3463 1253 3523 
Q 1550 3584 1831 3584 
Q 2591 3584 2966 3190 
Q 3341 2797 3341 1997 
z
" transform="scale(0.015625)"/>
       <path id="DejaVuSans-79" d="M 2059 -325 
Q 1816 -950 1584 -1140 
Q 1353 -1331 966 -1331 
L 506 -1331 
L 506 -850 
L 844 -850 
Q 1081 -850 1212 -737 
Q 1344 -625 1503 -206 
L 1606 56 
L 191 3500 
L 800 3500 
L 1894 763 
L 2988 3500 
L 3597 3500 
L 2059 -325 
z
" transform="scale(0.015625)"/>
       <path id="DejaVuSans-20" transform="scale(0.015625)"/>
       <path id="DejaVuSans-28" d="M 1984 4856 
Q 1566 4138 1362 3434 
Q 1159 2731 1159 2009 
Q 1159 1288 1364 580 
Q 1569 -128 1984 -844 
L 1484 -844 
Q 1016 -109 783 600 
Q 550 1309 550 2009 
Q 550 2706 781 3412 
Q 1013 4119 1484 4856 
L 1984 4856 
z
" transform="scale(0.015625)"/>
       <path id="DejaVuSans-25" d="M 4653 2053 
Q 4381 2053 4226 1822 
Q 4072 1591 4072 1178 
Q 4072 772 4226 539 
Q 4381 306 4653 306 
Q 4919 306 5073 539 
Q 5228 772 5228 1178 
Q 5228 1588 5073 1820 
Q 4919 2053 4653 2053 
z
M 4653 2450 
Q 5147 2450 5437 2106 
Q 5728 1763 5728 1178 
Q 5728 594 5436 251 
Q 5144 -91 4653 -91 
Q 4153 -91 3862 251 
Q 3572 594 3572 1178 
Q 3572 1766 3864 2108 
Q 4156 2450 4653 2450 
z
M 1428 4353 
Q 1159 4353 1004 4120 
Q 850 3888 850 3481 
Q 850 3069 1003 2837 
Q 1156 2606 1428 2606 
Q 1700 2606 1854 2837 
Q 2009 3069 2009 3481 
Q 2009 3884 1853 4118 
Q 1697 4353 1428 4353 
z
M 4250 4750 
L 4750 4750 
L 1831 -91 
L 1331 -91 
L 4250 4750 
z
M 1428 4750 
Q 1922 4750 2215 4408 
Q 2509 4066 2509 3481 
Q 2509 2891 2217 2550 
Q 1925 2209 1428 2209 
Q 931 2209 642 2551 
Q 353 2894 353 3481 
Q 353 4063 643 4406 
Q 934 4750 1428 4750 
z
" transform="scale(0.015625)"/>
       <path id="DejaVuSans-29" d="M 513 4856 
L 1013 4856 
Q 1481 4119 1714 3412 
Q 1947 2706 1947 2009 
Q 1947 1309 1714 600 
Q 1481 -109 1013 -844 
L 513 -844 
Q 928 -128 1133 580 
Q 1338 1288 1338 2009 
Q 1338 2731 1133 3434 
Q 928 4138 513 4856 
z
" transform="scale(0.015625)"/>
      </defs>
      <use xlink:href="#DejaVuSans-41"/>
      <use xlink:href="#DejaVuSans-63" x="66.658203"/>
      <use xlink:href="#DejaVuSans-63" x="121.638672"/>
      <use xlink:href="#DejaVuSans-75" x="176.619141"/>
      <use xlink:href="#DejaVuSans-72" x="239.998047"/>
      <use xlink:href="#DejaVuSans-61" x="281.111328"/>
      <use xlink:href="#DejaVuSans-63" x="342.390625"/>
      <use xlink:href="#DejaVuSans-79" x="397.371094"/>
      <use xlink:href="#DejaVuSans-20" x="456.550781"/>
      <use xlink:href="#DejaVuSans-28" x="488.337891"/>
      <use xlink:href="#DejaVuSans-25" x="527.351562"/>
      <use xlink:href="#DejaVuSans-29" x="622.371094"/>
     </g>
    </g>
   </g>
   <g id="line2d_95">
    <path d="M 126.9 246.24 
L 128.018236 167.353044 
L 129.136473 202.413911 
L 130.254709 180.500877 
L 131.372946 204.166959 
L 132.491182 192.187826 
L 133.609419 206.170438 
L 134.727655 198.031301 
L 135.845892 206.309561 
L 136.964128 201.537397 
L 138.082365 194.445533 
L 139.200601 191.457394 
L 140.318838 186.231973 
L 141.437074 182.37913 
L 142.555311 179.624343 
L 143.673547 175.022599 
L 144.791784 173.02465 
L 145.91002 168.813908 
L 147.028257 167.353044 
L 149.264729 163.179128 
L 150.382966 162.572021 
L 151.501202 160.493311 
L 153.737675 158.237221 
L 154.855912 157.913571 
L 157.092385 155.457381 
L 158.210621 154.658582 
L 160.447094 151.519093 
L 161.565331 150.644347 
L 162.683567 150.088228 
L 163.801804 149.049212 
L 164.92004 147.819123 
L 166.038277 148.605208 
L 167.156513 148.164327 
L 168.274749 147.054649 
L 169.392986 147.799864 
L 170.511222 146.973905 
L 171.629459 145.974461 
L 172.747695 145.231296 
L 173.865932 145.134227 
L 174.984168 145.240794 
L 177.220641 144.296702 
L 178.338878 144.227789 
L 180.575351 144.456157 
L 181.693587 144.914078 
L 182.811824 193.64869 
L 183.93006 154.205212 
L 185.048297 149.822601 
L 186.166533 156.396527 
L 187.28477 148.069572 
L 188.403006 141.057399 
L 189.521242 138.553042 
L 190.639479 138.866084 
L 191.757715 137.16173 
L 192.875952 140.180865 
L 193.994188 135.479532 
L 195.112425 138.135652 
L 196.230661 137.011905 
L 197.348898 134.170431 
L 198.467134 134.045225 
L 199.585371 132.840001 
L 200.703607 129.714168 
L 201.821844 127.909566 
L 202.94008 129.06288 
L 204.058317 129.224348 
L 205.176553 127.283482 
L 206.29479 127.511154 
L 207.413026 128.100111 
L 208.531263 126.813918 
L 209.649499 129.837906 
L 210.767735 133.977798 
L 211.885972 133.26608 
L 213.004208 134.170431 
L 214.122445 134.105675 
L 215.240681 134.337391 
L 216.358918 133.988669 
L 217.477154 133.387825 
L 219.713627 131.260966 
L 220.831864 131.540868 
L 221.9501 130.587823 
L 224.186573 129.293543 
L 225.30481 127.797188 
L 226.423046 126.594785 
L 227.541283 126.306175 
L 228.659519 124.779125 
L 229.777756 124.953852 
L 230.895992 124.124584 
L 233.132465 122.955302 
L 234.250701 122.594487 
L 235.368938 122.613916 
L 236.487174 122.274787 
L 237.605411 122.650441 
L 238.723647 97.23131 
L 239.841884 84.083478 
L 240.96012 76.779139 
L 242.078357 77.509571 
L 243.196593 76.19479 
L 244.31483 73.857392 
L 245.433066 74.692172 
L 246.551303 75.318256 
L 247.669539 77.753042 
L 248.787776 78.824352 
L 249.906012 79.700867 
L 251.024248 81.892182 
L 252.142485 81.049371 
L 253.260721 81.579121 
L 254.378958 85.544342 
L 255.497194 87.918265 
L 256.615431 87.434877 
L 258.851904 84.775466 
L 259.97014 85.836526 
L 261.088377 84.709562 
L 262.206613 84.48189 
L 263.32485 85.036222 
L 264.443086 84.083478 
L 265.561323 83.557565 
L 266.679559 84.75773 
L 267.797796 85.219714 
L 268.916032 84.709562 
L 270.034269 85.443606 
L 271.152505 86.713041 
L 273.388978 88.466089 
L 274.507214 88.466089 
L 275.625451 89.239497 
L 276.743687 88.966949 
L 277.861924 89.196521 
L 281.216633 88.466089 
L 282.33487 88.466089 
L 283.453106 87.824732 
L 284.571343 87.422614 
L 285.689579 87.854562 
L 286.807816 87.270833 
L 287.926052 87.881739 
L 290.162525 87.53362 
L 291.280762 87.735657 
L 292.398998 87.571669 
L 293.517234 87.063643 
L 294.635471 105.996513 
L 295.753707 110.379123 
L 296.871944 103.074785 
L 297.99018 92.848699 
L 300.226653 81.161731 
L 301.34489 80.953036 
L 302.463126 85.179126 
L 303.581363 82.622614 
L 304.699599 81.453915 
L 305.817836 81.294554 
L 306.936072 80.431299 
L 308.054309 81.049371 
L 309.172545 80.326952 
L 310.290782 79.116518 
L 311.409018 80.248691 
L 312.527255 79.185261 
L 314.763727 81.084844 
L 317.0002 78.448698 
L 318.118437 78.904024 
L 319.236673 78.176488 
L 320.35491 78.605219 
L 321.473146 78.29844 
L 322.591383 79.026615 
L 323.709619 79.376239 
L 324.827856 78.76174 
L 325.946092 77.585123 
L 327.064329 77.36347 
L 328.182565 76.873387 
L 329.300802 76.140002 
L 330.419038 76.513512 
L 331.537275 77.122857 
L 332.655511 76.69565 
L 333.773747 76.535649 
L 336.01022 77.163577 
L 337.128457 77.003877 
L 338.246693 76.633038 
L 340.483166 75.109562 
L 341.601403 74.80865 
L 342.719639 75.318256 
L 343.837876 75.415645 
L 344.956112 75.318256 
L 346.074349 75.038523 
L 347.192585 75.135648 
L 349.429058 74.617052 
L 350.547295 53.405221 
L 351.665531 57.787832 
L 352.783768 56.326949 
L 353.902004 64.361739 
L 355.02024 63.923472 
L 356.138477 60.70956 
L 357.256713 58.413917 
L 358.37495 57.787832 
L 359.493186 58.274774 
L 360.611423 56.911299 
L 361.729659 57.389401 
L 362.847896 59.248696 
L 363.966132 58.799201 
L 365.084369 59.040001 
L 366.202605 58.079997 
L 367.320842 57.787832 
L 368.439078 58.045635 
L 369.557315 57.787832 
L 371.793788 56.473051 
L 375.148497 57.216178 
L 376.266733 57.0574 
L 377.38497 56.560697 
L 378.503206 56.439328 
L 379.621443 57.625499 
L 380.739679 57.47479 
L 381.857916 57.636709 
L 382.976152 58.372182 
L 384.094389 58.211955 
L 385.212625 57.787832 
L 386.330862 58.186245 
L 387.449098 58.819025 
L 388.567335 58.664347 
L 389.685571 59.005225 
L 393.040281 58.574444 
L 394.158517 59.102614 
L 395.276754 59.391224 
L 396.39499 59.040001 
L 397.513226 59.112808 
L 398.631463 58.783872 
L 401.986172 58.440549 
L 404.222645 57.877265 
L 405.340882 57.787832 
L 406.459118 44.64 
L 409.813828 44.64 
L 410.932064 48.146096 
L 412.050301 49.022611 
L 413.168537 49.648695 
L 414.286774 52.309573 
L 415.40501 52.4313 
L 416.523246 51.652173 
L 418.759719 50.483475 
L 419.877956 50.03398 
L 420.996192 50.27478 
L 422.114429 49.899125 
L 423.232665 50.118259 
L 424.350902 51.858423 
L 425.469138 51.944339 
L 427.705611 51.213907 
L 428.823848 51.318254 
L 429.942084 51.01471 
L 431.060321 52.261933 
L 432.178557 52.674789 
L 433.296794 53.405221 
L 434.41503 54.41659 
L 435.533267 54.054496 
L 436.651503 54.031306 
L 437.769739 53.707468 
L 438.887976 53.989571 
L 440.006212 54.818971 
L 441.124449 55.048693 
L 442.242685 55.795733 
L 443.360922 56.241015 
L 444.479158 56.160009 
L 445.597395 55.840007 
L 446.715631 56.247993 
L 447.833868 56.865162 
L 448.952104 56.776463 
L 451.188577 57.467154 
L 452.306814 57.370443 
L 453.42505 57.685911 
L 454.543287 58.186245 
L 455.661523 58.274774 
L 456.77976 58.168922 
L 459.016232 58.335656 
L 461.252705 57.787832 
L 463.489178 49.022611 
L 464.607415 47.561747 
L 465.725651 46.831296 
L 466.843888 46.393048 
L 467.962124 46.100864 
L 469.080361 48.396526 
L 470.198597 50.118259 
L 472.43507 50.775659 
L 473.553307 51.01471 
L 474.671543 53.405221 
L 476.908016 53.405221 
L 478.026253 53.989571 
L 479.144489 53.405221 
L 481.380962 53.405221 
L 483.617435 52.528688 
L 486.972144 51.499734 
L 488.090381 51.579123 
L 491.44509 50.808122 
L 493.681563 50.38272 
L 494.7998 50.483475 
L 495.918036 50.29498 
L 497.036273 50.39218 
L 499.272745 50.053803 
L 500.390982 50.149574 
L 504.863928 49.584484 
L 505.982164 49.679992 
L 507.100401 49.984646 
L 508.218637 50.066085 
L 509.336874 50.347586 
L 510.45511 50.217867 
L 512.691583 50.356445 
L 513.80982 50.234813 
L 514.928056 50.666083 
L 517.164529 51.126261 
L 518.282766 53.405221 
L 519.401002 49.022611 
L 520.519238 47.561747 
L 521.637475 46.831296 
L 522.755711 48.146096 
L 523.873948 47.561747 
L 526.110421 46.831296 
L 528.346894 46.393048 
L 531.701603 45.988504 
L 532.81984 46.518254 
L 533.938076 46.393048 
L 535.056313 46.831296 
L 537.292786 46.587825 
L 540.647495 47.561747 
L 546.238677 46.999873 
L 549.593387 46.755744 
L 550.711623 47.269563 
L 551.82986 47.184738 
L 552.948096 47.926963 
L 554.066333 48.092963 
L 555.184569 49.022611 
L 557.421042 49.266082 
L 558.539279 49.141064 
L 563.012224 49.557081 
L 565.248697 49.328374 
L 566.366934 49.421023 
L 567.48517 49.314776 
L 568.603407 49.78481 
L 569.721643 50.421314 
L 571.958116 50.543096 
L 573.076353 50.775659 
L 574.194589 44.64 
L 575.312826 53.405221 
L 576.431062 53.405221 
L 577.549299 51.213907 
L 578.667535 49.899125 
L 579.785772 49.022611 
L 580.904008 48.396526 
L 583.140481 47.561747 
L 585.376954 47.030512 
L 587.613427 46.662738 
L 588.731663 47.144357 
L 589.8499 48.146096 
L 590.968136 50.118259 
L 592.086373 50.827212 
L 594.322846 51.098575 
L 597.677555 50.217867 
L 598.795792 50.356445 
L 599.914028 50.118259 
L 601.032265 50.249746 
L 605.50521 49.47598 
L 606.623447 49.314776 
L 607.741683 49.446734 
L 609.978156 49.155415 
L 611.096393 49.280414 
L 612.214629 49.147835 
L 613.332866 49.266082 
L 617.805812 48.803477 
L 618.924048 48.915724 
L 620.042285 49.231306 
L 621.160521 49.328374 
L 628.988176 48.672009 
L 630.106413 44.64 
L 632.342886 44.64 
L 633.461122 46.831296 
L 634.579359 46.393048 
L 636.815832 45.892169 
L 640.170541 45.516515 
L 641.288778 45.436843 
L 642.407014 46.100864 
L 646.87996 45.735648 
L 653.589379 45.436843 
L 664.771743 45.187824 
L 679.308818 45.029573 
L 684.9 45.867136 
L 684.9 45.867136 
" clip-path="url(#p0e68be7d63)" style="fill: none; stroke: #1f77b4; stroke-opacity: 0.5; stroke-width: 1.5; stroke-linecap: square"/>
   </g>
   <g id="line2d_96">
    <path d="M 126.9 246.24 
L 128.018236 184.883479 
L 129.136473 197.704243 
L 130.254709 185.333688 
L 131.372946 198.811686 
L 132.491182 194.077782 
L 133.609419 202.716736 
L 134.727655 199.369848 
L 135.845892 204.326849 
L 136.964128 202.334376 
L 138.082365 196.699483 
L 139.200601 192.955132 
L 140.318838 188.152875 
L 141.437074 184.028772 
L 142.555311 180.882751 
L 143.673547 176.696928 
L 144.791784 174.073873 
L 145.91002 170.316755 
L 149.264729 163.993593 
L 150.382966 162.978185 
L 151.501202 161.203275 
L 152.619439 159.856832 
L 153.737675 158.699967 
L 154.855912 158.138255 
L 158.210621 155.018295 
L 160.447094 152.11442 
L 161.565331 151.064368 
L 162.683567 150.367125 
L 163.801804 149.425758 
L 164.92004 148.278162 
L 166.038277 148.511767 
L 167.156513 148.263596 
L 168.274749 147.400062 
L 169.392986 147.685635 
L 170.511222 147.177257 
L 172.747695 145.541816 
L 173.865932 145.250681 
L 174.984168 145.243619 
L 178.338878 144.296476 
L 180.575351 144.420302 
L 181.693587 144.772999 
L 182.811824 179.684207 
L 183.93006 161.484925 
L 185.048297 153.154694 
L 186.166533 155.470289 
L 187.28477 150.184063 
L 188.403006 143.665017 
L 189.521242 140.013606 
L 190.639479 139.193947 
L 191.757715 137.742364 
L 192.875952 139.48415 
L 193.994188 136.623709 
L 195.112425 137.703668 
L 196.230661 137.209551 
L 197.348898 135.038751 
L 198.467134 134.32909 
L 199.585371 133.265455 
L 200.703607 130.728821 
L 201.821844 128.715068 
L 204.058317 129.149821 
L 205.176553 127.816722 
L 206.29479 127.598459 
L 207.413026 127.956782 
L 208.531263 127.140451 
L 209.649499 129.067205 
L 210.767735 132.574771 
L 211.885972 133.068563 
L 213.004208 133.855612 
L 215.240681 134.250773 
L 216.358918 134.063556 
L 217.477154 133.580891 
L 219.713627 131.660799 
L 220.831864 131.575134 
L 224.186573 129.550728 
L 226.423046 127.081475 
L 227.541283 126.527689 
L 228.659519 125.278715 
L 229.777756 125.04667 
L 233.132465 123.188924 
L 234.250701 122.764326 
L 235.368938 122.65689 
L 236.487174 122.383959 
L 237.605411 122.574303 
L 238.723647 104.472165 
L 239.841884 89.908817 
L 240.96012 80.530476 
L 242.078357 78.372687 
L 243.196593 76.817046 
L 244.31483 74.703008 
L 245.433066 74.695268 
L 246.551303 75.14026 
L 247.669539 77.006533 
L 248.787776 78.304975 
L 249.906012 79.302041 
L 251.024248 81.152142 
L 252.142485 81.078734 
L 253.260721 81.436153 
L 254.378958 84.370574 
L 255.497194 86.904639 
L 256.615431 87.28338 
L 257.733667 86.389039 
L 258.851904 85.236487 
L 259.97014 85.665086 
L 261.088377 84.982569 
L 262.206613 84.624941 
L 263.32485 84.918713 
L 265.561323 83.776009 
L 266.679559 84.477238 
L 267.797796 85.007578 
L 268.916032 84.79471 
L 270.034269 85.258207 
L 272.270741 87.240566 
L 273.388978 88.115939 
L 274.507214 88.366046 
L 275.625451 88.98994 
L 276.743687 88.973518 
L 277.861924 89.132805 
L 280.098397 88.781966 
L 281.216633 88.556339 
L 282.33487 88.491875 
L 284.571343 87.591966 
L 285.689579 87.779534 
L 286.807816 87.416176 
L 287.926052 87.748721 
L 292.398998 87.6063 
L 293.517234 87.218687 
L 294.635471 100.63142 
L 295.753707 107.594065 
L 296.871944 104.366008 
L 297.99018 96.139359 
L 299.108417 89.406274 
L 300.226653 83.517315 
L 301.34489 81.685687 
L 302.463126 84.181001 
L 304.699599 81.915044 
L 305.817836 81.471837 
L 306.936072 80.728596 
L 308.054309 80.957721 
L 309.172545 80.507172 
L 310.290782 79.513847 
L 311.409018 80.038736 
L 312.527255 79.429111 
L 313.645491 79.971052 
L 314.763727 80.766617 
L 315.881964 80.005367 
L 317.0002 78.893461 
L 318.118437 78.901006 
L 319.236673 78.383493 
L 320.35491 78.541869 
L 321.473146 78.367991 
L 323.709619 79.222581 
L 324.827856 78.893409 
L 325.946092 77.958919 
L 328.182565 77.062018 
L 329.300802 76.403435 
L 330.419038 76.482062 
L 331.537275 76.939773 
L 333.773747 76.601292 
L 336.01022 77.055333 
L 337.128457 77.018579 
L 338.246693 76.743192 
L 340.483166 75.394585 
L 341.601403 74.97606 
L 343.837876 75.359885 
L 344.956112 75.33015 
L 346.074349 75.121845 
L 347.192585 75.131705 
L 349.429058 74.710902 
L 350.547295 59.492559 
L 351.665531 58.274897 
L 352.783768 56.883506 
L 353.902004 62.225101 
L 355.02024 63.438223 
L 356.138477 61.489178 
L 357.256713 59.292563 
L 358.37495 58.217755 
L 359.493186 58.258483 
L 360.611423 57.296209 
L 361.729659 57.362775 
L 362.847896 58.709861 
L 363.966132 58.773675 
L 365.084369 58.963908 
L 366.202605 58.332543 
L 367.320842 57.943464 
L 368.439078 58.016443 
L 369.557315 57.85315 
L 371.793788 56.712813 
L 372.912024 56.735332 
L 375.148497 57.130968 
L 376.266733 57.07842 
L 377.38497 56.708618 
L 378.503206 56.516268 
L 379.621443 57.308576 
L 381.857916 57.576878 
L 382.976152 58.144952 
L 384.094389 58.192811 
L 385.212625 57.903541 
L 386.330862 58.105472 
L 387.449098 58.615153 
L 388.567335 58.650291 
L 389.685571 58.903815 
L 391.922044 58.755525 
L 393.040281 58.626182 
L 395.276754 59.269872 
L 396.39499 59.105679 
L 397.513226 59.110771 
L 399.749699 58.725183 
L 403.104409 58.248213 
L 404.222645 57.98325 
L 405.340882 57.843666 
L 406.459118 48.412476 
L 407.577355 45.71785 
L 408.695591 44.947957 
L 409.813828 44.727988 
L 410.932064 47.169494 
L 412.050301 48.493149 
L 413.168537 49.318539 
L 414.286774 51.454992 
L 415.40501 52.152355 
L 416.523246 51.795082 
L 419.877956 50.223974 
L 420.996192 50.260264 
L 422.114429 50.002308 
L 423.232665 50.08513 
L 424.350902 51.351768 
L 425.469138 51.775033 
L 426.587375 51.621367 
L 427.705611 51.330324 
L 428.823848 51.321703 
L 429.942084 51.102422 
L 431.060321 51.930644 
L 432.178557 52.462176 
L 433.296794 53.13578 
L 434.41503 54.050645 
L 436.651503 54.037617 
L 437.769739 53.801796 
L 438.887976 53.935921 
L 440.006212 54.566671 
L 441.124449 54.910973 
L 442.242685 55.542944 
L 443.360922 56.041566 
L 444.479158 56.126168 
L 445.597395 55.921767 
L 446.715631 56.154786 
L 447.833868 56.662198 
L 448.952104 56.743816 
L 451.188577 57.339387 
L 452.306814 57.36157 
L 453.42505 57.593242 
L 454.543287 58.016815 
L 455.661523 58.201072 
L 457.897996 58.232364 
L 459.016232 58.306144 
L 461.252705 57.884902 
L 462.370942 54.68513 
L 463.489178 50.640473 
L 464.607415 48.441383 
L 465.725651 47.291321 
L 466.843888 46.649697 
L 467.962124 46.257674 
L 470.198597 49.451735 
L 471.316834 50.188692 
L 472.43507 50.607954 
L 473.553307 50.898494 
L 474.671543 52.689014 
L 475.78978 53.200591 
L 476.908016 53.346756 
L 478.026253 53.805909 
L 479.144489 53.519704 
L 481.380962 53.414567 
L 484.735671 52.305249 
L 486.972144 51.629123 
L 488.090381 51.593408 
L 493.681563 50.4671 
L 494.7998 50.478796 
L 495.918036 50.347499 
L 497.036273 50.379414 
L 500.390982 50.139372 
L 505.982164 49.667761 
L 509.336874 50.253118 
L 511.573347 50.271338 
L 512.691583 50.332129 
L 513.80982 50.262617 
L 517.164529 51.033286 
L 518.282766 52.727526 
L 519.401002 50.081158 
L 520.519238 48.281578 
L 521.637475 47.245662 
L 522.755711 47.888829 
L 523.873948 47.655199 
L 526.110421 46.962443 
L 528.346894 46.47928 
L 531.701603 46.037177 
L 532.81984 46.380803 
L 533.938076 46.38955 
L 535.056313 46.705083 
L 537.292786 46.62078 
L 539.529259 47.150696 
L 540.647495 47.444304 
L 542.883968 47.343568 
L 549.593387 46.786899 
L 550.711623 47.131659 
L 551.82986 47.169573 
L 552.948096 47.710566 
L 554.066333 47.983707 
L 555.184569 48.725781 
L 556.302806 49.027248 
L 557.421042 49.197844 
L 559.657515 49.225849 
L 563.012224 49.518215 
L 567.48517 49.340694 
L 568.603407 49.657919 
L 569.721643 50.203201 
L 573.076353 50.697808 
L 574.194589 46.370802 
L 575.312826 51.395387 
L 576.431062 52.830983 
L 579.785772 49.418089 
L 580.904008 48.688401 
L 582.022244 48.144517 
L 584.258717 47.400617 
L 586.49519 46.918427 
L 587.613427 46.735792 
L 588.731663 47.027624 
L 589.8499 47.826533 
L 590.968136 49.46348 
L 592.086373 50.437574 
L 593.204609 50.818189 
L 594.322846 51.018465 
L 596.559319 50.586777 
L 597.677555 50.323269 
L 598.795792 50.346966 
L 599.914028 50.183604 
L 601.032265 50.230848 
L 604.386974 49.722597 
L 606.623447 49.380966 
L 607.741683 49.427943 
L 609.978156 49.206458 
L 611.096393 49.259283 
L 612.214629 49.179678 
L 613.332866 49.241395 
L 618.924048 48.89597 
L 621.160521 49.273266 
L 624.51523 49.059948 
L 628.988176 48.70547 
L 630.106413 45.801563 
L 631.224649 44.971875 
L 632.342886 44.734821 
L 633.461122 46.232303 
L 634.579359 46.347121 
L 640.170541 45.559792 
L 641.288778 45.471972 
L 642.407014 45.92118 
L 644.643487 45.914198 
L 652.471142 45.492226 
L 662.535271 45.232649 
L 679.308818 45.033178 
L 683.781764 45.648607 
L 684.9 45.804699 
L 684.9 45.804699 
" clip-path="url(#p0e68be7d63)" style="fill: none; stroke: #1f77b4; stroke-width: 1.5; stroke-linecap: square"/>
   </g>
   <g id="line2d_97">
    <path d="M 181.693587 123.526956 
L 237.605411 123.526956 
L 293.517234 106.171823 
L 349.429058 99.860873 
L 405.340882 82.50574 
L 461.252705 74.617052 
L 517.164529 66.728345 
L 573.076353 58.839657 
L 628.988176 52.528688 
L 684.9 58.839657 
" clip-path="url(#p0e68be7d63)" style="fill: none; stroke-dasharray: 5.55,2.4; stroke-dashoffset: 0; stroke: #000000; stroke-width: 1.5"/>
    <defs>
     <path id="m14a6ae621e" d="M 0 3 
C 0.795609 3 1.55874 2.683901 2.12132 2.12132 
C 2.683901 1.55874 3 0.795609 3 0 
C 3 -0.795609 2.683901 -1.55874 2.12132 -2.12132 
C 1.55874 -2.683901 0.795609 -3 0 -3 
C -0.795609 -3 -1.55874 -2.683901 -2.12132 -2.12132 
C -2.683901 -1.55874 -3 -0.795609 -3 0 
C -3 0.795609 -2.683901 1.55874 -2.12132 2.12132 
C -1.55874 2.683901 -0.795609 3 0 3 
z
" style="stroke: #000000"/>
    </defs>
    <g clip-path="url(#p0e68be7d63)">
     <use xlink:href="#m14a6ae621e" x="181.693587" y="123.526956" style="stroke: #000000"/>
     <use xlink:href="#m14a6ae621e" x="237.605411" y="123.526956" style="stroke: #000000"/>
     <use xlink:href="#m14a6ae621e" x="293.517234" y="106.171823" style="stroke: #000000"/>
     <use xlink:href="#m14a6ae621e" x="349.429058" y="99.860873" style="stroke: #000000"/>
     <use xlink:href="#m14a6ae621e" x="405.340882" y="82.50574" style="stroke: #000000"/>
     <use xlink:href="#m14a6ae621e" x="461.252705" y="74.617052" style="stroke: #000000"/>
     <use xlink:href="#m14a6ae621e" x="517.164529" y="66.728345" style="stroke: #000000"/>
     <use xlink:href="#m14a6ae621e" x="573.076353" y="58.839657" style="stroke: #000000"/>
     <use xlink:href="#m14a6ae621e" x="628.988176" y="52.528688" style="stroke: #000000"/>
     <use xlink:href="#m14a6ae621e" x="684.9" y="58.839657" style="stroke: #000000"/>
    </g>
   </g>
   <g id="patch_3">
    <path d="M 99 256.32 
L 99 34.56 
" style="fill: none; stroke: #000000; stroke-width: 0.8; stroke-linejoin: miter; stroke-linecap: square"/>
   </g>
   <g id="patch_4">
    <path d="M 712.8 256.32 
L 712.8 34.56 
" style="fill: none; stroke: #000000; stroke-width: 0.8; stroke-linejoin: miter; stroke-linecap: square"/>
   </g>
   <g id="patch_5">
    <path d="M 99 256.32 
L 712.8 256.32 
" style="fill: none; stroke: #000000; stroke-width: 0.8; stroke-linejoin: miter; stroke-linecap: square"/>
   </g>
   <g id="patch_6">
    <path d="M 99 34.56 
L 712.8 34.56 
" style="fill: none; stroke: #000000; stroke-width: 0.8; stroke-linejoin: miter; stroke-linecap: square"/>
   </g>
   <g id="text_16">
    <!-- ResNet50 -->
    <g transform="translate(377.015625 28.56) scale(0.12 -0.12)">
     <defs>
      <path id="DejaVuSans-52" d="M 2841 2188 
Q 3044 2119 3236 1894 
Q 3428 1669 3622 1275 
L 4263 0 
L 3584 0 
L 2988 1197 
Q 2756 1666 2539 1819 
Q 2322 1972 1947 1972 
L 1259 1972 
L 1259 0 
L 628 0 
L 628 4666 
L 2053 4666 
Q 2853 4666 3247 4331 
Q 3641 3997 3641 3322 
Q 3641 2881 3436 2590 
Q 3231 2300 2841 2188 
z
M 1259 4147 
L 1259 2491 
L 2053 2491 
Q 2509 2491 2742 2702 
Q 2975 2913 2975 3322 
Q 2975 3731 2742 3939 
Q 2509 4147 2053 4147 
L 1259 4147 
z
" transform="scale(0.015625)"/>
      <path id="DejaVuSans-65" d="M 3597 1894 
L 3597 1613 
L 953 1613 
Q 991 1019 1311 708 
Q 1631 397 2203 397 
Q 2534 397 2845 478 
Q 3156 559 3463 722 
L 3463 178 
Q 3153 47 2828 -22 
Q 2503 -91 2169 -91 
Q 1331 -91 842 396 
Q 353 884 353 1716 
Q 353 2575 817 3079 
Q 1281 3584 2069 3584 
Q 2775 3584 3186 3129 
Q 3597 2675 3597 1894 
z
M 3022 2063 
Q 3016 2534 2758 2815 
Q 2500 3097 2075 3097 
Q 1594 3097 1305 2825 
Q 1016 2553 972 2059 
L 3022 2063 
z
" transform="scale(0.015625)"/>
      <path id="DejaVuSans-73" d="M 2834 3397 
L 2834 2853 
Q 2591 2978 2328 3040 
Q 2066 3103 1784 3103 
Q 1356 3103 1142 2972 
Q 928 2841 928 2578 
Q 928 2378 1081 2264 
Q 1234 2150 1697 2047 
L 1894 2003 
Q 2506 1872 2764 1633 
Q 3022 1394 3022 966 
Q 3022 478 2636 193 
Q 2250 -91 1575 -91 
Q 1294 -91 989 -36 
Q 684 19 347 128 
L 347 722 
Q 666 556 975 473 
Q 1284 391 1588 391 
Q 1994 391 2212 530 
Q 2431 669 2431 922 
Q 2431 1156 2273 1281 
Q 2116 1406 1581 1522 
L 1381 1569 
Q 847 1681 609 1914 
Q 372 2147 372 2553 
Q 372 3047 722 3315 
Q 1072 3584 1716 3584 
Q 2034 3584 2315 3537 
Q 2597 3491 2834 3397 
z
" transform="scale(0.015625)"/>
      <path id="DejaVuSans-4e" d="M 628 4666 
L 1478 4666 
L 3547 763 
L 3547 4666 
L 4159 4666 
L 4159 0 
L 3309 0 
L 1241 3903 
L 1241 0 
L 628 0 
L 628 4666 
z
" transform="scale(0.015625)"/>
      <path id="DejaVuSans-74" d="M 1172 4494 
L 1172 3500 
L 2356 3500 
L 2356 3053 
L 1172 3053 
L 1172 1153 
Q 1172 725 1289 603 
Q 1406 481 1766 481 
L 2356 481 
L 2356 0 
L 1766 0 
Q 1100 0 847 248 
Q 594 497 594 1153 
L 594 3053 
L 172 3053 
L 172 3500 
L 594 3500 
L 594 4494 
L 1172 4494 
z
" transform="scale(0.015625)"/>
     </defs>
     <use xlink:href="#DejaVuSans-52"/>
     <use xlink:href="#DejaVuSans-65" x="64.982422"/>
     <use xlink:href="#DejaVuSans-73" x="126.505859"/>
     <use xlink:href="#DejaVuSans-4e" x="178.605469"/>
     <use xlink:href="#DejaVuSans-65" x="253.410156"/>
     <use xlink:href="#DejaVuSans-74" x="314.933594"/>
     <use xlink:href="#DejaVuSans-35" x="354.142578"/>
     <use xlink:href="#DejaVuSans-30" x="417.765625"/>
    </g>
   </g>
  </g>
 </g>
 <defs>
  <clipPath id="p0e68be7d63">
   <rect x="99" y="34.56" width="613.8" height="221.76"/>
  </clipPath>
 </defs>
</svg>
