<?xml version="1.0" encoding="utf-8" standalone="no"?>
<!DOCTYPE svg PUBLIC "-//W3C//DTD SVG 1.1//EN"
  "http://www.w3.org/Graphics/SVG/1.1/DTD/svg11.dtd">
<svg xmlns:xlink="http://www.w3.org/1999/xlink" width="792pt" height="288pt" viewBox="0 0 792 288" xmlns="http://www.w3.org/2000/svg" version="1.1">
 <metadata>
  <rdf:RDF xmlns:dc="http://purl.org/dc/elements/1.1/" xmlns:cc="http://creativecommons.org/ns#" xmlns:rdf="http://www.w3.org/1999/02/22-rdf-syntax-ns#">
   <cc:Work>
    <dc:type rdf:resource="http://purl.org/dc/dcmitype/StillImage"/>
    <dc:date>2025-03-03T14:10:04.247784</dc:date>
    <dc:format>image/svg+xml</dc:format>
    <dc:creator>
     <cc:Agent>
      <dc:title>Matplotlib v3.9.4, https://matplotlib.org/</dc:title>
     </cc:Agent>
    </dc:creator>
   </cc:Work>
  </rdf:RDF>
 </metadata>
 <defs>
  <style type="text/css">*{stroke-linejoin: round; stroke-linecap: butt}</style>
 </defs>
 <g id="figure_1">
  <g id="patch_1">
   <path d="M 0 288 
L 792 288 
L 792 0 
L 0 0 
z
" style="fill: #ffffff"/>
  </g>
  <g id="axes_1">
   <g id="patch_2">
    <path d="M 99 256.32 
L 712.8 256.32 
L 712.8 34.56 
L 99 34.56 
z
" style="fill: #ffffff"/>
   </g>
   <g id="matplotlib.axis_1">
    <g id="xtick_1">
     <g id="line2d_1">
      <path d="M 126.9 256.32 
L 126.9 34.56 
" clip-path="url(#p8d47380356)" style="fill: none; stroke: #b0b0b0; stroke-width: 0.8; stroke-linecap: square"/>
     </g>
     <g id="line2d_2">
      <defs>
       <path id="mc70c28d0bb" d="M 0 0 
L 0 3.5 
" style="stroke: #000000; stroke-width: 0.8"/>
      </defs>
      <g>
       <use xlink:href="#mc70c28d0bb" x="126.9" y="256.32" style="stroke: #000000; stroke-width: 0.8"/>
      </g>
     </g>
     <g id="text_1">
      <!-- 0 -->
      <g transform="translate(123.71875 270.918437) scale(0.1 -0.1)">
       <defs>
        <path id="DejaVuSans-30" d="M 2034 4250 
Q 1547 4250 1301 3770 
Q 1056 3291 1056 2328 
Q 1056 1369 1301 889 
Q 1547 409 2034 409 
Q 2525 409 2770 889 
Q 3016 1369 3016 2328 
Q 3016 3291 2770 3770 
Q 2525 4250 2034 4250 
z
M 2034 4750 
Q 2819 4750 3233 4129 
Q 3647 3509 3647 2328 
Q 3647 1150 3233 529 
Q 2819 -91 2034 -91 
Q 1250 -91 836 529 
Q 422 1150 422 2328 
Q 422 3509 836 4129 
Q 1250 4750 2034 4750 
z
" transform="scale(0.015625)"/>
       </defs>
       <use xlink:href="#DejaVuSans-30"/>
      </g>
     </g>
    </g>
    <g id="xtick_2">
     <g id="line2d_3">
      <path d="M 238.5 256.32 
L 238.5 34.56 
" clip-path="url(#p8d47380356)" style="fill: none; stroke: #b0b0b0; stroke-width: 0.8; stroke-linecap: square"/>
     </g>
     <g id="line2d_4">
      <g>
       <use xlink:href="#mc70c28d0bb" x="238.5" y="256.32" style="stroke: #000000; stroke-width: 0.8"/>
      </g>
     </g>
     <g id="text_2">
      <!-- 2 -->
      <g transform="translate(235.31875 270.918437) scale(0.1 -0.1)">
       <defs>
        <path id="DejaVuSans-32" d="M 1228 531 
L 3431 531 
L 3431 0 
L 469 0 
L 469 531 
Q 828 903 1448 1529 
Q 2069 2156 2228 2338 
Q 2531 2678 2651 2914 
Q 2772 3150 2772 3378 
Q 2772 3750 2511 3984 
Q 2250 4219 1831 4219 
Q 1534 4219 1204 4116 
Q 875 4013 500 3803 
L 500 4441 
Q 881 4594 1212 4672 
Q 1544 4750 1819 4750 
Q 2544 4750 2975 4387 
Q 3406 4025 3406 3419 
Q 3406 3131 3298 2873 
Q 3191 2616 2906 2266 
Q 2828 2175 2409 1742 
Q 1991 1309 1228 531 
z
" transform="scale(0.015625)"/>
       </defs>
       <use xlink:href="#DejaVuSans-32"/>
      </g>
     </g>
    </g>
    <g id="xtick_3">
     <g id="line2d_5">
      <path d="M 350.1 256.32 
L 350.1 34.56 
" clip-path="url(#p8d47380356)" style="fill: none; stroke: #b0b0b0; stroke-width: 0.8; stroke-linecap: square"/>
     </g>
     <g id="line2d_6">
      <g>
       <use xlink:href="#mc70c28d0bb" x="350.1" y="256.32" style="stroke: #000000; stroke-width: 0.8"/>
      </g>
     </g>
     <g id="text_3">
      <!-- 4 -->
      <g transform="translate(346.91875 270.918437) scale(0.1 -0.1)">
       <defs>
        <path id="DejaVuSans-34" d="M 2419 4116 
L 825 1625 
L 2419 1625 
L 2419 4116 
z
M 2253 4666 
L 3047 4666 
L 3047 1625 
L 3713 1625 
L 3713 1100 
L 3047 1100 
L 3047 0 
L 2419 0 
L 2419 1100 
L 313 1100 
L 313 1709 
L 2253 4666 
z
" transform="scale(0.015625)"/>
       </defs>
       <use xlink:href="#DejaVuSans-34"/>
      </g>
     </g>
    </g>
    <g id="xtick_4">
     <g id="line2d_7">
      <path d="M 461.7 256.32 
L 461.7 34.56 
" clip-path="url(#p8d47380356)" style="fill: none; stroke: #b0b0b0; stroke-width: 0.8; stroke-linecap: square"/>
     </g>
     <g id="line2d_8">
      <g>
       <use xlink:href="#mc70c28d0bb" x="461.7" y="256.32" style="stroke: #000000; stroke-width: 0.8"/>
      </g>
     </g>
     <g id="text_4">
      <!-- 6 -->
      <g transform="translate(458.51875 270.918437) scale(0.1 -0.1)">
       <defs>
        <path id="DejaVuSans-36" d="M 2113 2584 
Q 1688 2584 1439 2293 
Q 1191 2003 1191 1497 
Q 1191 994 1439 701 
Q 1688 409 2113 409 
Q 2538 409 2786 701 
Q 3034 994 3034 1497 
Q 3034 2003 2786 2293 
Q 2538 2584 2113 2584 
z
M 3366 4563 
L 3366 3988 
Q 3128 4100 2886 4159 
Q 2644 4219 2406 4219 
Q 1781 4219 1451 3797 
Q 1122 3375 1075 2522 
Q 1259 2794 1537 2939 
Q 1816 3084 2150 3084 
Q 2853 3084 3261 2657 
Q 3669 2231 3669 1497 
Q 3669 778 3244 343 
Q 2819 -91 2113 -91 
Q 1303 -91 875 529 
Q 447 1150 447 2328 
Q 447 3434 972 4092 
Q 1497 4750 2381 4750 
Q 2619 4750 2861 4703 
Q 3103 4656 3366 4563 
z
" transform="scale(0.015625)"/>
       </defs>
       <use xlink:href="#DejaVuSans-36"/>
      </g>
     </g>
    </g>
    <g id="xtick_5">
     <g id="line2d_9">
      <path d="M 573.3 256.32 
L 573.3 34.56 
" clip-path="url(#p8d47380356)" style="fill: none; stroke: #b0b0b0; stroke-width: 0.8; stroke-linecap: square"/>
     </g>
     <g id="line2d_10">
      <g>
       <use xlink:href="#mc70c28d0bb" x="573.3" y="256.32" style="stroke: #000000; stroke-width: 0.8"/>
      </g>
     </g>
     <g id="text_5">
      <!-- 8 -->
      <g transform="translate(570.11875 270.918437) scale(0.1 -0.1)">
       <defs>
        <path id="DejaVuSans-38" d="M 2034 2216 
Q 1584 2216 1326 1975 
Q 1069 1734 1069 1313 
Q 1069 891 1326 650 
Q 1584 409 2034 409 
Q 2484 409 2743 651 
Q 3003 894 3003 1313 
Q 3003 1734 2745 1975 
Q 2488 2216 2034 2216 
z
M 1403 2484 
Q 997 2584 770 2862 
Q 544 3141 544 3541 
Q 544 4100 942 4425 
Q 1341 4750 2034 4750 
Q 2731 4750 3128 4425 
Q 3525 4100 3525 3541 
Q 3525 3141 3298 2862 
Q 3072 2584 2669 2484 
Q 3125 2378 3379 2068 
Q 3634 1759 3634 1313 
Q 3634 634 3220 271 
Q 2806 -91 2034 -91 
Q 1263 -91 848 271 
Q 434 634 434 1313 
Q 434 1759 690 2068 
Q 947 2378 1403 2484 
z
M 1172 3481 
Q 1172 3119 1398 2916 
Q 1625 2713 2034 2713 
Q 2441 2713 2670 2916 
Q 2900 3119 2900 3481 
Q 2900 3844 2670 4047 
Q 2441 4250 2034 4250 
Q 1625 4250 1398 4047 
Q 1172 3844 1172 3481 
z
" transform="scale(0.015625)"/>
       </defs>
       <use xlink:href="#DejaVuSans-38"/>
      </g>
     </g>
    </g>
    <g id="xtick_6">
     <g id="line2d_11">
      <path d="M 684.9 256.32 
L 684.9 34.56 
" clip-path="url(#p8d47380356)" style="fill: none; stroke: #b0b0b0; stroke-width: 0.8; stroke-linecap: square"/>
     </g>
     <g id="line2d_12">
      <g>
       <use xlink:href="#mc70c28d0bb" x="684.9" y="256.32" style="stroke: #000000; stroke-width: 0.8"/>
      </g>
     </g>
     <g id="text_6">
      <!-- 10 -->
      <g transform="translate(678.5375 270.918437) scale(0.1 -0.1)">
       <defs>
        <path id="DejaVuSans-31" d="M 794 531 
L 1825 531 
L 1825 4091 
L 703 3866 
L 703 4441 
L 1819 4666 
L 2450 4666 
L 2450 531 
L 3481 531 
L 3481 0 
L 794 0 
L 794 531 
z
" transform="scale(0.015625)"/>
       </defs>
       <use xlink:href="#DejaVuSans-31"/>
       <use xlink:href="#DejaVuSans-30" x="63.623047"/>
      </g>
     </g>
    </g>
    <g id="xtick_7">
     <g id="line2d_13">
      <path d="M 108.300186 256.32 
L 108.300186 34.56 
" clip-path="url(#p8d47380356)" style="fill: none; stroke: #b0b0b0; stroke-width: 0.8; stroke-linecap: square"/>
     </g>
     <g id="line2d_14">
      <defs>
       <path id="m0d240063cf" d="M 0 0 
L 0 2 
" style="stroke: #000000; stroke-width: 0.6"/>
      </defs>
      <g>
       <use xlink:href="#m0d240063cf" x="108.300186" y="256.32" style="stroke: #000000; stroke-width: 0.6"/>
      </g>
     </g>
    </g>
    <g id="xtick_8">
     <g id="line2d_15">
      <path d="M 145.499814 256.32 
L 145.499814 34.56 
" clip-path="url(#p8d47380356)" style="fill: none; stroke: #b0b0b0; stroke-width: 0.8; stroke-linecap: square"/>
     </g>
     <g id="line2d_16">
      <g>
       <use xlink:href="#m0d240063cf" x="145.499814" y="256.32" style="stroke: #000000; stroke-width: 0.6"/>
      </g>
     </g>
    </g>
    <g id="xtick_9">
     <g id="line2d_17">
      <path d="M 164.099628 256.32 
L 164.099628 34.56 
" clip-path="url(#p8d47380356)" style="fill: none; stroke: #b0b0b0; stroke-width: 0.8; stroke-linecap: square"/>
     </g>
     <g id="line2d_18">
      <g>
       <use xlink:href="#m0d240063cf" x="164.099628" y="256.32" style="stroke: #000000; stroke-width: 0.6"/>
      </g>
     </g>
    </g>
    <g id="xtick_10">
     <g id="line2d_19">
      <path d="M 182.699442 256.32 
L 182.699442 34.56 
" clip-path="url(#p8d47380356)" style="fill: none; stroke: #b0b0b0; stroke-width: 0.8; stroke-linecap: square"/>
     </g>
     <g id="line2d_20">
      <g>
       <use xlink:href="#m0d240063cf" x="182.699442" y="256.32" style="stroke: #000000; stroke-width: 0.6"/>
      </g>
     </g>
    </g>
    <g id="xtick_11">
     <g id="line2d_21">
      <path d="M 201.299256 256.32 
L 201.299256 34.56 
" clip-path="url(#p8d47380356)" style="fill: none; stroke: #b0b0b0; stroke-width: 0.8; stroke-linecap: square"/>
     </g>
     <g id="line2d_22">
      <g>
       <use xlink:href="#m0d240063cf" x="201.299256" y="256.32" style="stroke: #000000; stroke-width: 0.6"/>
      </g>
     </g>
    </g>
    <g id="xtick_12">
     <g id="line2d_23">
      <path d="M 219.89907 256.32 
L 219.89907 34.56 
" clip-path="url(#p8d47380356)" style="fill: none; stroke: #b0b0b0; stroke-width: 0.8; stroke-linecap: square"/>
     </g>
     <g id="line2d_24">
      <g>
       <use xlink:href="#m0d240063cf" x="219.89907" y="256.32" style="stroke: #000000; stroke-width: 0.6"/>
      </g>
     </g>
    </g>
    <g id="xtick_13">
     <g id="line2d_25">
      <path d="M 257.098698 256.32 
L 257.098698 34.56 
" clip-path="url(#p8d47380356)" style="fill: none; stroke: #b0b0b0; stroke-width: 0.8; stroke-linecap: square"/>
     </g>
     <g id="line2d_26">
      <g>
       <use xlink:href="#m0d240063cf" x="257.098698" y="256.32" style="stroke: #000000; stroke-width: 0.6"/>
      </g>
     </g>
    </g>
    <g id="xtick_14">
     <g id="line2d_27">
      <path d="M 275.698512 256.32 
L 275.698512 34.56 
" clip-path="url(#p8d47380356)" style="fill: none; stroke: #b0b0b0; stroke-width: 0.8; stroke-linecap: square"/>
     </g>
     <g id="line2d_28">
      <g>
       <use xlink:href="#m0d240063cf" x="275.698512" y="256.32" style="stroke: #000000; stroke-width: 0.6"/>
      </g>
     </g>
    </g>
    <g id="xtick_15">
     <g id="line2d_29">
      <path d="M 294.298326 256.32 
L 294.298326 34.56 
" clip-path="url(#p8d47380356)" style="fill: none; stroke: #b0b0b0; stroke-width: 0.8; stroke-linecap: square"/>
     </g>
     <g id="line2d_30">
      <g>
       <use xlink:href="#m0d240063cf" x="294.298326" y="256.32" style="stroke: #000000; stroke-width: 0.6"/>
      </g>
     </g>
    </g>
    <g id="xtick_16">
     <g id="line2d_31">
      <path d="M 312.89814 256.32 
L 312.89814 34.56 
" clip-path="url(#p8d47380356)" style="fill: none; stroke: #b0b0b0; stroke-width: 0.8; stroke-linecap: square"/>
     </g>
     <g id="line2d_32">
      <g>
       <use xlink:href="#m0d240063cf" x="312.89814" y="256.32" style="stroke: #000000; stroke-width: 0.6"/>
      </g>
     </g>
    </g>
    <g id="xtick_17">
     <g id="line2d_33">
      <path d="M 331.497954 256.32 
L 331.497954 34.56 
" clip-path="url(#p8d47380356)" style="fill: none; stroke: #b0b0b0; stroke-width: 0.8; stroke-linecap: square"/>
     </g>
     <g id="line2d_34">
      <g>
       <use xlink:href="#m0d240063cf" x="331.497954" y="256.32" style="stroke: #000000; stroke-width: 0.6"/>
      </g>
     </g>
    </g>
    <g id="xtick_18">
     <g id="line2d_35">
      <path d="M 368.697582 256.32 
L 368.697582 34.56 
" clip-path="url(#p8d47380356)" style="fill: none; stroke: #b0b0b0; stroke-width: 0.8; stroke-linecap: square"/>
     </g>
     <g id="line2d_36">
      <g>
       <use xlink:href="#m0d240063cf" x="368.697582" y="256.32" style="stroke: #000000; stroke-width: 0.6"/>
      </g>
     </g>
    </g>
    <g id="xtick_19">
     <g id="line2d_37">
      <path d="M 387.297396 256.32 
L 387.297396 34.56 
" clip-path="url(#p8d47380356)" style="fill: none; stroke: #b0b0b0; stroke-width: 0.8; stroke-linecap: square"/>
     </g>
     <g id="line2d_38">
      <g>
       <use xlink:href="#m0d240063cf" x="387.297396" y="256.32" style="stroke: #000000; stroke-width: 0.6"/>
      </g>
     </g>
    </g>
    <g id="xtick_20">
     <g id="line2d_39">
      <path d="M 405.89721 256.32 
L 405.89721 34.56 
" clip-path="url(#p8d47380356)" style="fill: none; stroke: #b0b0b0; stroke-width: 0.8; stroke-linecap: square"/>
     </g>
     <g id="line2d_40">
      <g>
       <use xlink:href="#m0d240063cf" x="405.89721" y="256.32" style="stroke: #000000; stroke-width: 0.6"/>
      </g>
     </g>
    </g>
    <g id="xtick_21">
     <g id="line2d_41">
      <path d="M 424.497024 256.32 
L 424.497024 34.56 
" clip-path="url(#p8d47380356)" style="fill: none; stroke: #b0b0b0; stroke-width: 0.8; stroke-linecap: square"/>
     </g>
     <g id="line2d_42">
      <g>
       <use xlink:href="#m0d240063cf" x="424.497024" y="256.32" style="stroke: #000000; stroke-width: 0.6"/>
      </g>
     </g>
    </g>
    <g id="xtick_22">
     <g id="line2d_43">
      <path d="M 443.096838 256.32 
L 443.096838 34.56 
" clip-path="url(#p8d47380356)" style="fill: none; stroke: #b0b0b0; stroke-width: 0.8; stroke-linecap: square"/>
     </g>
     <g id="line2d_44">
      <g>
       <use xlink:href="#m0d240063cf" x="443.096838" y="256.32" style="stroke: #000000; stroke-width: 0.6"/>
      </g>
     </g>
    </g>
    <g id="xtick_23">
     <g id="line2d_45">
      <path d="M 480.296466 256.32 
L 480.296466 34.56 
" clip-path="url(#p8d47380356)" style="fill: none; stroke: #b0b0b0; stroke-width: 0.8; stroke-linecap: square"/>
     </g>
     <g id="line2d_46">
      <g>
       <use xlink:href="#m0d240063cf" x="480.296466" y="256.32" style="stroke: #000000; stroke-width: 0.6"/>
      </g>
     </g>
    </g>
    <g id="xtick_24">
     <g id="line2d_47">
      <path d="M 498.89628 256.32 
L 498.89628 34.56 
" clip-path="url(#p8d47380356)" style="fill: none; stroke: #b0b0b0; stroke-width: 0.8; stroke-linecap: square"/>
     </g>
     <g id="line2d_48">
      <g>
       <use xlink:href="#m0d240063cf" x="498.89628" y="256.32" style="stroke: #000000; stroke-width: 0.6"/>
      </g>
     </g>
    </g>
    <g id="xtick_25">
     <g id="line2d_49">
      <path d="M 517.496094 256.32 
L 517.496094 34.56 
" clip-path="url(#p8d47380356)" style="fill: none; stroke: #b0b0b0; stroke-width: 0.8; stroke-linecap: square"/>
     </g>
     <g id="line2d_50">
      <g>
       <use xlink:href="#m0d240063cf" x="517.496094" y="256.32" style="stroke: #000000; stroke-width: 0.6"/>
      </g>
     </g>
    </g>
    <g id="xtick_26">
     <g id="line2d_51">
      <path d="M 536.095908 256.32 
L 536.095908 34.56 
" clip-path="url(#p8d47380356)" style="fill: none; stroke: #b0b0b0; stroke-width: 0.8; stroke-linecap: square"/>
     </g>
     <g id="line2d_52">
      <g>
       <use xlink:href="#m0d240063cf" x="536.095908" y="256.32" style="stroke: #000000; stroke-width: 0.6"/>
      </g>
     </g>
    </g>
    <g id="xtick_27">
     <g id="line2d_53">
      <path d="M 554.695722 256.32 
L 554.695722 34.56 
" clip-path="url(#p8d47380356)" style="fill: none; stroke: #b0b0b0; stroke-width: 0.8; stroke-linecap: square"/>
     </g>
     <g id="line2d_54">
      <g>
       <use xlink:href="#m0d240063cf" x="554.695722" y="256.32" style="stroke: #000000; stroke-width: 0.6"/>
      </g>
     </g>
    </g>
    <g id="xtick_28">
     <g id="line2d_55">
      <path d="M 591.89535 256.32 
L 591.89535 34.56 
" clip-path="url(#p8d47380356)" style="fill: none; stroke: #b0b0b0; stroke-width: 0.8; stroke-linecap: square"/>
     </g>
     <g id="line2d_56">
      <g>
       <use xlink:href="#m0d240063cf" x="591.89535" y="256.32" style="stroke: #000000; stroke-width: 0.6"/>
      </g>
     </g>
    </g>
    <g id="xtick_29">
     <g id="line2d_57">
      <path d="M 610.495164 256.32 
L 610.495164 34.56 
" clip-path="url(#p8d47380356)" style="fill: none; stroke: #b0b0b0; stroke-width: 0.8; stroke-linecap: square"/>
     </g>
     <g id="line2d_58">
      <g>
       <use xlink:href="#m0d240063cf" x="610.495164" y="256.32" style="stroke: #000000; stroke-width: 0.6"/>
      </g>
     </g>
    </g>
    <g id="xtick_30">
     <g id="line2d_59">
      <path d="M 629.094978 256.32 
L 629.094978 34.56 
" clip-path="url(#p8d47380356)" style="fill: none; stroke: #b0b0b0; stroke-width: 0.8; stroke-linecap: square"/>
     </g>
     <g id="line2d_60">
      <g>
       <use xlink:href="#m0d240063cf" x="629.094978" y="256.32" style="stroke: #000000; stroke-width: 0.6"/>
      </g>
     </g>
    </g>
    <g id="xtick_31">
     <g id="line2d_61">
      <path d="M 647.694792 256.32 
L 647.694792 34.56 
" clip-path="url(#p8d47380356)" style="fill: none; stroke: #b0b0b0; stroke-width: 0.8; stroke-linecap: square"/>
     </g>
     <g id="line2d_62">
      <g>
       <use xlink:href="#m0d240063cf" x="647.694792" y="256.32" style="stroke: #000000; stroke-width: 0.6"/>
      </g>
     </g>
    </g>
    <g id="xtick_32">
     <g id="line2d_63">
      <path d="M 666.294606 256.32 
L 666.294606 34.56 
" clip-path="url(#p8d47380356)" style="fill: none; stroke: #b0b0b0; stroke-width: 0.8; stroke-linecap: square"/>
     </g>
     <g id="line2d_64">
      <g>
       <use xlink:href="#m0d240063cf" x="666.294606" y="256.32" style="stroke: #000000; stroke-width: 0.6"/>
      </g>
     </g>
    </g>
    <g id="xtick_33">
     <g id="line2d_65">
      <path d="M 703.494234 256.32 
L 703.494234 34.56 
" clip-path="url(#p8d47380356)" style="fill: none; stroke: #b0b0b0; stroke-width: 0.8; stroke-linecap: square"/>
     </g>
     <g id="line2d_66">
      <g>
       <use xlink:href="#m0d240063cf" x="703.494234" y="256.32" style="stroke: #000000; stroke-width: 0.6"/>
      </g>
     </g>
    </g>
    <g id="text_7">
     <!-- Epoch -->
     <g transform="translate(390.589063 284.596563) scale(0.1 -0.1)">
      <defs>
       <path id="DejaVuSans-45" d="M 628 4666 
L 3578 4666 
L 3578 4134 
L 1259 4134 
L 1259 2753 
L 3481 2753 
L 3481 2222 
L 1259 2222 
L 1259 531 
L 3634 531 
L 3634 0 
L 628 0 
L 628 4666 
z
" transform="scale(0.015625)"/>
       <path id="DejaVuSans-70" d="M 1159 525 
L 1159 -1331 
L 581 -1331 
L 581 3500 
L 1159 3500 
L 1159 2969 
Q 1341 3281 1617 3432 
Q 1894 3584 2278 3584 
Q 2916 3584 3314 3078 
Q 3713 2572 3713 1747 
Q 3713 922 3314 415 
Q 2916 -91 2278 -91 
Q 1894 -91 1617 61 
Q 1341 213 1159 525 
z
M 3116 1747 
Q 3116 2381 2855 2742 
Q 2594 3103 2138 3103 
Q 1681 3103 1420 2742 
Q 1159 2381 1159 1747 
Q 1159 1113 1420 752 
Q 1681 391 2138 391 
Q 2594 391 2855 752 
Q 3116 1113 3116 1747 
z
" transform="scale(0.015625)"/>
       <path id="DejaVuSans-6f" d="M 1959 3097 
Q 1497 3097 1228 2736 
Q 959 2375 959 1747 
Q 959 1119 1226 758 
Q 1494 397 1959 397 
Q 2419 397 2687 759 
Q 2956 1122 2956 1747 
Q 2956 2369 2687 2733 
Q 2419 3097 1959 3097 
z
M 1959 3584 
Q 2709 3584 3137 3096 
Q 3566 2609 3566 1747 
Q 3566 888 3137 398 
Q 2709 -91 1959 -91 
Q 1206 -91 779 398 
Q 353 888 353 1747 
Q 353 2609 779 3096 
Q 1206 3584 1959 3584 
z
" transform="scale(0.015625)"/>
       <path id="DejaVuSans-63" d="M 3122 3366 
L 3122 2828 
Q 2878 2963 2633 3030 
Q 2388 3097 2138 3097 
Q 1578 3097 1268 2742 
Q 959 2388 959 1747 
Q 959 1106 1268 751 
Q 1578 397 2138 397 
Q 2388 397 2633 464 
Q 2878 531 3122 666 
L 3122 134 
Q 2881 22 2623 -34 
Q 2366 -91 2075 -91 
Q 1284 -91 818 406 
Q 353 903 353 1747 
Q 353 2603 823 3093 
Q 1294 3584 2113 3584 
Q 2378 3584 2631 3529 
Q 2884 3475 3122 3366 
z
" transform="scale(0.015625)"/>
       <path id="DejaVuSans-68" d="M 3513 2113 
L 3513 0 
L 2938 0 
L 2938 2094 
Q 2938 2591 2744 2837 
Q 2550 3084 2163 3084 
Q 1697 3084 1428 2787 
Q 1159 2491 1159 1978 
L 1159 0 
L 581 0 
L 581 4863 
L 1159 4863 
L 1159 2956 
Q 1366 3272 1645 3428 
Q 1925 3584 2291 3584 
Q 2894 3584 3203 3211 
Q 3513 2838 3513 2113 
z
" transform="scale(0.015625)"/>
      </defs>
      <use xlink:href="#DejaVuSans-45"/>
      <use xlink:href="#DejaVuSans-70" x="63.183594"/>
      <use xlink:href="#DejaVuSans-6f" x="126.660156"/>
      <use xlink:href="#DejaVuSans-63" x="187.841797"/>
      <use xlink:href="#DejaVuSans-68" x="242.822266"/>
     </g>
    </g>
   </g>
   <g id="matplotlib.axis_2">
    <g id="ytick_1">
     <g id="line2d_67">
      <path d="M 99 250.103755 
L 712.8 250.103755 
" clip-path="url(#p8d47380356)" style="fill: none; stroke: #b0b0b0; stroke-width: 0.8; stroke-linecap: square"/>
     </g>
     <g id="line2d_68">
      <defs>
       <path id="mc42045db81" d="M 0 0 
L -3.5 0 
" style="stroke: #000000; stroke-width: 0.8"/>
      </defs>
      <g>
       <use xlink:href="#mc42045db81" x="99" y="250.103755" style="stroke: #000000; stroke-width: 0.8"/>
      </g>
     </g>
     <g id="text_8">
      <!-- 0.0 -->
      <g transform="translate(76.096875 253.902973) scale(0.1 -0.1)">
       <defs>
        <path id="DejaVuSans-2e" d="M 684 794 
L 1344 794 
L 1344 0 
L 684 0 
L 684 794 
z
" transform="scale(0.015625)"/>
       </defs>
       <use xlink:href="#DejaVuSans-30"/>
       <use xlink:href="#DejaVuSans-2e" x="63.623047"/>
       <use xlink:href="#DejaVuSans-30" x="95.410156"/>
      </g>
     </g>
    </g>
    <g id="ytick_2">
     <g id="line2d_69">
      <path d="M 99 214.421235 
L 712.8 214.421235 
" clip-path="url(#p8d47380356)" style="fill: none; stroke: #b0b0b0; stroke-width: 0.8; stroke-linecap: square"/>
     </g>
     <g id="line2d_70">
      <g>
       <use xlink:href="#mc42045db81" x="99" y="214.421235" style="stroke: #000000; stroke-width: 0.8"/>
      </g>
     </g>
     <g id="text_9">
      <!-- 0.2 -->
      <g transform="translate(76.096875 218.220454) scale(0.1 -0.1)">
       <use xlink:href="#DejaVuSans-30"/>
       <use xlink:href="#DejaVuSans-2e" x="63.623047"/>
       <use xlink:href="#DejaVuSans-32" x="95.410156"/>
      </g>
     </g>
    </g>
    <g id="ytick_3">
     <g id="line2d_71">
      <path d="M 99 178.738716 
L 712.8 178.738716 
" clip-path="url(#p8d47380356)" style="fill: none; stroke: #b0b0b0; stroke-width: 0.8; stroke-linecap: square"/>
     </g>
     <g id="line2d_72">
      <g>
       <use xlink:href="#mc42045db81" x="99" y="178.738716" style="stroke: #000000; stroke-width: 0.8"/>
      </g>
     </g>
     <g id="text_10">
      <!-- 0.4 -->
      <g transform="translate(76.096875 182.537934) scale(0.1 -0.1)">
       <use xlink:href="#DejaVuSans-30"/>
       <use xlink:href="#DejaVuSans-2e" x="63.623047"/>
       <use xlink:href="#DejaVuSans-34" x="95.410156"/>
      </g>
     </g>
    </g>
    <g id="ytick_4">
     <g id="line2d_73">
      <path d="M 99 143.056196 
L 712.8 143.056196 
" clip-path="url(#p8d47380356)" style="fill: none; stroke: #b0b0b0; stroke-width: 0.8; stroke-linecap: square"/>
     </g>
     <g id="line2d_74">
      <g>
       <use xlink:href="#mc42045db81" x="99" y="143.056196" style="stroke: #000000; stroke-width: 0.8"/>
      </g>
     </g>
     <g id="text_11">
      <!-- 0.6 -->
      <g transform="translate(76.096875 146.855415) scale(0.1 -0.1)">
       <use xlink:href="#DejaVuSans-30"/>
       <use xlink:href="#DejaVuSans-2e" x="63.623047"/>
       <use xlink:href="#DejaVuSans-36" x="95.410156"/>
      </g>
     </g>
    </g>
    <g id="ytick_5">
     <g id="line2d_75">
      <path d="M 99 107.373677 
L 712.8 107.373677 
" clip-path="url(#p8d47380356)" style="fill: none; stroke: #b0b0b0; stroke-width: 0.8; stroke-linecap: square"/>
     </g>
     <g id="line2d_76">
      <g>
       <use xlink:href="#mc42045db81" x="99" y="107.373677" style="stroke: #000000; stroke-width: 0.8"/>
      </g>
     </g>
     <g id="text_12">
      <!-- 0.8 -->
      <g transform="translate(76.096875 111.172896) scale(0.1 -0.1)">
       <use xlink:href="#DejaVuSans-30"/>
       <use xlink:href="#DejaVuSans-2e" x="63.623047"/>
       <use xlink:href="#DejaVuSans-38" x="95.410156"/>
      </g>
     </g>
    </g>
    <g id="ytick_6">
     <g id="line2d_77">
      <path d="M 99 71.691157 
L 712.8 71.691157 
" clip-path="url(#p8d47380356)" style="fill: none; stroke: #b0b0b0; stroke-width: 0.8; stroke-linecap: square"/>
     </g>
     <g id="line2d_78">
      <g>
       <use xlink:href="#mc42045db81" x="99" y="71.691157" style="stroke: #000000; stroke-width: 0.8"/>
      </g>
     </g>
     <g id="text_13">
      <!-- 1.0 -->
      <g transform="translate(76.096875 75.490376) scale(0.1 -0.1)">
       <use xlink:href="#DejaVuSans-31"/>
       <use xlink:href="#DejaVuSans-2e" x="63.623047"/>
       <use xlink:href="#DejaVuSans-30" x="95.410156"/>
      </g>
     </g>
    </g>
    <g id="ytick_7">
     <g id="line2d_79">
      <path d="M 99 36.008638 
L 712.8 36.008638 
" clip-path="url(#p8d47380356)" style="fill: none; stroke: #b0b0b0; stroke-width: 0.8; stroke-linecap: square"/>
     </g>
     <g id="line2d_80">
      <g>
       <use xlink:href="#mc42045db81" x="99" y="36.008638" style="stroke: #000000; stroke-width: 0.8"/>
      </g>
     </g>
     <g id="text_14">
      <!-- 1.2 -->
      <g transform="translate(76.096875 39.807857) scale(0.1 -0.1)">
       <use xlink:href="#DejaVuSans-31"/>
       <use xlink:href="#DejaVuSans-2e" x="63.623047"/>
       <use xlink:href="#DejaVuSans-32" x="95.410156"/>
      </g>
     </g>
    </g>
    <g id="ytick_8">
     <g id="line2d_81">
      <path d="M 99 241.183125 
L 712.8 241.183125 
" clip-path="url(#p8d47380356)" style="fill: none; stroke: #b0b0b0; stroke-width: 0.8; stroke-linecap: square"/>
     </g>
     <g id="line2d_82">
      <defs>
       <path id="mde1f6299f9" d="M 0 0 
L -2 0 
" style="stroke: #000000; stroke-width: 0.6"/>
      </defs>
      <g>
       <use xlink:href="#mde1f6299f9" x="99" y="241.183125" style="stroke: #000000; stroke-width: 0.6"/>
      </g>
     </g>
    </g>
    <g id="ytick_9">
     <g id="line2d_83">
      <path d="M 99 232.262495 
L 712.8 232.262495 
" clip-path="url(#p8d47380356)" style="fill: none; stroke: #b0b0b0; stroke-width: 0.8; stroke-linecap: square"/>
     </g>
     <g id="line2d_84">
      <g>
       <use xlink:href="#mde1f6299f9" x="99" y="232.262495" style="stroke: #000000; stroke-width: 0.6"/>
      </g>
     </g>
    </g>
    <g id="ytick_10">
     <g id="line2d_85">
      <path d="M 99 223.341865 
L 712.8 223.341865 
" clip-path="url(#p8d47380356)" style="fill: none; stroke: #b0b0b0; stroke-width: 0.8; stroke-linecap: square"/>
     </g>
     <g id="line2d_86">
      <g>
       <use xlink:href="#mde1f6299f9" x="99" y="223.341865" style="stroke: #000000; stroke-width: 0.6"/>
      </g>
     </g>
    </g>
    <g id="ytick_11">
     <g id="line2d_87">
      <path d="M 99 205.500605 
L 712.8 205.500605 
" clip-path="url(#p8d47380356)" style="fill: none; stroke: #b0b0b0; stroke-width: 0.8; stroke-linecap: square"/>
     </g>
     <g id="line2d_88">
      <g>
       <use xlink:href="#mde1f6299f9" x="99" y="205.500605" style="stroke: #000000; stroke-width: 0.6"/>
      </g>
     </g>
    </g>
    <g id="ytick_12">
     <g id="line2d_89">
      <path d="M 99 196.579975 
L 712.8 196.579975 
" clip-path="url(#p8d47380356)" style="fill: none; stroke: #b0b0b0; stroke-width: 0.8; stroke-linecap: square"/>
     </g>
     <g id="line2d_90">
      <g>
       <use xlink:href="#mde1f6299f9" x="99" y="196.579975" style="stroke: #000000; stroke-width: 0.6"/>
      </g>
     </g>
    </g>
    <g id="ytick_13">
     <g id="line2d_91">
      <path d="M 99 187.659346 
L 712.8 187.659346 
" clip-path="url(#p8d47380356)" style="fill: none; stroke: #b0b0b0; stroke-width: 0.8; stroke-linecap: square"/>
     </g>
     <g id="line2d_92">
      <g>
       <use xlink:href="#mde1f6299f9" x="99" y="187.659346" style="stroke: #000000; stroke-width: 0.6"/>
      </g>
     </g>
    </g>
    <g id="ytick_14">
     <g id="line2d_93">
      <path d="M 99 169.818086 
L 712.8 169.818086 
" clip-path="url(#p8d47380356)" style="fill: none; stroke: #b0b0b0; stroke-width: 0.8; stroke-linecap: square"/>
     </g>
     <g id="line2d_94">
      <g>
       <use xlink:href="#mde1f6299f9" x="99" y="169.818086" style="stroke: #000000; stroke-width: 0.6"/>
      </g>
     </g>
    </g>
    <g id="ytick_15">
     <g id="line2d_95">
      <path d="M 99 160.897456 
L 712.8 160.897456 
" clip-path="url(#p8d47380356)" style="fill: none; stroke: #b0b0b0; stroke-width: 0.8; stroke-linecap: square"/>
     </g>
     <g id="line2d_96">
      <g>
       <use xlink:href="#mde1f6299f9" x="99" y="160.897456" style="stroke: #000000; stroke-width: 0.6"/>
      </g>
     </g>
    </g>
    <g id="ytick_16">
     <g id="line2d_97">
      <path d="M 99 151.976826 
L 712.8 151.976826 
" clip-path="url(#p8d47380356)" style="fill: none; stroke: #b0b0b0; stroke-width: 0.8; stroke-linecap: square"/>
     </g>
     <g id="line2d_98">
      <g>
       <use xlink:href="#mde1f6299f9" x="99" y="151.976826" style="stroke: #000000; stroke-width: 0.6"/>
      </g>
     </g>
    </g>
    <g id="ytick_17">
     <g id="line2d_99">
      <path d="M 99 134.135566 
L 712.8 134.135566 
" clip-path="url(#p8d47380356)" style="fill: none; stroke: #b0b0b0; stroke-width: 0.8; stroke-linecap: square"/>
     </g>
     <g id="line2d_100">
      <g>
       <use xlink:href="#mde1f6299f9" x="99" y="134.135566" style="stroke: #000000; stroke-width: 0.6"/>
      </g>
     </g>
    </g>
    <g id="ytick_18">
     <g id="line2d_101">
      <path d="M 99 125.214937 
L 712.8 125.214937 
" clip-path="url(#p8d47380356)" style="fill: none; stroke: #b0b0b0; stroke-width: 0.8; stroke-linecap: square"/>
     </g>
     <g id="line2d_102">
      <g>
       <use xlink:href="#mde1f6299f9" x="99" y="125.214937" style="stroke: #000000; stroke-width: 0.6"/>
      </g>
     </g>
    </g>
    <g id="ytick_19">
     <g id="line2d_103">
      <path d="M 99 116.294307 
L 712.8 116.294307 
" clip-path="url(#p8d47380356)" style="fill: none; stroke: #b0b0b0; stroke-width: 0.8; stroke-linecap: square"/>
     </g>
     <g id="line2d_104">
      <g>
       <use xlink:href="#mde1f6299f9" x="99" y="116.294307" style="stroke: #000000; stroke-width: 0.6"/>
      </g>
     </g>
    </g>
    <g id="ytick_20">
     <g id="line2d_105">
      <path d="M 99 98.453047 
L 712.8 98.453047 
" clip-path="url(#p8d47380356)" style="fill: none; stroke: #b0b0b0; stroke-width: 0.8; stroke-linecap: square"/>
     </g>
     <g id="line2d_106">
      <g>
       <use xlink:href="#mde1f6299f9" x="99" y="98.453047" style="stroke: #000000; stroke-width: 0.6"/>
      </g>
     </g>
    </g>
    <g id="ytick_21">
     <g id="line2d_107">
      <path d="M 99 89.532417 
L 712.8 89.532417 
" clip-path="url(#p8d47380356)" style="fill: none; stroke: #b0b0b0; stroke-width: 0.8; stroke-linecap: square"/>
     </g>
     <g id="line2d_108">
      <g>
       <use xlink:href="#mde1f6299f9" x="99" y="89.532417" style="stroke: #000000; stroke-width: 0.6"/>
      </g>
     </g>
    </g>
    <g id="ytick_22">
     <g id="line2d_109">
      <path d="M 99 80.611787 
L 712.8 80.611787 
" clip-path="url(#p8d47380356)" style="fill: none; stroke: #b0b0b0; stroke-width: 0.8; stroke-linecap: square"/>
     </g>
     <g id="line2d_110">
      <g>
       <use xlink:href="#mde1f6299f9" x="99" y="80.611787" style="stroke: #000000; stroke-width: 0.6"/>
      </g>
     </g>
    </g>
    <g id="ytick_23">
     <g id="line2d_111">
      <path d="M 99 62.770528 
L 712.8 62.770528 
" clip-path="url(#p8d47380356)" style="fill: none; stroke: #b0b0b0; stroke-width: 0.8; stroke-linecap: square"/>
     </g>
     <g id="line2d_112">
      <g>
       <use xlink:href="#mde1f6299f9" x="99" y="62.770528" style="stroke: #000000; stroke-width: 0.6"/>
      </g>
     </g>
    </g>
    <g id="ytick_24">
     <g id="line2d_113">
      <path d="M 99 53.849898 
L 712.8 53.849898 
" clip-path="url(#p8d47380356)" style="fill: none; stroke: #b0b0b0; stroke-width: 0.8; stroke-linecap: square"/>
     </g>
     <g id="line2d_114">
      <g>
       <use xlink:href="#mde1f6299f9" x="99" y="53.849898" style="stroke: #000000; stroke-width: 0.6"/>
      </g>
     </g>
    </g>
    <g id="ytick_25">
     <g id="line2d_115">
      <path d="M 99 44.929268 
L 712.8 44.929268 
" clip-path="url(#p8d47380356)" style="fill: none; stroke: #b0b0b0; stroke-width: 0.8; stroke-linecap: square"/>
     </g>
     <g id="line2d_116">
      <g>
       <use xlink:href="#mde1f6299f9" x="99" y="44.929268" style="stroke: #000000; stroke-width: 0.6"/>
      </g>
     </g>
    </g>
    <g id="text_15">
     <!-- Loss (%) -->
     <g transform="translate(70.017187 166.648594) rotate(-90) scale(0.1 -0.1)">
      <defs>
       <path id="DejaVuSans-4c" d="M 628 4666 
L 1259 4666 
L 1259 531 
L 3531 531 
L 3531 0 
L 628 0 
L 628 4666 
z
" transform="scale(0.015625)"/>
       <path id="DejaVuSans-73" d="M 2834 3397 
L 2834 2853 
Q 2591 2978 2328 3040 
Q 2066 3103 1784 3103 
Q 1356 3103 1142 2972 
Q 928 2841 928 2578 
Q 928 2378 1081 2264 
Q 1234 2150 1697 2047 
L 1894 2003 
Q 2506 1872 2764 1633 
Q 3022 1394 3022 966 
Q 3022 478 2636 193 
Q 2250 -91 1575 -91 
Q 1294 -91 989 -36 
Q 684 19 347 128 
L 347 722 
Q 666 556 975 473 
Q 1284 391 1588 391 
Q 1994 391 2212 530 
Q 2431 669 2431 922 
Q 2431 1156 2273 1281 
Q 2116 1406 1581 1522 
L 1381 1569 
Q 847 1681 609 1914 
Q 372 2147 372 2553 
Q 372 3047 722 3315 
Q 1072 3584 1716 3584 
Q 2034 3584 2315 3537 
Q 2597 3491 2834 3397 
z
" transform="scale(0.015625)"/>
       <path id="DejaVuSans-20" transform="scale(0.015625)"/>
       <path id="DejaVuSans-28" d="M 1984 4856 
Q 1566 4138 1362 3434 
Q 1159 2731 1159 2009 
Q 1159 1288 1364 580 
Q 1569 -128 1984 -844 
L 1484 -844 
Q 1016 -109 783 600 
Q 550 1309 550 2009 
Q 550 2706 781 3412 
Q 1013 4119 1484 4856 
L 1984 4856 
z
" transform="scale(0.015625)"/>
       <path id="DejaVuSans-25" d="M 4653 2053 
Q 4381 2053 4226 1822 
Q 4072 1591 4072 1178 
Q 4072 772 4226 539 
Q 4381 306 4653 306 
Q 4919 306 5073 539 
Q 5228 772 5228 1178 
Q 5228 1588 5073 1820 
Q 4919 2053 4653 2053 
z
M 4653 2450 
Q 5147 2450 5437 2106 
Q 5728 1763 5728 1178 
Q 5728 594 5436 251 
Q 5144 -91 4653 -91 
Q 4153 -91 3862 251 
Q 3572 594 3572 1178 
Q 3572 1766 3864 2108 
Q 4156 2450 4653 2450 
z
M 1428 4353 
Q 1159 4353 1004 4120 
Q 850 3888 850 3481 
Q 850 3069 1003 2837 
Q 1156 2606 1428 2606 
Q 1700 2606 1854 2837 
Q 2009 3069 2009 3481 
Q 2009 3884 1853 4118 
Q 1697 4353 1428 4353 
z
M 4250 4750 
L 4750 4750 
L 1831 -91 
L 1331 -91 
L 4250 4750 
z
M 1428 4750 
Q 1922 4750 2215 4408 
Q 2509 4066 2509 3481 
Q 2509 2891 2217 2550 
Q 1925 2209 1428 2209 
Q 931 2209 642 2551 
Q 353 2894 353 3481 
Q 353 4063 643 4406 
Q 934 4750 1428 4750 
z
" transform="scale(0.015625)"/>
       <path id="DejaVuSans-29" d="M 513 4856 
L 1013 4856 
Q 1481 4119 1714 3412 
Q 1947 2706 1947 2009 
Q 1947 1309 1714 600 
Q 1481 -109 1013 -844 
L 513 -844 
Q 928 -128 1133 580 
Q 1338 1288 1338 2009 
Q 1338 2731 1133 3434 
Q 928 4138 513 4856 
z
" transform="scale(0.015625)"/>
      </defs>
      <use xlink:href="#DejaVuSans-4c"/>
      <use xlink:href="#DejaVuSans-6f" x="53.962891"/>
      <use xlink:href="#DejaVuSans-73" x="115.144531"/>
      <use xlink:href="#DejaVuSans-73" x="167.244141"/>
      <use xlink:href="#DejaVuSans-20" x="219.34375"/>
      <use xlink:href="#DejaVuSans-28" x="251.130859"/>
      <use xlink:href="#DejaVuSans-25" x="290.144531"/>
      <use xlink:href="#DejaVuSans-29" x="385.164062"/>
     </g>
    </g>
   </g>
   <g id="line2d_117">
    <path d="M 128.016 44.64 
L 129.132 79.406549 
L 130.248 91.388167 
L 131.364 95.705905 
L 132.48 104.557 
L 133.596 111.947569 
L 134.712 116.582005 
L 135.828 115.917047 
L 136.944 118.82239 
L 138.06 121.11784 
L 139.176 120.136929 
L 140.292 120.595987 
L 141.408 122.362352 
L 142.524 123.514995 
L 143.64 125.90628 
L 144.756 126.57413 
L 145.872 125.874696 
L 146.988 126.67389 
L 148.104 128.486578 
L 149.22 127.58218 
L 150.336 128.845397 
L 152.568 130.902013 
L 153.684 132.686499 
L 154.8 132.234661 
L 155.916 132.014767 
L 158.148 133.387007 
L 160.38 134.240647 
L 161.496 134.275389 
L 163.728 134.814991 
L 164.844 134.512203 
L 168.192 136.557174 
L 169.308 136.492847 
L 171.54 137.168248 
L 172.656 137.749206 
L 173.772 137.904434 
L 174.888 137.743219 
L 176.004 137.898776 
L 179.352 138.887535 
L 180.468 139.57441 
L 181.584 139.709156 
L 182.7 140.371849 
L 183.816 154.961392 
L 184.932 157.825145 
L 186.048 157.469664 
L 187.164 156.956202 
L 188.28 158.696906 
L 189.396 159.314244 
L 190.512 161.521834 
L 191.628 162.076759 
L 192.744 161.631281 
L 193.86 160.707603 
L 194.976 160.676137 
L 196.092 160.39299 
L 197.208 160.334012 
L 198.324 159.927796 
L 199.44 160.206997 
L 201.672 158.482627 
L 202.788 158.723247 
L 205.02 160.137694 
L 206.136 158.524175 
L 207.252 157.930636 
L 208.368 158.251088 
L 209.484 158.691781 
L 210.6 158.948586 
L 211.716 159.602463 
L 212.832 158.728501 
L 213.948 158.825123 
L 215.064 159.346668 
L 216.18 159.077739 
L 217.296 159.525599 
L 218.412 159.648233 
L 220.644 159.305811 
L 221.76 159.433943 
L 222.876 159.216707 
L 223.992 159.409931 
L 225.108 159.180317 
L 226.224 159.591744 
L 227.34 159.41462 
L 228.456 159.717483 
L 229.572 160.220333 
L 230.688 160.994094 
L 231.804 160.283574 
L 232.92 160.326632 
L 234.036 160.910462 
L 237.384 161.05882 
L 238.5 161.430342 
L 239.616 158.187527 
L 240.732 173.630998 
L 241.848 173.399565 
L 242.964 175.324263 
L 244.08 176.628184 
L 245.196 177.304488 
L 246.312 178.602868 
L 247.428 176.504242 
L 248.544 177.997935 
L 249.66 175.919817 
L 250.776 177.549591 
L 251.892 177.407911 
L 253.008 178.22304 
L 254.124 180.390927 
L 255.24 181.157867 
L 256.356 181.222039 
L 257.472 180.807081 
L 258.588 181.408467 
L 259.704 181.080428 
L 260.82 181.382302 
L 261.936 181.823446 
L 263.052 181.65374 
L 264.168 180.835777 
L 265.284 181.627596 
L 266.4 182.171616 
L 267.516 182.496933 
L 268.632 181.693082 
L 269.748 181.975027 
L 270.864 182.375155 
L 271.98 182.320867 
L 273.096 181.872959 
L 274.212 181.896068 
L 275.328 182.162125 
L 276.444 182.11257 
L 277.56 182.45262 
L 278.676 182.497013 
L 279.792 183.116451 
L 280.908 182.25677 
L 282.024 182.24538 
L 284.256 183.254392 
L 285.372 183.279191 
L 287.604 183.752893 
L 288.72 184.407604 
L 292.068 184.994358 
L 294.3 184.853136 
L 295.416 205.433418 
L 296.532 210.993467 
L 297.648 201.963042 
L 298.764 201.99269 
L 299.88 206.348363 
L 300.996 205.801099 
L 302.112 204.733309 
L 303.228 201.965296 
L 304.344 202.35219 
L 305.46 201.327573 
L 306.576 201.808362 
L 307.692 199.758015 
L 308.808 200.824659 
L 309.924 200.234104 
L 311.04 200.49813 
L 313.272 201.163317 
L 314.388 200.607913 
L 315.504 200.810899 
L 316.62 201.373491 
L 317.736 201.400151 
L 318.852 202.06663 
L 319.968 201.280915 
L 323.316 202.019642 
L 324.432 202.413986 
L 325.548 202.221304 
L 326.664 201.714467 
L 327.78 202.445048 
L 328.896 202.730987 
L 330.012 203.617732 
L 331.128 203.112877 
L 332.244 203.754594 
L 333.36 202.905398 
L 335.592 203.747028 
L 338.94 203.896694 
L 340.056 203.46554 
L 341.172 203.632263 
L 343.404 202.940757 
L 344.52 202.564067 
L 345.636 202.586935 
L 346.752 201.864037 
L 347.868 201.690907 
L 348.984 201.824451 
L 350.1 202.182644 
L 351.216 218.67627 
L 352.332 223.03868 
L 353.448 221.890179 
L 354.564 221.039295 
L 355.68 222.357409 
L 356.796 221.31344 
L 357.912 219.50755 
L 360.144 221.660833 
L 361.26 220.936095 
L 362.376 219.276471 
L 364.608 218.06249 
L 365.724 218.590519 
L 366.84 219.34072 
L 367.956 217.904457 
L 369.072 217.85584 
L 370.188 216.277831 
L 371.304 216.098985 
L 372.42 216.228036 
L 373.536 213.595291 
L 375.768 212.934204 
L 376.884 213.445574 
L 378 213.549197 
L 379.116 214.032408 
L 380.232 214.302924 
L 382.464 215.302381 
L 383.58 215.105374 
L 384.696 215.545431 
L 385.812 214.301658 
L 386.928 213.411441 
L 389.16 213.748049 
L 390.276 214.069247 
L 391.392 213.699549 
L 392.508 213.826497 
L 394.74 212.838304 
L 395.856 211.399348 
L 396.972 211.127995 
L 398.088 210.730459 
L 399.204 210.16052 
L 400.32 210.0527 
L 401.436 209.704621 
L 402.552 209.982426 
L 403.668 210.141256 
L 405.9 210.191801 
L 408.132 229.850085 
L 409.248 228.316711 
L 410.364 220.204163 
L 411.48 221.456701 
L 412.596 224.315724 
L 413.712 225.351125 
L 414.828 222.739483 
L 415.944 222.690502 
L 417.06 223.067948 
L 418.176 224.163214 
L 419.292 224.075216 
L 420.408 222.842529 
L 421.524 223.424556 
L 422.64 223.859482 
L 423.756 223.848794 
L 424.872 223.230388 
L 425.988 223.724581 
L 427.104 224.559735 
L 428.22 225.10409 
L 429.336 224.012601 
L 430.452 224.299061 
L 431.568 224.745677 
L 432.684 224.739121 
L 433.8 224.348239 
L 434.916 223.757646 
L 436.032 224.073509 
L 437.148 224.186319 
L 438.264 224.455437 
L 440.496 225.430196 
L 441.612 225.961537 
L 442.728 225.290505 
L 443.844 223.627948 
L 444.96 223.926571 
L 446.076 224.381585 
L 448.308 225.061162 
L 449.424 224.943303 
L 450.54 224.438013 
L 451.656 224.460209 
L 452.772 224.742505 
L 455.004 223.606983 
L 456.12 223.880809 
L 457.236 223.934496 
L 458.352 223.524273 
L 459.468 223.63263 
L 461.7 224.134398 
L 462.816 237.039682 
L 463.932 227.783219 
L 465.048 222.086255 
L 466.164 222.130477 
L 467.28 223.094028 
L 468.396 223.731746 
L 469.512 225.361236 
L 470.628 225.283337 
L 471.744 223.886238 
L 472.86 225.211817 
L 473.976 224.799241 
L 475.092 224.699535 
L 476.208 223.943506 
L 477.324 224.734016 
L 478.44 225.156897 
L 479.556 225.903833 
L 480.672 226.128016 
L 481.788 226.193725 
L 482.904 225.960309 
L 484.02 226.711043 
L 485.136 226.261678 
L 486.252 226.886372 
L 487.368 226.938445 
L 488.484 224.672109 
L 489.6 225.392516 
L 490.716 225.396749 
L 491.832 225.092589 
L 494.064 226.165031 
L 495.18 226.492812 
L 497.412 225.70362 
L 498.528 225.490434 
L 500.76 225.943228 
L 501.876 225.940184 
L 502.992 226.409908 
L 504.108 225.797055 
L 506.34 225.746088 
L 507.456 225.569113 
L 509.688 226.337157 
L 510.804 226.307936 
L 513.036 226.855019 
L 514.152 227.048185 
L 515.268 227.355819 
L 516.384 227.468132 
L 517.5 227.750054 
L 518.616 230.661422 
L 519.732 235.304787 
L 520.848 237.779359 
L 521.964 237.682252 
L 523.08 235.229218 
L 524.196 234.831049 
L 525.312 235.345912 
L 527.544 236.834471 
L 532.008 239.040592 
L 533.124 239.405711 
L 535.356 239.826705 
L 536.472 238.32021 
L 537.588 236.006515 
L 538.704 232.487967 
L 539.82 231.906267 
L 540.936 231.980164 
L 542.052 232.346481 
L 544.284 231.636139 
L 545.4 231.860023 
L 546.516 231.34136 
L 547.632 231.807202 
L 548.748 231.260778 
L 549.864 231.124115 
L 550.98 231.559664 
L 552.096 231.688073 
L 553.212 231.187996 
L 554.328 231.62066 
L 562.14 233.561564 
L 563.256 233.569305 
L 564.372 233.4193 
L 565.488 232.573874 
L 566.604 232.27223 
L 567.72 231.71196 
L 571.068 231.595867 
L 573.3 231.902783 
L 574.416 246.24 
L 575.532 241.211555 
L 576.648 240.598826 
L 577.764 237.12209 
L 578.88 238.741357 
L 579.996 237.300685 
L 581.112 236.269655 
L 582.228 236.738259 
L 583.344 232.849769 
L 585.576 230.528382 
L 586.692 229.65791 
L 587.808 230.28577 
L 588.924 230.0624 
L 590.04 230.849903 
L 591.156 230.334246 
L 592.272 230.987529 
L 593.388 231.849277 
L 594.504 232.183179 
L 595.62 231.974412 
L 596.736 232.325581 
L 597.852 232.802604 
L 600.084 233.472798 
L 601.2 233.657692 
L 602.316 233.522456 
L 603.432 233.006842 
L 606.78 234.139079 
L 609.012 233.6476 
L 610.128 233.907707 
L 611.244 233.972902 
L 612.36 233.841611 
L 613.476 233.871488 
L 614.592 233.778403 
L 615.708 233.966124 
L 616.824 233.990222 
L 617.94 234.22707 
L 620.172 234.328048 
L 621.288 233.968262 
L 622.404 234.21643 
L 623.52 234.340417 
L 625.752 234.861201 
L 626.868 234.504728 
L 627.984 234.697254 
L 629.1 234.642154 
L 630.216 243.785595 
L 631.332 226.123611 
L 632.448 232.808675 
L 633.564 235.438504 
L 634.68 237.705572 
L 635.796 239.345424 
L 636.912 239.288856 
L 638.028 239.748723 
L 639.144 239.117463 
L 640.26 240.00835 
L 641.376 240.628159 
L 642.492 240.771127 
L 643.608 241.069986 
L 644.724 241.53824 
L 646.956 242.140483 
L 649.188 242.164076 
L 650.304 242.490365 
L 651.42 242.408061 
L 652.536 242.693959 
L 653.652 242.54275 
L 655.884 242.613069 
L 657 241.519391 
L 658.116 241.685272 
L 659.232 240.367337 
L 660.348 240.124085 
L 661.464 240.332817 
L 662.58 240.313644 
L 663.696 239.315247 
L 665.928 239.380387 
L 667.044 239.191423 
L 670.392 239.164207 
L 671.508 238.948062 
L 674.856 238.952935 
L 675.972 238.59866 
L 677.088 238.390683 
L 678.204 238.413406 
L 680.436 238.668009 
L 684.9 238.80233 
L 684.9 238.80233 
" clip-path="url(#p8d47380356)" style="fill: none; stroke: #ffa500; stroke-opacity: 0.5; stroke-width: 1.5; stroke-linecap: square"/>
   </g>
   <g id="line2d_118">
    <path d="M 128.016 44.64 
L 129.132 71.68065 
L 130.248 86.09361 
L 131.364 93.005596 
L 133.596 108.901654 
L 134.712 114.388472 
L 135.828 115.48036 
L 138.06 120.189195 
L 139.176 120.151862 
L 140.292 120.469094 
L 142.524 123.031117 
L 143.64 125.084805 
L 144.756 126.148609 
L 145.872 125.952957 
L 146.988 126.467909 
L 148.104 127.909815 
L 149.22 127.67579 
L 150.336 128.511224 
L 152.568 130.498322 
L 153.684 132.061305 
L 154.8 132.185131 
L 155.916 132.063442 
L 157.032 132.52211 
L 159.264 133.633606 
L 160.38 134.067207 
L 162.612 134.436609 
L 163.728 134.706882 
L 164.844 134.567825 
L 165.96 135.03158 
L 168.192 136.304398 
L 169.308 136.439005 
L 171.54 137.041145 
L 172.656 137.546903 
L 173.772 137.802282 
L 174.888 137.760094 
L 176.004 137.859153 
L 179.352 138.77828 
L 180.468 139.346944 
L 181.584 139.605667 
L 182.7 140.15294 
L 183.816 150.730406 
L 184.932 155.798077 
L 186.048 156.992068 
L 187.164 156.966449 
L 188.28 158.20249 
L 189.396 158.9966 
L 190.512 160.800338 
L 191.628 161.712067 
L 192.744 161.654363 
L 193.86 160.978106 
L 198.324 160.057289 
L 199.44 160.164223 
L 200.556 159.571649 
L 201.672 158.793776 
L 202.788 158.743398 
L 203.904 159.204901 
L 205.02 159.871182 
L 206.136 158.909034 
L 207.252 158.210178 
L 208.368 158.2394 
L 210.6 158.838284 
L 211.716 159.384126 
L 212.832 158.915822 
L 213.948 158.851037 
L 215.064 159.205059 
L 216.18 159.114116 
L 217.296 159.408033 
L 218.412 159.579604 
L 225.108 159.234775 
L 226.224 159.489753 
L 227.34 159.436087 
L 228.456 159.637084 
L 229.572 160.05369 
L 230.688 160.725408 
L 231.804 160.409812 
L 232.92 160.350398 
L 234.036 160.750443 
L 236.268 160.975636 
L 237.384 161.035053 
L 238.5 161.317402 
L 239.616 159.081777 
L 240.732 169.474078 
L 241.848 172.277998 
L 242.964 174.453902 
L 244.08 176.00696 
L 245.196 176.933766 
L 246.312 178.125982 
L 247.428 176.967596 
L 248.544 177.703552 
L 249.66 176.429456 
L 250.776 177.229552 
L 251.892 177.356951 
L 253.008 177.975586 
L 254.124 179.700829 
L 255.24 180.74157 
L 256.356 181.084762 
L 257.472 180.886418 
L 258.588 181.25931 
L 259.704 181.131537 
L 260.82 181.310655 
L 261.936 181.676935 
L 263.052 181.660367 
L 264.168 181.071374 
L 267.516 182.346602 
L 268.632 181.879802 
L 269.748 181.94782 
L 270.864 182.253059 
L 271.98 182.301494 
L 273.096 181.995398 
L 274.212 181.924448 
L 275.328 182.094217 
L 276.444 182.107326 
L 277.56 182.353965 
L 278.676 182.456142 
L 279.792 182.927791 
L 280.908 182.44849 
L 282.024 182.303412 
L 283.14 182.61722 
L 284.256 183.072343 
L 286.488 183.447584 
L 287.604 183.665662 
L 288.72 184.195621 
L 289.836 184.498795 
L 292.068 184.905961 
L 294.3 184.878357 
L 295.416 199.560544 
L 296.532 207.726917 
L 297.648 203.609863 
L 298.764 202.454739 
L 299.88 205.235899 
L 300.996 205.639613 
L 302.112 204.992253 
L 303.228 202.830141 
L 304.344 202.488748 
L 305.46 201.659337 
L 306.576 201.765783 
L 307.692 200.331663 
L 308.808 200.683803 
L 309.924 200.362589 
L 311.04 200.459404 
L 313.272 201.048315 
L 314.388 200.733742 
L 315.504 200.788854 
L 316.62 201.206452 
L 317.736 201.344809 
L 318.852 201.860395 
L 319.968 201.446481 
L 322.2 201.616524 
L 324.432 202.268409 
L 325.548 202.234763 
L 326.664 201.863123 
L 328.896 202.601786 
L 330.012 203.327461 
L 331.128 203.174187 
L 332.244 203.588763 
L 333.36 203.100646 
L 334.476 203.246689 
L 335.592 203.604074 
L 338.94 203.871054 
L 340.056 203.581401 
L 341.172 203.617731 
L 345.636 202.620558 
L 346.752 202.080186 
L 347.868 201.802129 
L 348.984 201.818074 
L 350.1 202.078481 
L 351.216 213.934045 
L 352.332 220.437355 
L 353.448 221.475086 
L 354.564 221.163807 
L 355.68 222.01638 
L 356.796 221.51428 
L 357.912 220.080901 
L 359.028 220.394098 
L 360.144 221.298909 
L 361.26 221.039756 
L 362.376 219.780267 
L 363.492 218.96287 
L 364.608 218.319741 
L 365.724 218.513154 
L 366.84 219.104273 
L 367.956 218.247262 
L 369.072 217.967675 
L 370.188 216.760644 
L 371.304 216.28803 
L 372.42 216.245177 
L 373.536 214.352401 
L 374.652 213.559159 
L 375.768 213.112763 
L 379.116 213.878126 
L 380.232 214.181553 
L 382.464 215.116612 
L 383.58 215.108585 
L 384.696 215.420618 
L 386.928 213.757132 
L 388.044 213.614494 
L 389.16 213.70989 
L 390.276 213.966574 
L 391.392 213.775842 
L 392.508 213.812024 
L 394.74 213.017935 
L 395.856 211.861802 
L 399.204 210.372927 
L 401.436 209.830213 
L 405.9 210.174832 
L 407.016 217.39018 
L 408.132 226.290112 
L 409.248 227.737683 
L 410.364 222.356597 
L 411.48 221.713814 
L 412.596 223.572322 
L 413.712 224.842896 
L 414.828 223.340458 
L 415.944 222.876204 
L 417.06 223.013164 
L 418.176 223.834628 
L 419.292 224.006476 
L 420.408 223.175085 
L 421.524 223.353278 
L 422.64 223.714852 
L 423.756 223.810525 
L 424.872 223.396142 
L 425.988 223.630742 
L 428.22 224.872723 
L 429.336 224.258351 
L 430.452 224.287429 
L 431.568 224.614749 
L 432.684 224.703586 
L 433.8 224.449766 
L 434.916 223.955395 
L 437.148 224.144446 
L 438.264 224.366582 
L 440.496 225.234638 
L 441.612 225.753852 
L 442.728 225.42289 
L 443.844 224.140789 
L 444.96 223.987776 
L 448.308 224.923522 
L 449.424 224.937651 
L 450.54 224.580767 
L 451.656 224.494654 
L 452.772 224.67169 
L 453.888 224.351449 
L 455.004 223.819688 
L 457.236 223.914167 
L 458.352 223.635671 
L 459.468 223.633499 
L 461.7 224.04196 
L 462.816 233.326047 
L 463.932 229.366884 
L 465.048 224.166435 
L 466.164 222.71218 
L 467.28 222.984929 
L 468.396 223.51837 
L 469.512 224.834703 
L 470.628 225.155156 
L 471.744 224.248786 
L 472.86 224.936665 
L 475.092 224.739241 
L 476.208 224.170858 
L 478.44 224.990102 
L 479.556 225.642767 
L 480.672 225.989374 
L 481.788 226.135339 
L 482.904 226.010318 
L 484.02 226.510835 
L 485.136 226.332866 
L 486.252 226.728227 
L 487.368 226.878382 
L 488.484 225.302473 
L 490.716 225.388189 
L 491.832 225.177046 
L 492.948 225.519162 
L 495.18 226.346437 
L 496.296 226.165846 
L 498.528 225.589077 
L 501.876 225.922221 
L 502.992 226.270569 
L 504.108 225.932345 
L 507.456 225.628415 
L 510.804 226.279201 
L 517.5 227.651223 
L 518.616 229.801365 
L 519.732 233.732381 
L 520.848 236.623079 
L 521.964 237.379632 
L 523.08 235.843622 
L 524.196 235.120356 
L 525.312 235.281467 
L 530.892 238.25956 
L 532.008 238.81744 
L 533.124 239.237634 
L 535.356 239.724886 
L 536.472 238.721546 
L 537.588 236.782238 
L 538.704 233.714901 
L 539.82 232.42302 
L 540.936 232.106694 
L 542.052 232.27797 
L 543.168 232.094363 
L 544.284 231.76706 
L 545.4 231.833462 
L 546.516 231.48196 
L 547.632 231.714276 
L 548.748 231.390349 
L 549.864 231.200182 
L 552.096 231.622039 
L 553.212 231.312008 
L 555.444 231.795827 
L 559.908 232.933922 
L 563.256 233.534179 
L 564.372 233.452122 
L 565.488 232.824802 
L 566.604 232.430108 
L 567.72 231.917145 
L 569.952 231.616551 
L 571.068 231.601777 
L 573.3 231.851912 
L 574.416 242.129118 
L 576.648 240.848795 
L 577.764 238.186862 
L 578.88 238.58293 
L 581.112 236.668908 
L 582.228 236.718445 
L 583.344 233.955105 
L 584.46 232.306322 
L 585.576 231.036365 
L 586.692 230.051754 
L 587.808 230.218908 
L 588.924 230.107116 
L 590.04 230.637678 
L 591.156 230.420941 
L 592.272 230.825647 
L 593.388 231.556811 
L 594.504 232.004217 
L 595.62 231.982928 
L 596.736 232.22768 
L 598.968 232.993264 
L 601.2 233.56572 
L 602.316 233.534817 
L 603.432 233.157692 
L 604.548 233.337319 
L 606.78 234.015604 
L 609.012 233.722778 
L 611.244 233.939179 
L 614.592 233.804835 
L 620.172 234.292574 
L 621.288 234.060922 
L 623.52 234.292298 
L 625.752 234.762121 
L 626.868 234.578269 
L 629.1 234.648184 
L 630.216 241.174906 
L 631.332 230.423981 
L 632.448 232.127334 
L 634.68 236.787539 
L 635.796 238.614599 
L 638.028 239.562291 
L 639.144 239.244557 
L 641.376 240.38872 
L 643.608 240.953381 
L 645.84 241.70803 
L 646.956 242.016925 
L 649.188 242.145992 
L 650.304 242.391972 
L 651.42 242.403464 
L 652.536 242.610961 
L 654.768 242.557468 
L 655.884 242.597183 
L 657 241.827332 
L 658.116 241.72586 
L 659.232 240.755487 
L 660.348 240.304486 
L 662.58 240.316809 
L 663.696 239.601408 
L 664.812 239.399495 
L 665.928 239.385846 
L 668.16 239.218792 
L 669.276 239.288749 
L 675.972 238.695652 
L 677.088 238.477817 
L 678.204 238.431809 
L 682.668 238.669809 
L 684.9 238.768066 
L 684.9 238.768066 
" clip-path="url(#p8d47380356)" style="fill: none; stroke: #ffa500; stroke-width: 1.5; stroke-linecap: square"/>
   </g>
   <g id="line2d_119">
    <path d="M 126.9 132.833995 
L 182.7 129.228134 
L 238.5 58.507384 
L 294.3 172.977972 
L 350.1 206.455396 
L 405.9 216.690877 
L 461.7 229.59655 
L 517.5 212.466237 
L 573.3 234.095855 
L 629.1 218.410952 
" clip-path="url(#p8d47380356)" style="fill: none; stroke-dasharray: 5.55,2.4; stroke-dashoffset: 0; stroke: #000000; stroke-width: 1.5"/>
    <defs>
     <path id="m985b651dcf" d="M 0 3 
C 0.795609 3 1.55874 2.683901 2.12132 2.12132 
C 2.683901 1.55874 3 0.795609 3 0 
C 3 -0.795609 2.683901 -1.55874 2.12132 -2.12132 
C 1.55874 -2.683901 0.795609 -3 0 -3 
C -0.795609 -3 -1.55874 -2.683901 -2.12132 -2.12132 
C -2.683901 -1.55874 -3 -0.795609 -3 0 
C -3 0.795609 -2.683901 1.55874 -2.12132 2.12132 
C -1.55874 2.683901 -0.795609 3 0 3 
z
" style="stroke: #000000"/>
    </defs>
    <g clip-path="url(#p8d47380356)">
     <use xlink:href="#m985b651dcf" x="126.9" y="132.833995" style="stroke: #000000"/>
     <use xlink:href="#m985b651dcf" x="182.7" y="129.228134" style="stroke: #000000"/>
     <use xlink:href="#m985b651dcf" x="238.5" y="58.507384" style="stroke: #000000"/>
     <use xlink:href="#m985b651dcf" x="294.3" y="172.977972" style="stroke: #000000"/>
     <use xlink:href="#m985b651dcf" x="350.1" y="206.455396" style="stroke: #000000"/>
     <use xlink:href="#m985b651dcf" x="405.9" y="216.690877" style="stroke: #000000"/>
     <use xlink:href="#m985b651dcf" x="461.7" y="229.59655" style="stroke: #000000"/>
     <use xlink:href="#m985b651dcf" x="517.5" y="212.466237" style="stroke: #000000"/>
     <use xlink:href="#m985b651dcf" x="573.3" y="234.095855" style="stroke: #000000"/>
     <use xlink:href="#m985b651dcf" x="629.1" y="218.410952" style="stroke: #000000"/>
    </g>
   </g>
   <g id="patch_3">
    <path d="M 99 256.32 
L 99 34.56 
" style="fill: none; stroke: #000000; stroke-width: 0.8; stroke-linejoin: miter; stroke-linecap: square"/>
   </g>
   <g id="patch_4">
    <path d="M 712.8 256.32 
L 712.8 34.56 
" style="fill: none; stroke: #000000; stroke-width: 0.8; stroke-linejoin: miter; stroke-linecap: square"/>
   </g>
   <g id="patch_5">
    <path d="M 99 256.32 
L 712.8 256.32 
" style="fill: none; stroke: #000000; stroke-width: 0.8; stroke-linejoin: miter; stroke-linecap: square"/>
   </g>
   <g id="patch_6">
    <path d="M 99 34.56 
L 712.8 34.56 
" style="fill: none; stroke: #000000; stroke-width: 0.8; stroke-linejoin: miter; stroke-linecap: square"/>
   </g>
   <g id="legend_1">
    <g id="patch_7">
     <path d="M 600.220313 86.594375 
L 705.8 86.594375 
Q 707.8 86.594375 707.8 84.594375 
L 707.8 41.56 
Q 707.8 39.56 705.8 39.56 
L 600.220313 39.56 
Q 598.220313 39.56 598.220313 41.56 
L 598.220313 84.594375 
Q 598.220313 86.594375 600.220313 86.594375 
z
" style="fill: #ffffff; opacity: 0.8; stroke: #cccccc; stroke-linejoin: miter"/>
    </g>
    <g id="line2d_120">
     <path d="M 602.220313 47.658438 
L 612.220313 47.658438 
L 622.220313 47.658438 
" style="fill: none; stroke: #ffa500; stroke-opacity: 0.5; stroke-width: 1.5; stroke-linecap: square"/>
    </g>
    <g id="text_16">
     <!-- Loss -->
     <g transform="translate(630.220313 51.158438) scale(0.1 -0.1)">
      <use xlink:href="#DejaVuSans-4c"/>
      <use xlink:href="#DejaVuSans-6f" x="53.962891"/>
      <use xlink:href="#DejaVuSans-73" x="115.144531"/>
      <use xlink:href="#DejaVuSans-73" x="167.244141"/>
     </g>
    </g>
    <g id="line2d_121">
     <path d="M 602.220313 62.336563 
L 612.220313 62.336563 
L 622.220313 62.336563 
" style="fill: none; stroke: #ffa500; stroke-width: 1.5; stroke-linecap: square"/>
    </g>
    <g id="text_17">
     <!-- Smoothed loss -->
     <g transform="translate(630.220313 65.836563) scale(0.1 -0.1)">
      <defs>
       <path id="DejaVuSans-53" d="M 3425 4513 
L 3425 3897 
Q 3066 4069 2747 4153 
Q 2428 4238 2131 4238 
Q 1616 4238 1336 4038 
Q 1056 3838 1056 3469 
Q 1056 3159 1242 3001 
Q 1428 2844 1947 2747 
L 2328 2669 
Q 3034 2534 3370 2195 
Q 3706 1856 3706 1288 
Q 3706 609 3251 259 
Q 2797 -91 1919 -91 
Q 1588 -91 1214 -16 
Q 841 59 441 206 
L 441 856 
Q 825 641 1194 531 
Q 1563 422 1919 422 
Q 2459 422 2753 634 
Q 3047 847 3047 1241 
Q 3047 1584 2836 1778 
Q 2625 1972 2144 2069 
L 1759 2144 
Q 1053 2284 737 2584 
Q 422 2884 422 3419 
Q 422 4038 858 4394 
Q 1294 4750 2059 4750 
Q 2388 4750 2728 4690 
Q 3069 4631 3425 4513 
z
" transform="scale(0.015625)"/>
       <path id="DejaVuSans-6d" d="M 3328 2828 
Q 3544 3216 3844 3400 
Q 4144 3584 4550 3584 
Q 5097 3584 5394 3201 
Q 5691 2819 5691 2113 
L 5691 0 
L 5113 0 
L 5113 2094 
Q 5113 2597 4934 2840 
Q 4756 3084 4391 3084 
Q 3944 3084 3684 2787 
Q 3425 2491 3425 1978 
L 3425 0 
L 2847 0 
L 2847 2094 
Q 2847 2600 2669 2842 
Q 2491 3084 2119 3084 
Q 1678 3084 1418 2786 
Q 1159 2488 1159 1978 
L 1159 0 
L 581 0 
L 581 3500 
L 1159 3500 
L 1159 2956 
Q 1356 3278 1631 3431 
Q 1906 3584 2284 3584 
Q 2666 3584 2933 3390 
Q 3200 3197 3328 2828 
z
" transform="scale(0.015625)"/>
       <path id="DejaVuSans-74" d="M 1172 4494 
L 1172 3500 
L 2356 3500 
L 2356 3053 
L 1172 3053 
L 1172 1153 
Q 1172 725 1289 603 
Q 1406 481 1766 481 
L 2356 481 
L 2356 0 
L 1766 0 
Q 1100 0 847 248 
Q 594 497 594 1153 
L 594 3053 
L 172 3053 
L 172 3500 
L 594 3500 
L 594 4494 
L 1172 4494 
z
" transform="scale(0.015625)"/>
       <path id="DejaVuSans-65" d="M 3597 1894 
L 3597 1613 
L 953 1613 
Q 991 1019 1311 708 
Q 1631 397 2203 397 
Q 2534 397 2845 478 
Q 3156 559 3463 722 
L 3463 178 
Q 3153 47 2828 -22 
Q 2503 -91 2169 -91 
Q 1331 -91 842 396 
Q 353 884 353 1716 
Q 353 2575 817 3079 
Q 1281 3584 2069 3584 
Q 2775 3584 3186 3129 
Q 3597 2675 3597 1894 
z
M 3022 2063 
Q 3016 2534 2758 2815 
Q 2500 3097 2075 3097 
Q 1594 3097 1305 2825 
Q 1016 2553 972 2059 
L 3022 2063 
z
" transform="scale(0.015625)"/>
       <path id="DejaVuSans-64" d="M 2906 2969 
L 2906 4863 
L 3481 4863 
L 3481 0 
L 2906 0 
L 2906 525 
Q 2725 213 2448 61 
Q 2172 -91 1784 -91 
Q 1150 -91 751 415 
Q 353 922 353 1747 
Q 353 2572 751 3078 
Q 1150 3584 1784 3584 
Q 2172 3584 2448 3432 
Q 2725 3281 2906 2969 
z
M 947 1747 
Q 947 1113 1208 752 
Q 1469 391 1925 391 
Q 2381 391 2643 752 
Q 2906 1113 2906 1747 
Q 2906 2381 2643 2742 
Q 2381 3103 1925 3103 
Q 1469 3103 1208 2742 
Q 947 2381 947 1747 
z
" transform="scale(0.015625)"/>
       <path id="DejaVuSans-6c" d="M 603 4863 
L 1178 4863 
L 1178 0 
L 603 0 
L 603 4863 
z
" transform="scale(0.015625)"/>
      </defs>
      <use xlink:href="#DejaVuSans-53"/>
      <use xlink:href="#DejaVuSans-6d" x="63.476562"/>
      <use xlink:href="#DejaVuSans-6f" x="160.888672"/>
      <use xlink:href="#DejaVuSans-6f" x="222.070312"/>
      <use xlink:href="#DejaVuSans-74" x="283.251953"/>
      <use xlink:href="#DejaVuSans-68" x="322.460938"/>
      <use xlink:href="#DejaVuSans-65" x="385.839844"/>
      <use xlink:href="#DejaVuSans-64" x="447.363281"/>
      <use xlink:href="#DejaVuSans-20" x="510.839844"/>
      <use xlink:href="#DejaVuSans-6c" x="542.626953"/>
      <use xlink:href="#DejaVuSans-6f" x="570.410156"/>
      <use xlink:href="#DejaVuSans-73" x="631.591797"/>
      <use xlink:href="#DejaVuSans-73" x="683.691406"/>
     </g>
    </g>
    <g id="line2d_122">
     <path d="M 602.220313 77.014688 
L 612.220313 77.014688 
L 622.220313 77.014688 
" style="fill: none; stroke-dasharray: 5.55,2.4; stroke-dashoffset: 0; stroke: #000000; stroke-width: 1.5"/>
     <g>
      <use xlink:href="#m985b651dcf" x="612.220313" y="77.014688" style="stroke: #000000"/>
     </g>
    </g>
    <g id="text_18">
     <!-- Validation -->
     <g transform="translate(630.220313 80.514688) scale(0.1 -0.1)">
      <defs>
       <path id="DejaVuSans-56" d="M 1831 0 
L 50 4666 
L 709 4666 
L 2188 738 
L 3669 4666 
L 4325 4666 
L 2547 0 
L 1831 0 
z
" transform="scale(0.015625)"/>
       <path id="DejaVuSans-61" d="M 2194 1759 
Q 1497 1759 1228 1600 
Q 959 1441 959 1056 
Q 959 750 1161 570 
Q 1363 391 1709 391 
Q 2188 391 2477 730 
Q 2766 1069 2766 1631 
L 2766 1759 
L 2194 1759 
z
M 3341 1997 
L 3341 0 
L 2766 0 
L 2766 531 
Q 2569 213 2275 61 
Q 1981 -91 1556 -91 
Q 1019 -91 701 211 
Q 384 513 384 1019 
Q 384 1609 779 1909 
Q 1175 2209 1959 2209 
L 2766 2209 
L 2766 2266 
Q 2766 2663 2505 2880 
Q 2244 3097 1772 3097 
Q 1472 3097 1187 3025 
Q 903 2953 641 2809 
L 641 3341 
Q 956 3463 1253 3523 
Q 1550 3584 1831 3584 
Q 2591 3584 2966 3190 
Q 3341 2797 3341 1997 
z
" transform="scale(0.015625)"/>
       <path id="DejaVuSans-69" d="M 603 3500 
L 1178 3500 
L 1178 0 
L 603 0 
L 603 3500 
z
M 603 4863 
L 1178 4863 
L 1178 4134 
L 603 4134 
L 603 4863 
z
" transform="scale(0.015625)"/>
       <path id="DejaVuSans-6e" d="M 3513 2113 
L 3513 0 
L 2938 0 
L 2938 2094 
Q 2938 2591 2744 2837 
Q 2550 3084 2163 3084 
Q 1697 3084 1428 2787 
Q 1159 2491 1159 1978 
L 1159 0 
L 581 0 
L 581 3500 
L 1159 3500 
L 1159 2956 
Q 1366 3272 1645 3428 
Q 1925 3584 2291 3584 
Q 2894 3584 3203 3211 
Q 3513 2838 3513 2113 
z
" transform="scale(0.015625)"/>
      </defs>
      <use xlink:href="#DejaVuSans-56"/>
      <use xlink:href="#DejaVuSans-61" x="60.658203"/>
      <use xlink:href="#DejaVuSans-6c" x="121.9375"/>
      <use xlink:href="#DejaVuSans-69" x="149.720703"/>
      <use xlink:href="#DejaVuSans-64" x="177.503906"/>
      <use xlink:href="#DejaVuSans-61" x="240.980469"/>
      <use xlink:href="#DejaVuSans-74" x="302.259766"/>
      <use xlink:href="#DejaVuSans-69" x="341.46875"/>
      <use xlink:href="#DejaVuSans-6f" x="369.251953"/>
      <use xlink:href="#DejaVuSans-6e" x="430.433594"/>
     </g>
    </g>
   </g>
  </g>
 </g>
 <defs>
  <clipPath id="p8d47380356">
   <rect x="99" y="34.56" width="613.8" height="221.76"/>
  </clipPath>
 </defs>
</svg>
