<?xml version="1.0" encoding="utf-8" standalone="no"?>
<!DOCTYPE svg PUBLIC "-//W3C//DTD SVG 1.1//EN"
  "http://www.w3.org/Graphics/SVG/1.1/DTD/svg11.dtd">
<svg xmlns:xlink="http://www.w3.org/1999/xlink" width="792pt" height="288pt" viewBox="0 0 792 288" xmlns="http://www.w3.org/2000/svg" version="1.1">
 <metadata>
  <rdf:RDF xmlns:dc="http://purl.org/dc/elements/1.1/" xmlns:cc="http://creativecommons.org/ns#" xmlns:rdf="http://www.w3.org/1999/02/22-rdf-syntax-ns#">
   <cc:Work>
    <dc:type rdf:resource="http://purl.org/dc/dcmitype/StillImage"/>
    <dc:date>2025-03-03T19:58:12.990086</dc:date>
    <dc:format>image/svg+xml</dc:format>
    <dc:creator>
     <cc:Agent>
      <dc:title>Matplotlib v3.7.2, https://matplotlib.org/</dc:title>
     </cc:Agent>
    </dc:creator>
   </cc:Work>
  </rdf:RDF>
 </metadata>
 <defs>
  <style type="text/css">*{stroke-linejoin: round; stroke-linecap: butt}</style>
 </defs>
 <g id="figure_1">
  <g id="patch_1">
   <path d="M 0 288 
L 792 288 
L 792 0 
L 0 0 
z
" style="fill: #ffffff"/>
  </g>
  <g id="axes_1">
   <g id="patch_2">
    <path d="M 99 256.32 
L 712.8 256.32 
L 712.8 34.56 
L 99 34.56 
z
" style="fill: #ffffff"/>
   </g>
   <g id="matplotlib.axis_1">
    <g id="xtick_1">
     <g id="line2d_1">
      <path d="M 125.781764 256.32 
L 125.781764 34.56 
" clip-path="url(#p3b77d9587d)" style="fill: none; stroke: #b0b0b0; stroke-width: 0.8; stroke-linecap: square"/>
     </g>
     <g id="line2d_2">
      <defs>
       <path id="m50c1103712" d="M 0 0 
L 0 3.5 
" style="stroke: #000000; stroke-width: 0.8"/>
      </defs>
      <g>
       <use xlink:href="#m50c1103712" x="125.781764" y="256.32" style="stroke: #000000; stroke-width: 0.8"/>
      </g>
     </g>
     <g id="text_1">
      <!-- 0 -->
      <g transform="translate(122.600514 270.918437) scale(0.1 -0.1)">
       <defs>
        <path id="DejaVuSans-30" d="M 2034 4250 
Q 1547 4250 1301 3770 
Q 1056 3291 1056 2328 
Q 1056 1369 1301 889 
Q 1547 409 2034 409 
Q 2525 409 2770 889 
Q 3016 1369 3016 2328 
Q 3016 3291 2770 3770 
Q 2525 4250 2034 4250 
z
M 2034 4750 
Q 2819 4750 3233 4129 
Q 3647 3509 3647 2328 
Q 3647 1150 3233 529 
Q 2819 -91 2034 -91 
Q 1250 -91 836 529 
Q 422 1150 422 2328 
Q 422 3509 836 4129 
Q 1250 4750 2034 4750 
z
" transform="scale(0.015625)"/>
       </defs>
       <use xlink:href="#DejaVuSans-30"/>
      </g>
     </g>
    </g>
    <g id="xtick_2">
     <g id="line2d_3">
      <path d="M 237.605411 256.32 
L 237.605411 34.56 
" clip-path="url(#p3b77d9587d)" style="fill: none; stroke: #b0b0b0; stroke-width: 0.8; stroke-linecap: square"/>
     </g>
     <g id="line2d_4">
      <g>
       <use xlink:href="#m50c1103712" x="237.605411" y="256.32" style="stroke: #000000; stroke-width: 0.8"/>
      </g>
     </g>
     <g id="text_2">
      <!-- 2 -->
      <g transform="translate(234.424161 270.918437) scale(0.1 -0.1)">
       <defs>
        <path id="DejaVuSans-32" d="M 1228 531 
L 3431 531 
L 3431 0 
L 469 0 
L 469 531 
Q 828 903 1448 1529 
Q 2069 2156 2228 2338 
Q 2531 2678 2651 2914 
Q 2772 3150 2772 3378 
Q 2772 3750 2511 3984 
Q 2250 4219 1831 4219 
Q 1534 4219 1204 4116 
Q 875 4013 500 3803 
L 500 4441 
Q 881 4594 1212 4672 
Q 1544 4750 1819 4750 
Q 2544 4750 2975 4387 
Q 3406 4025 3406 3419 
Q 3406 3131 3298 2873 
Q 3191 2616 2906 2266 
Q 2828 2175 2409 1742 
Q 1991 1309 1228 531 
z
" transform="scale(0.015625)"/>
       </defs>
       <use xlink:href="#DejaVuSans-32"/>
      </g>
     </g>
    </g>
    <g id="xtick_3">
     <g id="line2d_5">
      <path d="M 349.429058 256.32 
L 349.429058 34.56 
" clip-path="url(#p3b77d9587d)" style="fill: none; stroke: #b0b0b0; stroke-width: 0.8; stroke-linecap: square"/>
     </g>
     <g id="line2d_6">
      <g>
       <use xlink:href="#m50c1103712" x="349.429058" y="256.32" style="stroke: #000000; stroke-width: 0.8"/>
      </g>
     </g>
     <g id="text_3">
      <!-- 4 -->
      <g transform="translate(346.247808 270.918437) scale(0.1 -0.1)">
       <defs>
        <path id="DejaVuSans-34" d="M 2419 4116 
L 825 1625 
L 2419 1625 
L 2419 4116 
z
M 2253 4666 
L 3047 4666 
L 3047 1625 
L 3713 1625 
L 3713 1100 
L 3047 1100 
L 3047 0 
L 2419 0 
L 2419 1100 
L 313 1100 
L 313 1709 
L 2253 4666 
z
" transform="scale(0.015625)"/>
       </defs>
       <use xlink:href="#DejaVuSans-34"/>
      </g>
     </g>
    </g>
    <g id="xtick_4">
     <g id="line2d_7">
      <path d="M 461.252705 256.32 
L 461.252705 34.56 
" clip-path="url(#p3b77d9587d)" style="fill: none; stroke: #b0b0b0; stroke-width: 0.8; stroke-linecap: square"/>
     </g>
     <g id="line2d_8">
      <g>
       <use xlink:href="#m50c1103712" x="461.252705" y="256.32" style="stroke: #000000; stroke-width: 0.8"/>
      </g>
     </g>
     <g id="text_4">
      <!-- 6 -->
      <g transform="translate(458.071455 270.918437) scale(0.1 -0.1)">
       <defs>
        <path id="DejaVuSans-36" d="M 2113 2584 
Q 1688 2584 1439 2293 
Q 1191 2003 1191 1497 
Q 1191 994 1439 701 
Q 1688 409 2113 409 
Q 2538 409 2786 701 
Q 3034 994 3034 1497 
Q 3034 2003 2786 2293 
Q 2538 2584 2113 2584 
z
M 3366 4563 
L 3366 3988 
Q 3128 4100 2886 4159 
Q 2644 4219 2406 4219 
Q 1781 4219 1451 3797 
Q 1122 3375 1075 2522 
Q 1259 2794 1537 2939 
Q 1816 3084 2150 3084 
Q 2853 3084 3261 2657 
Q 3669 2231 3669 1497 
Q 3669 778 3244 343 
Q 2819 -91 2113 -91 
Q 1303 -91 875 529 
Q 447 1150 447 2328 
Q 447 3434 972 4092 
Q 1497 4750 2381 4750 
Q 2619 4750 2861 4703 
Q 3103 4656 3366 4563 
z
" transform="scale(0.015625)"/>
       </defs>
       <use xlink:href="#DejaVuSans-36"/>
      </g>
     </g>
    </g>
    <g id="xtick_5">
     <g id="line2d_9">
      <path d="M 573.076353 256.32 
L 573.076353 34.56 
" clip-path="url(#p3b77d9587d)" style="fill: none; stroke: #b0b0b0; stroke-width: 0.8; stroke-linecap: square"/>
     </g>
     <g id="line2d_10">
      <g>
       <use xlink:href="#m50c1103712" x="573.076353" y="256.32" style="stroke: #000000; stroke-width: 0.8"/>
      </g>
     </g>
     <g id="text_5">
      <!-- 8 -->
      <g transform="translate(569.895103 270.918437) scale(0.1 -0.1)">
       <defs>
        <path id="DejaVuSans-38" d="M 2034 2216 
Q 1584 2216 1326 1975 
Q 1069 1734 1069 1313 
Q 1069 891 1326 650 
Q 1584 409 2034 409 
Q 2484 409 2743 651 
Q 3003 894 3003 1313 
Q 3003 1734 2745 1975 
Q 2488 2216 2034 2216 
z
M 1403 2484 
Q 997 2584 770 2862 
Q 544 3141 544 3541 
Q 544 4100 942 4425 
Q 1341 4750 2034 4750 
Q 2731 4750 3128 4425 
Q 3525 4100 3525 3541 
Q 3525 3141 3298 2862 
Q 3072 2584 2669 2484 
Q 3125 2378 3379 2068 
Q 3634 1759 3634 1313 
Q 3634 634 3220 271 
Q 2806 -91 2034 -91 
Q 1263 -91 848 271 
Q 434 634 434 1313 
Q 434 1759 690 2068 
Q 947 2378 1403 2484 
z
M 1172 3481 
Q 1172 3119 1398 2916 
Q 1625 2713 2034 2713 
Q 2441 2713 2670 2916 
Q 2900 3119 2900 3481 
Q 2900 3844 2670 4047 
Q 2441 4250 2034 4250 
Q 1625 4250 1398 4047 
Q 1172 3844 1172 3481 
z
" transform="scale(0.015625)"/>
       </defs>
       <use xlink:href="#DejaVuSans-38"/>
      </g>
     </g>
    </g>
    <g id="xtick_6">
     <g id="line2d_11">
      <path d="M 684.9 256.32 
L 684.9 34.56 
" clip-path="url(#p3b77d9587d)" style="fill: none; stroke: #b0b0b0; stroke-width: 0.8; stroke-linecap: square"/>
     </g>
     <g id="line2d_12">
      <g>
       <use xlink:href="#m50c1103712" x="684.9" y="256.32" style="stroke: #000000; stroke-width: 0.8"/>
      </g>
     </g>
     <g id="text_6">
      <!-- 10 -->
      <g transform="translate(678.5375 270.918437) scale(0.1 -0.1)">
       <defs>
        <path id="DejaVuSans-31" d="M 794 531 
L 1825 531 
L 1825 4091 
L 703 3866 
L 703 4441 
L 1819 4666 
L 2450 4666 
L 2450 531 
L 3481 531 
L 3481 0 
L 794 0 
L 794 531 
z
" transform="scale(0.015625)"/>
       </defs>
       <use xlink:href="#DejaVuSans-31"/>
       <use xlink:href="#DejaVuSans-30" x="63.623047"/>
      </g>
     </g>
    </g>
    <g id="xtick_7">
     <g id="line2d_13">
      <path d="M 107.144675 256.32 
L 107.144675 34.56 
" clip-path="url(#p3b77d9587d)" style="fill: none; stroke: #b0b0b0; stroke-width: 0.8; stroke-linecap: square"/>
     </g>
     <g id="line2d_14">
      <defs>
       <path id="mc66644e731" d="M 0 0 
L 0 2 
" style="stroke: #000000; stroke-width: 0.6"/>
      </defs>
      <g>
       <use xlink:href="#mc66644e731" x="107.144675" y="256.32" style="stroke: #000000; stroke-width: 0.6"/>
      </g>
     </g>
    </g>
    <g id="xtick_8">
     <g id="line2d_15">
      <path d="M 144.418852 256.32 
L 144.418852 34.56 
" clip-path="url(#p3b77d9587d)" style="fill: none; stroke: #b0b0b0; stroke-width: 0.8; stroke-linecap: square"/>
     </g>
     <g id="line2d_16">
      <g>
       <use xlink:href="#mc66644e731" x="144.418852" y="256.32" style="stroke: #000000; stroke-width: 0.6"/>
      </g>
     </g>
    </g>
    <g id="xtick_9">
     <g id="line2d_17">
      <path d="M 163.05594 256.32 
L 163.05594 34.56 
" clip-path="url(#p3b77d9587d)" style="fill: none; stroke: #b0b0b0; stroke-width: 0.8; stroke-linecap: square"/>
     </g>
     <g id="line2d_18">
      <g>
       <use xlink:href="#mc66644e731" x="163.05594" y="256.32" style="stroke: #000000; stroke-width: 0.6"/>
      </g>
     </g>
    </g>
    <g id="xtick_10">
     <g id="line2d_19">
      <path d="M 181.693028 256.32 
L 181.693028 34.56 
" clip-path="url(#p3b77d9587d)" style="fill: none; stroke: #b0b0b0; stroke-width: 0.8; stroke-linecap: square"/>
     </g>
     <g id="line2d_20">
      <g>
       <use xlink:href="#mc66644e731" x="181.693028" y="256.32" style="stroke: #000000; stroke-width: 0.6"/>
      </g>
     </g>
    </g>
    <g id="xtick_11">
     <g id="line2d_21">
      <path d="M 200.330116 256.32 
L 200.330116 34.56 
" clip-path="url(#p3b77d9587d)" style="fill: none; stroke: #b0b0b0; stroke-width: 0.8; stroke-linecap: square"/>
     </g>
     <g id="line2d_22">
      <g>
       <use xlink:href="#mc66644e731" x="200.330116" y="256.32" style="stroke: #000000; stroke-width: 0.6"/>
      </g>
     </g>
    </g>
    <g id="xtick_12">
     <g id="line2d_23">
      <path d="M 218.967204 256.32 
L 218.967204 34.56 
" clip-path="url(#p3b77d9587d)" style="fill: none; stroke: #b0b0b0; stroke-width: 0.8; stroke-linecap: square"/>
     </g>
     <g id="line2d_24">
      <g>
       <use xlink:href="#mc66644e731" x="218.967204" y="256.32" style="stroke: #000000; stroke-width: 0.6"/>
      </g>
     </g>
    </g>
    <g id="xtick_13">
     <g id="line2d_25">
      <path d="M 256.241381 256.32 
L 256.241381 34.56 
" clip-path="url(#p3b77d9587d)" style="fill: none; stroke: #b0b0b0; stroke-width: 0.8; stroke-linecap: square"/>
     </g>
     <g id="line2d_26">
      <g>
       <use xlink:href="#mc66644e731" x="256.241381" y="256.32" style="stroke: #000000; stroke-width: 0.6"/>
      </g>
     </g>
    </g>
    <g id="xtick_14">
     <g id="line2d_27">
      <path d="M 274.878469 256.32 
L 274.878469 34.56 
" clip-path="url(#p3b77d9587d)" style="fill: none; stroke: #b0b0b0; stroke-width: 0.8; stroke-linecap: square"/>
     </g>
     <g id="line2d_28">
      <g>
       <use xlink:href="#mc66644e731" x="274.878469" y="256.32" style="stroke: #000000; stroke-width: 0.6"/>
      </g>
     </g>
    </g>
    <g id="xtick_15">
     <g id="line2d_29">
      <path d="M 293.515557 256.32 
L 293.515557 34.56 
" clip-path="url(#p3b77d9587d)" style="fill: none; stroke: #b0b0b0; stroke-width: 0.8; stroke-linecap: square"/>
     </g>
     <g id="line2d_30">
      <g>
       <use xlink:href="#mc66644e731" x="293.515557" y="256.32" style="stroke: #000000; stroke-width: 0.6"/>
      </g>
     </g>
    </g>
    <g id="xtick_16">
     <g id="line2d_31">
      <path d="M 312.152645 256.32 
L 312.152645 34.56 
" clip-path="url(#p3b77d9587d)" style="fill: none; stroke: #b0b0b0; stroke-width: 0.8; stroke-linecap: square"/>
     </g>
     <g id="line2d_32">
      <g>
       <use xlink:href="#mc66644e731" x="312.152645" y="256.32" style="stroke: #000000; stroke-width: 0.6"/>
      </g>
     </g>
    </g>
    <g id="xtick_17">
     <g id="line2d_33">
      <path d="M 330.789733 256.32 
L 330.789733 34.56 
" clip-path="url(#p3b77d9587d)" style="fill: none; stroke: #b0b0b0; stroke-width: 0.8; stroke-linecap: square"/>
     </g>
     <g id="line2d_34">
      <g>
       <use xlink:href="#mc66644e731" x="330.789733" y="256.32" style="stroke: #000000; stroke-width: 0.6"/>
      </g>
     </g>
    </g>
    <g id="xtick_18">
     <g id="line2d_35">
      <path d="M 368.06391 256.32 
L 368.06391 34.56 
" clip-path="url(#p3b77d9587d)" style="fill: none; stroke: #b0b0b0; stroke-width: 0.8; stroke-linecap: square"/>
     </g>
     <g id="line2d_36">
      <g>
       <use xlink:href="#mc66644e731" x="368.06391" y="256.32" style="stroke: #000000; stroke-width: 0.6"/>
      </g>
     </g>
    </g>
    <g id="xtick_19">
     <g id="line2d_37">
      <path d="M 386.700998 256.32 
L 386.700998 34.56 
" clip-path="url(#p3b77d9587d)" style="fill: none; stroke: #b0b0b0; stroke-width: 0.8; stroke-linecap: square"/>
     </g>
     <g id="line2d_38">
      <g>
       <use xlink:href="#mc66644e731" x="386.700998" y="256.32" style="stroke: #000000; stroke-width: 0.6"/>
      </g>
     </g>
    </g>
    <g id="xtick_20">
     <g id="line2d_39">
      <path d="M 405.338086 256.32 
L 405.338086 34.56 
" clip-path="url(#p3b77d9587d)" style="fill: none; stroke: #b0b0b0; stroke-width: 0.8; stroke-linecap: square"/>
     </g>
     <g id="line2d_40">
      <g>
       <use xlink:href="#mc66644e731" x="405.338086" y="256.32" style="stroke: #000000; stroke-width: 0.6"/>
      </g>
     </g>
    </g>
    <g id="xtick_21">
     <g id="line2d_41">
      <path d="M 423.975174 256.32 
L 423.975174 34.56 
" clip-path="url(#p3b77d9587d)" style="fill: none; stroke: #b0b0b0; stroke-width: 0.8; stroke-linecap: square"/>
     </g>
     <g id="line2d_42">
      <g>
       <use xlink:href="#mc66644e731" x="423.975174" y="256.32" style="stroke: #000000; stroke-width: 0.6"/>
      </g>
     </g>
    </g>
    <g id="xtick_22">
     <g id="line2d_43">
      <path d="M 442.612263 256.32 
L 442.612263 34.56 
" clip-path="url(#p3b77d9587d)" style="fill: none; stroke: #b0b0b0; stroke-width: 0.8; stroke-linecap: square"/>
     </g>
     <g id="line2d_44">
      <g>
       <use xlink:href="#mc66644e731" x="442.612263" y="256.32" style="stroke: #000000; stroke-width: 0.6"/>
      </g>
     </g>
    </g>
    <g id="xtick_23">
     <g id="line2d_45">
      <path d="M 479.886439 256.32 
L 479.886439 34.56 
" clip-path="url(#p3b77d9587d)" style="fill: none; stroke: #b0b0b0; stroke-width: 0.8; stroke-linecap: square"/>
     </g>
     <g id="line2d_46">
      <g>
       <use xlink:href="#mc66644e731" x="479.886439" y="256.32" style="stroke: #000000; stroke-width: 0.6"/>
      </g>
     </g>
    </g>
    <g id="xtick_24">
     <g id="line2d_47">
      <path d="M 498.523527 256.32 
L 498.523527 34.56 
" clip-path="url(#p3b77d9587d)" style="fill: none; stroke: #b0b0b0; stroke-width: 0.8; stroke-linecap: square"/>
     </g>
     <g id="line2d_48">
      <g>
       <use xlink:href="#mc66644e731" x="498.523527" y="256.32" style="stroke: #000000; stroke-width: 0.6"/>
      </g>
     </g>
    </g>
    <g id="xtick_25">
     <g id="line2d_49">
      <path d="M 517.160615 256.32 
L 517.160615 34.56 
" clip-path="url(#p3b77d9587d)" style="fill: none; stroke: #b0b0b0; stroke-width: 0.8; stroke-linecap: square"/>
     </g>
     <g id="line2d_50">
      <g>
       <use xlink:href="#mc66644e731" x="517.160615" y="256.32" style="stroke: #000000; stroke-width: 0.6"/>
      </g>
     </g>
    </g>
    <g id="xtick_26">
     <g id="line2d_51">
      <path d="M 535.797703 256.32 
L 535.797703 34.56 
" clip-path="url(#p3b77d9587d)" style="fill: none; stroke: #b0b0b0; stroke-width: 0.8; stroke-linecap: square"/>
     </g>
     <g id="line2d_52">
      <g>
       <use xlink:href="#mc66644e731" x="535.797703" y="256.32" style="stroke: #000000; stroke-width: 0.6"/>
      </g>
     </g>
    </g>
    <g id="xtick_27">
     <g id="line2d_53">
      <path d="M 554.434792 256.32 
L 554.434792 34.56 
" clip-path="url(#p3b77d9587d)" style="fill: none; stroke: #b0b0b0; stroke-width: 0.8; stroke-linecap: square"/>
     </g>
     <g id="line2d_54">
      <g>
       <use xlink:href="#mc66644e731" x="554.434792" y="256.32" style="stroke: #000000; stroke-width: 0.6"/>
      </g>
     </g>
    </g>
    <g id="xtick_28">
     <g id="line2d_55">
      <path d="M 591.708968 256.32 
L 591.708968 34.56 
" clip-path="url(#p3b77d9587d)" style="fill: none; stroke: #b0b0b0; stroke-width: 0.8; stroke-linecap: square"/>
     </g>
     <g id="line2d_56">
      <g>
       <use xlink:href="#mc66644e731" x="591.708968" y="256.32" style="stroke: #000000; stroke-width: 0.6"/>
      </g>
     </g>
    </g>
    <g id="xtick_29">
     <g id="line2d_57">
      <path d="M 610.346056 256.32 
L 610.346056 34.56 
" clip-path="url(#p3b77d9587d)" style="fill: none; stroke: #b0b0b0; stroke-width: 0.8; stroke-linecap: square"/>
     </g>
     <g id="line2d_58">
      <g>
       <use xlink:href="#mc66644e731" x="610.346056" y="256.32" style="stroke: #000000; stroke-width: 0.6"/>
      </g>
     </g>
    </g>
    <g id="xtick_30">
     <g id="line2d_59">
      <path d="M 628.983144 256.32 
L 628.983144 34.56 
" clip-path="url(#p3b77d9587d)" style="fill: none; stroke: #b0b0b0; stroke-width: 0.8; stroke-linecap: square"/>
     </g>
     <g id="line2d_60">
      <g>
       <use xlink:href="#mc66644e731" x="628.983144" y="256.32" style="stroke: #000000; stroke-width: 0.6"/>
      </g>
     </g>
    </g>
    <g id="xtick_31">
     <g id="line2d_61">
      <path d="M 647.620232 256.32 
L 647.620232 34.56 
" clip-path="url(#p3b77d9587d)" style="fill: none; stroke: #b0b0b0; stroke-width: 0.8; stroke-linecap: square"/>
     </g>
     <g id="line2d_62">
      <g>
       <use xlink:href="#mc66644e731" x="647.620232" y="256.32" style="stroke: #000000; stroke-width: 0.6"/>
      </g>
     </g>
    </g>
    <g id="xtick_32">
     <g id="line2d_63">
      <path d="M 666.257321 256.32 
L 666.257321 34.56 
" clip-path="url(#p3b77d9587d)" style="fill: none; stroke: #b0b0b0; stroke-width: 0.8; stroke-linecap: square"/>
     </g>
     <g id="line2d_64">
      <g>
       <use xlink:href="#mc66644e731" x="666.257321" y="256.32" style="stroke: #000000; stroke-width: 0.6"/>
      </g>
     </g>
    </g>
    <g id="xtick_33">
     <g id="line2d_65">
      <path d="M 703.531497 256.32 
L 703.531497 34.56 
" clip-path="url(#p3b77d9587d)" style="fill: none; stroke: #b0b0b0; stroke-width: 0.8; stroke-linecap: square"/>
     </g>
     <g id="line2d_66">
      <g>
       <use xlink:href="#mc66644e731" x="703.531497" y="256.32" style="stroke: #000000; stroke-width: 0.6"/>
      </g>
     </g>
    </g>
    <g id="text_7">
     <!-- Epoch -->
     <g transform="translate(390.589063 284.596563) scale(0.1 -0.1)">
      <defs>
       <path id="DejaVuSans-45" d="M 628 4666 
L 3578 4666 
L 3578 4134 
L 1259 4134 
L 1259 2753 
L 3481 2753 
L 3481 2222 
L 1259 2222 
L 1259 531 
L 3634 531 
L 3634 0 
L 628 0 
L 628 4666 
z
" transform="scale(0.015625)"/>
       <path id="DejaVuSans-70" d="M 1159 525 
L 1159 -1331 
L 581 -1331 
L 581 3500 
L 1159 3500 
L 1159 2969 
Q 1341 3281 1617 3432 
Q 1894 3584 2278 3584 
Q 2916 3584 3314 3078 
Q 3713 2572 3713 1747 
Q 3713 922 3314 415 
Q 2916 -91 2278 -91 
Q 1894 -91 1617 61 
Q 1341 213 1159 525 
z
M 3116 1747 
Q 3116 2381 2855 2742 
Q 2594 3103 2138 3103 
Q 1681 3103 1420 2742 
Q 1159 2381 1159 1747 
Q 1159 1113 1420 752 
Q 1681 391 2138 391 
Q 2594 391 2855 752 
Q 3116 1113 3116 1747 
z
" transform="scale(0.015625)"/>
       <path id="DejaVuSans-6f" d="M 1959 3097 
Q 1497 3097 1228 2736 
Q 959 2375 959 1747 
Q 959 1119 1226 758 
Q 1494 397 1959 397 
Q 2419 397 2687 759 
Q 2956 1122 2956 1747 
Q 2956 2369 2687 2733 
Q 2419 3097 1959 3097 
z
M 1959 3584 
Q 2709 3584 3137 3096 
Q 3566 2609 3566 1747 
Q 3566 888 3137 398 
Q 2709 -91 1959 -91 
Q 1206 -91 779 398 
Q 353 888 353 1747 
Q 353 2609 779 3096 
Q 1206 3584 1959 3584 
z
" transform="scale(0.015625)"/>
       <path id="DejaVuSans-63" d="M 3122 3366 
L 3122 2828 
Q 2878 2963 2633 3030 
Q 2388 3097 2138 3097 
Q 1578 3097 1268 2742 
Q 959 2388 959 1747 
Q 959 1106 1268 751 
Q 1578 397 2138 397 
Q 2388 397 2633 464 
Q 2878 531 3122 666 
L 3122 134 
Q 2881 22 2623 -34 
Q 2366 -91 2075 -91 
Q 1284 -91 818 406 
Q 353 903 353 1747 
Q 353 2603 823 3093 
Q 1294 3584 2113 3584 
Q 2378 3584 2631 3529 
Q 2884 3475 3122 3366 
z
" transform="scale(0.015625)"/>
       <path id="DejaVuSans-68" d="M 3513 2113 
L 3513 0 
L 2938 0 
L 2938 2094 
Q 2938 2591 2744 2837 
Q 2550 3084 2163 3084 
Q 1697 3084 1428 2787 
Q 1159 2491 1159 1978 
L 1159 0 
L 581 0 
L 581 4863 
L 1159 4863 
L 1159 2956 
Q 1366 3272 1645 3428 
Q 1925 3584 2291 3584 
Q 2894 3584 3203 3211 
Q 3513 2838 3513 2113 
z
" transform="scale(0.015625)"/>
      </defs>
      <use xlink:href="#DejaVuSans-45"/>
      <use xlink:href="#DejaVuSans-70" x="63.183594"/>
      <use xlink:href="#DejaVuSans-6f" x="126.660156"/>
      <use xlink:href="#DejaVuSans-63" x="187.841797"/>
      <use xlink:href="#DejaVuSans-68" x="242.822266"/>
     </g>
    </g>
   </g>
   <g id="matplotlib.axis_2">
    <g id="ytick_1">
     <g id="line2d_67">
      <path d="M 99 252.000003 
L 712.8 252.000003 
" clip-path="url(#p3b77d9587d)" style="fill: none; stroke: #b0b0b0; stroke-width: 0.8; stroke-linecap: square"/>
     </g>
     <g id="line2d_68">
      <defs>
       <path id="me54ed7dabe" d="M 0 0 
L -3.5 0 
" style="stroke: #000000; stroke-width: 0.8"/>
      </defs>
      <g>
       <use xlink:href="#me54ed7dabe" x="99" y="252.000003" style="stroke: #000000; stroke-width: 0.8"/>
      </g>
     </g>
     <g id="text_8">
      <!-- 0.5 -->
      <g transform="translate(76.096875 255.799222) scale(0.1 -0.1)">
       <defs>
        <path id="DejaVuSans-2e" d="M 684 794 
L 1344 794 
L 1344 0 
L 684 0 
L 684 794 
z
" transform="scale(0.015625)"/>
        <path id="DejaVuSans-35" d="M 691 4666 
L 3169 4666 
L 3169 4134 
L 1269 4134 
L 1269 2991 
Q 1406 3038 1543 3061 
Q 1681 3084 1819 3084 
Q 2600 3084 3056 2656 
Q 3513 2228 3513 1497 
Q 3513 744 3044 326 
Q 2575 -91 1722 -91 
Q 1428 -91 1123 -41 
Q 819 9 494 109 
L 494 744 
Q 775 591 1075 516 
Q 1375 441 1709 441 
Q 2250 441 2565 725 
Q 2881 1009 2881 1497 
Q 2881 1984 2565 2268 
Q 2250 2553 1709 2553 
Q 1456 2553 1204 2497 
Q 953 2441 691 2322 
L 691 4666 
z
" transform="scale(0.015625)"/>
       </defs>
       <use xlink:href="#DejaVuSans-30"/>
       <use xlink:href="#DejaVuSans-2e" x="63.623047"/>
       <use xlink:href="#DejaVuSans-35" x="95.410156"/>
      </g>
     </g>
    </g>
    <g id="ytick_2">
     <g id="line2d_69">
      <path d="M 99 210.528002 
L 712.8 210.528002 
" clip-path="url(#p3b77d9587d)" style="fill: none; stroke: #b0b0b0; stroke-width: 0.8; stroke-linecap: square"/>
     </g>
     <g id="line2d_70">
      <g>
       <use xlink:href="#me54ed7dabe" x="99" y="210.528002" style="stroke: #000000; stroke-width: 0.8"/>
      </g>
     </g>
     <g id="text_9">
      <!-- 0.6 -->
      <g transform="translate(76.096875 214.327221) scale(0.1 -0.1)">
       <use xlink:href="#DejaVuSans-30"/>
       <use xlink:href="#DejaVuSans-2e" x="63.623047"/>
       <use xlink:href="#DejaVuSans-36" x="95.410156"/>
      </g>
     </g>
    </g>
    <g id="ytick_3">
     <g id="line2d_71">
      <path d="M 99 169.056002 
L 712.8 169.056002 
" clip-path="url(#p3b77d9587d)" style="fill: none; stroke: #b0b0b0; stroke-width: 0.8; stroke-linecap: square"/>
     </g>
     <g id="line2d_72">
      <g>
       <use xlink:href="#me54ed7dabe" x="99" y="169.056002" style="stroke: #000000; stroke-width: 0.8"/>
      </g>
     </g>
     <g id="text_10">
      <!-- 0.7 -->
      <g transform="translate(76.096875 172.85522) scale(0.1 -0.1)">
       <defs>
        <path id="DejaVuSans-37" d="M 525 4666 
L 3525 4666 
L 3525 4397 
L 1831 0 
L 1172 0 
L 2766 4134 
L 525 4134 
L 525 4666 
z
" transform="scale(0.015625)"/>
       </defs>
       <use xlink:href="#DejaVuSans-30"/>
       <use xlink:href="#DejaVuSans-2e" x="63.623047"/>
       <use xlink:href="#DejaVuSans-37" x="95.410156"/>
      </g>
     </g>
    </g>
    <g id="ytick_4">
     <g id="line2d_73">
      <path d="M 99 127.584001 
L 712.8 127.584001 
" clip-path="url(#p3b77d9587d)" style="fill: none; stroke: #b0b0b0; stroke-width: 0.8; stroke-linecap: square"/>
     </g>
     <g id="line2d_74">
      <g>
       <use xlink:href="#me54ed7dabe" x="99" y="127.584001" style="stroke: #000000; stroke-width: 0.8"/>
      </g>
     </g>
     <g id="text_11">
      <!-- 0.8 -->
      <g transform="translate(76.096875 131.38322) scale(0.1 -0.1)">
       <use xlink:href="#DejaVuSans-30"/>
       <use xlink:href="#DejaVuSans-2e" x="63.623047"/>
       <use xlink:href="#DejaVuSans-38" x="95.410156"/>
      </g>
     </g>
    </g>
    <g id="ytick_5">
     <g id="line2d_75">
      <path d="M 99 86.112001 
L 712.8 86.112001 
" clip-path="url(#p3b77d9587d)" style="fill: none; stroke: #b0b0b0; stroke-width: 0.8; stroke-linecap: square"/>
     </g>
     <g id="line2d_76">
      <g>
       <use xlink:href="#me54ed7dabe" x="99" y="86.112001" style="stroke: #000000; stroke-width: 0.8"/>
      </g>
     </g>
     <g id="text_12">
      <!-- 0.9 -->
      <g transform="translate(76.096875 89.911219) scale(0.1 -0.1)">
       <defs>
        <path id="DejaVuSans-39" d="M 703 97 
L 703 672 
Q 941 559 1184 500 
Q 1428 441 1663 441 
Q 2288 441 2617 861 
Q 2947 1281 2994 2138 
Q 2813 1869 2534 1725 
Q 2256 1581 1919 1581 
Q 1219 1581 811 2004 
Q 403 2428 403 3163 
Q 403 3881 828 4315 
Q 1253 4750 1959 4750 
Q 2769 4750 3195 4129 
Q 3622 3509 3622 2328 
Q 3622 1225 3098 567 
Q 2575 -91 1691 -91 
Q 1453 -91 1209 -44 
Q 966 3 703 97 
z
M 1959 2075 
Q 2384 2075 2632 2365 
Q 2881 2656 2881 3163 
Q 2881 3666 2632 3958 
Q 2384 4250 1959 4250 
Q 1534 4250 1286 3958 
Q 1038 3666 1038 3163 
Q 1038 2656 1286 2365 
Q 1534 2075 1959 2075 
z
" transform="scale(0.015625)"/>
       </defs>
       <use xlink:href="#DejaVuSans-30"/>
       <use xlink:href="#DejaVuSans-2e" x="63.623047"/>
       <use xlink:href="#DejaVuSans-39" x="95.410156"/>
      </g>
     </g>
    </g>
    <g id="ytick_6">
     <g id="line2d_77">
      <path d="M 99 44.64 
L 712.8 44.64 
" clip-path="url(#p3b77d9587d)" style="fill: none; stroke: #b0b0b0; stroke-width: 0.8; stroke-linecap: square"/>
     </g>
     <g id="line2d_78">
      <g>
       <use xlink:href="#me54ed7dabe" x="99" y="44.64" style="stroke: #000000; stroke-width: 0.8"/>
      </g>
     </g>
     <g id="text_13">
      <!-- 1.0 -->
      <g transform="translate(76.096875 48.439219) scale(0.1 -0.1)">
       <use xlink:href="#DejaVuSans-31"/>
       <use xlink:href="#DejaVuSans-2e" x="63.623047"/>
       <use xlink:href="#DejaVuSans-30" x="95.410156"/>
      </g>
     </g>
    </g>
    <g id="ytick_7">
     <g id="line2d_79">
      <path d="M 99 231.264003 
L 712.8 231.264003 
" clip-path="url(#p3b77d9587d)" style="fill: none; stroke: #b0b0b0; stroke-width: 0.8; stroke-linecap: square"/>
     </g>
     <g id="line2d_80">
      <defs>
       <path id="mccb45eff36" d="M 0 0 
L -2 0 
" style="stroke: #000000; stroke-width: 0.6"/>
      </defs>
      <g>
       <use xlink:href="#mccb45eff36" x="99" y="231.264003" style="stroke: #000000; stroke-width: 0.6"/>
      </g>
     </g>
    </g>
    <g id="ytick_8">
     <g id="line2d_81">
      <path d="M 99 189.792002 
L 712.8 189.792002 
" clip-path="url(#p3b77d9587d)" style="fill: none; stroke: #b0b0b0; stroke-width: 0.8; stroke-linecap: square"/>
     </g>
     <g id="line2d_82">
      <g>
       <use xlink:href="#mccb45eff36" x="99" y="189.792002" style="stroke: #000000; stroke-width: 0.6"/>
      </g>
     </g>
    </g>
    <g id="ytick_9">
     <g id="line2d_83">
      <path d="M 99 148.320001 
L 712.8 148.320001 
" clip-path="url(#p3b77d9587d)" style="fill: none; stroke: #b0b0b0; stroke-width: 0.8; stroke-linecap: square"/>
     </g>
     <g id="line2d_84">
      <g>
       <use xlink:href="#mccb45eff36" x="99" y="148.320001" style="stroke: #000000; stroke-width: 0.6"/>
      </g>
     </g>
    </g>
    <g id="ytick_10">
     <g id="line2d_85">
      <path d="M 99 106.848001 
L 712.8 106.848001 
" clip-path="url(#p3b77d9587d)" style="fill: none; stroke: #b0b0b0; stroke-width: 0.8; stroke-linecap: square"/>
     </g>
     <g id="line2d_86">
      <g>
       <use xlink:href="#mccb45eff36" x="99" y="106.848001" style="stroke: #000000; stroke-width: 0.6"/>
      </g>
     </g>
    </g>
    <g id="ytick_11">
     <g id="line2d_87">
      <path d="M 99 65.376 
L 712.8 65.376 
" clip-path="url(#p3b77d9587d)" style="fill: none; stroke: #b0b0b0; stroke-width: 0.8; stroke-linecap: square"/>
     </g>
     <g id="line2d_88">
      <g>
       <use xlink:href="#mccb45eff36" x="99" y="65.376" style="stroke: #000000; stroke-width: 0.6"/>
      </g>
     </g>
    </g>
    <g id="text_14">
     <!-- Accuracy (%) -->
     <g transform="translate(70.017187 178.509531) rotate(-90) scale(0.1 -0.1)">
      <defs>
       <path id="DejaVuSans-41" d="M 2188 4044 
L 1331 1722 
L 3047 1722 
L 2188 4044 
z
M 1831 4666 
L 2547 4666 
L 4325 0 
L 3669 0 
L 3244 1197 
L 1141 1197 
L 716 0 
L 50 0 
L 1831 4666 
z
" transform="scale(0.015625)"/>
       <path id="DejaVuSans-75" d="M 544 1381 
L 544 3500 
L 1119 3500 
L 1119 1403 
Q 1119 906 1312 657 
Q 1506 409 1894 409 
Q 2359 409 2629 706 
Q 2900 1003 2900 1516 
L 2900 3500 
L 3475 3500 
L 3475 0 
L 2900 0 
L 2900 538 
Q 2691 219 2414 64 
Q 2138 -91 1772 -91 
Q 1169 -91 856 284 
Q 544 659 544 1381 
z
M 1991 3584 
L 1991 3584 
z
" transform="scale(0.015625)"/>
       <path id="DejaVuSans-72" d="M 2631 2963 
Q 2534 3019 2420 3045 
Q 2306 3072 2169 3072 
Q 1681 3072 1420 2755 
Q 1159 2438 1159 1844 
L 1159 0 
L 581 0 
L 581 3500 
L 1159 3500 
L 1159 2956 
Q 1341 3275 1631 3429 
Q 1922 3584 2338 3584 
Q 2397 3584 2469 3576 
Q 2541 3569 2628 3553 
L 2631 2963 
z
" transform="scale(0.015625)"/>
       <path id="DejaVuSans-61" d="M 2194 1759 
Q 1497 1759 1228 1600 
Q 959 1441 959 1056 
Q 959 750 1161 570 
Q 1363 391 1709 391 
Q 2188 391 2477 730 
Q 2766 1069 2766 1631 
L 2766 1759 
L 2194 1759 
z
M 3341 1997 
L 3341 0 
L 2766 0 
L 2766 531 
Q 2569 213 2275 61 
Q 1981 -91 1556 -91 
Q 1019 -91 701 211 
Q 384 513 384 1019 
Q 384 1609 779 1909 
Q 1175 2209 1959 2209 
L 2766 2209 
L 2766 2266 
Q 2766 2663 2505 2880 
Q 2244 3097 1772 3097 
Q 1472 3097 1187 3025 
Q 903 2953 641 2809 
L 641 3341 
Q 956 3463 1253 3523 
Q 1550 3584 1831 3584 
Q 2591 3584 2966 3190 
Q 3341 2797 3341 1997 
z
" transform="scale(0.015625)"/>
       <path id="DejaVuSans-79" d="M 2059 -325 
Q 1816 -950 1584 -1140 
Q 1353 -1331 966 -1331 
L 506 -1331 
L 506 -850 
L 844 -850 
Q 1081 -850 1212 -737 
Q 1344 -625 1503 -206 
L 1606 56 
L 191 3500 
L 800 3500 
L 1894 763 
L 2988 3500 
L 3597 3500 
L 2059 -325 
z
" transform="scale(0.015625)"/>
       <path id="DejaVuSans-20" transform="scale(0.015625)"/>
       <path id="DejaVuSans-28" d="M 1984 4856 
Q 1566 4138 1362 3434 
Q 1159 2731 1159 2009 
Q 1159 1288 1364 580 
Q 1569 -128 1984 -844 
L 1484 -844 
Q 1016 -109 783 600 
Q 550 1309 550 2009 
Q 550 2706 781 3412 
Q 1013 4119 1484 4856 
L 1984 4856 
z
" transform="scale(0.015625)"/>
       <path id="DejaVuSans-25" d="M 4653 2053 
Q 4381 2053 4226 1822 
Q 4072 1591 4072 1178 
Q 4072 772 4226 539 
Q 4381 306 4653 306 
Q 4919 306 5073 539 
Q 5228 772 5228 1178 
Q 5228 1588 5073 1820 
Q 4919 2053 4653 2053 
z
M 4653 2450 
Q 5147 2450 5437 2106 
Q 5728 1763 5728 1178 
Q 5728 594 5436 251 
Q 5144 -91 4653 -91 
Q 4153 -91 3862 251 
Q 3572 594 3572 1178 
Q 3572 1766 3864 2108 
Q 4156 2450 4653 2450 
z
M 1428 4353 
Q 1159 4353 1004 4120 
Q 850 3888 850 3481 
Q 850 3069 1003 2837 
Q 1156 2606 1428 2606 
Q 1700 2606 1854 2837 
Q 2009 3069 2009 3481 
Q 2009 3884 1853 4118 
Q 1697 4353 1428 4353 
z
M 4250 4750 
L 4750 4750 
L 1831 -91 
L 1331 -91 
L 4250 4750 
z
M 1428 4750 
Q 1922 4750 2215 4408 
Q 2509 4066 2509 3481 
Q 2509 2891 2217 2550 
Q 1925 2209 1428 2209 
Q 931 2209 642 2551 
Q 353 2894 353 3481 
Q 353 4063 643 4406 
Q 934 4750 1428 4750 
z
" transform="scale(0.015625)"/>
       <path id="DejaVuSans-29" d="M 513 4856 
L 1013 4856 
Q 1481 4119 1714 3412 
Q 1947 2706 1947 2009 
Q 1947 1309 1714 600 
Q 1481 -109 1013 -844 
L 513 -844 
Q 928 -128 1133 580 
Q 1338 1288 1338 2009 
Q 1338 2731 1133 3434 
Q 928 4138 513 4856 
z
" transform="scale(0.015625)"/>
      </defs>
      <use xlink:href="#DejaVuSans-41"/>
      <use xlink:href="#DejaVuSans-63" x="66.658203"/>
      <use xlink:href="#DejaVuSans-63" x="121.638672"/>
      <use xlink:href="#DejaVuSans-75" x="176.619141"/>
      <use xlink:href="#DejaVuSans-72" x="239.998047"/>
      <use xlink:href="#DejaVuSans-61" x="281.111328"/>
      <use xlink:href="#DejaVuSans-63" x="342.390625"/>
      <use xlink:href="#DejaVuSans-79" x="397.371094"/>
      <use xlink:href="#DejaVuSans-20" x="456.550781"/>
      <use xlink:href="#DejaVuSans-28" x="488.337891"/>
      <use xlink:href="#DejaVuSans-25" x="527.351562"/>
      <use xlink:href="#DejaVuSans-29" x="622.371094"/>
     </g>
    </g>
   </g>
   <g id="line2d_89">
    <path d="M 126.9 171.360013 
L 128.018236 246.24 
L 129.136473 217.440011 
L 130.254709 200.160002 
L 131.372946 224.352004 
L 132.491182 217.440011 
L 133.609419 207.565713 
L 134.727655 200.160002 
L 135.845892 218.719997 
L 136.964128 212.831998 
L 138.082365 211.156355 
L 139.200601 226.080002 
L 141.437074 210.857154 
L 142.555311 208.224011 
L 143.673547 215.279994 
L 144.791784 216.084704 
L 145.91002 212.320014 
L 147.028257 211.983165 
L 148.146493 209.952009 
L 149.264729 211.954292 
L 150.382966 215.869103 
L 151.501202 212.932186 
L 152.619439 210.720011 
L 153.737675 209.60641 
L 154.855912 208.135393 
L 155.974148 207.626671 
L 157.092385 204.274297 
L 158.210621 202.742075 
L 159.328858 199.776013 
L 164.92004 189.792012 
L 166.038277 189.920008 
L 167.156513 187.23891 
L 168.274749 185.608429 
L 169.392986 183.175389 
L 170.511222 181.439999 
L 172.747695 179.314293 
L 173.865932 176.986037 
L 174.984168 176.596363 
L 176.102405 175.455991 
L 177.220641 173.613913 
L 178.338878 172.830634 
L 179.457114 171.840011 
L 180.575351 171.124908 
L 181.693587 169.747206 
L 182.811824 205.920005 
L 183.93006 205.920005 
L 185.048297 175.199998 
L 186.166533 156.959993 
L 187.28477 150.624007 
L 188.403006 142.559999 
L 189.521242 141.737145 
L 190.639479 133.920007 
L 191.757715 127.840013 
L 192.875952 126.432006 
L 193.994188 128.42183 
L 195.112425 129.12 
L 196.230661 127.05231 
L 197.348898 127.748577 
L 198.467134 127.583996 
L 199.585371 128.880001 
L 200.703607 129.345885 
L 201.821844 127.840013 
L 205.176553 121.988574 
L 206.29479 121.09092 
L 207.413026 120.772165 
L 208.531263 120.960007 
L 210.767735 120.406147 
L 211.885972 119.733339 
L 213.004208 119.520012 
L 214.122445 120.115869 
L 215.240681 119.520012 
L 216.358918 117.847731 
L 217.477154 117.720006 
L 218.595391 116.901824 
L 220.831864 116.722289 
L 221.9501 115.360011 
L 223.068337 116.562157 
L 224.186573 117.094733 
L 225.30481 116.418464 
L 226.423046 115.488008 
L 227.541283 114.883894 
L 228.659519 114.034294 
L 229.777756 114.027916 
L 230.895992 113.498183 
L 232.014228 112.224005 
L 233.132465 112.006945 
L 235.368938 110.159998 
L 236.487174 109.998359 
L 237.605411 109.382405 
L 238.723647 67.680011 
L 239.841884 67.680011 
L 240.96012 63.840001 
L 242.078357 67.680011 
L 243.196593 69.983993 
L 245.433066 80.845725 
L 246.551303 92.159992 
L 247.669539 90.719998 
L 248.787776 87.264001 
L 249.906012 84.436367 
L 251.024248 83.040002 
L 252.142485 81.858472 
L 253.260721 80.022846 
L 254.378958 81.503998 
L 255.497194 82.080006 
L 257.733667 77.920005 
L 258.851904 77.987365 
L 259.97014 81.503998 
L 261.088377 83.040002 
L 262.206613 82.86546 
L 263.32485 83.206956 
L 265.561323 82.886397 
L 266.679559 81.41538 
L 267.797796 81.333337 
L 268.916032 80.845725 
L 270.034269 79.994493 
L 271.152505 79.584006 
L 272.270741 79.571621 
L 273.388978 79.919989 
L 274.507214 81.294552 
L 275.625451 81.232952 
L 276.743687 81.503998 
L 277.861924 82.720012 
L 278.98016 82.936206 
L 280.098397 82.534741 
L 281.216633 82.449237 
L 282.33487 82.655989 
L 283.453106 83.133664 
L 284.571343 83.314287 
L 286.807816 85.221821 
L 287.926052 85.087991 
L 289.044289 84.709564 
L 290.162525 84.837437 
L 292.398998 83.666932 
L 293.517234 82.886397 
L 294.635471 67.680011 
L 295.753707 67.680011 
L 296.871944 59.999991 
L 297.99018 56.160006 
L 299.108417 58.464012 
L 300.226653 56.160006 
L 301.34489 57.805714 
L 302.463126 61.920008 
L 303.581363 62.55999 
L 304.699599 60.767993 
L 305.817836 59.301821 
L 308.054309 60.590781 
L 309.172545 61.920008 
L 311.409018 59.759992 
L 314.763727 59.191573 
L 315.881964 59.039995 
L 317.0002 59.451422 
L 318.118437 60.872728 
L 321.473146 60.307202 
L 324.827856 61.097154 
L 325.946092 62.913104 
L 327.064329 62.303997 
L 328.182565 62.105798 
L 329.300802 62.640006 
L 330.419038 62.792721 
L 331.537275 64.630597 
L 332.655511 65.046869 
L 333.773747 66.080009 
L 334.891984 66.745945 
L 336.01022 67.073673 
L 338.246693 66.527996 
L 339.36493 66.556102 
L 340.483166 66.308563 
L 341.601403 65.804662 
L 343.837876 65.88799 
L 348.310822 65.093885 
L 349.429058 65.145597 
L 350.547295 79.199992 
L 351.665531 73.439989 
L 352.783768 71.519997 
L 353.902004 67.680011 
L 355.02024 65.376005 
L 356.138477 61.920008 
L 357.256713 61.097154 
L 358.37495 59.039995 
L 359.493186 57.439993 
L 360.611423 56.160006 
L 361.729659 55.112726 
L 363.966132 55.273846 
L 365.084369 54.514298 
L 366.202605 54.624002 
L 367.320842 53.999989 
L 368.439078 54.804699 
L 370.675551 53.734727 
L 372.912024 52.868565 
L 374.030261 52.494538 
L 375.148497 52.653903 
L 377.38497 52.01281 
L 379.621443 52.319996 
L 380.739679 52.045711 
L 381.857916 52.584837 
L 382.976152 55.392004 
L 384.094389 56.53161 
L 385.212625 56.880003 
L 386.330862 57.556371 
L 387.449098 59.887049 
L 388.567335 62.742862 
L 389.685571 63.840001 
L 390.803808 64.566475 
L 391.922044 64.345262 
L 393.040281 64.430766 
L 394.158517 65.088001 
L 397.513226 63.661405 
L 398.631463 63.22909 
L 399.749699 63.327992 
L 401.986172 63.022981 
L 403.104409 62.640006 
L 404.222645 62.507758 
L 405.340882 62.150392 
L 406.459118 79.199992 
L 407.577355 61.920008 
L 408.695591 56.160006 
L 410.932064 56.160006 
L 412.050301 54.239988 
L 413.168537 52.868565 
L 414.286774 51.839997 
L 415.40501 51.040009 
L 417.641483 49.876375 
L 418.759719 50.400003 
L 419.877956 51.72923 
L 422.114429 50.783991 
L 424.350902 50.061176 
L 425.469138 51.67999 
L 426.587375 54.947379 
L 428.823848 55.062867 
L 429.942084 54.589098 
L 431.060321 54.657397 
L 432.178557 54.239988 
L 435.533267 54.45334 
L 436.651503 54.102846 
L 437.769739 54.571028 
L 438.887976 55.392004 
L 441.124449 55.440008 
L 443.360922 54.804699 
L 444.479158 54.843434 
L 445.597395 54.560003 
L 446.715631 54.914601 
L 447.833868 55.553692 
L 450.070341 56.160006 
L 451.188577 55.879022 
L 452.306814 55.885721 
L 454.543287 55.374552 
L 456.77976 55.408689 
L 457.897996 55.179566 
L 459.016232 55.440008 
L 460.134469 55.219587 
L 461.252705 55.238398 
L 462.370942 44.64 
L 463.489178 50.400003 
L 464.607415 48.48001 
L 465.725651 47.519989 
L 466.843888 49.248012 
L 467.962124 48.48001 
L 469.080361 47.931441 
L 471.316834 47.199999 
L 472.43507 48.095997 
L 473.553307 48.829095 
L 474.671543 50.400003 
L 475.78978 49.956935 
L 476.908016 50.400003 
L 478.026253 51.551994 
L 480.262725 52.094111 
L 481.380962 51.67999 
L 482.499198 52.5221 
L 485.853908 51.447283 
L 486.972144 51.151295 
L 488.090381 51.359999 
L 491.44509 50.61333 
L 492.563327 50.400003 
L 493.681563 50.598622 
L 494.7998 51.168005 
L 495.918036 50.957422 
L 498.154509 51.272716 
L 500.390982 50.89372 
L 501.509218 51.040009 
L 502.627455 50.867023 
L 503.745691 51.006316 
L 504.863928 52.61539 
L 505.982164 53.856 
L 507.100401 53.912186 
L 508.218637 53.691419 
L 509.336874 54.284656 
L 510.45511 54.589098 
L 511.573347 54.368009 
L 513.80982 54.444243 
L 517.164529 53.856 
L 518.282766 44.64 
L 520.519238 44.64 
L 521.637475 50.400003 
L 522.755711 49.248012 
L 523.873948 50.400003 
L 524.992184 49.577149 
L 526.110421 48.960008 
L 528.346894 48.095997 
L 530.583367 47.519989 
L 532.81984 47.108562 
L 533.938076 47.712008 
L 537.292786 47.199999 
L 538.411022 47.065254 
L 539.529259 47.519989 
L 541.765731 47.258188 
L 545.120441 48.326405 
L 546.238677 48.184615 
L 547.356914 48.48001 
L 548.47515 48.342868 
L 550.711623 48.863999 
L 556.302806 48.260577 
L 564.130461 47.657131 
L 571.958116 47.226127 
L 573.076353 47.404797 
L 574.194589 44.64 
L 593.204609 44.64 
L 594.322846 45.246313 
L 596.559319 45.188569 
L 597.677555 45.68728 
L 602.150501 45.52616 
L 603.268737 46.346666 
L 604.386974 46.697135 
L 605.50521 46.626216 
L 608.85992 47.519989 
L 612.214629 48.260577 
L 614.451102 48.064875 
L 615.569339 48.277906 
L 617.805812 49.248012 
L 618.924048 49.135614 
L 621.160521 49.462328 
L 624.51523 49.147825 
L 625.633467 49.29703 
L 628.988176 49.017604 
L 630.106413 56.160006 
L 631.224649 50.400003 
L 632.342886 48.48001 
L 633.461122 47.519989 
L 634.579359 46.944006 
L 636.815832 46.285708 
L 639.052305 45.920012 
L 642.407014 45.599996 
L 647.998196 45.317653 
L 658.062325 45.083068 
L 660.298798 45.051427 
L 661.417034 45.434476 
L 675.954108 45.188569 
L 684.9 45.100791 
L 684.9 45.100791 
" clip-path="url(#p3b77d9587d)" style="fill: none; stroke: #1f77b4; stroke-opacity: 0.5; stroke-width: 1.5; stroke-linecap: square"/>
   </g>
   <g id="line2d_90">
    <path d="M 126.9 171.360013 
L 128.018236 229.600003 
L 129.136473 220.706874 
L 130.254709 205.932079 
L 131.372946 219.114267 
L 132.491182 217.917719 
L 134.727655 203.120324 
L 135.845892 214.263089 
L 136.964128 213.240878 
L 138.082365 211.751932 
L 139.200601 221.986271 
L 140.318838 219.371896 
L 141.437074 213.289937 
L 142.555311 209.671418 
L 143.673547 213.677544 
L 144.791784 215.396944 
L 145.91002 213.199137 
L 147.028257 212.330585 
L 148.146493 210.631602 
L 149.264729 211.576381 
L 150.382966 214.642611 
L 151.501202 213.420879 
L 152.619439 211.491688 
L 154.855912 208.709583 
L 155.974148 207.936074 
L 157.092385 205.320519 
L 158.210621 203.478773 
L 159.328858 200.833945 
L 161.565331 196.636341 
L 164.92004 190.566848 
L 166.038277 190.10482 
L 167.156513 188.057741 
L 168.274749 186.308233 
L 169.392986 184.070487 
L 170.511222 182.191567 
L 171.629459 180.87703 
L 172.747695 179.760789 
L 173.865932 177.778824 
L 174.984168 176.934209 
L 176.102405 175.878339 
L 177.220641 174.260892 
L 179.457114 172.239802 
L 180.575351 171.443449 
L 181.693587 170.231847 
L 182.811824 195.723388 
L 183.93006 203.006686 
L 186.166533 164.441357 
L 187.28477 154.571822 
L 188.403006 145.991948 
L 189.521242 142.952803 
L 191.757715 130.314525 
L 192.875952 127.541297 
L 195.112425 128.848643 
L 196.230661 127.565548 
L 197.348898 127.696283 
L 198.467134 127.616078 
L 199.585371 128.51888 
L 200.703607 129.109598 
L 201.821844 128.202752 
L 204.058317 124.819475 
L 205.176553 122.797403 
L 206.29479 121.578486 
L 207.413026 121.002543 
L 208.531263 120.97216 
L 210.767735 120.506609 
L 211.885972 119.954273 
L 213.004208 119.644087 
L 214.122445 119.981074 
L 215.240681 119.651744 
L 216.358918 118.363163 
L 217.477154 117.903766 
L 218.595391 117.188093 
L 219.713627 116.917615 
L 220.831864 116.778096 
L 221.9501 115.765178 
L 224.186573 116.877509 
L 225.30481 116.54962 
L 228.659519 114.351113 
L 229.777756 114.120258 
L 230.895992 113.675919 
L 232.014228 112.638838 
L 233.132465 112.187486 
L 235.368938 110.509963 
L 236.487174 110.144532 
L 237.605411 109.600156 
L 238.723647 79.657195 
L 239.841884 71.102064 
L 240.96012 65.914876 
L 242.078357 67.175687 
L 243.196593 69.18162 
L 244.31483 73.594753 
L 245.433066 78.774019 
L 246.551303 88.335429 
L 247.669539 90.038692 
L 248.787776 88.05677 
L 249.906012 85.470768 
L 251.024248 83.734507 
L 252.142485 82.394482 
L 253.260721 80.700456 
L 255.497194 81.849837 
L 256.615431 80.441129 
L 257.733667 78.640326 
L 258.851904 78.173926 
L 259.97014 80.552549 
L 261.088377 82.329301 
L 263.32485 83.065618 
L 265.561323 82.932375 
L 266.679559 81.848807 
L 268.916032 81.027122 
L 270.034269 80.28953 
L 271.152505 79.785584 
L 272.270741 79.632753 
L 273.388978 79.837922 
L 274.507214 80.878372 
L 276.743687 81.397611 
L 277.861924 82.342183 
L 278.98016 82.766485 
L 281.216633 82.492585 
L 282.33487 82.609302 
L 283.453106 82.983846 
L 284.571343 83.219875 
L 286.807816 84.868276 
L 287.926052 85.025215 
L 289.044289 84.79975 
L 290.162525 84.826669 
L 292.398998 83.878556 
L 293.517234 83.169871 
L 294.635471 72.105686 
L 295.753707 68.94449 
L 296.871944 62.555562 
L 297.99018 57.987307 
L 299.108417 58.327811 
L 300.226653 56.779378 
L 301.34489 57.512475 
L 302.463126 60.660713 
L 303.581363 62.017339 
L 304.699599 61.124949 
L 305.817836 59.822715 
L 306.936072 59.949341 
L 308.054309 60.407512 
L 309.172545 61.487867 
L 310.290782 60.973671 
L 311.409018 60.106757 
L 312.527255 59.707821 
L 314.763727 59.268091 
L 315.881964 59.105165 
L 317.0002 59.352491 
L 318.118437 60.438375 
L 319.236673 60.602272 
L 321.473146 60.366552 
L 323.709619 60.760007 
L 324.827856 61.000827 
L 325.946092 62.366739 
L 328.182565 62.167548 
L 329.300802 62.505018 
L 330.419038 62.71052 
L 331.537275 64.082003 
L 332.655511 64.771193 
L 333.773747 65.706062 
L 334.891984 66.448836 
L 336.01022 66.895148 
L 337.128457 66.822793 
L 338.246693 66.612224 
L 339.36493 66.572137 
L 340.483166 66.38387 
L 341.601403 65.97015 
L 346.074349 65.549024 
L 348.310822 65.169021 
L 349.429058 65.15229 
L 350.547295 75.186363 
L 351.665531 73.938953 
L 352.783768 72.211127 
L 353.902004 68.974616 
L 355.02024 66.40418 
L 356.138477 63.2012 
L 357.256713 61.69831 
L 359.493186 58.114141 
L 360.611423 56.71833 
L 361.729659 55.57147 
L 362.847896 55.306141 
L 363.966132 55.283073 
L 365.084369 54.733948 
L 366.202605 54.655415 
L 367.320842 54.187254 
L 368.439078 54.628286 
L 369.557315 54.350931 
L 374.030261 52.649701 
L 375.148497 52.652702 
L 377.38497 52.127737 
L 379.621443 52.274159 
L 380.739679 52.110982 
L 381.857916 52.44945 
L 382.976152 54.551274 
L 384.094389 55.9658 
L 386.330862 57.288494 
L 387.449098 59.144605 
L 388.567335 61.714789 
L 389.685571 63.232798 
L 390.803808 64.185424 
L 393.040281 64.393289 
L 394.158517 64.889512 
L 395.276754 64.675051 
L 398.631463 63.402657 
L 400.867936 63.222797 
L 401.986172 63.080071 
L 403.104409 62.765739 
L 404.222645 62.581467 
L 405.340882 62.273556 
L 406.459118 74.363868 
L 407.577355 65.475397 
L 408.695591 58.821546 
L 409.813828 56.920446 
L 410.932064 56.377274 
L 413.168537 53.434872 
L 414.286774 52.295676 
L 415.40501 51.398771 
L 416.523246 50.685365 
L 417.641483 50.107515 
L 418.759719 50.316435 
L 419.877956 51.325575 
L 420.996192 51.252205 
L 424.350902 50.20025 
L 425.469138 51.257207 
L 426.587375 53.893044 
L 427.705611 54.689434 
L 428.823848 54.956172 
L 429.942084 54.693976 
L 431.060321 54.667848 
L 432.178557 54.362234 
L 434.41503 54.37114 
L 435.533267 54.429854 
L 436.651503 54.196277 
L 437.769739 54.463956 
L 438.887976 55.126847 
L 440.006212 55.333937 
L 441.124449 55.409702 
L 445.597395 54.646985 
L 446.715631 54.838139 
L 447.833868 55.349248 
L 450.070341 56.033537 
L 453.42505 55.701971 
L 454.543287 55.4681 
L 457.897996 55.245443 
L 459.016232 55.384418 
L 461.252705 55.246479 
L 462.370942 47.670423 
L 463.489178 49.620123 
L 465.725651 47.887351 
L 466.843888 48.859252 
L 467.962124 48.588365 
L 470.198597 47.691173 
L 471.316834 47.340334 
L 472.43507 47.880093 
L 473.553307 48.557952 
L 474.671543 49.873703 
L 475.78978 49.933154 
L 476.908016 50.266618 
L 478.026253 51.184743 
L 479.144489 51.652782 
L 480.262725 51.968017 
L 481.380962 51.762283 
L 482.499198 52.30501 
L 483.617435 52.178575 
L 486.972144 51.27182 
L 488.090381 51.334805 
L 491.44509 50.704907 
L 492.563327 50.487118 
L 493.681563 50.566764 
L 494.7998 50.996222 
L 495.918036 50.968507 
L 498.154509 51.216716 
L 502.627455 50.909723 
L 503.745691 50.978718 
L 505.982164 53.367934 
L 507.100401 53.756686 
L 508.218637 53.710067 
L 510.45511 54.455209 
L 512.691583 54.402954 
L 513.80982 54.432446 
L 517.164529 53.93022 
L 518.282766 47.294349 
L 519.401002 45.398385 
L 520.519238 44.856682 
L 521.637475 48.816197 
L 522.755711 49.124636 
L 523.873948 50.035612 
L 524.992184 49.708138 
L 527.228657 48.678224 
L 529.46513 47.91911 
L 531.701603 47.394332 
L 532.81984 47.190211 
L 533.938076 47.562923 
L 536.174549 47.402493 
L 538.411022 47.120283 
L 539.529259 47.405787 
L 541.765731 47.295677 
L 544.002204 47.870108 
L 545.120441 48.196034 
L 546.238677 48.187878 
L 547.356914 48.396544 
L 548.47515 48.358204 
L 550.711623 48.771364 
L 552.948096 48.640058 
L 560.775752 47.924192 
L 569.721643 47.360048 
L 571.958116 47.248052 
L 573.076353 47.360013 
L 574.194589 45.417147 
L 575.312826 44.862042 
L 576.431062 44.703441 
L 579.785772 44.64148 
L 593.204609 44.64 
L 594.322846 45.073081 
L 596.559319 45.184741 
L 597.677555 45.543698 
L 599.914028 45.603921 
L 602.150501 45.539742 
L 603.268737 46.116116 
L 604.386974 46.53113 
L 605.50521 46.599048 
L 612.214629 48.165362 
L 615.569339 48.22493 
L 617.805812 49.06804 
L 620.042285 49.249562 
L 621.160521 49.401538 
L 628.988176 49.05225 
L 630.106413 54.129218 
L 631.224649 51.465493 
L 632.342886 49.333005 
L 633.461122 48.037994 
L 634.579359 47.256574 
L 635.697595 46.759016 
L 637.934068 46.177407 
L 641.288778 45.733651 
L 645.761723 45.431455 
L 653.589379 45.174031 
L 660.298798 45.057722 
L 661.417034 45.326832 
L 663.653507 45.383684 
L 684.9 45.104621 
L 684.9 45.104621 
" clip-path="url(#p3b77d9587d)" style="fill: none; stroke: #1f77b4; stroke-width: 1.5; stroke-linecap: square"/>
   </g>
   <g id="line2d_91">
    <path d="M 181.693587 154.540796 
L 237.605411 154.540796 
L 293.517234 154.540796 
L 349.429058 117.216006 
L 405.340882 90.259207 
L 461.252705 73.670397 
L 517.164529 63.302407 
L 573.076353 73.670397 
L 628.988176 59.155211 
L 684.9 61.228809 
" clip-path="url(#p3b77d9587d)" style="fill: none; stroke-dasharray: 5.55,2.4; stroke-dashoffset: 0; stroke: #000000; stroke-width: 1.5"/>
    <defs>
     <path id="m6842ed1188" d="M 0 3 
C 0.795609 3 1.55874 2.683901 2.12132 2.12132 
C 2.683901 1.55874 3 0.795609 3 0 
C 3 -0.795609 2.683901 -1.55874 2.12132 -2.12132 
C 1.55874 -2.683901 0.795609 -3 0 -3 
C -0.795609 -3 -1.55874 -2.683901 -2.12132 -2.12132 
C -2.683901 -1.55874 -3 -0.795609 -3 0 
C -3 0.795609 -2.683901 1.55874 -2.12132 2.12132 
C -1.55874 2.683901 -0.795609 3 0 3 
z
" style="stroke: #000000"/>
    </defs>
    <g clip-path="url(#p3b77d9587d)">
     <use xlink:href="#m6842ed1188" x="181.693587" y="154.540796" style="stroke: #000000"/>
     <use xlink:href="#m6842ed1188" x="237.605411" y="154.540796" style="stroke: #000000"/>
     <use xlink:href="#m6842ed1188" x="293.517234" y="154.540796" style="stroke: #000000"/>
     <use xlink:href="#m6842ed1188" x="349.429058" y="117.216006" style="stroke: #000000"/>
     <use xlink:href="#m6842ed1188" x="405.340882" y="90.259207" style="stroke: #000000"/>
     <use xlink:href="#m6842ed1188" x="461.252705" y="73.670397" style="stroke: #000000"/>
     <use xlink:href="#m6842ed1188" x="517.164529" y="63.302407" style="stroke: #000000"/>
     <use xlink:href="#m6842ed1188" x="573.076353" y="73.670397" style="stroke: #000000"/>
     <use xlink:href="#m6842ed1188" x="628.988176" y="59.155211" style="stroke: #000000"/>
     <use xlink:href="#m6842ed1188" x="684.9" y="61.228809" style="stroke: #000000"/>
    </g>
   </g>
   <g id="patch_3">
    <path d="M 99 256.32 
L 99 34.56 
" style="fill: none; stroke: #000000; stroke-width: 0.8; stroke-linejoin: miter; stroke-linecap: square"/>
   </g>
   <g id="patch_4">
    <path d="M 712.8 256.32 
L 712.8 34.56 
" style="fill: none; stroke: #000000; stroke-width: 0.8; stroke-linejoin: miter; stroke-linecap: square"/>
   </g>
   <g id="patch_5">
    <path d="M 99 256.32 
L 712.8 256.32 
" style="fill: none; stroke: #000000; stroke-width: 0.8; stroke-linejoin: miter; stroke-linecap: square"/>
   </g>
   <g id="patch_6">
    <path d="M 99 34.56 
L 712.8 34.56 
" style="fill: none; stroke: #000000; stroke-width: 0.8; stroke-linejoin: miter; stroke-linecap: square"/>
   </g>
   <g id="text_15">
    <!-- ResNet50 -->
    <g transform="translate(377.015625 28.56) scale(0.12 -0.12)">
     <defs>
      <path id="DejaVuSans-52" d="M 2841 2188 
Q 3044 2119 3236 1894 
Q 3428 1669 3622 1275 
L 4263 0 
L 3584 0 
L 2988 1197 
Q 2756 1666 2539 1819 
Q 2322 1972 1947 1972 
L 1259 1972 
L 1259 0 
L 628 0 
L 628 4666 
L 2053 4666 
Q 2853 4666 3247 4331 
Q 3641 3997 3641 3322 
Q 3641 2881 3436 2590 
Q 3231 2300 2841 2188 
z
M 1259 4147 
L 1259 2491 
L 2053 2491 
Q 2509 2491 2742 2702 
Q 2975 2913 2975 3322 
Q 2975 3731 2742 3939 
Q 2509 4147 2053 4147 
L 1259 4147 
z
" transform="scale(0.015625)"/>
      <path id="DejaVuSans-65" d="M 3597 1894 
L 3597 1613 
L 953 1613 
Q 991 1019 1311 708 
Q 1631 397 2203 397 
Q 2534 397 2845 478 
Q 3156 559 3463 722 
L 3463 178 
Q 3153 47 2828 -22 
Q 2503 -91 2169 -91 
Q 1331 -91 842 396 
Q 353 884 353 1716 
Q 353 2575 817 3079 
Q 1281 3584 2069 3584 
Q 2775 3584 3186 3129 
Q 3597 2675 3597 1894 
z
M 3022 2063 
Q 3016 2534 2758 2815 
Q 2500 3097 2075 3097 
Q 1594 3097 1305 2825 
Q 1016 2553 972 2059 
L 3022 2063 
z
" transform="scale(0.015625)"/>
      <path id="DejaVuSans-73" d="M 2834 3397 
L 2834 2853 
Q 2591 2978 2328 3040 
Q 2066 3103 1784 3103 
Q 1356 3103 1142 2972 
Q 928 2841 928 2578 
Q 928 2378 1081 2264 
Q 1234 2150 1697 2047 
L 1894 2003 
Q 2506 1872 2764 1633 
Q 3022 1394 3022 966 
Q 3022 478 2636 193 
Q 2250 -91 1575 -91 
Q 1294 -91 989 -36 
Q 684 19 347 128 
L 347 722 
Q 666 556 975 473 
Q 1284 391 1588 391 
Q 1994 391 2212 530 
Q 2431 669 2431 922 
Q 2431 1156 2273 1281 
Q 2116 1406 1581 1522 
L 1381 1569 
Q 847 1681 609 1914 
Q 372 2147 372 2553 
Q 372 3047 722 3315 
Q 1072 3584 1716 3584 
Q 2034 3584 2315 3537 
Q 2597 3491 2834 3397 
z
" transform="scale(0.015625)"/>
      <path id="DejaVuSans-4e" d="M 628 4666 
L 1478 4666 
L 3547 763 
L 3547 4666 
L 4159 4666 
L 4159 0 
L 3309 0 
L 1241 3903 
L 1241 0 
L 628 0 
L 628 4666 
z
" transform="scale(0.015625)"/>
      <path id="DejaVuSans-74" d="M 1172 4494 
L 1172 3500 
L 2356 3500 
L 2356 3053 
L 1172 3053 
L 1172 1153 
Q 1172 725 1289 603 
Q 1406 481 1766 481 
L 2356 481 
L 2356 0 
L 1766 0 
Q 1100 0 847 248 
Q 594 497 594 1153 
L 594 3053 
L 172 3053 
L 172 3500 
L 594 3500 
L 594 4494 
L 1172 4494 
z
" transform="scale(0.015625)"/>
     </defs>
     <use xlink:href="#DejaVuSans-52"/>
     <use xlink:href="#DejaVuSans-65" x="64.982422"/>
     <use xlink:href="#DejaVuSans-73" x="126.505859"/>
     <use xlink:href="#DejaVuSans-4e" x="178.605469"/>
     <use xlink:href="#DejaVuSans-65" x="253.410156"/>
     <use xlink:href="#DejaVuSans-74" x="314.933594"/>
     <use xlink:href="#DejaVuSans-35" x="354.142578"/>
     <use xlink:href="#DejaVuSans-30" x="417.765625"/>
    </g>
   </g>
   <g id="legend_1">
    <g id="patch_7">
     <path d="M 574.417188 251.32 
L 705.8 251.32 
Q 707.8 251.32 707.8 249.32 
L 707.8 206.285625 
Q 707.8 204.285625 705.8 204.285625 
L 574.417188 204.285625 
Q 572.417188 204.285625 572.417188 206.285625 
L 572.417188 249.32 
Q 572.417188 251.32 574.417188 251.32 
z
" style="fill: #ffffff; opacity: 0.8; stroke: #cccccc; stroke-linejoin: miter"/>
    </g>
    <g id="line2d_92">
     <path d="M 576.417188 212.384062 
L 586.417188 212.384062 
L 596.417188 212.384062 
" style="fill: none; stroke: #1f77b4; stroke-opacity: 0.5; stroke-width: 1.5; stroke-linecap: square"/>
    </g>
    <g id="text_16">
     <!-- Accuracy -->
     <g transform="translate(604.417188 215.884062) scale(0.1 -0.1)">
      <use xlink:href="#DejaVuSans-41"/>
      <use xlink:href="#DejaVuSans-63" x="66.658203"/>
      <use xlink:href="#DejaVuSans-63" x="121.638672"/>
      <use xlink:href="#DejaVuSans-75" x="176.619141"/>
      <use xlink:href="#DejaVuSans-72" x="239.998047"/>
      <use xlink:href="#DejaVuSans-61" x="281.111328"/>
      <use xlink:href="#DejaVuSans-63" x="342.390625"/>
      <use xlink:href="#DejaVuSans-79" x="397.371094"/>
     </g>
    </g>
    <g id="line2d_93">
     <path d="M 576.417188 227.062187 
L 586.417188 227.062187 
L 596.417188 227.062187 
" style="fill: none; stroke: #1f77b4; stroke-width: 1.5; stroke-linecap: square"/>
    </g>
    <g id="text_17">
     <!-- Smoothed accuracy -->
     <g transform="translate(604.417188 230.562187) scale(0.1 -0.1)">
      <defs>
       <path id="DejaVuSans-53" d="M 3425 4513 
L 3425 3897 
Q 3066 4069 2747 4153 
Q 2428 4238 2131 4238 
Q 1616 4238 1336 4038 
Q 1056 3838 1056 3469 
Q 1056 3159 1242 3001 
Q 1428 2844 1947 2747 
L 2328 2669 
Q 3034 2534 3370 2195 
Q 3706 1856 3706 1288 
Q 3706 609 3251 259 
Q 2797 -91 1919 -91 
Q 1588 -91 1214 -16 
Q 841 59 441 206 
L 441 856 
Q 825 641 1194 531 
Q 1563 422 1919 422 
Q 2459 422 2753 634 
Q 3047 847 3047 1241 
Q 3047 1584 2836 1778 
Q 2625 1972 2144 2069 
L 1759 2144 
Q 1053 2284 737 2584 
Q 422 2884 422 3419 
Q 422 4038 858 4394 
Q 1294 4750 2059 4750 
Q 2388 4750 2728 4690 
Q 3069 4631 3425 4513 
z
" transform="scale(0.015625)"/>
       <path id="DejaVuSans-6d" d="M 3328 2828 
Q 3544 3216 3844 3400 
Q 4144 3584 4550 3584 
Q 5097 3584 5394 3201 
Q 5691 2819 5691 2113 
L 5691 0 
L 5113 0 
L 5113 2094 
Q 5113 2597 4934 2840 
Q 4756 3084 4391 3084 
Q 3944 3084 3684 2787 
Q 3425 2491 3425 1978 
L 3425 0 
L 2847 0 
L 2847 2094 
Q 2847 2600 2669 2842 
Q 2491 3084 2119 3084 
Q 1678 3084 1418 2786 
Q 1159 2488 1159 1978 
L 1159 0 
L 581 0 
L 581 3500 
L 1159 3500 
L 1159 2956 
Q 1356 3278 1631 3431 
Q 1906 3584 2284 3584 
Q 2666 3584 2933 3390 
Q 3200 3197 3328 2828 
z
" transform="scale(0.015625)"/>
       <path id="DejaVuSans-64" d="M 2906 2969 
L 2906 4863 
L 3481 4863 
L 3481 0 
L 2906 0 
L 2906 525 
Q 2725 213 2448 61 
Q 2172 -91 1784 -91 
Q 1150 -91 751 415 
Q 353 922 353 1747 
Q 353 2572 751 3078 
Q 1150 3584 1784 3584 
Q 2172 3584 2448 3432 
Q 2725 3281 2906 2969 
z
M 947 1747 
Q 947 1113 1208 752 
Q 1469 391 1925 391 
Q 2381 391 2643 752 
Q 2906 1113 2906 1747 
Q 2906 2381 2643 2742 
Q 2381 3103 1925 3103 
Q 1469 3103 1208 2742 
Q 947 2381 947 1747 
z
" transform="scale(0.015625)"/>
      </defs>
      <use xlink:href="#DejaVuSans-53"/>
      <use xlink:href="#DejaVuSans-6d" x="63.476562"/>
      <use xlink:href="#DejaVuSans-6f" x="160.888672"/>
      <use xlink:href="#DejaVuSans-6f" x="222.070312"/>
      <use xlink:href="#DejaVuSans-74" x="283.251953"/>
      <use xlink:href="#DejaVuSans-68" x="322.460938"/>
      <use xlink:href="#DejaVuSans-65" x="385.839844"/>
      <use xlink:href="#DejaVuSans-64" x="447.363281"/>
      <use xlink:href="#DejaVuSans-20" x="510.839844"/>
      <use xlink:href="#DejaVuSans-61" x="542.626953"/>
      <use xlink:href="#DejaVuSans-63" x="603.90625"/>
      <use xlink:href="#DejaVuSans-63" x="658.886719"/>
      <use xlink:href="#DejaVuSans-75" x="713.867188"/>
      <use xlink:href="#DejaVuSans-72" x="777.246094"/>
      <use xlink:href="#DejaVuSans-61" x="818.359375"/>
      <use xlink:href="#DejaVuSans-63" x="879.638672"/>
      <use xlink:href="#DejaVuSans-79" x="934.619141"/>
     </g>
    </g>
    <g id="line2d_94">
     <path d="M 576.417188 241.740313 
L 586.417188 241.740313 
L 596.417188 241.740313 
" style="fill: none; stroke-dasharray: 5.55,2.4; stroke-dashoffset: 0; stroke: #000000; stroke-width: 1.5"/>
     <g>
      <use xlink:href="#m6842ed1188" x="586.417188" y="241.740313" style="stroke: #000000"/>
     </g>
    </g>
    <g id="text_18">
     <!-- Validation -->
     <g transform="translate(604.417188 245.240313) scale(0.1 -0.1)">
      <defs>
       <path id="DejaVuSans-56" d="M 1831 0 
L 50 4666 
L 709 4666 
L 2188 738 
L 3669 4666 
L 4325 4666 
L 2547 0 
L 1831 0 
z
" transform="scale(0.015625)"/>
       <path id="DejaVuSans-6c" d="M 603 4863 
L 1178 4863 
L 1178 0 
L 603 0 
L 603 4863 
z
" transform="scale(0.015625)"/>
       <path id="DejaVuSans-69" d="M 603 3500 
L 1178 3500 
L 1178 0 
L 603 0 
L 603 3500 
z
M 603 4863 
L 1178 4863 
L 1178 4134 
L 603 4134 
L 603 4863 
z
" transform="scale(0.015625)"/>
       <path id="DejaVuSans-6e" d="M 3513 2113 
L 3513 0 
L 2938 0 
L 2938 2094 
Q 2938 2591 2744 2837 
Q 2550 3084 2163 3084 
Q 1697 3084 1428 2787 
Q 1159 2491 1159 1978 
L 1159 0 
L 581 0 
L 581 3500 
L 1159 3500 
L 1159 2956 
Q 1366 3272 1645 3428 
Q 1925 3584 2291 3584 
Q 2894 3584 3203 3211 
Q 3513 2838 3513 2113 
z
" transform="scale(0.015625)"/>
      </defs>
      <use xlink:href="#DejaVuSans-56"/>
      <use xlink:href="#DejaVuSans-61" x="60.658203"/>
      <use xlink:href="#DejaVuSans-6c" x="121.9375"/>
      <use xlink:href="#DejaVuSans-69" x="149.720703"/>
      <use xlink:href="#DejaVuSans-64" x="177.503906"/>
      <use xlink:href="#DejaVuSans-61" x="240.980469"/>
      <use xlink:href="#DejaVuSans-74" x="302.259766"/>
      <use xlink:href="#DejaVuSans-69" x="341.46875"/>
      <use xlink:href="#DejaVuSans-6f" x="369.251953"/>
      <use xlink:href="#DejaVuSans-6e" x="430.433594"/>
     </g>
    </g>
   </g>
  </g>
 </g>
 <defs>
  <clipPath id="p3b77d9587d">
   <rect x="99" y="34.56" width="613.8" height="221.76"/>
  </clipPath>
 </defs>
</svg>
