<?xml version="1.0" encoding="utf-8" standalone="no"?>
<!DOCTYPE svg PUBLIC "-//W3C//DTD SVG 1.1//EN"
  "http://www.w3.org/Graphics/SVG/1.1/DTD/svg11.dtd">
<svg xmlns:xlink="http://www.w3.org/1999/xlink" width="792pt" height="288pt" viewBox="0 0 792 288" xmlns="http://www.w3.org/2000/svg" version="1.1">
 <metadata>
  <rdf:RDF xmlns:dc="http://purl.org/dc/elements/1.1/" xmlns:cc="http://creativecommons.org/ns#" xmlns:rdf="http://www.w3.org/1999/02/22-rdf-syntax-ns#">
   <cc:Work>
    <dc:type rdf:resource="http://purl.org/dc/dcmitype/StillImage"/>
    <dc:date>2025-02-28T16:58:16.882743</dc:date>
    <dc:format>image/svg+xml</dc:format>
    <dc:creator>
     <cc:Agent>
      <dc:title>Matplotlib v3.7.2, https://matplotlib.org/</dc:title>
     </cc:Agent>
    </dc:creator>
   </cc:Work>
  </rdf:RDF>
 </metadata>
 <defs>
  <style type="text/css">*{stroke-linejoin: round; stroke-linecap: butt}</style>
 </defs>
 <g id="figure_1">
  <g id="patch_1">
   <path d="M 0 288 
L 792 288 
L 792 0 
L 0 0 
z
" style="fill: #ffffff"/>
  </g>
  <g id="axes_1">
   <g id="patch_2">
    <path d="M 99 256.32 
L 712.8 256.32 
L 712.8 34.56 
L 99 34.56 
z
" style="fill: #ffffff"/>
   </g>
   <g id="matplotlib.axis_1">
    <g id="xtick_1">
     <g id="line2d_1">
      <path d="M 124.659036 256.32 
L 124.659036 34.56 
" clip-path="url(#p820ebffb52)" style="fill: none; stroke: #b0b0b0; stroke-width: 0.8; stroke-linecap: square"/>
     </g>
     <g id="line2d_2">
      <defs>
       <path id="m4ff76a1b57" d="M 0 0 
L 0 3.5 
" style="stroke: #000000; stroke-width: 0.8"/>
      </defs>
      <g>
       <use xlink:href="#m4ff76a1b57" x="124.659036" y="256.32" style="stroke: #000000; stroke-width: 0.8"/>
      </g>
     </g>
     <g id="text_1">
      <!-- 0 -->
      <g transform="translate(121.477786 270.918437) scale(0.1 -0.1)">
       <defs>
        <path id="DejaVuSans-30" d="M 2034 4250 
Q 1547 4250 1301 3770 
Q 1056 3291 1056 2328 
Q 1056 1369 1301 889 
Q 1547 409 2034 409 
Q 2525 409 2770 889 
Q 3016 1369 3016 2328 
Q 3016 3291 2770 3770 
Q 2525 4250 2034 4250 
z
M 2034 4750 
Q 2819 4750 3233 4129 
Q 3647 3509 3647 2328 
Q 3647 1150 3233 529 
Q 2819 -91 2034 -91 
Q 1250 -91 836 529 
Q 422 1150 422 2328 
Q 422 3509 836 4129 
Q 1250 4750 2034 4750 
z
" transform="scale(0.015625)"/>
       </defs>
       <use xlink:href="#DejaVuSans-30"/>
      </g>
     </g>
    </g>
    <g id="xtick_2">
     <g id="line2d_3">
      <path d="M 236.707229 256.32 
L 236.707229 34.56 
" clip-path="url(#p820ebffb52)" style="fill: none; stroke: #b0b0b0; stroke-width: 0.8; stroke-linecap: square"/>
     </g>
     <g id="line2d_4">
      <g>
       <use xlink:href="#m4ff76a1b57" x="236.707229" y="256.32" style="stroke: #000000; stroke-width: 0.8"/>
      </g>
     </g>
     <g id="text_2">
      <!-- 1 -->
      <g transform="translate(233.525979 270.918437) scale(0.1 -0.1)">
       <defs>
        <path id="DejaVuSans-31" d="M 794 531 
L 1825 531 
L 1825 4091 
L 703 3866 
L 703 4441 
L 1819 4666 
L 2450 4666 
L 2450 531 
L 3481 531 
L 3481 0 
L 794 0 
L 794 531 
z
" transform="scale(0.015625)"/>
       </defs>
       <use xlink:href="#DejaVuSans-31"/>
      </g>
     </g>
    </g>
    <g id="xtick_3">
     <g id="line2d_5">
      <path d="M 348.755422 256.32 
L 348.755422 34.56 
" clip-path="url(#p820ebffb52)" style="fill: none; stroke: #b0b0b0; stroke-width: 0.8; stroke-linecap: square"/>
     </g>
     <g id="line2d_6">
      <g>
       <use xlink:href="#m4ff76a1b57" x="348.755422" y="256.32" style="stroke: #000000; stroke-width: 0.8"/>
      </g>
     </g>
     <g id="text_3">
      <!-- 2 -->
      <g transform="translate(345.574172 270.918437) scale(0.1 -0.1)">
       <defs>
        <path id="DejaVuSans-32" d="M 1228 531 
L 3431 531 
L 3431 0 
L 469 0 
L 469 531 
Q 828 903 1448 1529 
Q 2069 2156 2228 2338 
Q 2531 2678 2651 2914 
Q 2772 3150 2772 3378 
Q 2772 3750 2511 3984 
Q 2250 4219 1831 4219 
Q 1534 4219 1204 4116 
Q 875 4013 500 3803 
L 500 4441 
Q 881 4594 1212 4672 
Q 1544 4750 1819 4750 
Q 2544 4750 2975 4387 
Q 3406 4025 3406 3419 
Q 3406 3131 3298 2873 
Q 3191 2616 2906 2266 
Q 2828 2175 2409 1742 
Q 1991 1309 1228 531 
z
" transform="scale(0.015625)"/>
       </defs>
       <use xlink:href="#DejaVuSans-32"/>
      </g>
     </g>
    </g>
    <g id="xtick_4">
     <g id="line2d_7">
      <path d="M 460.803614 256.32 
L 460.803614 34.56 
" clip-path="url(#p820ebffb52)" style="fill: none; stroke: #b0b0b0; stroke-width: 0.8; stroke-linecap: square"/>
     </g>
     <g id="line2d_8">
      <g>
       <use xlink:href="#m4ff76a1b57" x="460.803614" y="256.32" style="stroke: #000000; stroke-width: 0.8"/>
      </g>
     </g>
     <g id="text_4">
      <!-- 3 -->
      <g transform="translate(457.622364 270.918437) scale(0.1 -0.1)">
       <defs>
        <path id="DejaVuSans-33" d="M 2597 2516 
Q 3050 2419 3304 2112 
Q 3559 1806 3559 1356 
Q 3559 666 3084 287 
Q 2609 -91 1734 -91 
Q 1441 -91 1130 -33 
Q 819 25 488 141 
L 488 750 
Q 750 597 1062 519 
Q 1375 441 1716 441 
Q 2309 441 2620 675 
Q 2931 909 2931 1356 
Q 2931 1769 2642 2001 
Q 2353 2234 1838 2234 
L 1294 2234 
L 1294 2753 
L 1863 2753 
Q 2328 2753 2575 2939 
Q 2822 3125 2822 3475 
Q 2822 3834 2567 4026 
Q 2313 4219 1838 4219 
Q 1578 4219 1281 4162 
Q 984 4106 628 3988 
L 628 4550 
Q 988 4650 1302 4700 
Q 1616 4750 1894 4750 
Q 2613 4750 3031 4423 
Q 3450 4097 3450 3541 
Q 3450 3153 3228 2886 
Q 3006 2619 2597 2516 
z
" transform="scale(0.015625)"/>
       </defs>
       <use xlink:href="#DejaVuSans-33"/>
      </g>
     </g>
    </g>
    <g id="xtick_5">
     <g id="line2d_9">
      <path d="M 572.851807 256.32 
L 572.851807 34.56 
" clip-path="url(#p820ebffb52)" style="fill: none; stroke: #b0b0b0; stroke-width: 0.8; stroke-linecap: square"/>
     </g>
     <g id="line2d_10">
      <g>
       <use xlink:href="#m4ff76a1b57" x="572.851807" y="256.32" style="stroke: #000000; stroke-width: 0.8"/>
      </g>
     </g>
     <g id="text_5">
      <!-- 4 -->
      <g transform="translate(569.670557 270.918437) scale(0.1 -0.1)">
       <defs>
        <path id="DejaVuSans-34" d="M 2419 4116 
L 825 1625 
L 2419 1625 
L 2419 4116 
z
M 2253 4666 
L 3047 4666 
L 3047 1625 
L 3713 1625 
L 3713 1100 
L 3047 1100 
L 3047 0 
L 2419 0 
L 2419 1100 
L 313 1100 
L 313 1709 
L 2253 4666 
z
" transform="scale(0.015625)"/>
       </defs>
       <use xlink:href="#DejaVuSans-34"/>
      </g>
     </g>
    </g>
    <g id="xtick_6">
     <g id="line2d_11">
      <path d="M 684.9 256.32 
L 684.9 34.56 
" clip-path="url(#p820ebffb52)" style="fill: none; stroke: #b0b0b0; stroke-width: 0.8; stroke-linecap: square"/>
     </g>
     <g id="line2d_12">
      <g>
       <use xlink:href="#m4ff76a1b57" x="684.9" y="256.32" style="stroke: #000000; stroke-width: 0.8"/>
      </g>
     </g>
     <g id="text_6">
      <!-- 5 -->
      <g transform="translate(681.71875 270.918437) scale(0.1 -0.1)">
       <defs>
        <path id="DejaVuSans-35" d="M 691 4666 
L 3169 4666 
L 3169 4134 
L 1269 4134 
L 1269 2991 
Q 1406 3038 1543 3061 
Q 1681 3084 1819 3084 
Q 2600 3084 3056 2656 
Q 3513 2228 3513 1497 
Q 3513 744 3044 326 
Q 2575 -91 1722 -91 
Q 1428 -91 1123 -41 
Q 819 9 494 109 
L 494 744 
Q 775 591 1075 516 
Q 1375 441 1709 441 
Q 2250 441 2565 725 
Q 2881 1009 2881 1497 
Q 2881 1984 2565 2268 
Q 2250 2553 1709 2553 
Q 1456 2553 1204 2497 
Q 953 2441 691 2322 
L 691 4666 
z
" transform="scale(0.015625)"/>
       </defs>
       <use xlink:href="#DejaVuSans-35"/>
      </g>
     </g>
    </g>
    <g id="xtick_7">
     <g id="line2d_13">
      <path d="M 162.00806 256.32 
L 162.00806 34.56 
" clip-path="url(#p820ebffb52)" style="fill: none; stroke: #b0b0b0; stroke-width: 0.8; stroke-linecap: square"/>
     </g>
     <g id="line2d_14">
      <defs>
       <path id="mf9cbd648b5" d="M 0 0 
L 0 2 
" style="stroke: #000000; stroke-width: 0.6"/>
      </defs>
      <g>
       <use xlink:href="#mf9cbd648b5" x="162.00806" y="256.32" style="stroke: #000000; stroke-width: 0.6"/>
      </g>
     </g>
    </g>
    <g id="xtick_8">
     <g id="line2d_15">
      <path d="M 199.357084 256.32 
L 199.357084 34.56 
" clip-path="url(#p820ebffb52)" style="fill: none; stroke: #b0b0b0; stroke-width: 0.8; stroke-linecap: square"/>
     </g>
     <g id="line2d_16">
      <g>
       <use xlink:href="#mf9cbd648b5" x="199.357084" y="256.32" style="stroke: #000000; stroke-width: 0.6"/>
      </g>
     </g>
    </g>
    <g id="xtick_9">
     <g id="line2d_17">
      <path d="M 274.055133 256.32 
L 274.055133 34.56 
" clip-path="url(#p820ebffb52)" style="fill: none; stroke: #b0b0b0; stroke-width: 0.8; stroke-linecap: square"/>
     </g>
     <g id="line2d_18">
      <g>
       <use xlink:href="#mf9cbd648b5" x="274.055133" y="256.32" style="stroke: #000000; stroke-width: 0.6"/>
      </g>
     </g>
    </g>
    <g id="xtick_10">
     <g id="line2d_19">
      <path d="M 311.404157 256.32 
L 311.404157 34.56 
" clip-path="url(#p820ebffb52)" style="fill: none; stroke: #b0b0b0; stroke-width: 0.8; stroke-linecap: square"/>
     </g>
     <g id="line2d_20">
      <g>
       <use xlink:href="#mf9cbd648b5" x="311.404157" y="256.32" style="stroke: #000000; stroke-width: 0.6"/>
      </g>
     </g>
    </g>
    <g id="xtick_11">
     <g id="line2d_21">
      <path d="M 386.102205 256.32 
L 386.102205 34.56 
" clip-path="url(#p820ebffb52)" style="fill: none; stroke: #b0b0b0; stroke-width: 0.8; stroke-linecap: square"/>
     </g>
     <g id="line2d_22">
      <g>
       <use xlink:href="#mf9cbd648b5" x="386.102205" y="256.32" style="stroke: #000000; stroke-width: 0.6"/>
      </g>
     </g>
    </g>
    <g id="xtick_12">
     <g id="line2d_23">
      <path d="M 423.451229 256.32 
L 423.451229 34.56 
" clip-path="url(#p820ebffb52)" style="fill: none; stroke: #b0b0b0; stroke-width: 0.8; stroke-linecap: square"/>
     </g>
     <g id="line2d_24">
      <g>
       <use xlink:href="#mf9cbd648b5" x="423.451229" y="256.32" style="stroke: #000000; stroke-width: 0.6"/>
      </g>
     </g>
    </g>
    <g id="xtick_13">
     <g id="line2d_25">
      <path d="M 498.149277 256.32 
L 498.149277 34.56 
" clip-path="url(#p820ebffb52)" style="fill: none; stroke: #b0b0b0; stroke-width: 0.8; stroke-linecap: square"/>
     </g>
     <g id="line2d_26">
      <g>
       <use xlink:href="#mf9cbd648b5" x="498.149277" y="256.32" style="stroke: #000000; stroke-width: 0.6"/>
      </g>
     </g>
    </g>
    <g id="xtick_14">
     <g id="line2d_27">
      <path d="M 535.498301 256.32 
L 535.498301 34.56 
" clip-path="url(#p820ebffb52)" style="fill: none; stroke: #b0b0b0; stroke-width: 0.8; stroke-linecap: square"/>
     </g>
     <g id="line2d_28">
      <g>
       <use xlink:href="#mf9cbd648b5" x="535.498301" y="256.32" style="stroke: #000000; stroke-width: 0.6"/>
      </g>
     </g>
    </g>
    <g id="xtick_15">
     <g id="line2d_29">
      <path d="M 610.196349 256.32 
L 610.196349 34.56 
" clip-path="url(#p820ebffb52)" style="fill: none; stroke: #b0b0b0; stroke-width: 0.8; stroke-linecap: square"/>
     </g>
     <g id="line2d_30">
      <g>
       <use xlink:href="#mf9cbd648b5" x="610.196349" y="256.32" style="stroke: #000000; stroke-width: 0.6"/>
      </g>
     </g>
    </g>
    <g id="xtick_16">
     <g id="line2d_31">
      <path d="M 647.545373 256.32 
L 647.545373 34.56 
" clip-path="url(#p820ebffb52)" style="fill: none; stroke: #b0b0b0; stroke-width: 0.8; stroke-linecap: square"/>
     </g>
     <g id="line2d_32">
      <g>
       <use xlink:href="#mf9cbd648b5" x="647.545373" y="256.32" style="stroke: #000000; stroke-width: 0.6"/>
      </g>
     </g>
    </g>
    <g id="text_7">
     <!-- Epoch -->
     <g transform="translate(390.589063 284.596563) scale(0.1 -0.1)">
      <defs>
       <path id="DejaVuSans-45" d="M 628 4666 
L 3578 4666 
L 3578 4134 
L 1259 4134 
L 1259 2753 
L 3481 2753 
L 3481 2222 
L 1259 2222 
L 1259 531 
L 3634 531 
L 3634 0 
L 628 0 
L 628 4666 
z
" transform="scale(0.015625)"/>
       <path id="DejaVuSans-70" d="M 1159 525 
L 1159 -1331 
L 581 -1331 
L 581 3500 
L 1159 3500 
L 1159 2969 
Q 1341 3281 1617 3432 
Q 1894 3584 2278 3584 
Q 2916 3584 3314 3078 
Q 3713 2572 3713 1747 
Q 3713 922 3314 415 
Q 2916 -91 2278 -91 
Q 1894 -91 1617 61 
Q 1341 213 1159 525 
z
M 3116 1747 
Q 3116 2381 2855 2742 
Q 2594 3103 2138 3103 
Q 1681 3103 1420 2742 
Q 1159 2381 1159 1747 
Q 1159 1113 1420 752 
Q 1681 391 2138 391 
Q 2594 391 2855 752 
Q 3116 1113 3116 1747 
z
" transform="scale(0.015625)"/>
       <path id="DejaVuSans-6f" d="M 1959 3097 
Q 1497 3097 1228 2736 
Q 959 2375 959 1747 
Q 959 1119 1226 758 
Q 1494 397 1959 397 
Q 2419 397 2687 759 
Q 2956 1122 2956 1747 
Q 2956 2369 2687 2733 
Q 2419 3097 1959 3097 
z
M 1959 3584 
Q 2709 3584 3137 3096 
Q 3566 2609 3566 1747 
Q 3566 888 3137 398 
Q 2709 -91 1959 -91 
Q 1206 -91 779 398 
Q 353 888 353 1747 
Q 353 2609 779 3096 
Q 1206 3584 1959 3584 
z
" transform="scale(0.015625)"/>
       <path id="DejaVuSans-63" d="M 3122 3366 
L 3122 2828 
Q 2878 2963 2633 3030 
Q 2388 3097 2138 3097 
Q 1578 3097 1268 2742 
Q 959 2388 959 1747 
Q 959 1106 1268 751 
Q 1578 397 2138 397 
Q 2388 397 2633 464 
Q 2878 531 3122 666 
L 3122 134 
Q 2881 22 2623 -34 
Q 2366 -91 2075 -91 
Q 1284 -91 818 406 
Q 353 903 353 1747 
Q 353 2603 823 3093 
Q 1294 3584 2113 3584 
Q 2378 3584 2631 3529 
Q 2884 3475 3122 3366 
z
" transform="scale(0.015625)"/>
       <path id="DejaVuSans-68" d="M 3513 2113 
L 3513 0 
L 2938 0 
L 2938 2094 
Q 2938 2591 2744 2837 
Q 2550 3084 2163 3084 
Q 1697 3084 1428 2787 
Q 1159 2491 1159 1978 
L 1159 0 
L 581 0 
L 581 4863 
L 1159 4863 
L 1159 2956 
Q 1366 3272 1645 3428 
Q 1925 3584 2291 3584 
Q 2894 3584 3203 3211 
Q 3513 2838 3513 2113 
z
" transform="scale(0.015625)"/>
      </defs>
      <use xlink:href="#DejaVuSans-45"/>
      <use xlink:href="#DejaVuSans-70" x="63.183594"/>
      <use xlink:href="#DejaVuSans-6f" x="126.660156"/>
      <use xlink:href="#DejaVuSans-63" x="187.841797"/>
      <use xlink:href="#DejaVuSans-68" x="242.822266"/>
     </g>
    </g>
   </g>
   <g id="matplotlib.axis_2">
    <g id="ytick_1">
     <g id="line2d_33">
      <path d="M 99 252.443073 
L 712.8 252.443073 
" clip-path="url(#p820ebffb52)" style="fill: none; stroke: #b0b0b0; stroke-width: 0.8; stroke-linecap: square"/>
     </g>
     <g id="line2d_34">
      <defs>
       <path id="m0719b8437b" d="M 0 0 
L -3.5 0 
" style="stroke: #000000; stroke-width: 0.8"/>
      </defs>
      <g>
       <use xlink:href="#m0719b8437b" x="99" y="252.443073" style="stroke: #000000; stroke-width: 0.8"/>
      </g>
     </g>
     <g id="text_8">
      <!-- 0.60 -->
      <g transform="translate(69.734375 256.242292) scale(0.1 -0.1)">
       <defs>
        <path id="DejaVuSans-2e" d="M 684 794 
L 1344 794 
L 1344 0 
L 684 0 
L 684 794 
z
" transform="scale(0.015625)"/>
        <path id="DejaVuSans-36" d="M 2113 2584 
Q 1688 2584 1439 2293 
Q 1191 2003 1191 1497 
Q 1191 994 1439 701 
Q 1688 409 2113 409 
Q 2538 409 2786 701 
Q 3034 994 3034 1497 
Q 3034 2003 2786 2293 
Q 2538 2584 2113 2584 
z
M 3366 4563 
L 3366 3988 
Q 3128 4100 2886 4159 
Q 2644 4219 2406 4219 
Q 1781 4219 1451 3797 
Q 1122 3375 1075 2522 
Q 1259 2794 1537 2939 
Q 1816 3084 2150 3084 
Q 2853 3084 3261 2657 
Q 3669 2231 3669 1497 
Q 3669 778 3244 343 
Q 2819 -91 2113 -91 
Q 1303 -91 875 529 
Q 447 1150 447 2328 
Q 447 3434 972 4092 
Q 1497 4750 2381 4750 
Q 2619 4750 2861 4703 
Q 3103 4656 3366 4563 
z
" transform="scale(0.015625)"/>
       </defs>
       <use xlink:href="#DejaVuSans-30"/>
       <use xlink:href="#DejaVuSans-2e" x="63.623047"/>
       <use xlink:href="#DejaVuSans-36" x="95.410156"/>
       <use xlink:href="#DejaVuSans-30" x="159.033203"/>
      </g>
     </g>
    </g>
    <g id="ytick_2">
     <g id="line2d_35">
      <path d="M 99 224.529227 
L 712.8 224.529227 
" clip-path="url(#p820ebffb52)" style="fill: none; stroke: #b0b0b0; stroke-width: 0.8; stroke-linecap: square"/>
     </g>
     <g id="line2d_36">
      <g>
       <use xlink:href="#m0719b8437b" x="99" y="224.529227" style="stroke: #000000; stroke-width: 0.8"/>
      </g>
     </g>
     <g id="text_9">
      <!-- 0.65 -->
      <g transform="translate(69.734375 228.328445) scale(0.1 -0.1)">
       <use xlink:href="#DejaVuSans-30"/>
       <use xlink:href="#DejaVuSans-2e" x="63.623047"/>
       <use xlink:href="#DejaVuSans-36" x="95.410156"/>
       <use xlink:href="#DejaVuSans-35" x="159.033203"/>
      </g>
     </g>
    </g>
    <g id="ytick_3">
     <g id="line2d_37">
      <path d="M 99 196.61538 
L 712.8 196.61538 
" clip-path="url(#p820ebffb52)" style="fill: none; stroke: #b0b0b0; stroke-width: 0.8; stroke-linecap: square"/>
     </g>
     <g id="line2d_38">
      <g>
       <use xlink:href="#m0719b8437b" x="99" y="196.61538" style="stroke: #000000; stroke-width: 0.8"/>
      </g>
     </g>
     <g id="text_10">
      <!-- 0.70 -->
      <g transform="translate(69.734375 200.414599) scale(0.1 -0.1)">
       <defs>
        <path id="DejaVuSans-37" d="M 525 4666 
L 3525 4666 
L 3525 4397 
L 1831 0 
L 1172 0 
L 2766 4134 
L 525 4134 
L 525 4666 
z
" transform="scale(0.015625)"/>
       </defs>
       <use xlink:href="#DejaVuSans-30"/>
       <use xlink:href="#DejaVuSans-2e" x="63.623047"/>
       <use xlink:href="#DejaVuSans-37" x="95.410156"/>
       <use xlink:href="#DejaVuSans-30" x="159.033203"/>
      </g>
     </g>
    </g>
    <g id="ytick_4">
     <g id="line2d_39">
      <path d="M 99 168.701533 
L 712.8 168.701533 
" clip-path="url(#p820ebffb52)" style="fill: none; stroke: #b0b0b0; stroke-width: 0.8; stroke-linecap: square"/>
     </g>
     <g id="line2d_40">
      <g>
       <use xlink:href="#m0719b8437b" x="99" y="168.701533" style="stroke: #000000; stroke-width: 0.8"/>
      </g>
     </g>
     <g id="text_11">
      <!-- 0.75 -->
      <g transform="translate(69.734375 172.500752) scale(0.1 -0.1)">
       <use xlink:href="#DejaVuSans-30"/>
       <use xlink:href="#DejaVuSans-2e" x="63.623047"/>
       <use xlink:href="#DejaVuSans-37" x="95.410156"/>
       <use xlink:href="#DejaVuSans-35" x="159.033203"/>
      </g>
     </g>
    </g>
    <g id="ytick_5">
     <g id="line2d_41">
      <path d="M 99 140.787687 
L 712.8 140.787687 
" clip-path="url(#p820ebffb52)" style="fill: none; stroke: #b0b0b0; stroke-width: 0.8; stroke-linecap: square"/>
     </g>
     <g id="line2d_42">
      <g>
       <use xlink:href="#m0719b8437b" x="99" y="140.787687" style="stroke: #000000; stroke-width: 0.8"/>
      </g>
     </g>
     <g id="text_12">
      <!-- 0.80 -->
      <g transform="translate(69.734375 144.586905) scale(0.1 -0.1)">
       <defs>
        <path id="DejaVuSans-38" d="M 2034 2216 
Q 1584 2216 1326 1975 
Q 1069 1734 1069 1313 
Q 1069 891 1326 650 
Q 1584 409 2034 409 
Q 2484 409 2743 651 
Q 3003 894 3003 1313 
Q 3003 1734 2745 1975 
Q 2488 2216 2034 2216 
z
M 1403 2484 
Q 997 2584 770 2862 
Q 544 3141 544 3541 
Q 544 4100 942 4425 
Q 1341 4750 2034 4750 
Q 2731 4750 3128 4425 
Q 3525 4100 3525 3541 
Q 3525 3141 3298 2862 
Q 3072 2584 2669 2484 
Q 3125 2378 3379 2068 
Q 3634 1759 3634 1313 
Q 3634 634 3220 271 
Q 2806 -91 2034 -91 
Q 1263 -91 848 271 
Q 434 634 434 1313 
Q 434 1759 690 2068 
Q 947 2378 1403 2484 
z
M 1172 3481 
Q 1172 3119 1398 2916 
Q 1625 2713 2034 2713 
Q 2441 2713 2670 2916 
Q 2900 3119 2900 3481 
Q 2900 3844 2670 4047 
Q 2441 4250 2034 4250 
Q 1625 4250 1398 4047 
Q 1172 3844 1172 3481 
z
" transform="scale(0.015625)"/>
       </defs>
       <use xlink:href="#DejaVuSans-30"/>
       <use xlink:href="#DejaVuSans-2e" x="63.623047"/>
       <use xlink:href="#DejaVuSans-38" x="95.410156"/>
       <use xlink:href="#DejaVuSans-30" x="159.033203"/>
      </g>
     </g>
    </g>
    <g id="ytick_6">
     <g id="line2d_43">
      <path d="M 99 112.87384 
L 712.8 112.87384 
" clip-path="url(#p820ebffb52)" style="fill: none; stroke: #b0b0b0; stroke-width: 0.8; stroke-linecap: square"/>
     </g>
     <g id="line2d_44">
      <g>
       <use xlink:href="#m0719b8437b" x="99" y="112.87384" style="stroke: #000000; stroke-width: 0.8"/>
      </g>
     </g>
     <g id="text_13">
      <!-- 0.85 -->
      <g transform="translate(69.734375 116.673059) scale(0.1 -0.1)">
       <use xlink:href="#DejaVuSans-30"/>
       <use xlink:href="#DejaVuSans-2e" x="63.623047"/>
       <use xlink:href="#DejaVuSans-38" x="95.410156"/>
       <use xlink:href="#DejaVuSans-35" x="159.033203"/>
      </g>
     </g>
    </g>
    <g id="ytick_7">
     <g id="line2d_45">
      <path d="M 99 84.959993 
L 712.8 84.959993 
" clip-path="url(#p820ebffb52)" style="fill: none; stroke: #b0b0b0; stroke-width: 0.8; stroke-linecap: square"/>
     </g>
     <g id="line2d_46">
      <g>
       <use xlink:href="#m0719b8437b" x="99" y="84.959993" style="stroke: #000000; stroke-width: 0.8"/>
      </g>
     </g>
     <g id="text_14">
      <!-- 0.90 -->
      <g transform="translate(69.734375 88.759212) scale(0.1 -0.1)">
       <defs>
        <path id="DejaVuSans-39" d="M 703 97 
L 703 672 
Q 941 559 1184 500 
Q 1428 441 1663 441 
Q 2288 441 2617 861 
Q 2947 1281 2994 2138 
Q 2813 1869 2534 1725 
Q 2256 1581 1919 1581 
Q 1219 1581 811 2004 
Q 403 2428 403 3163 
Q 403 3881 828 4315 
Q 1253 4750 1959 4750 
Q 2769 4750 3195 4129 
Q 3622 3509 3622 2328 
Q 3622 1225 3098 567 
Q 2575 -91 1691 -91 
Q 1453 -91 1209 -44 
Q 966 3 703 97 
z
M 1959 2075 
Q 2384 2075 2632 2365 
Q 2881 2656 2881 3163 
Q 2881 3666 2632 3958 
Q 2384 4250 1959 4250 
Q 1534 4250 1286 3958 
Q 1038 3666 1038 3163 
Q 1038 2656 1286 2365 
Q 1534 2075 1959 2075 
z
" transform="scale(0.015625)"/>
       </defs>
       <use xlink:href="#DejaVuSans-30"/>
       <use xlink:href="#DejaVuSans-2e" x="63.623047"/>
       <use xlink:href="#DejaVuSans-39" x="95.410156"/>
       <use xlink:href="#DejaVuSans-30" x="159.033203"/>
      </g>
     </g>
    </g>
    <g id="ytick_8">
     <g id="line2d_47">
      <path d="M 99 57.046147 
L 712.8 57.046147 
" clip-path="url(#p820ebffb52)" style="fill: none; stroke: #b0b0b0; stroke-width: 0.8; stroke-linecap: square"/>
     </g>
     <g id="line2d_48">
      <g>
       <use xlink:href="#m0719b8437b" x="99" y="57.046147" style="stroke: #000000; stroke-width: 0.8"/>
      </g>
     </g>
     <g id="text_15">
      <!-- 0.95 -->
      <g transform="translate(69.734375 60.845365) scale(0.1 -0.1)">
       <use xlink:href="#DejaVuSans-30"/>
       <use xlink:href="#DejaVuSans-2e" x="63.623047"/>
       <use xlink:href="#DejaVuSans-39" x="95.410156"/>
       <use xlink:href="#DejaVuSans-35" x="159.033203"/>
      </g>
     </g>
    </g>
    <g id="text_16">
     <!-- Accuracy (%) -->
     <g transform="translate(63.654687 178.509531) rotate(-90) scale(0.1 -0.1)">
      <defs>
       <path id="DejaVuSans-41" d="M 2188 4044 
L 1331 1722 
L 3047 1722 
L 2188 4044 
z
M 1831 4666 
L 2547 4666 
L 4325 0 
L 3669 0 
L 3244 1197 
L 1141 1197 
L 716 0 
L 50 0 
L 1831 4666 
z
" transform="scale(0.015625)"/>
       <path id="DejaVuSans-75" d="M 544 1381 
L 544 3500 
L 1119 3500 
L 1119 1403 
Q 1119 906 1312 657 
Q 1506 409 1894 409 
Q 2359 409 2629 706 
Q 2900 1003 2900 1516 
L 2900 3500 
L 3475 3500 
L 3475 0 
L 2900 0 
L 2900 538 
Q 2691 219 2414 64 
Q 2138 -91 1772 -91 
Q 1169 -91 856 284 
Q 544 659 544 1381 
z
M 1991 3584 
L 1991 3584 
z
" transform="scale(0.015625)"/>
       <path id="DejaVuSans-72" d="M 2631 2963 
Q 2534 3019 2420 3045 
Q 2306 3072 2169 3072 
Q 1681 3072 1420 2755 
Q 1159 2438 1159 1844 
L 1159 0 
L 581 0 
L 581 3500 
L 1159 3500 
L 1159 2956 
Q 1341 3275 1631 3429 
Q 1922 3584 2338 3584 
Q 2397 3584 2469 3576 
Q 2541 3569 2628 3553 
L 2631 2963 
z
" transform="scale(0.015625)"/>
       <path id="DejaVuSans-61" d="M 2194 1759 
Q 1497 1759 1228 1600 
Q 959 1441 959 1056 
Q 959 750 1161 570 
Q 1363 391 1709 391 
Q 2188 391 2477 730 
Q 2766 1069 2766 1631 
L 2766 1759 
L 2194 1759 
z
M 3341 1997 
L 3341 0 
L 2766 0 
L 2766 531 
Q 2569 213 2275 61 
Q 1981 -91 1556 -91 
Q 1019 -91 701 211 
Q 384 513 384 1019 
Q 384 1609 779 1909 
Q 1175 2209 1959 2209 
L 2766 2209 
L 2766 2266 
Q 2766 2663 2505 2880 
Q 2244 3097 1772 3097 
Q 1472 3097 1187 3025 
Q 903 2953 641 2809 
L 641 3341 
Q 956 3463 1253 3523 
Q 1550 3584 1831 3584 
Q 2591 3584 2966 3190 
Q 3341 2797 3341 1997 
z
" transform="scale(0.015625)"/>
       <path id="DejaVuSans-79" d="M 2059 -325 
Q 1816 -950 1584 -1140 
Q 1353 -1331 966 -1331 
L 506 -1331 
L 506 -850 
L 844 -850 
Q 1081 -850 1212 -737 
Q 1344 -625 1503 -206 
L 1606 56 
L 191 3500 
L 800 3500 
L 1894 763 
L 2988 3500 
L 3597 3500 
L 2059 -325 
z
" transform="scale(0.015625)"/>
       <path id="DejaVuSans-20" transform="scale(0.015625)"/>
       <path id="DejaVuSans-28" d="M 1984 4856 
Q 1566 4138 1362 3434 
Q 1159 2731 1159 2009 
Q 1159 1288 1364 580 
Q 1569 -128 1984 -844 
L 1484 -844 
Q 1016 -109 783 600 
Q 550 1309 550 2009 
Q 550 2706 781 3412 
Q 1013 4119 1484 4856 
L 1984 4856 
z
" transform="scale(0.015625)"/>
       <path id="DejaVuSans-25" d="M 4653 2053 
Q 4381 2053 4226 1822 
Q 4072 1591 4072 1178 
Q 4072 772 4226 539 
Q 4381 306 4653 306 
Q 4919 306 5073 539 
Q 5228 772 5228 1178 
Q 5228 1588 5073 1820 
Q 4919 2053 4653 2053 
z
M 4653 2450 
Q 5147 2450 5437 2106 
Q 5728 1763 5728 1178 
Q 5728 594 5436 251 
Q 5144 -91 4653 -91 
Q 4153 -91 3862 251 
Q 3572 594 3572 1178 
Q 3572 1766 3864 2108 
Q 4156 2450 4653 2450 
z
M 1428 4353 
Q 1159 4353 1004 4120 
Q 850 3888 850 3481 
Q 850 3069 1003 2837 
Q 1156 2606 1428 2606 
Q 1700 2606 1854 2837 
Q 2009 3069 2009 3481 
Q 2009 3884 1853 4118 
Q 1697 4353 1428 4353 
z
M 4250 4750 
L 4750 4750 
L 1831 -91 
L 1331 -91 
L 4250 4750 
z
M 1428 4750 
Q 1922 4750 2215 4408 
Q 2509 4066 2509 3481 
Q 2509 2891 2217 2550 
Q 1925 2209 1428 2209 
Q 931 2209 642 2551 
Q 353 2894 353 3481 
Q 353 4063 643 4406 
Q 934 4750 1428 4750 
z
" transform="scale(0.015625)"/>
       <path id="DejaVuSans-29" d="M 513 4856 
L 1013 4856 
Q 1481 4119 1714 3412 
Q 1947 2706 1947 2009 
Q 1947 1309 1714 600 
Q 1481 -109 1013 -844 
L 513 -844 
Q 928 -128 1133 580 
Q 1338 1288 1338 2009 
Q 1338 2731 1133 3434 
Q 928 4138 513 4856 
z
" transform="scale(0.015625)"/>
      </defs>
      <use xlink:href="#DejaVuSans-41"/>
      <use xlink:href="#DejaVuSans-63" x="66.658203"/>
      <use xlink:href="#DejaVuSans-63" x="121.638672"/>
      <use xlink:href="#DejaVuSans-75" x="176.619141"/>
      <use xlink:href="#DejaVuSans-72" x="239.998047"/>
      <use xlink:href="#DejaVuSans-61" x="281.111328"/>
      <use xlink:href="#DejaVuSans-63" x="342.390625"/>
      <use xlink:href="#DejaVuSans-79" x="397.371094"/>
      <use xlink:href="#DejaVuSans-20" x="456.550781"/>
      <use xlink:href="#DejaVuSans-28" x="488.337891"/>
      <use xlink:href="#DejaVuSans-25" x="527.351562"/>
      <use xlink:href="#DejaVuSans-29" x="622.371094"/>
     </g>
    </g>
   </g>
   <g id="line2d_49">
    <path d="M 126.9 246.24 
L 129.140964 184.209233 
L 131.381928 173.870778 
L 133.622892 160.947683 
L 135.863855 165.599987 
L 138.104819 163.532289 
L 140.345783 155.40921 
L 142.586747 149.316925 
L 144.827711 144.57847 
L 147.068675 140.78768 
L 149.309639 139.095933 
L 151.550602 140.270772 
L 153.791566 136.493259 
L 156.03253 136.578445 
L 158.273494 138.719982 
L 160.514458 138.655394 
L 162.755422 137.686133 
L 164.996386 135.101528 
L 167.237349 135.23756 
L 169.478313 133.809225 
L 171.719277 133.255381 
L 173.960241 133.456767 
L 176.201205 130.943671 
L 180.683133 127.761231 
L 182.924096 129.335846 
L 185.16506 128.496395 
L 187.406024 127.163063 
L 189.646988 128.595424 
L 191.887952 126.83077 
L 194.128916 127.180932 
L 196.36988 128.478459 
L 198.610843 128.757478 
L 203.092771 131.926142 
L 205.333735 129.501527 
L 207.574699 130.560998 
L 209.815663 129.932317 
L 212.056627 131.721662 
L 214.29759 131.483073 
L 216.538554 132.39084 
L 218.779518 132.147693 
L 221.020482 133.358436 
L 223.261446 132.399425 
L 225.50241 131.827679 
L 227.743373 132.292177 
L 229.984337 132.406945 
L 234.466265 133.888355 
L 236.707229 133.964291 
L 238.948193 91.163067 
L 243.43012 122.178467 
L 245.671084 126.055375 
L 247.912048 140.78768 
L 250.153012 142.855378 
L 252.393976 133.255381 
L 254.63494 131.870771 
L 256.875904 129.07077 
L 259.116867 128.381527 
L 261.357831 124.998033 
L 263.598795 119.593828 
L 265.839759 123.371341 
L 268.080723 121.070779 
L 270.321687 118.043071 
L 272.562651 121.20924 
L 274.803614 121.266241 
L 277.044578 120.455374 
L 279.285542 118.097477 
L 281.526506 124.504618 
L 283.76747 126.609219 
L 286.008434 125.702917 
L 288.249398 126.223951 
L 290.490361 126.055375 
L 292.731325 129.001856 
L 294.972289 130.528754 
L 297.213253 131.368205 
L 301.695181 129.664912 
L 303.936145 130.449224 
L 306.177108 128.681675 
L 308.418072 131.386141 
L 310.659036 131.107122 
L 312.9 131.756734 
L 315.140964 131.040005 
L 317.381928 129.932317 
L 319.622892 129.303602 
L 321.863855 129.524221 
L 324.104819 128.540585 
L 326.345783 128.769224 
L 328.586747 130.121424 
L 330.827711 129.563087 
L 333.068675 129.39135 
L 335.309639 128.522517 
L 337.550602 128.381527 
L 339.791566 129.595165 
L 342.03253 130.097265 
L 344.273494 131.547695 
L 346.514458 131.040005 
L 348.755422 130.242448 
L 353.237349 114.424617 
L 355.478313 111.839978 
L 357.719277 110.547675 
L 359.960241 109.772313 
L 362.201205 114.424617 
L 364.442169 108.886143 
L 366.683133 118.301525 
L 368.924096 115.286163 
L 371.16506 115.975373 
L 373.406024 110.900133 
L 375.646988 113.132314 
L 377.887952 115.021054 
L 380.128916 114.424617 
L 382.36988 114.941524 
L 384.610843 109.578448 
L 386.851807 107.582992 
L 389.092771 106.670767 
L 391.333735 108.303149 
L 393.574699 107.446162 
L 395.815663 108.147684 
L 398.056627 113.014817 
L 400.29759 113.413229 
L 402.538554 112.486162 
L 404.779518 111.012905 
L 407.020482 110.845927 
L 409.261446 108.393826 
L 411.50241 109.439987 
L 413.743373 109.344518 
L 418.225301 110.172489 
L 420.466265 109.578448 
L 422.707229 109.490333 
L 424.948193 108.039105 
L 427.189157 108.443074 
L 429.43012 107.963069 
L 431.671084 108.766383 
L 433.912048 108.303149 
L 436.153012 109.454196 
L 438.393976 110.935373 
L 440.63494 110.453138 
L 445.116867 111.719785 
L 447.357831 110.19525 
L 449.598795 109.772313 
L 451.839759 109.704863 
L 454.080723 107.990555 
L 456.321687 108.609221 
L 458.562651 107.620228 
L 460.803614 107.601227 
L 463.044578 44.64 
L 465.285542 67.901517 
L 467.526506 65.316911 
L 469.76747 67.901517 
L 472.008434 63.249213 
L 474.249398 75.655367 
L 476.490361 75.655367 
L 478.731325 77.593854 
L 480.972289 79.101519 
L 483.213253 84.960007 
L 485.454217 81.294533 
L 487.695181 79.532308 
L 489.936145 80.426964 
L 492.177108 78.978464 
L 494.418072 78.756913 
L 496.659036 80.501535 
L 498.9 80.216461 
L 501.140964 77.378459 
L 503.381928 77.287782 
L 505.622892 77.981518 
L 514.586747 77.593854 
L 516.827711 80.617835 
L 521.309639 82.54767 
L 523.550602 81.19384 
L 528.03253 81.85846 
L 530.273494 81.658372 
L 534.755422 85.053978 
L 536.996386 83.865329 
L 539.237349 83.630768 
L 541.478313 82.54767 
L 543.719277 81.942282 
L 545.960241 82.18493 
L 548.201205 81.619872 
L 550.442169 81.85846 
L 552.683133 80.950693 
L 554.924096 80.824611 
L 557.16506 81.425674 
L 561.646988 81.169216 
L 563.887952 81.386475 
L 566.128916 80.604657 
L 570.610843 79.769665 
L 572.851807 79.997539 
L 575.092771 44.64 
L 579.574699 44.64 
L 581.815663 52.39385 
L 584.056627 47.741547 
L 586.29759 47.224606 
L 588.538554 44.64 
L 590.779518 46.578454 
L 593.020482 53.255363 
L 595.261446 55.495363 
L 597.50241 54.508533 
L 599.743373 52.39385 
L 601.984337 55.376103 
L 604.225301 56.824602 
L 606.466265 57.046153 
L 608.707229 55.301531 
L 610.948193 57.411024 
L 613.189157 59.286154 
L 615.43012 58.515284 
L 617.671084 57.046153 
L 622.153012 58.7379 
L 626.63494 57.563061 
L 628.875904 56.425824 
L 631.116867 57.165447 
L 633.357831 58.424607 
L 637.839759 57.473948 
L 640.080723 57.563061 
L 642.321687 57.146181 
L 644.562651 57.724616 
L 653.526506 57.993851 
L 660.249398 56.966624 
L 662.490361 56.270758 
L 664.731325 56.743542 
L 666.972289 56.824602 
L 669.213253 57.262547 
L 671.454217 56.975642 
L 673.695181 57.046153 
L 678.177108 56.518231 
L 680.418072 56.593834 
L 682.659036 57.29935 
L 684.9 57.046153 
L 684.9 57.046153 
" clip-path="url(#p820ebffb52)" style="fill: none; stroke: #1f77b4; stroke-opacity: 0.5; stroke-width: 1.5; stroke-linecap: square"/>
   </g>
   <g id="line2d_50">
    <path d="M 126.9 246.24 
L 129.140964 197.993848 
L 131.381928 180.351603 
L 133.622892 166.39868 
L 135.863855 165.827096 
L 138.104819 164.187056 
L 142.586747 151.773585 
L 144.827711 146.634152 
L 147.068675 142.458086 
L 149.309639 140.056546 
L 151.550602 140.209565 
L 153.791566 137.55506 
L 156.03253 136.857478 
L 158.273494 138.187838 
L 160.514458 138.521806 
L 162.755422 137.924897 
L 164.996386 135.908205 
L 167.237349 135.429173 
L 169.478313 134.272067 
L 171.719277 133.545863 
L 173.960241 133.482223 
L 178.442169 129.966943 
L 180.683133 128.391434 
L 182.924096 129.066014 
L 185.16506 128.659143 
L 187.406024 127.590515 
L 189.646988 128.308307 
L 191.887952 127.252923 
L 194.128916 127.201501 
L 196.36988 128.113614 
L 198.610843 128.573517 
L 200.851807 129.869859 
L 203.092771 131.338633 
L 205.333735 130.026414 
L 207.574699 130.40826 
L 209.815663 130.0683 
L 212.056627 131.249273 
L 214.29759 131.416273 
L 216.538554 132.112392 
L 218.779518 132.137607 
L 221.020482 133.009628 
L 225.50241 132.040847 
L 229.984337 132.353638 
L 234.466265 133.615055 
L 236.707229 133.864509 
L 238.948193 103.363479 
L 241.189157 105.725827 
L 243.43012 117.477713 
L 245.671084 123.604614 
L 247.912048 135.878233 
L 250.153012 140.861908 
L 252.393976 135.428674 
L 254.63494 132.887315 
L 256.875904 130.161212 
L 259.116867 128.890008 
L 261.357831 126.110026 
L 263.598795 121.455599 
L 265.839759 122.823986 
L 268.080723 121.571695 
L 270.321687 119.051249 
L 272.562651 120.592671 
L 274.803614 121.073793 
L 277.044578 120.632065 
L 279.285542 118.821645 
L 281.526506 122.880912 
L 283.76747 125.543988 
L 286.008434 125.657509 
L 288.249398 126.06211 
L 290.490361 126.057299 
L 292.731325 128.160554 
L 294.972289 129.852125 
L 297.213253 130.935039 
L 299.454217 130.614412 
L 301.695181 129.936197 
L 303.936145 130.302645 
L 306.177108 129.14481 
L 308.418072 130.74576 
L 310.659036 131.003876 
L 312.9 131.541632 
L 315.140964 131.183327 
L 317.381928 130.289748 
L 319.622892 129.585358 
L 321.863855 129.541689 
L 324.104819 128.826615 
L 326.345783 128.785622 
L 328.586747 129.739766 
L 333.068675 129.454841 
L 335.309639 128.788895 
L 337.550602 128.497918 
L 339.791566 129.281666 
L 342.03253 129.864237 
L 344.273494 131.066707 
L 346.514458 131.047634 
L 348.755422 130.472501 
L 350.996386 124.548191 
L 353.237349 117.317066 
L 355.478313 113.40486 
L 357.719277 111.364014 
L 359.960241 110.227085 
L 362.201205 113.225322 
L 364.442169 110.125908 
L 366.683133 115.965635 
L 368.924096 115.480298 
L 371.16506 115.833923 
L 373.406024 112.309788 
L 375.646988 112.897306 
L 377.887952 114.414269 
L 380.128916 114.42166 
L 382.36988 114.792992 
L 384.610843 111.068318 
L 386.851807 108.578799 
L 389.092771 107.215919 
L 391.333735 107.992512 
L 393.574699 107.602262 
L 395.815663 107.991849 
L 398.056627 111.579683 
L 400.29759 112.889359 
L 402.538554 112.601361 
L 404.779518 111.46675 
L 407.020482 111.023305 
L 409.261446 109.145106 
L 411.50241 109.355735 
L 413.743373 109.347723 
L 418.225301 110.023493 
L 420.466265 109.705604 
L 422.707229 109.551839 
L 424.948193 108.471315 
L 427.189157 108.451143 
L 429.43012 108.102519 
L 431.671084 108.576708 
L 433.912048 108.381309 
L 436.153012 109.147657 
L 438.393976 110.424597 
L 440.63494 110.444983 
L 445.116867 111.489543 
L 447.357831 110.565048 
L 449.598795 109.998809 
L 451.839759 109.788848 
L 454.080723 108.504353 
L 456.321687 108.579259 
L 458.562651 107.894237 
L 460.803614 107.684944 
L 463.044578 62.652841 
L 465.285542 66.401895 
L 467.526506 65.626907 
L 469.76747 67.251628 
L 472.008434 64.39276 
L 474.249398 72.437479 
L 476.490361 74.73597 
L 478.731325 76.777316 
L 480.972289 78.437461 
L 483.213253 83.096422 
L 485.454217 81.809359 
L 487.695181 80.182894 
L 489.936145 80.35723 
L 492.177108 79.372397 
L 494.418072 78.932766 
L 496.659036 80.053316 
L 498.9 80.169848 
L 501.140964 78.175999 
L 503.381928 77.541559 
L 505.622892 77.855816 
L 510.104819 77.797608 
L 514.586747 77.627682 
L 516.827711 79.763505 
L 519.068675 81.089481 
L 521.309639 82.131045 
L 523.550602 81.461613 
L 525.791566 81.515899 
L 528.03253 81.760586 
L 530.273494 81.687576 
L 532.514458 82.917319 
L 534.755422 84.443504 
L 536.996386 84.030522 
L 539.237349 83.744983 
L 541.478313 82.88976 
L 543.719277 82.21299 
L 545.960241 82.192947 
L 548.201205 81.783608 
L 550.442169 81.837074 
L 552.683133 81.203945 
L 554.924096 80.932992 
L 557.16506 81.284908 
L 563.887952 81.334406 
L 568.36988 80.359802 
L 570.610843 79.938276 
L 572.851807 79.980606 
L 575.092771 54.737316 
L 577.333735 47.524947 
L 579.574699 45.464271 
L 581.815663 50.41397 
L 584.056627 48.505096 
L 586.29759 47.59046 
L 588.538554 45.482989 
L 590.779518 46.265464 
L 593.020482 51.258249 
L 595.261446 54.284759 
L 597.50241 54.444598 
L 599.743373 52.979778 
L 601.984337 54.691438 
L 604.225301 56.215127 
L 606.466265 56.808717 
L 608.707229 55.732156 
L 610.948193 56.931347 
L 613.189157 58.613352 
L 615.43012 58.543304 
L 617.671084 57.473911 
L 619.912048 57.801325 
L 622.153012 58.470307 
L 624.393976 58.223629 
L 626.63494 57.751795 
L 628.875904 56.804673 
L 631.116867 57.062369 
L 633.357831 58.035396 
L 635.598795 57.961749 
L 637.839759 57.61332 
L 640.080723 57.577421 
L 642.321687 57.269392 
L 644.562651 57.594552 
L 649.044578 57.83078 
L 653.526506 57.967976 
L 658.008434 57.416045 
L 660.249398 57.09503 
L 662.490361 56.506265 
L 669.213253 57.125268 
L 671.454217 57.018392 
L 673.695181 57.038222 
L 678.177108 56.613378 
L 680.418072 56.599418 
L 682.659036 57.099369 
L 684.9 57.061358 
L 684.9 57.061358 
" clip-path="url(#p820ebffb52)" style="fill: none; stroke: #1f77b4; stroke-width: 1.5; stroke-linecap: square"/>
   </g>
   <g id="patch_3">
    <path d="M 99 256.32 
L 99 34.56 
" style="fill: none; stroke: #000000; stroke-width: 0.8; stroke-linejoin: miter; stroke-linecap: square"/>
   </g>
   <g id="patch_4">
    <path d="M 712.8 256.32 
L 712.8 34.56 
" style="fill: none; stroke: #000000; stroke-width: 0.8; stroke-linejoin: miter; stroke-linecap: square"/>
   </g>
   <g id="patch_5">
    <path d="M 99 256.32 
L 712.8 256.32 
" style="fill: none; stroke: #000000; stroke-width: 0.8; stroke-linejoin: miter; stroke-linecap: square"/>
   </g>
   <g id="patch_6">
    <path d="M 99 34.56 
L 712.8 34.56 
" style="fill: none; stroke: #000000; stroke-width: 0.8; stroke-linejoin: miter; stroke-linecap: square"/>
   </g>
   <g id="text_17">
    <!-- TestCNN -->
    <g transform="translate(380.918438 28.56) scale(0.12 -0.12)">
     <defs>
      <path id="DejaVuSans-54" d="M -19 4666 
L 3928 4666 
L 3928 4134 
L 2272 4134 
L 2272 0 
L 1638 0 
L 1638 4134 
L -19 4134 
L -19 4666 
z
" transform="scale(0.015625)"/>
      <path id="DejaVuSans-65" d="M 3597 1894 
L 3597 1613 
L 953 1613 
Q 991 1019 1311 708 
Q 1631 397 2203 397 
Q 2534 397 2845 478 
Q 3156 559 3463 722 
L 3463 178 
Q 3153 47 2828 -22 
Q 2503 -91 2169 -91 
Q 1331 -91 842 396 
Q 353 884 353 1716 
Q 353 2575 817 3079 
Q 1281 3584 2069 3584 
Q 2775 3584 3186 3129 
Q 3597 2675 3597 1894 
z
M 3022 2063 
Q 3016 2534 2758 2815 
Q 2500 3097 2075 3097 
Q 1594 3097 1305 2825 
Q 1016 2553 972 2059 
L 3022 2063 
z
" transform="scale(0.015625)"/>
      <path id="DejaVuSans-73" d="M 2834 3397 
L 2834 2853 
Q 2591 2978 2328 3040 
Q 2066 3103 1784 3103 
Q 1356 3103 1142 2972 
Q 928 2841 928 2578 
Q 928 2378 1081 2264 
Q 1234 2150 1697 2047 
L 1894 2003 
Q 2506 1872 2764 1633 
Q 3022 1394 3022 966 
Q 3022 478 2636 193 
Q 2250 -91 1575 -91 
Q 1294 -91 989 -36 
Q 684 19 347 128 
L 347 722 
Q 666 556 975 473 
Q 1284 391 1588 391 
Q 1994 391 2212 530 
Q 2431 669 2431 922 
Q 2431 1156 2273 1281 
Q 2116 1406 1581 1522 
L 1381 1569 
Q 847 1681 609 1914 
Q 372 2147 372 2553 
Q 372 3047 722 3315 
Q 1072 3584 1716 3584 
Q 2034 3584 2315 3537 
Q 2597 3491 2834 3397 
z
" transform="scale(0.015625)"/>
      <path id="DejaVuSans-74" d="M 1172 4494 
L 1172 3500 
L 2356 3500 
L 2356 3053 
L 1172 3053 
L 1172 1153 
Q 1172 725 1289 603 
Q 1406 481 1766 481 
L 2356 481 
L 2356 0 
L 1766 0 
Q 1100 0 847 248 
Q 594 497 594 1153 
L 594 3053 
L 172 3053 
L 172 3500 
L 594 3500 
L 594 4494 
L 1172 4494 
z
" transform="scale(0.015625)"/>
      <path id="DejaVuSans-43" d="M 4122 4306 
L 4122 3641 
Q 3803 3938 3442 4084 
Q 3081 4231 2675 4231 
Q 1875 4231 1450 3742 
Q 1025 3253 1025 2328 
Q 1025 1406 1450 917 
Q 1875 428 2675 428 
Q 3081 428 3442 575 
Q 3803 722 4122 1019 
L 4122 359 
Q 3791 134 3420 21 
Q 3050 -91 2638 -91 
Q 1578 -91 968 557 
Q 359 1206 359 2328 
Q 359 3453 968 4101 
Q 1578 4750 2638 4750 
Q 3056 4750 3426 4639 
Q 3797 4528 4122 4306 
z
" transform="scale(0.015625)"/>
      <path id="DejaVuSans-4e" d="M 628 4666 
L 1478 4666 
L 3547 763 
L 3547 4666 
L 4159 4666 
L 4159 0 
L 3309 0 
L 1241 3903 
L 1241 0 
L 628 0 
L 628 4666 
z
" transform="scale(0.015625)"/>
     </defs>
     <use xlink:href="#DejaVuSans-54"/>
     <use xlink:href="#DejaVuSans-65" x="44.083984"/>
     <use xlink:href="#DejaVuSans-73" x="105.607422"/>
     <use xlink:href="#DejaVuSans-74" x="157.707031"/>
     <use xlink:href="#DejaVuSans-43" x="196.916016"/>
     <use xlink:href="#DejaVuSans-4e" x="266.740234"/>
     <use xlink:href="#DejaVuSans-4e" x="341.544922"/>
    </g>
   </g>
  </g>
 </g>
 <defs>
  <clipPath id="p820ebffb52">
   <rect x="99" y="34.56" width="613.8" height="221.76"/>
  </clipPath>
 </defs>
</svg>
