<?xml version="1.0" encoding="utf-8" standalone="no"?>
<!DOCTYPE svg PUBLIC "-//W3C//DTD SVG 1.1//EN"
  "http://www.w3.org/Graphics/SVG/1.1/DTD/svg11.dtd">
<svg xmlns:xlink="http://www.w3.org/1999/xlink" width="792pt" height="288pt" viewBox="0 0 792 288" xmlns="http://www.w3.org/2000/svg" version="1.1">
 <metadata>
  <rdf:RDF xmlns:dc="http://purl.org/dc/elements/1.1/" xmlns:cc="http://creativecommons.org/ns#" xmlns:rdf="http://www.w3.org/1999/02/22-rdf-syntax-ns#">
   <cc:Work>
    <dc:type rdf:resource="http://purl.org/dc/dcmitype/StillImage"/>
    <dc:date>2025-03-02T14:24:32.199920</dc:date>
    <dc:format>image/svg+xml</dc:format>
    <dc:creator>
     <cc:Agent>
      <dc:title>Matplotlib v3.9.4, https://matplotlib.org/</dc:title>
     </cc:Agent>
    </dc:creator>
   </cc:Work>
  </rdf:RDF>
 </metadata>
 <defs>
  <style type="text/css">*{stroke-linejoin: round; stroke-linecap: butt}</style>
 </defs>
 <g id="figure_1">
  <g id="patch_1">
   <path d="M 0 288 
L 792 288 
L 792 0 
L 0 0 
z
" style="fill: #ffffff"/>
  </g>
  <g id="axes_1">
   <g id="patch_2">
    <path d="M 99 256.32 
L 712.8 256.32 
L 712.8 34.56 
L 99 34.56 
z
" style="fill: #ffffff"/>
   </g>
   <g id="matplotlib.axis_1">
    <g id="xtick_1">
     <g id="line2d_1">
      <path d="M 126.9 256.32 
L 126.9 34.56 
" clip-path="url(#p4c968a9477)" style="fill: none; stroke: #b0b0b0; stroke-width: 0.8; stroke-linecap: square"/>
     </g>
     <g id="line2d_2">
      <defs>
       <path id="m91a6064fc6" d="M 0 0 
L 0 3.5 
" style="stroke: #000000; stroke-width: 0.8"/>
      </defs>
      <g>
       <use xlink:href="#m91a6064fc6" x="126.9" y="256.32" style="stroke: #000000; stroke-width: 0.8"/>
      </g>
     </g>
     <g id="text_1">
      <!-- 0 -->
      <g transform="translate(123.71875 270.918437) scale(0.1 -0.1)">
       <defs>
        <path id="DejaVuSans-30" d="M 2034 4250 
Q 1547 4250 1301 3770 
Q 1056 3291 1056 2328 
Q 1056 1369 1301 889 
Q 1547 409 2034 409 
Q 2525 409 2770 889 
Q 3016 1369 3016 2328 
Q 3016 3291 2770 3770 
Q 2525 4250 2034 4250 
z
M 2034 4750 
Q 2819 4750 3233 4129 
Q 3647 3509 3647 2328 
Q 3647 1150 3233 529 
Q 2819 -91 2034 -91 
Q 1250 -91 836 529 
Q 422 1150 422 2328 
Q 422 3509 836 4129 
Q 1250 4750 2034 4750 
z
" transform="scale(0.015625)"/>
       </defs>
       <use xlink:href="#DejaVuSans-30"/>
      </g>
     </g>
    </g>
    <g id="xtick_2">
     <g id="line2d_3">
      <path d="M 238.5 256.32 
L 238.5 34.56 
" clip-path="url(#p4c968a9477)" style="fill: none; stroke: #b0b0b0; stroke-width: 0.8; stroke-linecap: square"/>
     </g>
     <g id="line2d_4">
      <g>
       <use xlink:href="#m91a6064fc6" x="238.5" y="256.32" style="stroke: #000000; stroke-width: 0.8"/>
      </g>
     </g>
     <g id="text_2">
      <!-- 2 -->
      <g transform="translate(235.31875 270.918437) scale(0.1 -0.1)">
       <defs>
        <path id="DejaVuSans-32" d="M 1228 531 
L 3431 531 
L 3431 0 
L 469 0 
L 469 531 
Q 828 903 1448 1529 
Q 2069 2156 2228 2338 
Q 2531 2678 2651 2914 
Q 2772 3150 2772 3378 
Q 2772 3750 2511 3984 
Q 2250 4219 1831 4219 
Q 1534 4219 1204 4116 
Q 875 4013 500 3803 
L 500 4441 
Q 881 4594 1212 4672 
Q 1544 4750 1819 4750 
Q 2544 4750 2975 4387 
Q 3406 4025 3406 3419 
Q 3406 3131 3298 2873 
Q 3191 2616 2906 2266 
Q 2828 2175 2409 1742 
Q 1991 1309 1228 531 
z
" transform="scale(0.015625)"/>
       </defs>
       <use xlink:href="#DejaVuSans-32"/>
      </g>
     </g>
    </g>
    <g id="xtick_3">
     <g id="line2d_5">
      <path d="M 350.1 256.32 
L 350.1 34.56 
" clip-path="url(#p4c968a9477)" style="fill: none; stroke: #b0b0b0; stroke-width: 0.8; stroke-linecap: square"/>
     </g>
     <g id="line2d_6">
      <g>
       <use xlink:href="#m91a6064fc6" x="350.1" y="256.32" style="stroke: #000000; stroke-width: 0.8"/>
      </g>
     </g>
     <g id="text_3">
      <!-- 4 -->
      <g transform="translate(346.91875 270.918437) scale(0.1 -0.1)">
       <defs>
        <path id="DejaVuSans-34" d="M 2419 4116 
L 825 1625 
L 2419 1625 
L 2419 4116 
z
M 2253 4666 
L 3047 4666 
L 3047 1625 
L 3713 1625 
L 3713 1100 
L 3047 1100 
L 3047 0 
L 2419 0 
L 2419 1100 
L 313 1100 
L 313 1709 
L 2253 4666 
z
" transform="scale(0.015625)"/>
       </defs>
       <use xlink:href="#DejaVuSans-34"/>
      </g>
     </g>
    </g>
    <g id="xtick_4">
     <g id="line2d_7">
      <path d="M 461.7 256.32 
L 461.7 34.56 
" clip-path="url(#p4c968a9477)" style="fill: none; stroke: #b0b0b0; stroke-width: 0.8; stroke-linecap: square"/>
     </g>
     <g id="line2d_8">
      <g>
       <use xlink:href="#m91a6064fc6" x="461.7" y="256.32" style="stroke: #000000; stroke-width: 0.8"/>
      </g>
     </g>
     <g id="text_4">
      <!-- 6 -->
      <g transform="translate(458.51875 270.918437) scale(0.1 -0.1)">
       <defs>
        <path id="DejaVuSans-36" d="M 2113 2584 
Q 1688 2584 1439 2293 
Q 1191 2003 1191 1497 
Q 1191 994 1439 701 
Q 1688 409 2113 409 
Q 2538 409 2786 701 
Q 3034 994 3034 1497 
Q 3034 2003 2786 2293 
Q 2538 2584 2113 2584 
z
M 3366 4563 
L 3366 3988 
Q 3128 4100 2886 4159 
Q 2644 4219 2406 4219 
Q 1781 4219 1451 3797 
Q 1122 3375 1075 2522 
Q 1259 2794 1537 2939 
Q 1816 3084 2150 3084 
Q 2853 3084 3261 2657 
Q 3669 2231 3669 1497 
Q 3669 778 3244 343 
Q 2819 -91 2113 -91 
Q 1303 -91 875 529 
Q 447 1150 447 2328 
Q 447 3434 972 4092 
Q 1497 4750 2381 4750 
Q 2619 4750 2861 4703 
Q 3103 4656 3366 4563 
z
" transform="scale(0.015625)"/>
       </defs>
       <use xlink:href="#DejaVuSans-36"/>
      </g>
     </g>
    </g>
    <g id="xtick_5">
     <g id="line2d_9">
      <path d="M 573.3 256.32 
L 573.3 34.56 
" clip-path="url(#p4c968a9477)" style="fill: none; stroke: #b0b0b0; stroke-width: 0.8; stroke-linecap: square"/>
     </g>
     <g id="line2d_10">
      <g>
       <use xlink:href="#m91a6064fc6" x="573.3" y="256.32" style="stroke: #000000; stroke-width: 0.8"/>
      </g>
     </g>
     <g id="text_5">
      <!-- 8 -->
      <g transform="translate(570.11875 270.918437) scale(0.1 -0.1)">
       <defs>
        <path id="DejaVuSans-38" d="M 2034 2216 
Q 1584 2216 1326 1975 
Q 1069 1734 1069 1313 
Q 1069 891 1326 650 
Q 1584 409 2034 409 
Q 2484 409 2743 651 
Q 3003 894 3003 1313 
Q 3003 1734 2745 1975 
Q 2488 2216 2034 2216 
z
M 1403 2484 
Q 997 2584 770 2862 
Q 544 3141 544 3541 
Q 544 4100 942 4425 
Q 1341 4750 2034 4750 
Q 2731 4750 3128 4425 
Q 3525 4100 3525 3541 
Q 3525 3141 3298 2862 
Q 3072 2584 2669 2484 
Q 3125 2378 3379 2068 
Q 3634 1759 3634 1313 
Q 3634 634 3220 271 
Q 2806 -91 2034 -91 
Q 1263 -91 848 271 
Q 434 634 434 1313 
Q 434 1759 690 2068 
Q 947 2378 1403 2484 
z
M 1172 3481 
Q 1172 3119 1398 2916 
Q 1625 2713 2034 2713 
Q 2441 2713 2670 2916 
Q 2900 3119 2900 3481 
Q 2900 3844 2670 4047 
Q 2441 4250 2034 4250 
Q 1625 4250 1398 4047 
Q 1172 3844 1172 3481 
z
" transform="scale(0.015625)"/>
       </defs>
       <use xlink:href="#DejaVuSans-38"/>
      </g>
     </g>
    </g>
    <g id="xtick_6">
     <g id="line2d_11">
      <path d="M 684.9 256.32 
L 684.9 34.56 
" clip-path="url(#p4c968a9477)" style="fill: none; stroke: #b0b0b0; stroke-width: 0.8; stroke-linecap: square"/>
     </g>
     <g id="line2d_12">
      <g>
       <use xlink:href="#m91a6064fc6" x="684.9" y="256.32" style="stroke: #000000; stroke-width: 0.8"/>
      </g>
     </g>
     <g id="text_6">
      <!-- 10 -->
      <g transform="translate(678.5375 270.918437) scale(0.1 -0.1)">
       <defs>
        <path id="DejaVuSans-31" d="M 794 531 
L 1825 531 
L 1825 4091 
L 703 3866 
L 703 4441 
L 1819 4666 
L 2450 4666 
L 2450 531 
L 3481 531 
L 3481 0 
L 794 0 
L 794 531 
z
" transform="scale(0.015625)"/>
       </defs>
       <use xlink:href="#DejaVuSans-31"/>
       <use xlink:href="#DejaVuSans-30" x="63.623047"/>
      </g>
     </g>
    </g>
    <g id="xtick_7">
     <g id="line2d_13">
      <path d="M 108.300186 256.32 
L 108.300186 34.56 
" clip-path="url(#p4c968a9477)" style="fill: none; stroke: #b0b0b0; stroke-width: 0.8; stroke-linecap: square"/>
     </g>
     <g id="line2d_14">
      <defs>
       <path id="mf113850bdd" d="M 0 0 
L 0 2 
" style="stroke: #000000; stroke-width: 0.6"/>
      </defs>
      <g>
       <use xlink:href="#mf113850bdd" x="108.300186" y="256.32" style="stroke: #000000; stroke-width: 0.6"/>
      </g>
     </g>
    </g>
    <g id="xtick_8">
     <g id="line2d_15">
      <path d="M 145.499814 256.32 
L 145.499814 34.56 
" clip-path="url(#p4c968a9477)" style="fill: none; stroke: #b0b0b0; stroke-width: 0.8; stroke-linecap: square"/>
     </g>
     <g id="line2d_16">
      <g>
       <use xlink:href="#mf113850bdd" x="145.499814" y="256.32" style="stroke: #000000; stroke-width: 0.6"/>
      </g>
     </g>
    </g>
    <g id="xtick_9">
     <g id="line2d_17">
      <path d="M 164.099628 256.32 
L 164.099628 34.56 
" clip-path="url(#p4c968a9477)" style="fill: none; stroke: #b0b0b0; stroke-width: 0.8; stroke-linecap: square"/>
     </g>
     <g id="line2d_18">
      <g>
       <use xlink:href="#mf113850bdd" x="164.099628" y="256.32" style="stroke: #000000; stroke-width: 0.6"/>
      </g>
     </g>
    </g>
    <g id="xtick_10">
     <g id="line2d_19">
      <path d="M 182.699442 256.32 
L 182.699442 34.56 
" clip-path="url(#p4c968a9477)" style="fill: none; stroke: #b0b0b0; stroke-width: 0.8; stroke-linecap: square"/>
     </g>
     <g id="line2d_20">
      <g>
       <use xlink:href="#mf113850bdd" x="182.699442" y="256.32" style="stroke: #000000; stroke-width: 0.6"/>
      </g>
     </g>
    </g>
    <g id="xtick_11">
     <g id="line2d_21">
      <path d="M 201.299256 256.32 
L 201.299256 34.56 
" clip-path="url(#p4c968a9477)" style="fill: none; stroke: #b0b0b0; stroke-width: 0.8; stroke-linecap: square"/>
     </g>
     <g id="line2d_22">
      <g>
       <use xlink:href="#mf113850bdd" x="201.299256" y="256.32" style="stroke: #000000; stroke-width: 0.6"/>
      </g>
     </g>
    </g>
    <g id="xtick_12">
     <g id="line2d_23">
      <path d="M 219.89907 256.32 
L 219.89907 34.56 
" clip-path="url(#p4c968a9477)" style="fill: none; stroke: #b0b0b0; stroke-width: 0.8; stroke-linecap: square"/>
     </g>
     <g id="line2d_24">
      <g>
       <use xlink:href="#mf113850bdd" x="219.89907" y="256.32" style="stroke: #000000; stroke-width: 0.6"/>
      </g>
     </g>
    </g>
    <g id="xtick_13">
     <g id="line2d_25">
      <path d="M 257.098698 256.32 
L 257.098698 34.56 
" clip-path="url(#p4c968a9477)" style="fill: none; stroke: #b0b0b0; stroke-width: 0.8; stroke-linecap: square"/>
     </g>
     <g id="line2d_26">
      <g>
       <use xlink:href="#mf113850bdd" x="257.098698" y="256.32" style="stroke: #000000; stroke-width: 0.6"/>
      </g>
     </g>
    </g>
    <g id="xtick_14">
     <g id="line2d_27">
      <path d="M 275.698512 256.32 
L 275.698512 34.56 
" clip-path="url(#p4c968a9477)" style="fill: none; stroke: #b0b0b0; stroke-width: 0.8; stroke-linecap: square"/>
     </g>
     <g id="line2d_28">
      <g>
       <use xlink:href="#mf113850bdd" x="275.698512" y="256.32" style="stroke: #000000; stroke-width: 0.6"/>
      </g>
     </g>
    </g>
    <g id="xtick_15">
     <g id="line2d_29">
      <path d="M 294.298326 256.32 
L 294.298326 34.56 
" clip-path="url(#p4c968a9477)" style="fill: none; stroke: #b0b0b0; stroke-width: 0.8; stroke-linecap: square"/>
     </g>
     <g id="line2d_30">
      <g>
       <use xlink:href="#mf113850bdd" x="294.298326" y="256.32" style="stroke: #000000; stroke-width: 0.6"/>
      </g>
     </g>
    </g>
    <g id="xtick_16">
     <g id="line2d_31">
      <path d="M 312.89814 256.32 
L 312.89814 34.56 
" clip-path="url(#p4c968a9477)" style="fill: none; stroke: #b0b0b0; stroke-width: 0.8; stroke-linecap: square"/>
     </g>
     <g id="line2d_32">
      <g>
       <use xlink:href="#mf113850bdd" x="312.89814" y="256.32" style="stroke: #000000; stroke-width: 0.6"/>
      </g>
     </g>
    </g>
    <g id="xtick_17">
     <g id="line2d_33">
      <path d="M 331.497954 256.32 
L 331.497954 34.56 
" clip-path="url(#p4c968a9477)" style="fill: none; stroke: #b0b0b0; stroke-width: 0.8; stroke-linecap: square"/>
     </g>
     <g id="line2d_34">
      <g>
       <use xlink:href="#mf113850bdd" x="331.497954" y="256.32" style="stroke: #000000; stroke-width: 0.6"/>
      </g>
     </g>
    </g>
    <g id="xtick_18">
     <g id="line2d_35">
      <path d="M 368.697582 256.32 
L 368.697582 34.56 
" clip-path="url(#p4c968a9477)" style="fill: none; stroke: #b0b0b0; stroke-width: 0.8; stroke-linecap: square"/>
     </g>
     <g id="line2d_36">
      <g>
       <use xlink:href="#mf113850bdd" x="368.697582" y="256.32" style="stroke: #000000; stroke-width: 0.6"/>
      </g>
     </g>
    </g>
    <g id="xtick_19">
     <g id="line2d_37">
      <path d="M 387.297396 256.32 
L 387.297396 34.56 
" clip-path="url(#p4c968a9477)" style="fill: none; stroke: #b0b0b0; stroke-width: 0.8; stroke-linecap: square"/>
     </g>
     <g id="line2d_38">
      <g>
       <use xlink:href="#mf113850bdd" x="387.297396" y="256.32" style="stroke: #000000; stroke-width: 0.6"/>
      </g>
     </g>
    </g>
    <g id="xtick_20">
     <g id="line2d_39">
      <path d="M 405.89721 256.32 
L 405.89721 34.56 
" clip-path="url(#p4c968a9477)" style="fill: none; stroke: #b0b0b0; stroke-width: 0.8; stroke-linecap: square"/>
     </g>
     <g id="line2d_40">
      <g>
       <use xlink:href="#mf113850bdd" x="405.89721" y="256.32" style="stroke: #000000; stroke-width: 0.6"/>
      </g>
     </g>
    </g>
    <g id="xtick_21">
     <g id="line2d_41">
      <path d="M 424.497024 256.32 
L 424.497024 34.56 
" clip-path="url(#p4c968a9477)" style="fill: none; stroke: #b0b0b0; stroke-width: 0.8; stroke-linecap: square"/>
     </g>
     <g id="line2d_42">
      <g>
       <use xlink:href="#mf113850bdd" x="424.497024" y="256.32" style="stroke: #000000; stroke-width: 0.6"/>
      </g>
     </g>
    </g>
    <g id="xtick_22">
     <g id="line2d_43">
      <path d="M 443.096838 256.32 
L 443.096838 34.56 
" clip-path="url(#p4c968a9477)" style="fill: none; stroke: #b0b0b0; stroke-width: 0.8; stroke-linecap: square"/>
     </g>
     <g id="line2d_44">
      <g>
       <use xlink:href="#mf113850bdd" x="443.096838" y="256.32" style="stroke: #000000; stroke-width: 0.6"/>
      </g>
     </g>
    </g>
    <g id="xtick_23">
     <g id="line2d_45">
      <path d="M 480.296466 256.32 
L 480.296466 34.56 
" clip-path="url(#p4c968a9477)" style="fill: none; stroke: #b0b0b0; stroke-width: 0.8; stroke-linecap: square"/>
     </g>
     <g id="line2d_46">
      <g>
       <use xlink:href="#mf113850bdd" x="480.296466" y="256.32" style="stroke: #000000; stroke-width: 0.6"/>
      </g>
     </g>
    </g>
    <g id="xtick_24">
     <g id="line2d_47">
      <path d="M 498.89628 256.32 
L 498.89628 34.56 
" clip-path="url(#p4c968a9477)" style="fill: none; stroke: #b0b0b0; stroke-width: 0.8; stroke-linecap: square"/>
     </g>
     <g id="line2d_48">
      <g>
       <use xlink:href="#mf113850bdd" x="498.89628" y="256.32" style="stroke: #000000; stroke-width: 0.6"/>
      </g>
     </g>
    </g>
    <g id="xtick_25">
     <g id="line2d_49">
      <path d="M 517.496094 256.32 
L 517.496094 34.56 
" clip-path="url(#p4c968a9477)" style="fill: none; stroke: #b0b0b0; stroke-width: 0.8; stroke-linecap: square"/>
     </g>
     <g id="line2d_50">
      <g>
       <use xlink:href="#mf113850bdd" x="517.496094" y="256.32" style="stroke: #000000; stroke-width: 0.6"/>
      </g>
     </g>
    </g>
    <g id="xtick_26">
     <g id="line2d_51">
      <path d="M 536.095908 256.32 
L 536.095908 34.56 
" clip-path="url(#p4c968a9477)" style="fill: none; stroke: #b0b0b0; stroke-width: 0.8; stroke-linecap: square"/>
     </g>
     <g id="line2d_52">
      <g>
       <use xlink:href="#mf113850bdd" x="536.095908" y="256.32" style="stroke: #000000; stroke-width: 0.6"/>
      </g>
     </g>
    </g>
    <g id="xtick_27">
     <g id="line2d_53">
      <path d="M 554.695722 256.32 
L 554.695722 34.56 
" clip-path="url(#p4c968a9477)" style="fill: none; stroke: #b0b0b0; stroke-width: 0.8; stroke-linecap: square"/>
     </g>
     <g id="line2d_54">
      <g>
       <use xlink:href="#mf113850bdd" x="554.695722" y="256.32" style="stroke: #000000; stroke-width: 0.6"/>
      </g>
     </g>
    </g>
    <g id="xtick_28">
     <g id="line2d_55">
      <path d="M 591.89535 256.32 
L 591.89535 34.56 
" clip-path="url(#p4c968a9477)" style="fill: none; stroke: #b0b0b0; stroke-width: 0.8; stroke-linecap: square"/>
     </g>
     <g id="line2d_56">
      <g>
       <use xlink:href="#mf113850bdd" x="591.89535" y="256.32" style="stroke: #000000; stroke-width: 0.6"/>
      </g>
     </g>
    </g>
    <g id="xtick_29">
     <g id="line2d_57">
      <path d="M 610.495164 256.32 
L 610.495164 34.56 
" clip-path="url(#p4c968a9477)" style="fill: none; stroke: #b0b0b0; stroke-width: 0.8; stroke-linecap: square"/>
     </g>
     <g id="line2d_58">
      <g>
       <use xlink:href="#mf113850bdd" x="610.495164" y="256.32" style="stroke: #000000; stroke-width: 0.6"/>
      </g>
     </g>
    </g>
    <g id="xtick_30">
     <g id="line2d_59">
      <path d="M 629.094978 256.32 
L 629.094978 34.56 
" clip-path="url(#p4c968a9477)" style="fill: none; stroke: #b0b0b0; stroke-width: 0.8; stroke-linecap: square"/>
     </g>
     <g id="line2d_60">
      <g>
       <use xlink:href="#mf113850bdd" x="629.094978" y="256.32" style="stroke: #000000; stroke-width: 0.6"/>
      </g>
     </g>
    </g>
    <g id="xtick_31">
     <g id="line2d_61">
      <path d="M 647.694792 256.32 
L 647.694792 34.56 
" clip-path="url(#p4c968a9477)" style="fill: none; stroke: #b0b0b0; stroke-width: 0.8; stroke-linecap: square"/>
     </g>
     <g id="line2d_62">
      <g>
       <use xlink:href="#mf113850bdd" x="647.694792" y="256.32" style="stroke: #000000; stroke-width: 0.6"/>
      </g>
     </g>
    </g>
    <g id="xtick_32">
     <g id="line2d_63">
      <path d="M 666.294606 256.32 
L 666.294606 34.56 
" clip-path="url(#p4c968a9477)" style="fill: none; stroke: #b0b0b0; stroke-width: 0.8; stroke-linecap: square"/>
     </g>
     <g id="line2d_64">
      <g>
       <use xlink:href="#mf113850bdd" x="666.294606" y="256.32" style="stroke: #000000; stroke-width: 0.6"/>
      </g>
     </g>
    </g>
    <g id="xtick_33">
     <g id="line2d_65">
      <path d="M 703.494234 256.32 
L 703.494234 34.56 
" clip-path="url(#p4c968a9477)" style="fill: none; stroke: #b0b0b0; stroke-width: 0.8; stroke-linecap: square"/>
     </g>
     <g id="line2d_66">
      <g>
       <use xlink:href="#mf113850bdd" x="703.494234" y="256.32" style="stroke: #000000; stroke-width: 0.6"/>
      </g>
     </g>
    </g>
    <g id="text_7">
     <!-- Epoch -->
     <g transform="translate(390.589063 284.596563) scale(0.1 -0.1)">
      <defs>
       <path id="DejaVuSans-45" d="M 628 4666 
L 3578 4666 
L 3578 4134 
L 1259 4134 
L 1259 2753 
L 3481 2753 
L 3481 2222 
L 1259 2222 
L 1259 531 
L 3634 531 
L 3634 0 
L 628 0 
L 628 4666 
z
" transform="scale(0.015625)"/>
       <path id="DejaVuSans-70" d="M 1159 525 
L 1159 -1331 
L 581 -1331 
L 581 3500 
L 1159 3500 
L 1159 2969 
Q 1341 3281 1617 3432 
Q 1894 3584 2278 3584 
Q 2916 3584 3314 3078 
Q 3713 2572 3713 1747 
Q 3713 922 3314 415 
Q 2916 -91 2278 -91 
Q 1894 -91 1617 61 
Q 1341 213 1159 525 
z
M 3116 1747 
Q 3116 2381 2855 2742 
Q 2594 3103 2138 3103 
Q 1681 3103 1420 2742 
Q 1159 2381 1159 1747 
Q 1159 1113 1420 752 
Q 1681 391 2138 391 
Q 2594 391 2855 752 
Q 3116 1113 3116 1747 
z
" transform="scale(0.015625)"/>
       <path id="DejaVuSans-6f" d="M 1959 3097 
Q 1497 3097 1228 2736 
Q 959 2375 959 1747 
Q 959 1119 1226 758 
Q 1494 397 1959 397 
Q 2419 397 2687 759 
Q 2956 1122 2956 1747 
Q 2956 2369 2687 2733 
Q 2419 3097 1959 3097 
z
M 1959 3584 
Q 2709 3584 3137 3096 
Q 3566 2609 3566 1747 
Q 3566 888 3137 398 
Q 2709 -91 1959 -91 
Q 1206 -91 779 398 
Q 353 888 353 1747 
Q 353 2609 779 3096 
Q 1206 3584 1959 3584 
z
" transform="scale(0.015625)"/>
       <path id="DejaVuSans-63" d="M 3122 3366 
L 3122 2828 
Q 2878 2963 2633 3030 
Q 2388 3097 2138 3097 
Q 1578 3097 1268 2742 
Q 959 2388 959 1747 
Q 959 1106 1268 751 
Q 1578 397 2138 397 
Q 2388 397 2633 464 
Q 2878 531 3122 666 
L 3122 134 
Q 2881 22 2623 -34 
Q 2366 -91 2075 -91 
Q 1284 -91 818 406 
Q 353 903 353 1747 
Q 353 2603 823 3093 
Q 1294 3584 2113 3584 
Q 2378 3584 2631 3529 
Q 2884 3475 3122 3366 
z
" transform="scale(0.015625)"/>
       <path id="DejaVuSans-68" d="M 3513 2113 
L 3513 0 
L 2938 0 
L 2938 2094 
Q 2938 2591 2744 2837 
Q 2550 3084 2163 3084 
Q 1697 3084 1428 2787 
Q 1159 2491 1159 1978 
L 1159 0 
L 581 0 
L 581 4863 
L 1159 4863 
L 1159 2956 
Q 1366 3272 1645 3428 
Q 1925 3584 2291 3584 
Q 2894 3584 3203 3211 
Q 3513 2838 3513 2113 
z
" transform="scale(0.015625)"/>
      </defs>
      <use xlink:href="#DejaVuSans-45"/>
      <use xlink:href="#DejaVuSans-70" x="63.183594"/>
      <use xlink:href="#DejaVuSans-6f" x="126.660156"/>
      <use xlink:href="#DejaVuSans-63" x="187.841797"/>
      <use xlink:href="#DejaVuSans-68" x="242.822266"/>
     </g>
    </g>
   </g>
   <g id="matplotlib.axis_2">
    <g id="ytick_1">
     <g id="line2d_67">
      <path d="M 99 242.574548 
L 712.8 242.574548 
" clip-path="url(#p4c968a9477)" style="fill: none; stroke: #b0b0b0; stroke-width: 0.8; stroke-linecap: square"/>
     </g>
     <g id="line2d_68">
      <defs>
       <path id="m55b1476a41" d="M 0 0 
L -3.5 0 
" style="stroke: #000000; stroke-width: 0.8"/>
      </defs>
      <g>
       <use xlink:href="#m55b1476a41" x="99" y="242.574548" style="stroke: #000000; stroke-width: 0.8"/>
      </g>
     </g>
     <g id="text_8">
      <!-- 0.4 -->
      <g transform="translate(76.096875 246.373766) scale(0.1 -0.1)">
       <defs>
        <path id="DejaVuSans-2e" d="M 684 794 
L 1344 794 
L 1344 0 
L 684 0 
L 684 794 
z
" transform="scale(0.015625)"/>
       </defs>
       <use xlink:href="#DejaVuSans-30"/>
       <use xlink:href="#DejaVuSans-2e" x="63.623047"/>
       <use xlink:href="#DejaVuSans-34" x="95.410156"/>
      </g>
     </g>
    </g>
    <g id="ytick_2">
     <g id="line2d_69">
      <path d="M 99 209.585456 
L 712.8 209.585456 
" clip-path="url(#p4c968a9477)" style="fill: none; stroke: #b0b0b0; stroke-width: 0.8; stroke-linecap: square"/>
     </g>
     <g id="line2d_70">
      <g>
       <use xlink:href="#m55b1476a41" x="99" y="209.585456" style="stroke: #000000; stroke-width: 0.8"/>
      </g>
     </g>
     <g id="text_9">
      <!-- 0.5 -->
      <g transform="translate(76.096875 213.384675) scale(0.1 -0.1)">
       <defs>
        <path id="DejaVuSans-35" d="M 691 4666 
L 3169 4666 
L 3169 4134 
L 1269 4134 
L 1269 2991 
Q 1406 3038 1543 3061 
Q 1681 3084 1819 3084 
Q 2600 3084 3056 2656 
Q 3513 2228 3513 1497 
Q 3513 744 3044 326 
Q 2575 -91 1722 -91 
Q 1428 -91 1123 -41 
Q 819 9 494 109 
L 494 744 
Q 775 591 1075 516 
Q 1375 441 1709 441 
Q 2250 441 2565 725 
Q 2881 1009 2881 1497 
Q 2881 1984 2565 2268 
Q 2250 2553 1709 2553 
Q 1456 2553 1204 2497 
Q 953 2441 691 2322 
L 691 4666 
z
" transform="scale(0.015625)"/>
       </defs>
       <use xlink:href="#DejaVuSans-30"/>
       <use xlink:href="#DejaVuSans-2e" x="63.623047"/>
       <use xlink:href="#DejaVuSans-35" x="95.410156"/>
      </g>
     </g>
    </g>
    <g id="ytick_3">
     <g id="line2d_71">
      <path d="M 99 176.596365 
L 712.8 176.596365 
" clip-path="url(#p4c968a9477)" style="fill: none; stroke: #b0b0b0; stroke-width: 0.8; stroke-linecap: square"/>
     </g>
     <g id="line2d_72">
      <g>
       <use xlink:href="#m55b1476a41" x="99" y="176.596365" style="stroke: #000000; stroke-width: 0.8"/>
      </g>
     </g>
     <g id="text_10">
      <!-- 0.6 -->
      <g transform="translate(76.096875 180.395584) scale(0.1 -0.1)">
       <use xlink:href="#DejaVuSans-30"/>
       <use xlink:href="#DejaVuSans-2e" x="63.623047"/>
       <use xlink:href="#DejaVuSans-36" x="95.410156"/>
      </g>
     </g>
    </g>
    <g id="ytick_4">
     <g id="line2d_73">
      <path d="M 99 143.607274 
L 712.8 143.607274 
" clip-path="url(#p4c968a9477)" style="fill: none; stroke: #b0b0b0; stroke-width: 0.8; stroke-linecap: square"/>
     </g>
     <g id="line2d_74">
      <g>
       <use xlink:href="#m55b1476a41" x="99" y="143.607274" style="stroke: #000000; stroke-width: 0.8"/>
      </g>
     </g>
     <g id="text_11">
      <!-- 0.7 -->
      <g transform="translate(76.096875 147.406493) scale(0.1 -0.1)">
       <defs>
        <path id="DejaVuSans-37" d="M 525 4666 
L 3525 4666 
L 3525 4397 
L 1831 0 
L 1172 0 
L 2766 4134 
L 525 4134 
L 525 4666 
z
" transform="scale(0.015625)"/>
       </defs>
       <use xlink:href="#DejaVuSans-30"/>
       <use xlink:href="#DejaVuSans-2e" x="63.623047"/>
       <use xlink:href="#DejaVuSans-37" x="95.410156"/>
      </g>
     </g>
    </g>
    <g id="ytick_5">
     <g id="line2d_75">
      <path d="M 99 110.618183 
L 712.8 110.618183 
" clip-path="url(#p4c968a9477)" style="fill: none; stroke: #b0b0b0; stroke-width: 0.8; stroke-linecap: square"/>
     </g>
     <g id="line2d_76">
      <g>
       <use xlink:href="#m55b1476a41" x="99" y="110.618183" style="stroke: #000000; stroke-width: 0.8"/>
      </g>
     </g>
     <g id="text_12">
      <!-- 0.8 -->
      <g transform="translate(76.096875 114.417401) scale(0.1 -0.1)">
       <use xlink:href="#DejaVuSans-30"/>
       <use xlink:href="#DejaVuSans-2e" x="63.623047"/>
       <use xlink:href="#DejaVuSans-38" x="95.410156"/>
      </g>
     </g>
    </g>
    <g id="ytick_6">
     <g id="line2d_77">
      <path d="M 99 77.629091 
L 712.8 77.629091 
" clip-path="url(#p4c968a9477)" style="fill: none; stroke: #b0b0b0; stroke-width: 0.8; stroke-linecap: square"/>
     </g>
     <g id="line2d_78">
      <g>
       <use xlink:href="#m55b1476a41" x="99" y="77.629091" style="stroke: #000000; stroke-width: 0.8"/>
      </g>
     </g>
     <g id="text_13">
      <!-- 0.9 -->
      <g transform="translate(76.096875 81.42831) scale(0.1 -0.1)">
       <defs>
        <path id="DejaVuSans-39" d="M 703 97 
L 703 672 
Q 941 559 1184 500 
Q 1428 441 1663 441 
Q 2288 441 2617 861 
Q 2947 1281 2994 2138 
Q 2813 1869 2534 1725 
Q 2256 1581 1919 1581 
Q 1219 1581 811 2004 
Q 403 2428 403 3163 
Q 403 3881 828 4315 
Q 1253 4750 1959 4750 
Q 2769 4750 3195 4129 
Q 3622 3509 3622 2328 
Q 3622 1225 3098 567 
Q 2575 -91 1691 -91 
Q 1453 -91 1209 -44 
Q 966 3 703 97 
z
M 1959 2075 
Q 2384 2075 2632 2365 
Q 2881 2656 2881 3163 
Q 2881 3666 2632 3958 
Q 2384 4250 1959 4250 
Q 1534 4250 1286 3958 
Q 1038 3666 1038 3163 
Q 1038 2656 1286 2365 
Q 1534 2075 1959 2075 
z
" transform="scale(0.015625)"/>
       </defs>
       <use xlink:href="#DejaVuSans-30"/>
       <use xlink:href="#DejaVuSans-2e" x="63.623047"/>
       <use xlink:href="#DejaVuSans-39" x="95.410156"/>
      </g>
     </g>
    </g>
    <g id="ytick_7">
     <g id="line2d_79">
      <path d="M 99 44.64 
L 712.8 44.64 
" clip-path="url(#p4c968a9477)" style="fill: none; stroke: #b0b0b0; stroke-width: 0.8; stroke-linecap: square"/>
     </g>
     <g id="line2d_80">
      <g>
       <use xlink:href="#m55b1476a41" x="99" y="44.64" style="stroke: #000000; stroke-width: 0.8"/>
      </g>
     </g>
     <g id="text_14">
      <!-- 1.0 -->
      <g transform="translate(76.096875 48.439219) scale(0.1 -0.1)">
       <use xlink:href="#DejaVuSans-31"/>
       <use xlink:href="#DejaVuSans-2e" x="63.623047"/>
       <use xlink:href="#DejaVuSans-30" x="95.410156"/>
      </g>
     </g>
    </g>
    <g id="ytick_8">
     <g id="line2d_81">
      <path d="M 99 226.080002 
L 712.8 226.080002 
" clip-path="url(#p4c968a9477)" style="fill: none; stroke: #b0b0b0; stroke-width: 0.8; stroke-linecap: square"/>
     </g>
     <g id="line2d_82">
      <defs>
       <path id="m27b94d33b5" d="M 0 0 
L -2 0 
" style="stroke: #000000; stroke-width: 0.6"/>
      </defs>
      <g>
       <use xlink:href="#m27b94d33b5" x="99" y="226.080002" style="stroke: #000000; stroke-width: 0.6"/>
      </g>
     </g>
    </g>
    <g id="ytick_9">
     <g id="line2d_83">
      <path d="M 99 193.090911 
L 712.8 193.090911 
" clip-path="url(#p4c968a9477)" style="fill: none; stroke: #b0b0b0; stroke-width: 0.8; stroke-linecap: square"/>
     </g>
     <g id="line2d_84">
      <g>
       <use xlink:href="#m27b94d33b5" x="99" y="193.090911" style="stroke: #000000; stroke-width: 0.6"/>
      </g>
     </g>
    </g>
    <g id="ytick_10">
     <g id="line2d_85">
      <path d="M 99 160.101819 
L 712.8 160.101819 
" clip-path="url(#p4c968a9477)" style="fill: none; stroke: #b0b0b0; stroke-width: 0.8; stroke-linecap: square"/>
     </g>
     <g id="line2d_86">
      <g>
       <use xlink:href="#m27b94d33b5" x="99" y="160.101819" style="stroke: #000000; stroke-width: 0.6"/>
      </g>
     </g>
    </g>
    <g id="ytick_11">
     <g id="line2d_87">
      <path d="M 99 127.112728 
L 712.8 127.112728 
" clip-path="url(#p4c968a9477)" style="fill: none; stroke: #b0b0b0; stroke-width: 0.8; stroke-linecap: square"/>
     </g>
     <g id="line2d_88">
      <g>
       <use xlink:href="#m27b94d33b5" x="99" y="127.112728" style="stroke: #000000; stroke-width: 0.6"/>
      </g>
     </g>
    </g>
    <g id="ytick_12">
     <g id="line2d_89">
      <path d="M 99 94.123637 
L 712.8 94.123637 
" clip-path="url(#p4c968a9477)" style="fill: none; stroke: #b0b0b0; stroke-width: 0.8; stroke-linecap: square"/>
     </g>
     <g id="line2d_90">
      <g>
       <use xlink:href="#m27b94d33b5" x="99" y="94.123637" style="stroke: #000000; stroke-width: 0.6"/>
      </g>
     </g>
    </g>
    <g id="ytick_13">
     <g id="line2d_91">
      <path d="M 99 61.134546 
L 712.8 61.134546 
" clip-path="url(#p4c968a9477)" style="fill: none; stroke: #b0b0b0; stroke-width: 0.8; stroke-linecap: square"/>
     </g>
     <g id="line2d_92">
      <g>
       <use xlink:href="#m27b94d33b5" x="99" y="61.134546" style="stroke: #000000; stroke-width: 0.6"/>
      </g>
     </g>
    </g>
    <g id="text_15">
     <!-- Accuracy (%) -->
     <g transform="translate(70.017187 178.509531) rotate(-90) scale(0.1 -0.1)">
      <defs>
       <path id="DejaVuSans-41" d="M 2188 4044 
L 1331 1722 
L 3047 1722 
L 2188 4044 
z
M 1831 4666 
L 2547 4666 
L 4325 0 
L 3669 0 
L 3244 1197 
L 1141 1197 
L 716 0 
L 50 0 
L 1831 4666 
z
" transform="scale(0.015625)"/>
       <path id="DejaVuSans-75" d="M 544 1381 
L 544 3500 
L 1119 3500 
L 1119 1403 
Q 1119 906 1312 657 
Q 1506 409 1894 409 
Q 2359 409 2629 706 
Q 2900 1003 2900 1516 
L 2900 3500 
L 3475 3500 
L 3475 0 
L 2900 0 
L 2900 538 
Q 2691 219 2414 64 
Q 2138 -91 1772 -91 
Q 1169 -91 856 284 
Q 544 659 544 1381 
z
M 1991 3584 
L 1991 3584 
z
" transform="scale(0.015625)"/>
       <path id="DejaVuSans-72" d="M 2631 2963 
Q 2534 3019 2420 3045 
Q 2306 3072 2169 3072 
Q 1681 3072 1420 2755 
Q 1159 2438 1159 1844 
L 1159 0 
L 581 0 
L 581 3500 
L 1159 3500 
L 1159 2956 
Q 1341 3275 1631 3429 
Q 1922 3584 2338 3584 
Q 2397 3584 2469 3576 
Q 2541 3569 2628 3553 
L 2631 2963 
z
" transform="scale(0.015625)"/>
       <path id="DejaVuSans-61" d="M 2194 1759 
Q 1497 1759 1228 1600 
Q 959 1441 959 1056 
Q 959 750 1161 570 
Q 1363 391 1709 391 
Q 2188 391 2477 730 
Q 2766 1069 2766 1631 
L 2766 1759 
L 2194 1759 
z
M 3341 1997 
L 3341 0 
L 2766 0 
L 2766 531 
Q 2569 213 2275 61 
Q 1981 -91 1556 -91 
Q 1019 -91 701 211 
Q 384 513 384 1019 
Q 384 1609 779 1909 
Q 1175 2209 1959 2209 
L 2766 2209 
L 2766 2266 
Q 2766 2663 2505 2880 
Q 2244 3097 1772 3097 
Q 1472 3097 1187 3025 
Q 903 2953 641 2809 
L 641 3341 
Q 956 3463 1253 3523 
Q 1550 3584 1831 3584 
Q 2591 3584 2966 3190 
Q 3341 2797 3341 1997 
z
" transform="scale(0.015625)"/>
       <path id="DejaVuSans-79" d="M 2059 -325 
Q 1816 -950 1584 -1140 
Q 1353 -1331 966 -1331 
L 506 -1331 
L 506 -850 
L 844 -850 
Q 1081 -850 1212 -737 
Q 1344 -625 1503 -206 
L 1606 56 
L 191 3500 
L 800 3500 
L 1894 763 
L 2988 3500 
L 3597 3500 
L 2059 -325 
z
" transform="scale(0.015625)"/>
       <path id="DejaVuSans-20" transform="scale(0.015625)"/>
       <path id="DejaVuSans-28" d="M 1984 4856 
Q 1566 4138 1362 3434 
Q 1159 2731 1159 2009 
Q 1159 1288 1364 580 
Q 1569 -128 1984 -844 
L 1484 -844 
Q 1016 -109 783 600 
Q 550 1309 550 2009 
Q 550 2706 781 3412 
Q 1013 4119 1484 4856 
L 1984 4856 
z
" transform="scale(0.015625)"/>
       <path id="DejaVuSans-25" d="M 4653 2053 
Q 4381 2053 4226 1822 
Q 4072 1591 4072 1178 
Q 4072 772 4226 539 
Q 4381 306 4653 306 
Q 4919 306 5073 539 
Q 5228 772 5228 1178 
Q 5228 1588 5073 1820 
Q 4919 2053 4653 2053 
z
M 4653 2450 
Q 5147 2450 5437 2106 
Q 5728 1763 5728 1178 
Q 5728 594 5436 251 
Q 5144 -91 4653 -91 
Q 4153 -91 3862 251 
Q 3572 594 3572 1178 
Q 3572 1766 3864 2108 
Q 4156 2450 4653 2450 
z
M 1428 4353 
Q 1159 4353 1004 4120 
Q 850 3888 850 3481 
Q 850 3069 1003 2837 
Q 1156 2606 1428 2606 
Q 1700 2606 1854 2837 
Q 2009 3069 2009 3481 
Q 2009 3884 1853 4118 
Q 1697 4353 1428 4353 
z
M 4250 4750 
L 4750 4750 
L 1831 -91 
L 1331 -91 
L 4250 4750 
z
M 1428 4750 
Q 1922 4750 2215 4408 
Q 2509 4066 2509 3481 
Q 2509 2891 2217 2550 
Q 1925 2209 1428 2209 
Q 931 2209 642 2551 
Q 353 2894 353 3481 
Q 353 4063 643 4406 
Q 934 4750 1428 4750 
z
" transform="scale(0.015625)"/>
       <path id="DejaVuSans-29" d="M 513 4856 
L 1013 4856 
Q 1481 4119 1714 3412 
Q 1947 2706 1947 2009 
Q 1947 1309 1714 600 
Q 1481 -109 1013 -844 
L 513 -844 
Q 928 -128 1133 580 
Q 1338 1288 1338 2009 
Q 1338 2731 1133 3434 
Q 928 4138 513 4856 
z
" transform="scale(0.015625)"/>
      </defs>
      <use xlink:href="#DejaVuSans-41"/>
      <use xlink:href="#DejaVuSans-63" x="66.658203"/>
      <use xlink:href="#DejaVuSans-63" x="121.638672"/>
      <use xlink:href="#DejaVuSans-75" x="176.619141"/>
      <use xlink:href="#DejaVuSans-72" x="239.998047"/>
      <use xlink:href="#DejaVuSans-61" x="281.111328"/>
      <use xlink:href="#DejaVuSans-63" x="342.390625"/>
      <use xlink:href="#DejaVuSans-79" x="397.371094"/>
      <use xlink:href="#DejaVuSans-20" x="456.550781"/>
      <use xlink:href="#DejaVuSans-28" x="488.337891"/>
      <use xlink:href="#DejaVuSans-25" x="527.351562"/>
      <use xlink:href="#DejaVuSans-29" x="622.371094"/>
     </g>
    </g>
   </g>
   <g id="line2d_93">
    <path d="M 128.016 246.24 
L 129.132 172.930913 
L 130.248 145.44001 
L 131.364 163.767272 
L 132.48 160.101827 
L 133.596 159.185451 
L 134.712 155.912737 
L 135.828 150.021811 
L 136.944 146.458181 
L 138.06 148.189098 
L 139.176 152.10446 
L 140.292 150.785464 
L 142.524 144.130904 
L 143.64 142.385456 
L 144.756 140.858189 
L 145.872 141.127711 
L 146.988 139.839998 
L 149.22 134.901825 
L 150.336 137.149093 
L 151.452 137.942477 
L 152.568 136.674781 
L 153.684 136.658186 
L 154.8 137.376004 
L 155.916 137.686149 
L 157.032 137.29454 
L 158.148 136.276369 
L 159.264 134.38044 
L 160.38 133.221816 
L 161.496 131.842356 
L 162.612 131.980901 
L 163.728 131.278027 
L 164.844 129.80792 
L 165.96 130.254546 
L 167.076 130.930915 
L 168.192 131.075379 
L 169.308 130.971106 
L 170.424 130.402235 
L 171.54 131.007267 
L 172.656 131.135784 
L 173.772 131.040006 
L 174.888 131.374887 
L 176.004 132.735863 
L 177.12 131.796364 
L 178.236 131.893755 
L 179.352 131.207122 
L 181.584 131.040006 
L 182.7 130.228355 
L 183.816 108.785447 
L 184.932 104.203646 
L 186.048 114.894553 
L 187.164 111.076367 
L 188.28 121.614552 
L 189.396 114.894553 
L 190.512 112.712724 
L 191.628 121.385458 
L 192.744 124.058175 
L 193.86 120.698176 
L 194.976 118.782151 
L 196.092 118.712721 
L 197.208 116.539307 
L 198.324 117.294544 
L 199.44 118.559998 
L 200.556 116.230912 
L 201.672 116.871022 
L 202.788 116.42182 
L 203.904 114.573024 
L 205.02 113.825455 
L 206.136 114.02181 
L 207.252 112.950745 
L 208.368 111.17596 
L 209.484 109.930916 
L 210.6 112.084372 
L 211.716 112.309927 
L 212.832 111.84 
L 213.948 110.094552 
L 215.064 110.049406 
L 216.18 109.090912 
L 217.296 108.785447 
L 218.412 108.212721 
L 219.528 107.119339 
L 220.644 106.898818 
L 221.76 106.952734 
L 222.876 106.494546 
L 223.992 105.813458 
L 225.108 104.685941 
L 226.224 104.556086 
L 228.456 103.421372 
L 229.572 103.112721 
L 230.688 102.392228 
L 231.804 103.162311 
L 232.92 103.4909 
L 234.036 102.809163 
L 235.152 101.96147 
L 236.268 101.530909 
L 237.384 101.865967 
L 238.5 101.454538 
L 239.616 72.130903 
L 240.732 72.130903 
L 241.848 78.24001 
L 242.964 81.294544 
L 244.08 81.294544 
L 245.196 87.403631 
L 246.312 87.839993 
L 247.428 87.021814 
L 248.544 85.367269 
L 249.66 86.79272 
L 250.776 86.292886 
L 251.892 86.639998 
L 253.008 85.523924 
L 254.124 84.567278 
L 255.24 84.349097 
L 257.472 86.145885 
L 258.588 84.858173 
L 259.704 85.152922 
L 260.82 85.876364 
L 264.168 85.278726 
L 265.284 86.258181 
L 266.4 85.326546 
L 268.632 85.706672 
L 269.748 84.567278 
L 270.864 84.454412 
L 271.98 83.738186 
L 274.212 84.730914 
L 275.328 84.349097 
L 276.444 83.450693 
L 277.56 83.912735 
L 278.676 83.330906 
L 279.792 83.275869 
L 280.908 82.259133 
L 282.024 81.76447 
L 284.256 80.400525 
L 285.372 80.42182 
L 286.488 80.868328 
L 287.604 81.086273 
L 288.72 80.887263 
L 289.836 80.497699 
L 292.068 79.38546 
L 293.184 79.050382 
L 294.3 79.278552 
L 295.416 44.64 
L 296.532 49.22182 
L 297.648 59.912728 
L 298.764 65.258182 
L 299.88 66.632726 
L 300.996 69.076369 
L 302.112 68.203645 
L 303.228 69.840002 
L 304.344 70.09454 
L 305.46 71.214547 
L 306.576 72.130903 
L 307.692 72.130903 
L 308.808 71.426023 
L 309.924 71.47636 
L 312.156 70.412728 
L 313.272 70.513796 
L 314.388 71.112731 
L 316.62 71.214547 
L 317.736 70.385455 
L 318.852 70.048273 
L 319.968 70.138822 
L 321.084 69.458186 
L 322.2 69.565094 
L 324.432 69.076369 
L 325.548 69.512731 
L 326.664 68.971034 
L 327.78 68.159993 
L 330.012 67.835455 
L 331.128 67.965624 
L 332.244 67.549082 
L 333.36 67.679999 
L 334.476 67.294544 
L 335.592 67.177589 
L 336.708 66.82564 
L 337.824 66.256789 
L 338.94 65.945464 
L 340.056 66.096319 
L 341.172 66.021816 
L 342.288 65.737665 
L 343.404 65.882975 
L 345.636 65.756207 
L 347.868 66.403632 
L 348.984 66.146499 
L 350.1 66.266188 
L 351.216 62.967282 
L 352.332 62.967282 
L 353.448 72.130903 
L 354.564 67.549082 
L 355.68 66.632726 
L 356.796 64.494549 
L 357.912 62.967282 
L 359.028 64.112732 
L 360.144 61.949091 
L 361.26 60.218174 
L 362.376 59.635047 
L 363.492 58.385461 
L 365.724 59.040004 
L 366.84 58.690907 
L 367.956 59.530911 
L 370.188 59.912728 
L 371.304 59.591198 
L 372.42 59.760005 
L 373.536 59.476366 
L 374.652 60.051569 
L 375.768 59.381512 
L 380.232 58.555153 
L 381.348 58.385461 
L 384.696 57.055257 
L 385.812 56.667266 
L 386.928 56.580493 
L 390.276 57.112732 
L 391.392 56.775629 
L 393.624 56.623221 
L 394.74 56.781823 
L 395.856 57.826697 
L 396.972 57.730918 
L 398.088 58.065799 
L 400.32 57.469085 
L 402.552 57.313118 
L 403.668 57.049083 
L 405.9 56.919268 
L 407.016 53.803641 
L 408.132 53.803641 
L 409.248 50.749087 
L 410.364 49.22182 
L 411.48 50.138177 
L 412.596 50.749087 
L 413.712 49.876363 
L 414.828 49.22182 
L 415.944 48.712725 
L 417.06 49.22182 
L 418.176 48.805298 
L 419.292 49.22182 
L 421.524 48.567277 
L 422.64 48.305464 
L 423.756 48.649095 
L 424.872 48.413257 
L 425.988 48.712725 
L 427.104 48.498378 
L 428.22 48.763632 
L 429.336 48.567277 
L 430.452 48.805298 
L 432.684 49.985454 
L 433.8 50.138177 
L 434.916 50.984061 
L 436.032 51.427875 
L 437.148 51.512721 
L 438.264 51.275742 
L 439.38 51.359998 
L 440.496 52.030035 
L 441.612 51.799093 
L 443.844 51.917012 
L 444.96 51.709095 
L 446.076 51.767278 
L 447.192 51.57464 
L 448.308 51.874442 
L 449.424 51.688961 
L 450.54 52.200003 
L 451.656 52.462622 
L 452.772 52.494555 
L 455.004 52.137514 
L 456.12 52.174539 
L 457.236 52.409178 
L 458.352 52.243871 
L 459.468 52.658191 
L 460.584 52.868565 
L 461.7 52.887265 
L 462.816 44.64 
L 468.396 44.64 
L 469.512 45.949086 
L 472.86 45.556356 
L 478.44 45.250911 
L 479.556 45.212725 
L 481.788 46.167267 
L 484.02 46.014544 
L 485.136 46.385448 
L 487.368 46.233669 
L 488.484 46.549084 
L 489.6 46.472732 
L 490.716 47.10714 
L 491.832 47.35515 
L 492.948 47.258192 
L 495.18 47.694553 
L 496.296 47.596002 
L 498.528 47.972235 
L 506.34 47.389088 
L 515.268 46.9309 
L 517.5 47.205809 
L 518.616 44.64 
L 532.008 44.64 
L 533.124 45.294543 
L 542.052 45.056522 
L 545.4 45.006539 
L 546.516 45.3449 
L 548.748 45.294543 
L 549.864 45.587955 
L 554.328 45.473064 
L 555.444 45.718085 
L 556.56 46.210919 
L 565.488 45.918648 
L 567.72 46.269082 
L 569.952 46.19977 
L 573.3 46.655992 
L 574.416 44.64 
L 578.88 44.64 
L 579.996 46.167267 
L 581.112 45.949086 
L 582.228 48.07637 
L 584.46 47.389088 
L 586.692 46.9309 
L 590.04 46.472732 
L 591.156 47.503645 
L 594.504 47.051474 
L 596.736 47.694553 
L 598.968 49.022614 
L 602.316 48.51692 
L 603.432 48.712725 
L 604.548 48.567277 
L 605.664 48.747843 
L 606.78 49.22182 
L 607.896 49.074013 
L 609.012 49.22182 
L 610.128 49.08298 
L 612.36 50.40001 
L 613.476 50.239992 
L 614.592 50.583977 
L 616.824 50.279161 
L 617.94 50.367271 
L 620.172 50.094544 
L 621.288 50.393914 
L 622.404 50.263135 
L 623.52 50.341827 
L 629.1 49.771638 
L 630.216 44.64 
L 631.332 49.22182 
L 632.448 47.694553 
L 633.564 46.9309 
L 634.68 46.472732 
L 636.912 45.949086 
L 640.26 45.556356 
L 645.84 45.250911 
L 646.956 45.78545 
L 653.652 45.473064 
L 664.812 45.212725 
L 665.928 45.195363 
L 667.044 45.718085 
L 677.088 45.492432 
L 678.204 45.681315 
L 684.9 45.556356 
L 684.9 45.556356 
" clip-path="url(#p4c968a9477)" style="fill: none; stroke: #1f77b4; stroke-opacity: 0.5; stroke-width: 1.5; stroke-linecap: square"/>
   </g>
   <g id="line2d_94">
    <path d="M 128.016 246.24 
L 129.132 189.221821 
L 130.248 157.202287 
L 131.364 161.92302 
L 132.48 160.619687 
L 133.596 159.594675 
L 134.712 156.96431 
L 135.828 152.005162 
L 136.944 148.042983 
L 138.06 148.147351 
L 139.176 150.97386 
L 140.292 150.839291 
L 141.408 148.493147 
L 142.524 145.377259 
L 143.64 143.240257 
L 144.756 141.53878 
L 145.872 141.245159 
L 146.988 140.241473 
L 149.22 135.815089 
L 151.452 137.606897 
L 152.568 136.9411 
L 153.684 136.739018 
L 155.916 137.545538 
L 157.032 137.366254 
L 158.148 136.587765 
L 159.264 135.011104 
L 161.496 132.382551 
L 162.612 132.095658 
L 163.728 131.511636 
L 164.844 130.294696 
L 165.96 130.266018 
L 167.076 130.740944 
L 168.192 130.979827 
L 169.308 130.973598 
L 170.424 130.565482 
L 171.54 130.881042 
L 172.656 131.063001 
L 173.772 131.046576 
L 174.888 131.281084 
L 176.004 132.320212 
L 177.12 131.946035 
L 178.236 131.908692 
L 179.352 131.40757 
L 181.584 131.086708 
L 182.7 130.473599 
L 183.816 114.982061 
L 184.932 107.283193 
L 186.048 112.719879 
L 187.164 111.545942 
L 188.28 118.737806 
L 189.396 115.992626 
L 190.512 113.649839 
L 191.628 119.175281 
L 192.744 122.663062 
L 193.86 121.259572 
L 194.976 119.489985 
L 196.092 118.934796 
L 197.208 117.223733 
L 198.324 117.274312 
L 199.44 118.192659 
L 200.556 116.791411 
L 201.672 116.848276 
L 202.788 116.543665 
L 203.904 115.136064 
L 205.02 114.199915 
L 206.136 114.072697 
L 207.252 113.271303 
L 209.484 110.457691 
L 210.6 111.619606 
L 211.716 112.112692 
L 212.832 111.917912 
L 213.948 110.615512 
L 215.064 110.21115 
L 216.18 109.41098 
L 218.412 108.427421 
L 219.528 107.493077 
L 220.644 107.068606 
L 221.76 106.98584 
L 222.876 106.634916 
L 223.992 106.04816 
L 225.108 105.075146 
L 226.224 104.704389 
L 230.688 102.641045 
L 232.92 103.354465 
L 234.036 102.964964 
L 235.152 102.248183 
L 236.268 101.735844 
L 237.384 101.828789 
L 238.5 101.561467 
L 239.616 80.539635 
L 240.732 74.533398 
L 241.848 77.180978 
L 242.964 80.119239 
L 244.08 80.958742 
L 245.196 85.562234 
L 246.312 87.189205 
L 247.428 87.06964 
L 248.544 85.85366 
L 249.66 86.524417 
L 250.776 86.359038 
L 251.892 86.559723 
L 253.008 85.819867 
L 254.124 84.925161 
L 255.24 84.513687 
L 256.356 85.077938 
L 257.472 85.840758 
L 258.588 85.138911 
L 259.704 85.148919 
L 260.82 85.668523 
L 261.936 85.661137 
L 264.168 85.346906 
L 265.284 85.997816 
L 266.4 85.518338 
L 267.516 85.522328 
L 268.632 85.654002 
L 269.748 84.877771 
L 270.864 84.575372 
L 271.98 83.977382 
L 273.096 84.172513 
L 274.212 84.571371 
L 275.328 84.412604 
L 276.444 83.725525 
L 277.56 83.859247 
L 278.676 83.481861 
L 279.792 83.334724 
L 280.908 82.566445 
L 283.14 81.330637 
L 284.256 80.666271 
L 285.372 80.491663 
L 287.604 80.993255 
L 288.72 80.917547 
L 289.836 80.617656 
L 293.184 79.206595 
L 294.3 79.257993 
L 295.416 54.530855 
L 296.532 50.738687 
L 297.648 57.291574 
L 298.764 62.982008 
L 300.996 68.080168 
L 302.112 68.168366 
L 303.228 69.362392 
L 304.344 69.885355 
L 306.576 71.760581 
L 307.692 72.025097 
L 308.808 71.597187 
L 309.924 71.510882 
L 312.156 70.60367 
L 313.272 70.539474 
L 314.388 70.948944 
L 316.62 71.183021 
L 317.736 70.613331 
L 318.852 70.209718 
L 319.968 70.159078 
L 321.084 69.658441 
L 322.2 69.591764 
L 324.432 69.166392 
L 325.548 69.413777 
L 326.664 69.097532 
L 327.78 68.427861 
L 330.012 67.915861 
L 331.128 67.951406 
L 332.244 67.664032 
L 333.36 67.675437 
L 336.708 66.944628 
L 337.824 66.453314 
L 338.94 66.090564 
L 341.172 66.042632 
L 342.288 65.824799 
L 344.52 65.831947 
L 345.636 65.777847 
L 347.868 66.287888 
L 348.984 66.186896 
L 350.1 66.243533 
L 351.216 63.903353 
L 352.332 63.234731 
L 353.448 69.589139 
L 354.564 68.131956 
L 355.68 67.061078 
L 356.796 65.227843 
L 357.912 63.613156 
L 359.028 63.969996 
L 360.144 62.526492 
L 361.26 60.877693 
L 362.376 59.990089 
L 363.492 58.843926 
L 364.608 58.768194 
L 365.724 58.962344 
L 366.84 58.76846 
L 367.956 59.313068 
L 370.188 59.827107 
L 371.304 59.658601 
L 372.42 59.731033 
L 373.536 59.549128 
L 374.652 59.908014 
L 376.884 59.258479 
L 380.232 58.631018 
L 381.348 58.45562 
L 385.812 56.825847 
L 386.928 56.650594 
L 389.16 56.88524 
L 390.276 57.047735 
L 392.508 56.741971 
L 393.624 56.65715 
L 394.74 56.746202 
L 395.856 57.517984 
L 396.972 57.67008 
L 398.088 57.952737 
L 402.552 57.349501 
L 404.784 57.026303 
L 405.9 56.949849 
L 407.016 54.702558 
L 408.132 54.060474 
L 409.248 51.695198 
L 410.364 49.9285 
L 411.48 50.078269 
L 412.596 50.557425 
L 414.828 49.46443 
L 415.944 48.927498 
L 417.06 49.137728 
L 418.176 48.900278 
L 419.292 49.129951 
L 421.524 48.674864 
L 422.64 48.411007 
L 423.756 48.58107 
L 424.872 48.461204 
L 425.988 48.640862 
L 427.104 48.539088 
L 428.22 48.699477 
L 429.336 48.605049 
L 430.452 48.748084 
L 432.684 49.769255 
L 433.8 50.03277 
L 434.916 50.712263 
L 436.032 51.223414 
L 437.148 51.430062 
L 438.264 51.319833 
L 439.38 51.348522 
L 440.496 51.835317 
L 442.728 51.845435 
L 443.844 51.896562 
L 444.96 51.762657 
L 446.076 51.765958 
L 447.192 51.629302 
L 448.308 51.804402 
L 449.424 51.721944 
L 451.656 52.348563 
L 452.772 52.452843 
L 456.12 52.181482 
L 457.236 52.344122 
L 458.352 52.272514 
L 460.584 52.776975 
L 461.7 52.855753 
L 462.816 46.987358 
L 463.932 45.310674 
L 465.048 44.831621 
L 467.28 44.655643 
L 468.396 44.644469 
L 469.512 45.576338 
L 470.628 45.725704 
L 475.092 45.433095 
L 479.556 45.228959 
L 481.788 45.999001 
L 489.6 46.470336 
L 490.716 46.925196 
L 491.832 47.232306 
L 492.948 47.250796 
L 495.18 47.615335 
L 496.296 47.601526 
L 498.528 47.904782 
L 500.76 47.810716 
L 510.804 47.162877 
L 515.268 46.950747 
L 517.5 47.157512 
L 518.616 45.359289 
L 519.732 44.845511 
L 521.964 44.656776 
L 532.008 44.64 
L 533.124 45.107531 
L 535.356 45.211931 
L 545.4 45.012874 
L 546.516 45.250035 
L 555.444 45.650948 
L 556.56 46.050927 
L 558.792 46.128289 
L 565.488 45.931061 
L 568.836 46.225919 
L 569.952 46.207241 
L 573.3 46.598392 
L 574.416 45.199541 
L 575.532 44.799869 
L 577.764 44.653051 
L 578.88 44.643729 
L 579.996 45.73197 
L 581.112 45.887053 
L 582.228 47.450851 
L 583.344 47.624924 
L 586.692 47.016308 
L 590.04 46.528564 
L 591.156 47.225051 
L 592.272 47.303723 
L 594.504 47.099409 
L 596.736 47.58363 
L 598.968 48.775788 
L 600.084 48.821656 
L 602.316 48.573446 
L 603.432 48.672931 
L 604.548 48.597464 
L 605.664 48.704878 
L 606.78 49.074122 
L 610.128 49.110585 
L 611.244 49.575069 
L 612.36 50.164312 
L 613.476 50.218369 
L 614.592 50.479518 
L 619.056 50.26411 
L 620.172 50.142992 
L 621.288 50.322222 
L 626.868 50.030116 
L 629.1 49.814111 
L 630.216 46.118317 
L 631.332 48.335105 
L 632.448 47.877568 
L 633.564 47.201377 
L 634.68 46.680916 
L 636.912 46.053354 
L 639.144 45.71642 
L 643.608 45.370358 
L 645.84 45.269566 
L 646.956 45.638055 
L 649.188 45.66877 
L 660.348 45.304555 
L 665.928 45.202494 
L 667.044 45.570773 
L 669.276 45.65699 
L 677.088 45.500711 
L 679.32 45.650055 
L 684.9 45.563931 
L 684.9 45.563931 
" clip-path="url(#p4c968a9477)" style="fill: none; stroke: #1f77b4; stroke-width: 1.5; stroke-linecap: square"/>
   </g>
   <g id="line2d_95">
    <path d="M 126.9 115.566538 
L 182.7 95.773082 
L 238.5 87.525817 
L 294.3 92.474176 
L 350.1 71.031268 
L 405.9 84.226911 
L 461.7 82.577458 
L 517.5 72.68072 
L 573.3 87.525817 
L 629.1 82.577458 
" clip-path="url(#p4c968a9477)" style="fill: none; stroke-dasharray: 5.55,2.4; stroke-dashoffset: 0; stroke: #000000; stroke-width: 1.5"/>
    <defs>
     <path id="mc888071e95" d="M 0 3 
C 0.795609 3 1.55874 2.683901 2.12132 2.12132 
C 2.683901 1.55874 3 0.795609 3 0 
C 3 -0.795609 2.683901 -1.55874 2.12132 -2.12132 
C 1.55874 -2.683901 0.795609 -3 0 -3 
C -0.795609 -3 -1.55874 -2.683901 -2.12132 -2.12132 
C -2.683901 -1.55874 -3 -0.795609 -3 0 
C -3 0.795609 -2.683901 1.55874 -2.12132 2.12132 
C -1.55874 2.683901 -0.795609 3 0 3 
z
" style="stroke: #000000"/>
    </defs>
    <g clip-path="url(#p4c968a9477)">
     <use xlink:href="#mc888071e95" x="126.9" y="115.566538" style="stroke: #000000"/>
     <use xlink:href="#mc888071e95" x="182.7" y="95.773082" style="stroke: #000000"/>
     <use xlink:href="#mc888071e95" x="238.5" y="87.525817" style="stroke: #000000"/>
     <use xlink:href="#mc888071e95" x="294.3" y="92.474176" style="stroke: #000000"/>
     <use xlink:href="#mc888071e95" x="350.1" y="71.031268" style="stroke: #000000"/>
     <use xlink:href="#mc888071e95" x="405.9" y="84.226911" style="stroke: #000000"/>
     <use xlink:href="#mc888071e95" x="461.7" y="82.577458" style="stroke: #000000"/>
     <use xlink:href="#mc888071e95" x="517.5" y="72.68072" style="stroke: #000000"/>
     <use xlink:href="#mc888071e95" x="573.3" y="87.525817" style="stroke: #000000"/>
     <use xlink:href="#mc888071e95" x="629.1" y="82.577458" style="stroke: #000000"/>
    </g>
   </g>
   <g id="patch_3">
    <path d="M 99 256.32 
L 99 34.56 
" style="fill: none; stroke: #000000; stroke-width: 0.8; stroke-linejoin: miter; stroke-linecap: square"/>
   </g>
   <g id="patch_4">
    <path d="M 712.8 256.32 
L 712.8 34.56 
" style="fill: none; stroke: #000000; stroke-width: 0.8; stroke-linejoin: miter; stroke-linecap: square"/>
   </g>
   <g id="patch_5">
    <path d="M 99 256.32 
L 712.8 256.32 
" style="fill: none; stroke: #000000; stroke-width: 0.8; stroke-linejoin: miter; stroke-linecap: square"/>
   </g>
   <g id="patch_6">
    <path d="M 99 34.56 
L 712.8 34.56 
" style="fill: none; stroke: #000000; stroke-width: 0.8; stroke-linejoin: miter; stroke-linecap: square"/>
   </g>
   <g id="text_16">
    <!-- TestCNN -->
    <g transform="translate(380.918438 28.56) scale(0.12 -0.12)">
     <defs>
      <path id="DejaVuSans-54" d="M -19 4666 
L 3928 4666 
L 3928 4134 
L 2272 4134 
L 2272 0 
L 1638 0 
L 1638 4134 
L -19 4134 
L -19 4666 
z
" transform="scale(0.015625)"/>
      <path id="DejaVuSans-65" d="M 3597 1894 
L 3597 1613 
L 953 1613 
Q 991 1019 1311 708 
Q 1631 397 2203 397 
Q 2534 397 2845 478 
Q 3156 559 3463 722 
L 3463 178 
Q 3153 47 2828 -22 
Q 2503 -91 2169 -91 
Q 1331 -91 842 396 
Q 353 884 353 1716 
Q 353 2575 817 3079 
Q 1281 3584 2069 3584 
Q 2775 3584 3186 3129 
Q 3597 2675 3597 1894 
z
M 3022 2063 
Q 3016 2534 2758 2815 
Q 2500 3097 2075 3097 
Q 1594 3097 1305 2825 
Q 1016 2553 972 2059 
L 3022 2063 
z
" transform="scale(0.015625)"/>
      <path id="DejaVuSans-73" d="M 2834 3397 
L 2834 2853 
Q 2591 2978 2328 3040 
Q 2066 3103 1784 3103 
Q 1356 3103 1142 2972 
Q 928 2841 928 2578 
Q 928 2378 1081 2264 
Q 1234 2150 1697 2047 
L 1894 2003 
Q 2506 1872 2764 1633 
Q 3022 1394 3022 966 
Q 3022 478 2636 193 
Q 2250 -91 1575 -91 
Q 1294 -91 989 -36 
Q 684 19 347 128 
L 347 722 
Q 666 556 975 473 
Q 1284 391 1588 391 
Q 1994 391 2212 530 
Q 2431 669 2431 922 
Q 2431 1156 2273 1281 
Q 2116 1406 1581 1522 
L 1381 1569 
Q 847 1681 609 1914 
Q 372 2147 372 2553 
Q 372 3047 722 3315 
Q 1072 3584 1716 3584 
Q 2034 3584 2315 3537 
Q 2597 3491 2834 3397 
z
" transform="scale(0.015625)"/>
      <path id="DejaVuSans-74" d="M 1172 4494 
L 1172 3500 
L 2356 3500 
L 2356 3053 
L 1172 3053 
L 1172 1153 
Q 1172 725 1289 603 
Q 1406 481 1766 481 
L 2356 481 
L 2356 0 
L 1766 0 
Q 1100 0 847 248 
Q 594 497 594 1153 
L 594 3053 
L 172 3053 
L 172 3500 
L 594 3500 
L 594 4494 
L 1172 4494 
z
" transform="scale(0.015625)"/>
      <path id="DejaVuSans-43" d="M 4122 4306 
L 4122 3641 
Q 3803 3938 3442 4084 
Q 3081 4231 2675 4231 
Q 1875 4231 1450 3742 
Q 1025 3253 1025 2328 
Q 1025 1406 1450 917 
Q 1875 428 2675 428 
Q 3081 428 3442 575 
Q 3803 722 4122 1019 
L 4122 359 
Q 3791 134 3420 21 
Q 3050 -91 2638 -91 
Q 1578 -91 968 557 
Q 359 1206 359 2328 
Q 359 3453 968 4101 
Q 1578 4750 2638 4750 
Q 3056 4750 3426 4639 
Q 3797 4528 4122 4306 
z
" transform="scale(0.015625)"/>
      <path id="DejaVuSans-4e" d="M 628 4666 
L 1478 4666 
L 3547 763 
L 3547 4666 
L 4159 4666 
L 4159 0 
L 3309 0 
L 1241 3903 
L 1241 0 
L 628 0 
L 628 4666 
z
" transform="scale(0.015625)"/>
     </defs>
     <use xlink:href="#DejaVuSans-54"/>
     <use xlink:href="#DejaVuSans-65" x="44.083984"/>
     <use xlink:href="#DejaVuSans-73" x="105.607422"/>
     <use xlink:href="#DejaVuSans-74" x="157.707031"/>
     <use xlink:href="#DejaVuSans-43" x="196.916016"/>
     <use xlink:href="#DejaVuSans-4e" x="266.740234"/>
     <use xlink:href="#DejaVuSans-4e" x="341.544922"/>
    </g>
   </g>
  </g>
 </g>
 <defs>
  <clipPath id="p4c968a9477">
   <rect x="99" y="34.56" width="613.8" height="221.76"/>
  </clipPath>
 </defs>
</svg>
